%TF.GenerationSoftware,Flux,Pcbnew,9.0.4-9.0.4-0~ubuntu22.04.1*%
%TF.CreationDate,2025-10-04T22:26:03+00:00*%
%TF.ProjectId,input,696e7075-742e-46b6-9963-61645f706362,rev?*%
%TF.SameCoordinates,Original*%
%TF.FileFunction,Copper,L1,Top*%
%TF.FilePolarity,Positive*%
%FSLAX46Y46*%
G04 Gerber Fmt 4.6, Leading zero omitted, Abs format (unit mm)*
G04 Filename: opposite-black-robot-vacuum*
G04 Build it with Flux! Visit our site at: https://www.flux.ai (PCBNEW 9.0.4-9.0.4-0~ubuntu22.04.1) date 2025-10-04 22:26:03*
%MOMM*%
%LPD*%
G01*
G04 APERTURE LIST*
G04 Aperture macros list*
%AMFreePoly0*
4,1,9,0.000462,0.000191,0.000462,-0.000191,0.000191,-0.000462,-0.000191,-0.000462,-0.000462,-0.000191,-0.000462,0.000191,-0.000191,0.000462,0.000191,0.000462,0.000462,0.000191,0.000462,0.000191,$1*%
G04 Aperture macros list end*
%TA.AperFunction,EtchedComponent*%
%ADD10C,0.000000*%
%TD*%
%TA.AperFunction,SMDPad,CuDef*%
%ADD11FreePoly0,90.000000*%
%TD*%
%TA.AperFunction,SMDPad,CuDef*%
%ADD12FreePoly0,0.000000*%
%TD*%
G04 APERTURE END LIST*
D10*
%TA.AperFunction,EtchedComponent*%
%TO.C,*%
G36*
X-14059078Y5230018D02*
G01*
X-24059078Y5229982D01*
X-24059122Y17229982D01*
X-14059122Y17230018D01*
X-14059078Y5230018D01*
G37*
%TD.AperFunction*%
%TA.AperFunction,EtchedComponent*%
G36*
X-7759094Y9480006D02*
G01*
X-10759094Y9479994D01*
X-10759106Y12979994D01*
X-7759106Y12980006D01*
X-7759094Y9480006D01*
G37*
%TD.AperFunction*%
%TA.AperFunction,EtchedComponent*%
G36*
X18758000Y4983900D02*
G01*
X17128000Y4983900D01*
X17128000Y7683900D01*
X18758000Y7683900D01*
X18758000Y4983900D01*
G37*
%TD.AperFunction*%
%TA.AperFunction,EtchedComponent*%
G36*
X15718000Y4983900D02*
G01*
X14088000Y4983900D01*
X14088000Y7683900D01*
X15718000Y7683900D01*
X15718000Y4983900D01*
G37*
%TD.AperFunction*%
%TA.AperFunction,EtchedComponent*%
G36*
X-28794600Y-6558600D02*
G01*
X-29594600Y-6558600D01*
X-29594600Y-5658600D01*
X-28794600Y-5658600D01*
X-28794600Y-6558600D01*
G37*
%TD.AperFunction*%
%TA.AperFunction,EtchedComponent*%
G36*
X-27394600Y-6558600D02*
G01*
X-28194600Y-6558600D01*
X-28194600Y-5658600D01*
X-27394600Y-5658600D01*
X-27394600Y-6558600D01*
G37*
%TD.AperFunction*%
%TA.AperFunction,EtchedComponent*%
G36*
X18641900Y-4524900D02*
G01*
X17601900Y-4524900D01*
X17601900Y-3504900D01*
X18641900Y-3504900D01*
X18641900Y-4524900D01*
G37*
%TD.AperFunction*%
%TA.AperFunction,EtchedComponent*%
G36*
X20111900Y-4524900D02*
G01*
X19071900Y-4524900D01*
X19071900Y-3504900D01*
X20111900Y-3504900D01*
X20111900Y-4524900D01*
G37*
%TD.AperFunction*%
%TA.AperFunction,EtchedComponent*%
G36*
X21292400Y2432600D02*
G01*
X20432400Y2432600D01*
X20432400Y3412600D01*
X21292400Y3412600D01*
X21292400Y2432600D01*
G37*
%TD.AperFunction*%
%TA.AperFunction,EtchedComponent*%
G36*
X22822400Y2432600D02*
G01*
X21962400Y2432600D01*
X21962400Y3412600D01*
X22822400Y3412600D01*
X22822400Y2432600D01*
G37*
%TD.AperFunction*%
%TA.AperFunction,EtchedComponent*%
G36*
X-5210300Y10083300D02*
G01*
X-7710300Y10083300D01*
X-7710300Y12383300D01*
X-5210300Y12383300D01*
X-5210300Y10083300D01*
G37*
%TD.AperFunction*%
%TA.AperFunction,EtchedComponent*%
G36*
X-910300Y10083300D02*
G01*
X-3410300Y10083300D01*
X-3410300Y12383300D01*
X-910300Y12383300D01*
X-910300Y10083300D01*
G37*
%TD.AperFunction*%
%TA.AperFunction,EtchedComponent*%
G36*
X-31838200Y8852100D02*
G01*
X-31832200Y8851100D01*
X-31818200Y8847100D01*
X-31812200Y8845100D01*
X-31806200Y8842100D01*
X-31799200Y8839100D01*
X-31794200Y8835100D01*
X-31788200Y8831100D01*
X-31783200Y8827100D01*
X-31773200Y8817100D01*
X-31769200Y8812100D01*
X-31765200Y8806100D01*
X-31761200Y8801100D01*
X-31758200Y8794100D01*
X-31755200Y8788100D01*
X-31753200Y8782100D01*
X-31749200Y8768100D01*
X-31748200Y8762100D01*
X-31747200Y8755100D01*
X-31747200Y7751100D01*
X-31748200Y7744100D01*
X-31749200Y7738100D01*
X-31753200Y7724100D01*
X-31755200Y7718100D01*
X-31761200Y7706100D01*
X-31769200Y7694100D01*
X-31773200Y7689100D01*
X-31783200Y7679100D01*
X-31788200Y7675100D01*
X-31794200Y7671100D01*
X-31799200Y7667100D01*
X-31806200Y7664100D01*
X-31812200Y7661100D01*
X-31818200Y7659100D01*
X-31832200Y7655100D01*
X-31838200Y7654100D01*
X-31845200Y7653100D01*
X-33049200Y7653100D01*
X-33056200Y7654100D01*
X-33062200Y7655100D01*
X-33076200Y7659100D01*
X-33082200Y7661100D01*
X-33088200Y7664100D01*
X-33095200Y7667100D01*
X-33100200Y7671100D01*
X-33106200Y7675100D01*
X-33111200Y7679100D01*
X-33121200Y7689100D01*
X-33125200Y7694100D01*
X-33133200Y7706100D01*
X-33139200Y7718100D01*
X-33141200Y7724100D01*
X-33145200Y7738100D01*
X-33146200Y7744100D01*
X-33147200Y7751100D01*
X-33147200Y8755100D01*
X-33146200Y8762100D01*
X-33145200Y8768100D01*
X-33141200Y8782100D01*
X-33139200Y8788100D01*
X-33136200Y8794100D01*
X-33133200Y8801100D01*
X-33129200Y8806100D01*
X-33125200Y8812100D01*
X-33121200Y8817100D01*
X-33111200Y8827100D01*
X-33106200Y8831100D01*
X-33100200Y8835100D01*
X-33095200Y8839100D01*
X-33088200Y8842100D01*
X-33082200Y8845100D01*
X-33076200Y8847100D01*
X-33062200Y8851100D01*
X-33056200Y8852100D01*
X-33049200Y8853100D01*
X-31845200Y8853100D01*
X-31838200Y8852100D01*
G37*
%TD.AperFunction*%
%TA.AperFunction,EtchedComponent*%
G36*
X-31838200Y6852100D02*
G01*
X-31832200Y6851100D01*
X-31818200Y6847100D01*
X-31812200Y6845100D01*
X-31806200Y6842100D01*
X-31799200Y6839100D01*
X-31794200Y6835100D01*
X-31788200Y6831100D01*
X-31783200Y6827100D01*
X-31773200Y6817100D01*
X-31769200Y6812100D01*
X-31765200Y6806100D01*
X-31761200Y6801100D01*
X-31758200Y6794100D01*
X-31755200Y6788100D01*
X-31753200Y6782100D01*
X-31749200Y6768100D01*
X-31748200Y6762100D01*
X-31747200Y6755100D01*
X-31747200Y5751100D01*
X-31748200Y5744100D01*
X-31749200Y5738100D01*
X-31753200Y5724100D01*
X-31755200Y5718100D01*
X-31761200Y5706100D01*
X-31769200Y5694100D01*
X-31773200Y5689100D01*
X-31783200Y5679100D01*
X-31788200Y5675100D01*
X-31794200Y5671100D01*
X-31799200Y5667100D01*
X-31806200Y5664100D01*
X-31812200Y5661100D01*
X-31818200Y5659100D01*
X-31832200Y5655100D01*
X-31838200Y5654100D01*
X-31845200Y5653100D01*
X-33049200Y5653100D01*
X-33056200Y5654100D01*
X-33062200Y5655100D01*
X-33076200Y5659100D01*
X-33082200Y5661100D01*
X-33088200Y5664100D01*
X-33095200Y5667100D01*
X-33100200Y5671100D01*
X-33106200Y5675100D01*
X-33111200Y5679100D01*
X-33121200Y5689100D01*
X-33125200Y5694100D01*
X-33133200Y5706100D01*
X-33139200Y5718100D01*
X-33141200Y5724100D01*
X-33145200Y5738100D01*
X-33146200Y5744100D01*
X-33147200Y5751100D01*
X-33147200Y6755100D01*
X-33146200Y6762100D01*
X-33145200Y6768100D01*
X-33141200Y6782100D01*
X-33139200Y6788100D01*
X-33136200Y6794100D01*
X-33133200Y6801100D01*
X-33129200Y6806100D01*
X-33125200Y6812100D01*
X-33121200Y6817100D01*
X-33111200Y6827100D01*
X-33106200Y6831100D01*
X-33100200Y6835100D01*
X-33095200Y6839100D01*
X-33088200Y6842100D01*
X-33082200Y6845100D01*
X-33076200Y6847100D01*
X-33062200Y6851100D01*
X-33056200Y6852100D01*
X-33049200Y6853100D01*
X-31845200Y6853100D01*
X-31838200Y6852100D01*
G37*
%TD.AperFunction*%
%TA.AperFunction,EtchedComponent*%
G36*
X-31838200Y4852100D02*
G01*
X-31832200Y4851100D01*
X-31818200Y4847100D01*
X-31812200Y4845100D01*
X-31806200Y4842100D01*
X-31799200Y4839100D01*
X-31794200Y4835100D01*
X-31788200Y4831100D01*
X-31783200Y4827100D01*
X-31773200Y4817100D01*
X-31769200Y4812100D01*
X-31765200Y4806100D01*
X-31761200Y4801100D01*
X-31758200Y4794100D01*
X-31755200Y4788100D01*
X-31753200Y4782100D01*
X-31749200Y4768100D01*
X-31748200Y4762100D01*
X-31747200Y4755100D01*
X-31747200Y3751100D01*
X-31748200Y3744100D01*
X-31749200Y3738100D01*
X-31753200Y3724100D01*
X-31755200Y3718100D01*
X-31761200Y3706100D01*
X-31769200Y3694100D01*
X-31773200Y3689100D01*
X-31783200Y3679100D01*
X-31788200Y3675100D01*
X-31794200Y3671100D01*
X-31799200Y3667100D01*
X-31806200Y3664100D01*
X-31812200Y3661100D01*
X-31818200Y3659100D01*
X-31832200Y3655100D01*
X-31838200Y3654100D01*
X-31845200Y3653100D01*
X-33049200Y3653100D01*
X-33056200Y3654100D01*
X-33062200Y3655100D01*
X-33076200Y3659100D01*
X-33082200Y3661100D01*
X-33088200Y3664100D01*
X-33095200Y3667100D01*
X-33100200Y3671100D01*
X-33106200Y3675100D01*
X-33111200Y3679100D01*
X-33121200Y3689100D01*
X-33125200Y3694100D01*
X-33133200Y3706100D01*
X-33139200Y3718100D01*
X-33141200Y3724100D01*
X-33145200Y3738100D01*
X-33146200Y3744100D01*
X-33147200Y3751100D01*
X-33147200Y4755100D01*
X-33146200Y4762100D01*
X-33145200Y4768100D01*
X-33141200Y4782100D01*
X-33139200Y4788100D01*
X-33136200Y4794100D01*
X-33133200Y4801100D01*
X-33129200Y4806100D01*
X-33125200Y4812100D01*
X-33121200Y4817100D01*
X-33111200Y4827100D01*
X-33106200Y4831100D01*
X-33100200Y4835100D01*
X-33095200Y4839100D01*
X-33088200Y4842100D01*
X-33082200Y4845100D01*
X-33076200Y4847100D01*
X-33062200Y4851100D01*
X-33056200Y4852100D01*
X-33049200Y4853100D01*
X-31845200Y4853100D01*
X-31838200Y4852100D01*
G37*
%TD.AperFunction*%
%TA.AperFunction,EtchedComponent*%
G36*
X-31838200Y2852100D02*
G01*
X-31832200Y2851100D01*
X-31818200Y2847100D01*
X-31812200Y2845100D01*
X-31806200Y2842100D01*
X-31799200Y2839100D01*
X-31794200Y2835100D01*
X-31788200Y2831100D01*
X-31783200Y2827100D01*
X-31773200Y2817100D01*
X-31769200Y2812100D01*
X-31765200Y2806100D01*
X-31761200Y2801100D01*
X-31758200Y2794100D01*
X-31755200Y2788100D01*
X-31753200Y2782100D01*
X-31749200Y2768100D01*
X-31748200Y2762100D01*
X-31747200Y2755100D01*
X-31747200Y1751100D01*
X-31748200Y1744100D01*
X-31749200Y1738100D01*
X-31753200Y1724100D01*
X-31755200Y1718100D01*
X-31761200Y1706100D01*
X-31769200Y1694100D01*
X-31773200Y1689100D01*
X-31783200Y1679100D01*
X-31788200Y1675100D01*
X-31794200Y1671100D01*
X-31799200Y1667100D01*
X-31806200Y1664100D01*
X-31812200Y1661100D01*
X-31818200Y1659100D01*
X-31832200Y1655100D01*
X-31838200Y1654100D01*
X-31845200Y1653100D01*
X-33049200Y1653100D01*
X-33056200Y1654100D01*
X-33062200Y1655100D01*
X-33076200Y1659100D01*
X-33082200Y1661100D01*
X-33088200Y1664100D01*
X-33095200Y1667100D01*
X-33100200Y1671100D01*
X-33106200Y1675100D01*
X-33111200Y1679100D01*
X-33121200Y1689100D01*
X-33125200Y1694100D01*
X-33133200Y1706100D01*
X-33139200Y1718100D01*
X-33141200Y1724100D01*
X-33145200Y1738100D01*
X-33146200Y1744100D01*
X-33147200Y1751100D01*
X-33147200Y2755100D01*
X-33146200Y2762100D01*
X-33145200Y2768100D01*
X-33141200Y2782100D01*
X-33139200Y2788100D01*
X-33136200Y2794100D01*
X-33133200Y2801100D01*
X-33129200Y2806100D01*
X-33125200Y2812100D01*
X-33121200Y2817100D01*
X-33111200Y2827100D01*
X-33106200Y2831100D01*
X-33100200Y2835100D01*
X-33095200Y2839100D01*
X-33088200Y2842100D01*
X-33082200Y2845100D01*
X-33076200Y2847100D01*
X-33062200Y2851100D01*
X-33056200Y2852100D01*
X-33049200Y2853100D01*
X-31845200Y2853100D01*
X-31838200Y2852100D01*
G37*
%TD.AperFunction*%
%TA.AperFunction,EtchedComponent*%
G36*
X-24589200Y4602100D02*
G01*
X-24569200Y4598100D01*
X-24559200Y4595100D01*
X-24549200Y4591100D01*
X-24540200Y4587100D01*
X-24531200Y4582100D01*
X-24522200Y4576100D01*
X-24506200Y4564100D01*
X-24498200Y4557100D01*
X-24491200Y4549100D01*
X-24479200Y4533100D01*
X-24473200Y4524100D01*
X-24468200Y4515100D01*
X-24464200Y4506100D01*
X-24460200Y4496100D01*
X-24457200Y4486100D01*
X-24453200Y4466100D01*
X-24452200Y4456100D01*
X-24452200Y2650100D01*
X-24453200Y2640100D01*
X-24457200Y2620100D01*
X-24460200Y2610100D01*
X-24464200Y2600100D01*
X-24468200Y2591100D01*
X-24473200Y2582100D01*
X-24479200Y2573100D01*
X-24491200Y2557100D01*
X-24498200Y2549100D01*
X-24506200Y2542100D01*
X-24522200Y2530100D01*
X-24531200Y2524100D01*
X-24540200Y2519100D01*
X-24549200Y2515100D01*
X-24559200Y2511100D01*
X-24569200Y2508100D01*
X-24589200Y2504100D01*
X-24599200Y2503100D01*
X-25005200Y2503100D01*
X-25015200Y2504100D01*
X-25035200Y2508100D01*
X-25045200Y2511100D01*
X-25055200Y2515100D01*
X-25064200Y2519100D01*
X-25073200Y2524100D01*
X-25082200Y2530100D01*
X-25098200Y2542100D01*
X-25106200Y2549100D01*
X-25113200Y2557100D01*
X-25125200Y2573100D01*
X-25131200Y2582100D01*
X-25136200Y2591100D01*
X-25140200Y2600100D01*
X-25144200Y2610100D01*
X-25147200Y2620100D01*
X-25151200Y2640100D01*
X-25152200Y2650100D01*
X-25152200Y4456100D01*
X-25151200Y4466100D01*
X-25147200Y4486100D01*
X-25144200Y4496100D01*
X-25140200Y4506100D01*
X-25136200Y4515100D01*
X-25131200Y4524100D01*
X-25125200Y4533100D01*
X-25113200Y4549100D01*
X-25106200Y4557100D01*
X-25098200Y4564100D01*
X-25082200Y4576100D01*
X-25073200Y4582100D01*
X-25064200Y4587100D01*
X-25055200Y4591100D01*
X-25045200Y4595100D01*
X-25035200Y4598100D01*
X-25015200Y4602100D01*
X-25005200Y4603100D01*
X-24599200Y4603100D01*
X-24589200Y4602100D01*
G37*
%TD.AperFunction*%
%TD*%
D11*
%TO.P,,A*%
%TO.N,N/C*%
X-19059100Y11230000D03*
%TO.P,,K*%
X-9259100Y11230000D03*
D12*
%TO.P,,2*%
X17943000Y6333900D03*
%TO.P,,1*%
X14903000Y6333900D03*
X-29194600Y-6108600D03*
%TO.P,,2*%
X-27794600Y-6108600D03*
%TO.P,,P1*%
X18121900Y-4014900D03*
%TO.P,,P2*%
X19591900Y-4014900D03*
%TO.P,,P1*%
X20862400Y2922600D03*
%TO.P,,P2*%
X22392400Y2922600D03*
%TO.P,,K*%
X-6460300Y11233300D03*
%TO.P,,A*%
X-2160300Y11233300D03*
%TO.P,,G*%
X-32447200Y8253100D03*
%TO.P,,S*%
X-32447200Y6253100D03*
X-32447200Y4253100D03*
X-32447200Y2253100D03*
%TO.P,,D*%
X-24802200Y3553100D03*
%TD*%
M02*
