%TF.GenerationSoftware,Flux,Pcbnew,9.0.4-9.0.4-0~ubuntu22.04.1*%
%TF.CreationDate,2025-10-04T22:26:05+00:00*%
%TF.ProjectId,input,696e7075-742e-46b6-9963-61645f706362,rev?*%
%TF.SameCoordinates,Original*%
%TF.FileFunction,Legend,Top*%
%TF.FilePolarity,Positive*%
%FSLAX46Y46*%
G04 Gerber Fmt 4.6, Leading zero omitted, Abs format (unit mm)*
G04 Filename: opposite-black-robot-vacuum*
G04 Build it with Flux! Visit our site at: https://www.flux.ai (PCBNEW 9.0.4-9.0.4-0~ubuntu22.04.1) date 2025-10-04 22:26:05*
%MOMM*%
%LPD*%
G01*
G04 APERTURE LIST*
%ADD10C,0.095000*%
%ADD11C,0.037402*%
%ADD12C,0.060000*%
%ADD13C,0.250000*%
%ADD14C,0.150000*%
%ADD15C,0.127000*%
%ADD16C,0.120000*%
%ADD17C,0.050000*%
%ADD18C,0.100000*%
G04 APERTURE END LIST*
D10*
X-14749575Y10864844D02*
X-14749575Y11664844D01*
X-14749575Y11664844D02*
X-14559099Y11664844D01*
X-14559099Y11664844D02*
X-14444813Y11626749D01*
X-14444813Y11626749D02*
X-14368623Y11550559D01*
X-14368623Y11550559D02*
X-14330528Y11474368D01*
X-14330528Y11474368D02*
X-14292432Y11321987D01*
X-14292432Y11321987D02*
X-14292432Y11207701D01*
X-14292432Y11207701D02*
X-14330528Y11055320D01*
X-14330528Y11055320D02*
X-14368623Y10979130D01*
X-14368623Y10979130D02*
X-14444813Y10902940D01*
X-14444813Y10902940D02*
X-14559099Y10864844D01*
X-14559099Y10864844D02*
X-14749575Y10864844D01*
X-13530528Y10864844D02*
X-13987671Y10864844D01*
X-13759099Y10864844D02*
X-13759099Y11664844D01*
X-13759099Y11664844D02*
X-13835290Y11550559D01*
X-13835290Y11550559D02*
X-13911480Y11474368D01*
X-13911480Y11474368D02*
X-13987671Y11436273D01*
X-14749575Y14864844D02*
X-14749575Y15664844D01*
X-14749575Y15664844D02*
X-14559099Y15664844D01*
X-14559099Y15664844D02*
X-14444813Y15626749D01*
X-14444813Y15626749D02*
X-14368623Y15550559D01*
X-14368623Y15550559D02*
X-14330528Y15474368D01*
X-14330528Y15474368D02*
X-14292432Y15321987D01*
X-14292432Y15321987D02*
X-14292432Y15207701D01*
X-14292432Y15207701D02*
X-14330528Y15055320D01*
X-14330528Y15055320D02*
X-14368623Y14979130D01*
X-14368623Y14979130D02*
X-14444813Y14902940D01*
X-14444813Y14902940D02*
X-14559099Y14864844D01*
X-14559099Y14864844D02*
X-14749575Y14864844D01*
X-13530528Y14864844D02*
X-13987671Y14864844D01*
X-13759099Y14864844D02*
X-13759099Y15664844D01*
X-13759099Y15664844D02*
X-13835290Y15550559D01*
X-13835290Y15550559D02*
X-13911480Y15474368D01*
X-13911480Y15474368D02*
X-13987671Y15436273D01*
X16289667Y10044935D02*
X16251571Y10006840D01*
X16251571Y10006840D02*
X16137286Y9968744D01*
X16137286Y9968744D02*
X16061095Y9968744D01*
X16061095Y9968744D02*
X15946809Y10006840D01*
X15946809Y10006840D02*
X15870619Y10083030D01*
X15870619Y10083030D02*
X15832524Y10159220D01*
X15832524Y10159220D02*
X15794428Y10311601D01*
X15794428Y10311601D02*
X15794428Y10425887D01*
X15794428Y10425887D02*
X15832524Y10578268D01*
X15832524Y10578268D02*
X15870619Y10654459D01*
X15870619Y10654459D02*
X15946809Y10730649D01*
X15946809Y10730649D02*
X16061095Y10768744D01*
X16061095Y10768744D02*
X16137286Y10768744D01*
X16137286Y10768744D02*
X16251571Y10730649D01*
X16251571Y10730649D02*
X16289667Y10692554D01*
X16975381Y10502078D02*
X16975381Y9968744D01*
X16784905Y10806840D02*
X16594428Y10235411D01*
X16594428Y10235411D02*
X17089667Y10235411D01*
X15565856Y1968744D02*
X15108713Y1968744D01*
X15337285Y1968744D02*
X15337285Y2768744D01*
X15337285Y2768744D02*
X15261094Y2654459D01*
X15261094Y2654459D02*
X15184904Y2578268D01*
X15184904Y2578268D02*
X15108713Y2540173D01*
X16061095Y2768744D02*
X16137285Y2768744D01*
X16137285Y2768744D02*
X16213476Y2730649D01*
X16213476Y2730649D02*
X16251571Y2692554D01*
X16251571Y2692554D02*
X16289666Y2616363D01*
X16289666Y2616363D02*
X16327761Y2463982D01*
X16327761Y2463982D02*
X16327761Y2273506D01*
X16327761Y2273506D02*
X16289666Y2121125D01*
X16289666Y2121125D02*
X16251571Y2044935D01*
X16251571Y2044935D02*
X16213476Y2006840D01*
X16213476Y2006840D02*
X16137285Y1968744D01*
X16137285Y1968744D02*
X16061095Y1968744D01*
X16061095Y1968744D02*
X15984904Y2006840D01*
X15984904Y2006840D02*
X15946809Y2044935D01*
X15946809Y2044935D02*
X15908714Y2121125D01*
X15908714Y2121125D02*
X15870618Y2273506D01*
X15870618Y2273506D02*
X15870618Y2463982D01*
X15870618Y2463982D02*
X15908714Y2616363D01*
X15908714Y2616363D02*
X15946809Y2692554D01*
X15946809Y2692554D02*
X15984904Y2730649D01*
X15984904Y2730649D02*
X16061095Y2768744D01*
X17013476Y2502078D02*
X17013476Y1968744D01*
X16670619Y2502078D02*
X16670619Y2083030D01*
X16670619Y2083030D02*
X16708714Y2006840D01*
X16708714Y2006840D02*
X16784904Y1968744D01*
X16784904Y1968744D02*
X16899190Y1968744D01*
X16899190Y1968744D02*
X16975381Y2006840D01*
X16975381Y2006840D02*
X17013476Y2044935D01*
X17661095Y2387792D02*
X17394429Y2387792D01*
X17394429Y1968744D02*
X17394429Y2768744D01*
X17394429Y2768744D02*
X17775381Y2768744D01*
X16289667Y6044935D02*
X16251571Y6006840D01*
X16251571Y6006840D02*
X16137286Y5968744D01*
X16137286Y5968744D02*
X16061095Y5968744D01*
X16061095Y5968744D02*
X15946809Y6006840D01*
X15946809Y6006840D02*
X15870619Y6083030D01*
X15870619Y6083030D02*
X15832524Y6159220D01*
X15832524Y6159220D02*
X15794428Y6311601D01*
X15794428Y6311601D02*
X15794428Y6425887D01*
X15794428Y6425887D02*
X15832524Y6578268D01*
X15832524Y6578268D02*
X15870619Y6654459D01*
X15870619Y6654459D02*
X15946809Y6730649D01*
X15946809Y6730649D02*
X16061095Y6768744D01*
X16061095Y6768744D02*
X16137286Y6768744D01*
X16137286Y6768744D02*
X16251571Y6730649D01*
X16251571Y6730649D02*
X16289667Y6692554D01*
X16975381Y6502078D02*
X16975381Y5968744D01*
X16784905Y6806840D02*
X16594428Y6235411D01*
X16594428Y6235411D02*
X17089667Y6235411D01*
X-28627932Y-2397564D02*
X-28666028Y-2435660D01*
X-28666028Y-2435660D02*
X-28780313Y-2473755D01*
X-28780313Y-2473755D02*
X-28856504Y-2473755D01*
X-28856504Y-2473755D02*
X-28970790Y-2435660D01*
X-28970790Y-2435660D02*
X-29046980Y-2359469D01*
X-29046980Y-2359469D02*
X-29085075Y-2283279D01*
X-29085075Y-2283279D02*
X-29123171Y-2130898D01*
X-29123171Y-2130898D02*
X-29123171Y-2016612D01*
X-29123171Y-2016612D02*
X-29085075Y-1864231D01*
X-29085075Y-1864231D02*
X-29046980Y-1788040D01*
X-29046980Y-1788040D02*
X-28970790Y-1711850D01*
X-28970790Y-1711850D02*
X-28856504Y-1673755D01*
X-28856504Y-1673755D02*
X-28780313Y-1673755D01*
X-28780313Y-1673755D02*
X-28666028Y-1711850D01*
X-28666028Y-1711850D02*
X-28627932Y-1749945D01*
X-28361266Y-1673755D02*
X-27866028Y-1673755D01*
X-27866028Y-1673755D02*
X-28132694Y-1978517D01*
X-28132694Y-1978517D02*
X-28018409Y-1978517D01*
X-28018409Y-1978517D02*
X-27942218Y-2016612D01*
X-27942218Y-2016612D02*
X-27904123Y-2054707D01*
X-27904123Y-2054707D02*
X-27866028Y-2130898D01*
X-27866028Y-2130898D02*
X-27866028Y-2321374D01*
X-27866028Y-2321374D02*
X-27904123Y-2397564D01*
X-27904123Y-2397564D02*
X-27942218Y-2435660D01*
X-27942218Y-2435660D02*
X-28018409Y-2473755D01*
X-28018409Y-2473755D02*
X-28246980Y-2473755D01*
X-28246980Y-2473755D02*
X-28323171Y-2435660D01*
X-28323171Y-2435660D02*
X-28361266Y-2397564D01*
X-28627932Y-6397564D02*
X-28666028Y-6435660D01*
X-28666028Y-6435660D02*
X-28780313Y-6473755D01*
X-28780313Y-6473755D02*
X-28856504Y-6473755D01*
X-28856504Y-6473755D02*
X-28970790Y-6435660D01*
X-28970790Y-6435660D02*
X-29046980Y-6359469D01*
X-29046980Y-6359469D02*
X-29085075Y-6283279D01*
X-29085075Y-6283279D02*
X-29123171Y-6130898D01*
X-29123171Y-6130898D02*
X-29123171Y-6016612D01*
X-29123171Y-6016612D02*
X-29085075Y-5864231D01*
X-29085075Y-5864231D02*
X-29046980Y-5788040D01*
X-29046980Y-5788040D02*
X-28970790Y-5711850D01*
X-28970790Y-5711850D02*
X-28856504Y-5673755D01*
X-28856504Y-5673755D02*
X-28780313Y-5673755D01*
X-28780313Y-5673755D02*
X-28666028Y-5711850D01*
X-28666028Y-5711850D02*
X-28627932Y-5749945D01*
X-28361266Y-5673755D02*
X-27866028Y-5673755D01*
X-27866028Y-5673755D02*
X-28132694Y-5978517D01*
X-28132694Y-5978517D02*
X-28018409Y-5978517D01*
X-28018409Y-5978517D02*
X-27942218Y-6016612D01*
X-27942218Y-6016612D02*
X-27904123Y-6054707D01*
X-27904123Y-6054707D02*
X-27866028Y-6130898D01*
X-27866028Y-6130898D02*
X-27866028Y-6321374D01*
X-27866028Y-6321374D02*
X-27904123Y-6397564D01*
X-27904123Y-6397564D02*
X-27942218Y-6435660D01*
X-27942218Y-6435660D02*
X-28018409Y-6473755D01*
X-28018409Y-6473755D02*
X-28246980Y-6473755D01*
X-28246980Y-6473755D02*
X-28323171Y-6435660D01*
X-28323171Y-6435660D02*
X-28361266Y-6397564D01*
D11*
X18804406Y-3058662D02*
X18699419Y-2908681D01*
X18624429Y-3058662D02*
X18624429Y-2743702D01*
X18624429Y-2743702D02*
X18744414Y-2743702D01*
X18744414Y-2743702D02*
X18774410Y-2758700D01*
X18774410Y-2758700D02*
X18789408Y-2773698D01*
X18789408Y-2773698D02*
X18804406Y-2803694D01*
X18804406Y-2803694D02*
X18804406Y-2848688D01*
X18804406Y-2848688D02*
X18789408Y-2878684D01*
X18789408Y-2878684D02*
X18774410Y-2893683D01*
X18774410Y-2893683D02*
X18744414Y-2908681D01*
X18744414Y-2908681D02*
X18624429Y-2908681D01*
X19074372Y-2848688D02*
X19074372Y-3058662D01*
X18999381Y-2728704D02*
X18924391Y-2953675D01*
X18924391Y-2953675D02*
X19119366Y-2953675D01*
X18339465Y-5258662D02*
X18159488Y-5258662D01*
X18249476Y-5258662D02*
X18249476Y-4943702D01*
X18249476Y-4943702D02*
X18219480Y-4988696D01*
X18219480Y-4988696D02*
X18189484Y-5018692D01*
X18189484Y-5018692D02*
X18159488Y-5033690D01*
X18534440Y-4943702D02*
X18564437Y-4943702D01*
X18564437Y-4943702D02*
X18594433Y-4958700D01*
X18594433Y-4958700D02*
X18609431Y-4973698D01*
X18609431Y-4973698D02*
X18624429Y-5003694D01*
X18624429Y-5003694D02*
X18639427Y-5063686D01*
X18639427Y-5063686D02*
X18639427Y-5138677D01*
X18639427Y-5138677D02*
X18624429Y-5198669D01*
X18624429Y-5198669D02*
X18609431Y-5228665D01*
X18609431Y-5228665D02*
X18594433Y-5243664D01*
X18594433Y-5243664D02*
X18564437Y-5258662D01*
X18564437Y-5258662D02*
X18534440Y-5258662D01*
X18534440Y-5258662D02*
X18504444Y-5243664D01*
X18504444Y-5243664D02*
X18489446Y-5228665D01*
X18489446Y-5228665D02*
X18474448Y-5198669D01*
X18474448Y-5198669D02*
X18459450Y-5138677D01*
X18459450Y-5138677D02*
X18459450Y-5063686D01*
X18459450Y-5063686D02*
X18474448Y-5003694D01*
X18474448Y-5003694D02*
X18489446Y-4973698D01*
X18489446Y-4973698D02*
X18504444Y-4958700D01*
X18504444Y-4958700D02*
X18534440Y-4943702D01*
X18834402Y-4943702D02*
X18864399Y-4943702D01*
X18864399Y-4943702D02*
X18894395Y-4958700D01*
X18894395Y-4958700D02*
X18909393Y-4973698D01*
X18909393Y-4973698D02*
X18924391Y-5003694D01*
X18924391Y-5003694D02*
X18939389Y-5063686D01*
X18939389Y-5063686D02*
X18939389Y-5138677D01*
X18939389Y-5138677D02*
X18924391Y-5198669D01*
X18924391Y-5198669D02*
X18909393Y-5228665D01*
X18909393Y-5228665D02*
X18894395Y-5243664D01*
X18894395Y-5243664D02*
X18864399Y-5258662D01*
X18864399Y-5258662D02*
X18834402Y-5258662D01*
X18834402Y-5258662D02*
X18804406Y-5243664D01*
X18804406Y-5243664D02*
X18789408Y-5228665D01*
X18789408Y-5228665D02*
X18774410Y-5198669D01*
X18774410Y-5198669D02*
X18759412Y-5138677D01*
X18759412Y-5138677D02*
X18759412Y-5063686D01*
X18759412Y-5063686D02*
X18774410Y-5003694D01*
X18774410Y-5003694D02*
X18789408Y-4973698D01*
X18789408Y-4973698D02*
X18804406Y-4958700D01*
X18804406Y-4958700D02*
X18834402Y-4943702D01*
X19074372Y-5258662D02*
X19074372Y-4943702D01*
X19104368Y-5138677D02*
X19194357Y-5258662D01*
X19194357Y-5048688D02*
X19074372Y-5168673D01*
X19314342Y-5258662D02*
X19389332Y-5258662D01*
X19389332Y-5258662D02*
X19389332Y-5198669D01*
X19389332Y-5198669D02*
X19359336Y-5183671D01*
X19359336Y-5183671D02*
X19329340Y-5153675D01*
X19329340Y-5153675D02*
X19314342Y-5108681D01*
X19314342Y-5108681D02*
X19314342Y-5033690D01*
X19314342Y-5033690D02*
X19329340Y-4988696D01*
X19329340Y-4988696D02*
X19359336Y-4958700D01*
X19359336Y-4958700D02*
X19404330Y-4943702D01*
X19404330Y-4943702D02*
X19464323Y-4943702D01*
X19464323Y-4943702D02*
X19509317Y-4958700D01*
X19509317Y-4958700D02*
X19539313Y-4988696D01*
X19539313Y-4988696D02*
X19554311Y-5033690D01*
X19554311Y-5033690D02*
X19554311Y-5108681D01*
X19554311Y-5108681D02*
X19539313Y-5153675D01*
X19539313Y-5153675D02*
X19509317Y-5183671D01*
X19509317Y-5183671D02*
X19479321Y-5198669D01*
X19479321Y-5198669D02*
X19479321Y-5258662D01*
X19479321Y-5258662D02*
X19554311Y-5258662D01*
X21574906Y3848837D02*
X21469919Y3998818D01*
X21394929Y3848837D02*
X21394929Y4163797D01*
X21394929Y4163797D02*
X21514914Y4163797D01*
X21514914Y4163797D02*
X21544910Y4148799D01*
X21544910Y4148799D02*
X21559908Y4133801D01*
X21559908Y4133801D02*
X21574906Y4103805D01*
X21574906Y4103805D02*
X21574906Y4058811D01*
X21574906Y4058811D02*
X21559908Y4028815D01*
X21559908Y4028815D02*
X21544910Y4013816D01*
X21544910Y4013816D02*
X21514914Y3998818D01*
X21514914Y3998818D02*
X21394929Y3998818D01*
X21679893Y4163797D02*
X21874868Y4163797D01*
X21874868Y4163797D02*
X21769881Y4043813D01*
X21769881Y4043813D02*
X21814876Y4043813D01*
X21814876Y4043813D02*
X21844872Y4028815D01*
X21844872Y4028815D02*
X21859870Y4013816D01*
X21859870Y4013816D02*
X21874868Y3983820D01*
X21874868Y3983820D02*
X21874868Y3908830D01*
X21874868Y3908830D02*
X21859870Y3878834D01*
X21859870Y3878834D02*
X21844872Y3863836D01*
X21844872Y3863836D02*
X21814876Y3848837D01*
X21814876Y3848837D02*
X21724887Y3848837D01*
X21724887Y3848837D02*
X21694891Y3863836D01*
X21694891Y3863836D02*
X21679893Y3878834D01*
D10*
X-4900775Y13868144D02*
X-4900775Y14668144D01*
X-4900775Y14668144D02*
X-4710299Y14668144D01*
X-4710299Y14668144D02*
X-4596013Y14630049D01*
X-4596013Y14630049D02*
X-4519823Y14553859D01*
X-4519823Y14553859D02*
X-4481728Y14477668D01*
X-4481728Y14477668D02*
X-4443632Y14325287D01*
X-4443632Y14325287D02*
X-4443632Y14211001D01*
X-4443632Y14211001D02*
X-4481728Y14058620D01*
X-4481728Y14058620D02*
X-4519823Y13982430D01*
X-4519823Y13982430D02*
X-4596013Y13906240D01*
X-4596013Y13906240D02*
X-4710299Y13868144D01*
X-4710299Y13868144D02*
X-4900775Y13868144D01*
X-4138871Y14591954D02*
X-4100775Y14630049D01*
X-4100775Y14630049D02*
X-4024585Y14668144D01*
X-4024585Y14668144D02*
X-3834109Y14668144D01*
X-3834109Y14668144D02*
X-3757918Y14630049D01*
X-3757918Y14630049D02*
X-3719823Y14591954D01*
X-3719823Y14591954D02*
X-3681728Y14515763D01*
X-3681728Y14515763D02*
X-3681728Y14439573D01*
X-3681728Y14439573D02*
X-3719823Y14325287D01*
X-3719823Y14325287D02*
X-4176966Y13868144D01*
X-4176966Y13868144D02*
X-3681728Y13868144D01*
X-4900775Y13868144D02*
X-4900775Y14668144D01*
X-4900775Y14668144D02*
X-4710299Y14668144D01*
X-4710299Y14668144D02*
X-4596013Y14630049D01*
X-4596013Y14630049D02*
X-4519823Y14553859D01*
X-4519823Y14553859D02*
X-4481728Y14477668D01*
X-4481728Y14477668D02*
X-4443632Y14325287D01*
X-4443632Y14325287D02*
X-4443632Y14211001D01*
X-4443632Y14211001D02*
X-4481728Y14058620D01*
X-4481728Y14058620D02*
X-4519823Y13982430D01*
X-4519823Y13982430D02*
X-4596013Y13906240D01*
X-4596013Y13906240D02*
X-4710299Y13868144D01*
X-4710299Y13868144D02*
X-4900775Y13868144D01*
X-4138871Y14591954D02*
X-4100775Y14630049D01*
X-4100775Y14630049D02*
X-4024585Y14668144D01*
X-4024585Y14668144D02*
X-3834109Y14668144D01*
X-3834109Y14668144D02*
X-3757918Y14630049D01*
X-3757918Y14630049D02*
X-3719823Y14591954D01*
X-3719823Y14591954D02*
X-3681728Y14515763D01*
X-3681728Y14515763D02*
X-3681728Y14439573D01*
X-3681728Y14439573D02*
X-3719823Y14325287D01*
X-3719823Y14325287D02*
X-4176966Y13868144D01*
X-4176966Y13868144D02*
X-3681728Y13868144D01*
X-28703390Y4811754D02*
X-28779580Y4849849D01*
X-28779580Y4849849D02*
X-28855771Y4926040D01*
X-28855771Y4926040D02*
X-28970057Y5040325D01*
X-28970057Y5040325D02*
X-29046247Y5078420D01*
X-29046247Y5078420D02*
X-29122438Y5078420D01*
X-29084342Y4887944D02*
X-29160533Y4926040D01*
X-29160533Y4926040D02*
X-29236723Y5002230D01*
X-29236723Y5002230D02*
X-29274819Y5154611D01*
X-29274819Y5154611D02*
X-29274819Y5421278D01*
X-29274819Y5421278D02*
X-29236723Y5573659D01*
X-29236723Y5573659D02*
X-29160533Y5649849D01*
X-29160533Y5649849D02*
X-29084342Y5687944D01*
X-29084342Y5687944D02*
X-28931961Y5687944D01*
X-28931961Y5687944D02*
X-28855771Y5649849D01*
X-28855771Y5649849D02*
X-28779580Y5573659D01*
X-28779580Y5573659D02*
X-28741485Y5421278D01*
X-28741485Y5421278D02*
X-28741485Y5154611D01*
X-28741485Y5154611D02*
X-28779580Y5002230D01*
X-28779580Y5002230D02*
X-28855771Y4926040D01*
X-28855771Y4926040D02*
X-28931961Y4887944D01*
X-28931961Y4887944D02*
X-29084342Y4887944D01*
X-28436724Y5611754D02*
X-28398628Y5649849D01*
X-28398628Y5649849D02*
X-28322438Y5687944D01*
X-28322438Y5687944D02*
X-28131962Y5687944D01*
X-28131962Y5687944D02*
X-28055771Y5649849D01*
X-28055771Y5649849D02*
X-28017676Y5611754D01*
X-28017676Y5611754D02*
X-27979581Y5535563D01*
X-27979581Y5535563D02*
X-27979581Y5459373D01*
X-27979581Y5459373D02*
X-28017676Y5345087D01*
X-28017676Y5345087D02*
X-28474819Y4887944D01*
X-28474819Y4887944D02*
X-27979581Y4887944D01*
D12*
%TO.C,*%
X-8669100Y16230000D02*
X-8670122Y16222235D01*
X-8670122Y16222235D02*
X-8673119Y16215000D01*
X-8673119Y16215000D02*
X-8677887Y16208787D01*
X-8677887Y16208787D02*
X-8684100Y16204019D01*
X-8684100Y16204019D02*
X-8691335Y16201022D01*
X-8691335Y16201022D02*
X-8699100Y16200000D01*
X-8699100Y16200000D02*
X-8706865Y16201022D01*
X-8706865Y16201022D02*
X-8714100Y16204019D01*
X-8714100Y16204019D02*
X-8720313Y16208787D01*
X-8720313Y16208787D02*
X-8725081Y16215000D01*
X-8725081Y16215000D02*
X-8728078Y16222235D01*
X-8728078Y16222235D02*
X-8729100Y16230000D01*
X-8729100Y16230000D02*
X-8728078Y16237765D01*
X-8728078Y16237765D02*
X-8725081Y16245000D01*
X-8725081Y16245000D02*
X-8720313Y16251213D01*
X-8720313Y16251213D02*
X-8714100Y16255981D01*
X-8714100Y16255981D02*
X-8706865Y16258978D01*
X-8706865Y16258978D02*
X-8699100Y16260000D01*
X-8699100Y16260000D02*
X-8691335Y16258978D01*
X-8691335Y16258978D02*
X-8684100Y16255981D01*
X-8684100Y16255981D02*
X-8677887Y16251213D01*
X-8677887Y16251213D02*
X-8673119Y16245000D01*
X-8673119Y16245000D02*
X-8670122Y16237765D01*
X-8670122Y16237765D02*
X-8669100Y16230000D01*
D13*
X-9869100Y9250000D02*
X-9869100Y6150000D01*
X-9869100Y6150000D02*
X-13599100Y6120000D01*
X-13669100Y16310000D02*
X-9869100Y16310000D01*
X-25229100Y16310000D02*
X-24319100Y16310000D01*
X-24319100Y6150000D02*
X-25229100Y6150000D01*
X-25229100Y6150000D02*
X-25229100Y16310000D01*
X-9869100Y16310000D02*
X-9869100Y13210000D01*
D14*
X18833000Y4753900D02*
X18842810Y4754221D01*
X18842810Y4754221D02*
X18852579Y4755183D01*
X18852579Y4755183D02*
X18862264Y4756782D01*
X18862264Y4756782D02*
X18871823Y4759011D01*
X18871823Y4759011D02*
X18881216Y4761860D01*
X18881216Y4761860D02*
X18890403Y4765318D01*
X18890403Y4765318D02*
X18899343Y4769369D01*
X18899343Y4769369D02*
X18908000Y4773996D01*
X18908000Y4773996D02*
X18916336Y4779180D01*
X18916336Y4779180D02*
X18924314Y4784897D01*
X18924314Y4784897D02*
X18931902Y4791124D01*
X18931902Y4791124D02*
X18939066Y4797834D01*
X18939066Y4797834D02*
X18945776Y4804998D01*
X18945776Y4804998D02*
X18952003Y4812586D01*
X18952003Y4812586D02*
X18957720Y4820564D01*
X18957720Y4820564D02*
X18962904Y4828900D01*
X18962904Y4828900D02*
X18967531Y4837557D01*
X18967531Y4837557D02*
X18971582Y4846497D01*
X18971582Y4846497D02*
X18975040Y4855684D01*
X18975040Y4855684D02*
X18977889Y4865077D01*
X18977889Y4865077D02*
X18980118Y4874636D01*
X18980118Y4874636D02*
X18981717Y4884321D01*
X18981717Y4884321D02*
X18982679Y4894090D01*
X18982679Y4894090D02*
X18983000Y4903900D01*
X18983000Y7763900D02*
X18982679Y7773710D01*
X18982679Y7773710D02*
X18981717Y7783479D01*
X18981717Y7783479D02*
X18980118Y7793164D01*
X18980118Y7793164D02*
X18977889Y7802723D01*
X18977889Y7802723D02*
X18975040Y7812116D01*
X18975040Y7812116D02*
X18971582Y7821303D01*
X18971582Y7821303D02*
X18967531Y7830243D01*
X18967531Y7830243D02*
X18962904Y7838900D01*
X18962904Y7838900D02*
X18957720Y7847236D01*
X18957720Y7847236D02*
X18952003Y7855214D01*
X18952003Y7855214D02*
X18945776Y7862802D01*
X18945776Y7862802D02*
X18939066Y7869966D01*
X18939066Y7869966D02*
X18931902Y7876676D01*
X18931902Y7876676D02*
X18924314Y7882903D01*
X18924314Y7882903D02*
X18916336Y7888620D01*
X18916336Y7888620D02*
X18908000Y7893804D01*
X18908000Y7893804D02*
X18899343Y7898431D01*
X18899343Y7898431D02*
X18890403Y7902482D01*
X18890403Y7902482D02*
X18881216Y7905940D01*
X18881216Y7905940D02*
X18871823Y7908789D01*
X18871823Y7908789D02*
X18862264Y7911018D01*
X18862264Y7911018D02*
X18852579Y7912617D01*
X18852579Y7912617D02*
X18842810Y7913579D01*
X18842810Y7913579D02*
X18833000Y7913900D01*
X14013000Y4753900D02*
X14003190Y4754221D01*
X14003190Y4754221D02*
X13993421Y4755183D01*
X13993421Y4755183D02*
X13983736Y4756782D01*
X13983736Y4756782D02*
X13974177Y4759011D01*
X13974177Y4759011D02*
X13964784Y4761860D01*
X13964784Y4761860D02*
X13955597Y4765318D01*
X13955597Y4765318D02*
X13946657Y4769369D01*
X13946657Y4769369D02*
X13938000Y4773996D01*
X13938000Y4773996D02*
X13929664Y4779180D01*
X13929664Y4779180D02*
X13921686Y4784897D01*
X13921686Y4784897D02*
X13914098Y4791124D01*
X13914098Y4791124D02*
X13906934Y4797834D01*
X13906934Y4797834D02*
X13900224Y4804998D01*
X13900224Y4804998D02*
X13893997Y4812586D01*
X13893997Y4812586D02*
X13888280Y4820564D01*
X13888280Y4820564D02*
X13883096Y4828900D01*
X13883096Y4828900D02*
X13878469Y4837557D01*
X13878469Y4837557D02*
X13874418Y4846497D01*
X13874418Y4846497D02*
X13870960Y4855684D01*
X13870960Y4855684D02*
X13868111Y4865077D01*
X13868111Y4865077D02*
X13865882Y4874636D01*
X13865882Y4874636D02*
X13864283Y4884321D01*
X13864283Y4884321D02*
X13863321Y4894090D01*
X13863321Y4894090D02*
X13863000Y4903900D01*
X13863000Y7763900D02*
X13863321Y7773710D01*
X13863321Y7773710D02*
X13864283Y7783479D01*
X13864283Y7783479D02*
X13865882Y7793164D01*
X13865882Y7793164D02*
X13868111Y7802723D01*
X13868111Y7802723D02*
X13870960Y7812116D01*
X13870960Y7812116D02*
X13874418Y7821303D01*
X13874418Y7821303D02*
X13878469Y7830243D01*
X13878469Y7830243D02*
X13883096Y7838900D01*
X13883096Y7838900D02*
X13888280Y7847236D01*
X13888280Y7847236D02*
X13893997Y7855214D01*
X13893997Y7855214D02*
X13900224Y7862802D01*
X13900224Y7862802D02*
X13906934Y7869966D01*
X13906934Y7869966D02*
X13914098Y7876676D01*
X13914098Y7876676D02*
X13921686Y7882903D01*
X13921686Y7882903D02*
X13929664Y7888620D01*
X13929664Y7888620D02*
X13938000Y7893804D01*
X13938000Y7893804D02*
X13946657Y7898431D01*
X13946657Y7898431D02*
X13955597Y7902482D01*
X13955597Y7902482D02*
X13964784Y7905940D01*
X13964784Y7905940D02*
X13974177Y7908789D01*
X13974177Y7908789D02*
X13983736Y7911018D01*
X13983736Y7911018D02*
X13993421Y7912617D01*
X13993421Y7912617D02*
X14003190Y7913579D01*
X14003190Y7913579D02*
X14013000Y7913900D01*
X18983000Y4903900D02*
X18983000Y7763900D01*
X18833000Y7913900D02*
X17203000Y7913900D01*
X17203000Y4753900D02*
X18833000Y4753900D01*
X14013000Y7913900D02*
X15643000Y7913900D01*
X15643000Y4753900D02*
X14013000Y4753900D01*
X13863000Y4903900D02*
X13863000Y7763900D01*
D12*
X14853000Y5083900D02*
X14851978Y5076135D01*
X14851978Y5076135D02*
X14848981Y5068900D01*
X14848981Y5068900D02*
X14844213Y5062687D01*
X14844213Y5062687D02*
X14838000Y5057919D01*
X14838000Y5057919D02*
X14830765Y5054922D01*
X14830765Y5054922D02*
X14823000Y5053900D01*
X14823000Y5053900D02*
X14815235Y5054922D01*
X14815235Y5054922D02*
X14808000Y5057919D01*
X14808000Y5057919D02*
X14801787Y5062687D01*
X14801787Y5062687D02*
X14797019Y5068900D01*
X14797019Y5068900D02*
X14794022Y5076135D01*
X14794022Y5076135D02*
X14793000Y5083900D01*
X14793000Y5083900D02*
X14794022Y5091665D01*
X14794022Y5091665D02*
X14797019Y5098900D01*
X14797019Y5098900D02*
X14801787Y5105113D01*
X14801787Y5105113D02*
X14808000Y5109881D01*
X14808000Y5109881D02*
X14815235Y5112878D01*
X14815235Y5112878D02*
X14823000Y5113900D01*
X14823000Y5113900D02*
X14830765Y5112878D01*
X14830765Y5112878D02*
X14838000Y5109881D01*
X14838000Y5109881D02*
X14844213Y5105113D01*
X14844213Y5105113D02*
X14848981Y5098900D01*
X14848981Y5098900D02*
X14851978Y5091665D01*
X14851978Y5091665D02*
X14853000Y5083900D01*
D13*
X-29904600Y-5698600D02*
X-29903936Y-5678325D01*
X-29903936Y-5678325D02*
X-29901948Y-5658137D01*
X-29901948Y-5658137D02*
X-29898643Y-5638122D01*
X-29898643Y-5638122D02*
X-29894037Y-5618366D01*
X-29894037Y-5618366D02*
X-29888148Y-5598954D01*
X-29888148Y-5598954D02*
X-29881003Y-5579968D01*
X-29881003Y-5579968D02*
X-29872631Y-5561491D01*
X-29872631Y-5561491D02*
X-29863068Y-5543600D01*
X-29863068Y-5543600D02*
X-29852356Y-5526373D01*
X-29852356Y-5526373D02*
X-29840540Y-5509884D01*
X-29840540Y-5509884D02*
X-29827670Y-5494203D01*
X-29827670Y-5494203D02*
X-29813803Y-5479397D01*
X-29813803Y-5479397D02*
X-29798997Y-5465530D01*
X-29798997Y-5465530D02*
X-29783316Y-5452660D01*
X-29783316Y-5452660D02*
X-29766827Y-5440844D01*
X-29766827Y-5440844D02*
X-29749600Y-5430132D01*
X-29749600Y-5430132D02*
X-29731709Y-5420569D01*
X-29731709Y-5420569D02*
X-29713232Y-5412197D01*
X-29713232Y-5412197D02*
X-29694246Y-5405052D01*
X-29694246Y-5405052D02*
X-29674834Y-5399163D01*
X-29674834Y-5399163D02*
X-29655078Y-5394557D01*
X-29655078Y-5394557D02*
X-29635063Y-5391252D01*
X-29635063Y-5391252D02*
X-29614875Y-5389264D01*
X-29614875Y-5389264D02*
X-29594600Y-5388600D01*
X-29594600Y-6808600D02*
X-29614875Y-6807936D01*
X-29614875Y-6807936D02*
X-29635063Y-6805948D01*
X-29635063Y-6805948D02*
X-29655078Y-6802643D01*
X-29655078Y-6802643D02*
X-29674834Y-6798037D01*
X-29674834Y-6798037D02*
X-29694246Y-6792148D01*
X-29694246Y-6792148D02*
X-29713232Y-6785003D01*
X-29713232Y-6785003D02*
X-29731709Y-6776631D01*
X-29731709Y-6776631D02*
X-29749600Y-6767068D01*
X-29749600Y-6767068D02*
X-29766827Y-6756356D01*
X-29766827Y-6756356D02*
X-29783316Y-6744540D01*
X-29783316Y-6744540D02*
X-29798997Y-6731670D01*
X-29798997Y-6731670D02*
X-29813803Y-6717803D01*
X-29813803Y-6717803D02*
X-29827670Y-6702997D01*
X-29827670Y-6702997D02*
X-29840540Y-6687316D01*
X-29840540Y-6687316D02*
X-29852356Y-6670827D01*
X-29852356Y-6670827D02*
X-29863068Y-6653600D01*
X-29863068Y-6653600D02*
X-29872631Y-6635709D01*
X-29872631Y-6635709D02*
X-29881003Y-6617232D01*
X-29881003Y-6617232D02*
X-29888148Y-6598246D01*
X-29888148Y-6598246D02*
X-29894037Y-6578834D01*
X-29894037Y-6578834D02*
X-29898643Y-6559078D01*
X-29898643Y-6559078D02*
X-29901948Y-6539063D01*
X-29901948Y-6539063D02*
X-29903936Y-6518875D01*
X-29903936Y-6518875D02*
X-29904600Y-6498600D01*
X-27414600Y-5398600D02*
X-27394325Y-5399264D01*
X-27394325Y-5399264D02*
X-27374137Y-5401252D01*
X-27374137Y-5401252D02*
X-27354122Y-5404557D01*
X-27354122Y-5404557D02*
X-27334366Y-5409163D01*
X-27334366Y-5409163D02*
X-27314954Y-5415052D01*
X-27314954Y-5415052D02*
X-27295968Y-5422197D01*
X-27295968Y-5422197D02*
X-27277491Y-5430569D01*
X-27277491Y-5430569D02*
X-27259600Y-5440132D01*
X-27259600Y-5440132D02*
X-27242373Y-5450844D01*
X-27242373Y-5450844D02*
X-27225884Y-5462660D01*
X-27225884Y-5462660D02*
X-27210203Y-5475530D01*
X-27210203Y-5475530D02*
X-27195397Y-5489397D01*
X-27195397Y-5489397D02*
X-27181530Y-5504203D01*
X-27181530Y-5504203D02*
X-27168660Y-5519884D01*
X-27168660Y-5519884D02*
X-27156844Y-5536373D01*
X-27156844Y-5536373D02*
X-27146132Y-5553600D01*
X-27146132Y-5553600D02*
X-27136569Y-5571491D01*
X-27136569Y-5571491D02*
X-27128197Y-5589968D01*
X-27128197Y-5589968D02*
X-27121052Y-5608954D01*
X-27121052Y-5608954D02*
X-27115163Y-5628366D01*
X-27115163Y-5628366D02*
X-27110557Y-5648122D01*
X-27110557Y-5648122D02*
X-27107252Y-5668137D01*
X-27107252Y-5668137D02*
X-27105264Y-5688325D01*
X-27105264Y-5688325D02*
X-27104600Y-5708600D01*
X-27104600Y-6508600D02*
X-27105264Y-6528875D01*
X-27105264Y-6528875D02*
X-27107252Y-6549063D01*
X-27107252Y-6549063D02*
X-27110557Y-6569078D01*
X-27110557Y-6569078D02*
X-27115163Y-6588834D01*
X-27115163Y-6588834D02*
X-27121052Y-6608246D01*
X-27121052Y-6608246D02*
X-27128197Y-6627232D01*
X-27128197Y-6627232D02*
X-27136569Y-6645709D01*
X-27136569Y-6645709D02*
X-27146132Y-6663600D01*
X-27146132Y-6663600D02*
X-27156844Y-6680827D01*
X-27156844Y-6680827D02*
X-27168660Y-6697316D01*
X-27168660Y-6697316D02*
X-27181530Y-6712997D01*
X-27181530Y-6712997D02*
X-27195397Y-6727803D01*
X-27195397Y-6727803D02*
X-27210203Y-6741670D01*
X-27210203Y-6741670D02*
X-27225884Y-6754540D01*
X-27225884Y-6754540D02*
X-27242373Y-6766356D01*
X-27242373Y-6766356D02*
X-27259600Y-6777068D01*
X-27259600Y-6777068D02*
X-27277491Y-6786631D01*
X-27277491Y-6786631D02*
X-27295968Y-6795003D01*
X-27295968Y-6795003D02*
X-27314954Y-6802148D01*
X-27314954Y-6802148D02*
X-27334366Y-6808037D01*
X-27334366Y-6808037D02*
X-27354122Y-6812643D01*
X-27354122Y-6812643D02*
X-27374137Y-6815948D01*
X-27374137Y-6815948D02*
X-27394325Y-6817936D01*
X-27394325Y-6817936D02*
X-27414600Y-6818600D01*
X-27104600Y-5708600D02*
X-27104600Y-6508600D01*
X-28214600Y-5398600D02*
X-27414600Y-5398600D01*
X-28214600Y-6818600D02*
X-27414600Y-6818600D01*
X-28794600Y-5388600D02*
X-29594600Y-5388600D01*
X-29904600Y-5698600D02*
X-29904600Y-6498600D01*
X-28794600Y-6808600D02*
X-29594600Y-6808600D01*
D12*
X-29264600Y-6508600D02*
X-29265622Y-6516365D01*
X-29265622Y-6516365D02*
X-29268619Y-6523600D01*
X-29268619Y-6523600D02*
X-29273387Y-6529813D01*
X-29273387Y-6529813D02*
X-29279600Y-6534581D01*
X-29279600Y-6534581D02*
X-29286835Y-6537578D01*
X-29286835Y-6537578D02*
X-29294600Y-6538600D01*
X-29294600Y-6538600D02*
X-29302365Y-6537578D01*
X-29302365Y-6537578D02*
X-29309600Y-6534581D01*
X-29309600Y-6534581D02*
X-29315813Y-6529813D01*
X-29315813Y-6529813D02*
X-29320581Y-6523600D01*
X-29320581Y-6523600D02*
X-29323578Y-6516365D01*
X-29323578Y-6516365D02*
X-29324600Y-6508600D01*
X-29324600Y-6508600D02*
X-29323578Y-6500835D01*
X-29323578Y-6500835D02*
X-29320581Y-6493600D01*
X-29320581Y-6493600D02*
X-29315813Y-6487387D01*
X-29315813Y-6487387D02*
X-29309600Y-6482619D01*
X-29309600Y-6482619D02*
X-29302365Y-6479622D01*
X-29302365Y-6479622D02*
X-29294600Y-6478600D01*
X-29294600Y-6478600D02*
X-29286835Y-6479622D01*
X-29286835Y-6479622D02*
X-29279600Y-6482619D01*
X-29279600Y-6482619D02*
X-29273387Y-6487387D01*
X-29273387Y-6487387D02*
X-29268619Y-6493600D01*
X-29268619Y-6493600D02*
X-29265622Y-6500835D01*
X-29265622Y-6500835D02*
X-29264600Y-6508600D01*
D15*
X18956900Y-3504900D02*
X18756900Y-3504900D01*
X18956900Y-4524900D02*
X18756900Y-4524900D01*
X20797400Y2452600D02*
X20797400Y3392600D01*
X22457400Y2452600D02*
X22457400Y3392600D01*
X22457400Y3392600D02*
X20797400Y3392600D01*
X22457400Y2452600D02*
X20797400Y2452600D01*
D16*
X-7860300Y13383300D02*
X-7860300Y9083300D01*
D17*
X-7960300Y13483300D02*
X-660300Y13483300D01*
X-660300Y13483300D02*
X-660300Y8983300D01*
X-660300Y8983300D02*
X-7960300Y8983300D01*
X-7960300Y8983300D02*
X-7960300Y13483300D01*
D16*
X-7860300Y9083300D02*
X-2160300Y9083300D01*
X-7860300Y13383300D02*
X-2160300Y13383300D01*
D18*
X-2010300Y9233300D02*
X-6610300Y9233300D01*
X-6610300Y9233300D02*
X-6610300Y13233300D01*
X-2010300Y13233300D02*
X-2010300Y9233300D01*
X-2010300Y13233300D02*
X-6610300Y13233300D01*
X-4959700Y11232300D02*
X-5861400Y11232300D01*
X-3809100Y11232300D02*
X-2810900Y11232300D01*
X-4959700Y12032400D02*
X-4959700Y10432200D01*
X-3809100Y10483000D02*
X-3809100Y12032400D01*
X-4959700Y11232300D02*
X-3809100Y10483000D01*
X-4959700Y11232300D02*
X-3809100Y12032400D01*
D16*
X-31987200Y9513100D02*
X-31987200Y9113100D01*
X-31987200Y9513100D02*
X-26367200Y9513100D01*
X-31987200Y1393100D02*
X-31987200Y993100D01*
X-31987200Y993100D02*
X-26627200Y993100D01*
D18*
X-32827200Y8753100D02*
X-32827200Y7753100D01*
X-32827200Y8753100D02*
X-31227200Y8753100D01*
X-32827200Y7753100D02*
X-31727200Y7753100D01*
%TD*%
M02*
