G04 Generated for placeholder only*
G04 @TF.FileFunction,Silkscreen Top,Legend*%
%FSLAX23Y23*%
%MOMM*%
%ADD12C,0.120*%
D12*
X19400Y15000D02*
X20600Y15000D01*
X20000Y14400D02*
X20000Y15600D01*
X7400Y20000D02*
X8600Y20000D01*
X8000Y19400D02*
X8000Y20600D01*
X34400Y25000D02*
X35600Y25000D01*
X35000Y24400D02*
X35000Y25600D01*
X29400Y10000D02*
X30600Y10000D01*
X30000Y9400D02*
X30000Y10600D01*
X14400Y8000D02*
X15600Y8000D01*
X15000Y7400D02*
X15000Y8600D01*
X11400Y18000D02*
X12600Y18000D01*
X12000Y17400D02*
X12000Y18600D01*
X17400Y12000D02*
X18600Y12000D01*
X18000Y11400D02*
X18000Y12600D01*
X24400Y8000D02*
X25600Y8000D01*
X25000Y7400D02*
X25000Y8600D01*
X21400Y18000D02*
X22600Y18000D01*
X22000Y17400D02*
X22000Y18600D01*
X4400Y15000D02*
X5600Y15000D01*
X5000Y14400D02*
X5000Y15600D01*
X9400Y12000D02*
X10600Y12000D01*
X10000Y11400D02*
X10000Y12600D01*
X14400Y20000D02*
X15600Y20000D01*
X15000Y19400D02*
X15000Y20600D01*
X27400Y15000D02*
X28600Y15000D01*
X28000Y14400D02*
X28000Y15600D01*
X11400Y22000D02*
X12600Y22000D01*
X12000Y21400D02*
X12000Y22600D01*
X7400Y8000D02*
X8600Y8000D01*
X8000Y7400D02*
X8000Y8600D01*
X34400Y5000D02*
X35600Y5000D01*
X35000Y4400D02*
X35000Y5600D01*
X31400Y5000D02*
X32600Y5000D01*
X32000Y4400D02*
X32000Y5600D01*
X4400Y25000D02*
X5600Y25000D01*
X5000Y24400D02*
X5000Y25600D01*
X1400Y10000D02*
X2600Y10000D01*
X2000Y9400D02*
X2000Y10600D01*
X37400Y15000D02*
X38600Y15000D01*
X38000Y14400D02*
X38000Y15600D01*
X1400Y20000D02*
X2600Y20000D01*
X2000Y19400D02*
X2000Y20600D01*
M02*
