M48
; DRILL file {Flux 9.0.4-9.0.4-0~ubuntu22.04.1} date 2025-10-20T13:02:18+0000
; FORMAT={-:-/ absolute / metric / decimal}
; #@! TF.CreationDate,2025-10-20T13:02:18+00:00
; #@! TF.GenerationSoftware,Kicad,Pcbnew,9.0.4-9.0.4-0~ubuntu22.04.1
; #@! TF.FileFunction,MixedPlating,1,4
FMAT,2
METRIC
; #@! TA.AperFunction,Plated,PTH,ComponentDrill
T1C0.300
%
G90
G05
T1
X-65.0Y40.0
X-65.0Y25.0
X-65.0Y10.0
X-65.0Y-5.0
X-65.0Y-20.0
X-65.0Y-35.0
X-50.0Y40.0
X-50.0Y25.0
X-50.0Y10.0
X-50.0Y-5.0
X-50.0Y-20.0
X-50.0Y-35.0
X-35.0Y40.0
X-35.0Y25.0
X-35.0Y10.0
X-35.0Y-5.0
X-35.0Y-20.0
X-35.0Y-35.0
X-20.0Y40.0
X-20.0Y-5.0
X-20.0Y-20.0
X-20.0Y-35.0
X-5.0Y40.0
X-5.0Y25.0
X-5.0Y-5.0
X-5.0Y-20.0
X-5.0Y-35.0
X10.0Y40.0
X10.0Y25.0
X10.0Y10.0
X10.0Y-5.0
X10.0Y-20.0
X10.0Y-35.0
X25.0Y40.0
X25.0Y25.0
X25.0Y10.0
X25.0Y-20.0
X25.0Y-35.0
X40.0Y40.0
X40.0Y25.0
X40.0Y10.0
X40.0Y-5.0
X40.0Y-20.0
X40.0Y-35.0
X55.0Y40.0
X55.0Y25.0
X55.0Y10.0
X55.0Y-5.0
X55.0Y-20.0
X55.0Y-35.0
X70.0Y40.0
X70.0Y25.0
X70.0Y10.0
X70.0Y-5.0
X70.0Y-20.0
X70.0Y-35.0
M30
