%TF.GenerationSoftware,Flux,Pcbnew,9.0.4-9.0.4-0~ubuntu22.04.1*%
%TF.CreationDate,2025-10-20T13:02:14+00:00*%
%TF.ProjectId,input,696e7075-742e-46b6-9963-61645f706362,rev?*%
%TF.SameCoordinates,Original*%
%TF.FileFunction,Soldermask,Top*%
%TF.FilePolarity,Negative*%
%FSLAX46Y46*%
G04 Gerber Fmt 4.6, Leading zero omitted, Abs format (unit mm)*
G04 Filename: sarlls-iot*
G04 Build it with Flux! Visit our site at: https://www.flux.ai (PCBNEW 9.0.4-9.0.4-0~ubuntu22.04.1) date 2025-10-20 13:02:14*
%MOMM*%
%LPD*%
G01*
G04 APERTURE LIST*
%ADD10C,0.000000*%
G04 APERTURE END LIST*
D10*
%TO.C,*%
G36*
X-16636700Y18717500D02*
G01*
X-18636700Y18717500D01*
X-18636700Y19617500D01*
X-16636700Y19617500D01*
X-16636700Y18717500D01*
G37*
G36*
X-8051696Y8277502D02*
G01*
X-8951696Y8277498D01*
X-8951704Y10277498D01*
X-8051704Y10277502D01*
X-8051696Y8277502D01*
G37*
G36*
X-13131696Y8277502D02*
G01*
X-14031696Y8277498D01*
X-14031704Y10277498D01*
X-13131704Y10277502D01*
X-13131696Y8277502D01*
G37*
G36*
X-16636700Y25067500D02*
G01*
X-18636700Y25067500D01*
X-18636700Y25967500D01*
X-16636700Y25967500D01*
X-16636700Y25067500D01*
G37*
G36*
X-5511696Y8277502D02*
G01*
X-6411696Y8277498D01*
X-6411704Y10277498D01*
X-5511704Y10277502D01*
X-5511696Y8277502D01*
G37*
G36*
X-4241696Y8277502D02*
G01*
X-5141696Y8277498D01*
X-5141704Y10277498D01*
X-4241704Y10277502D01*
X-4241696Y8277502D01*
G37*
G36*
X363300Y14907500D02*
G01*
X-1636700Y14907500D01*
X-1636700Y15807500D01*
X363300Y15807500D01*
X363300Y14907500D01*
G37*
G36*
X363300Y13637500D02*
G01*
X-1636700Y13637500D01*
X-1636700Y14537500D01*
X363300Y14537500D01*
X363300Y13637500D01*
G37*
G36*
X-16636700Y12367500D02*
G01*
X-18636700Y12367500D01*
X-18636700Y13267500D01*
X-16636700Y13267500D01*
X-16636700Y12367500D01*
G37*
G36*
X363300Y21257500D02*
G01*
X-1636700Y21257500D01*
X-1636700Y22157500D01*
X363300Y22157500D01*
X363300Y21257500D01*
G37*
G36*
X-16636700Y21257500D02*
G01*
X-18636700Y21257500D01*
X-18636700Y22157500D01*
X-16636700Y22157500D01*
X-16636700Y21257500D01*
G37*
G36*
X-10591696Y8277502D02*
G01*
X-11491696Y8277498D01*
X-11491704Y10277498D01*
X-10591704Y10277502D01*
X-10591696Y8277502D01*
G37*
G36*
X363300Y22527500D02*
G01*
X-1636700Y22527500D01*
X-1636700Y23427500D01*
X363300Y23427500D01*
X363300Y22527500D01*
G37*
G36*
X-16636700Y9827500D02*
G01*
X-18636700Y9827500D01*
X-18636700Y10727500D01*
X-16636700Y10727500D01*
X-16636700Y9827500D01*
G37*
G36*
X-16636700Y23797500D02*
G01*
X-18636700Y23797500D01*
X-18636700Y24697500D01*
X-16636700Y24697500D01*
X-16636700Y23797500D01*
G37*
G36*
X-16636700Y13637500D02*
G01*
X-18636700Y13637500D01*
X-18636700Y14537500D01*
X-16636700Y14537500D01*
X-16636700Y13637500D01*
G37*
G36*
X363300Y18717500D02*
G01*
X-1636700Y18717500D01*
X-1636700Y19617500D01*
X363300Y19617500D01*
X363300Y18717500D01*
G37*
G36*
X-16636700Y14907500D02*
G01*
X-18636700Y14907500D01*
X-18636700Y15807500D01*
X-16636700Y15807500D01*
X-16636700Y14907500D01*
G37*
G36*
X-7636700Y16787500D02*
G01*
X-12636700Y16787500D01*
X-12636700Y21787500D01*
X-7636700Y21787500D01*
X-7636700Y16787500D01*
G37*
G36*
X363300Y25067500D02*
G01*
X-1636700Y25067500D01*
X-1636700Y25967500D01*
X363300Y25967500D01*
X363300Y25067500D01*
G37*
G36*
X363300Y26337500D02*
G01*
X-1636700Y26337500D01*
X-1636700Y27237500D01*
X363300Y27237500D01*
X363300Y26337500D01*
G37*
G36*
X363300Y19987500D02*
G01*
X-1636700Y19987500D01*
X-1636700Y20887500D01*
X363300Y20887500D01*
X363300Y19987500D01*
G37*
G36*
X-14401696Y8277502D02*
G01*
X-15301696Y8277498D01*
X-15301704Y10277498D01*
X-14401704Y10277502D01*
X-14401696Y8277502D01*
G37*
G36*
X-16636700Y16177500D02*
G01*
X-18636700Y16177500D01*
X-18636700Y17077500D01*
X-16636700Y17077500D01*
X-16636700Y16177500D01*
G37*
G36*
X-16636700Y11097500D02*
G01*
X-18636700Y11097500D01*
X-18636700Y11997500D01*
X-16636700Y11997500D01*
X-16636700Y11097500D01*
G37*
G36*
X-16636700Y22527500D02*
G01*
X-18636700Y22527500D01*
X-18636700Y23427500D01*
X-16636700Y23427500D01*
X-16636700Y22527500D01*
G37*
G36*
X363300Y16177500D02*
G01*
X-1636700Y16177500D01*
X-1636700Y17077500D01*
X363300Y17077500D01*
X363300Y16177500D01*
G37*
G36*
X363300Y12367500D02*
G01*
X-1636700Y12367500D01*
X-1636700Y13267500D01*
X363300Y13267500D01*
X363300Y12367500D01*
G37*
G36*
X-16636700Y19987500D02*
G01*
X-18636700Y19987500D01*
X-18636700Y20887500D01*
X-16636700Y20887500D01*
X-16636700Y19987500D01*
G37*
G36*
X-9321696Y8277502D02*
G01*
X-10221696Y8277498D01*
X-10221704Y10277498D01*
X-9321704Y10277502D01*
X-9321696Y8277502D01*
G37*
G36*
X-16636700Y26337500D02*
G01*
X-18636700Y26337500D01*
X-18636700Y27237500D01*
X-16636700Y27237500D01*
X-16636700Y26337500D01*
G37*
G36*
X363300Y17447500D02*
G01*
X-1636700Y17447500D01*
X-1636700Y18347500D01*
X363300Y18347500D01*
X363300Y17447500D01*
G37*
G36*
X363300Y11097500D02*
G01*
X-1636700Y11097500D01*
X-1636700Y11997500D01*
X363300Y11997500D01*
X363300Y11097500D01*
G37*
G36*
X363300Y23797500D02*
G01*
X-1636700Y23797500D01*
X-1636700Y24697500D01*
X363300Y24697500D01*
X363300Y23797500D01*
G37*
G36*
X-6781696Y8277502D02*
G01*
X-7681696Y8277498D01*
X-7681704Y10277498D01*
X-6781704Y10277502D01*
X-6781696Y8277502D01*
G37*
G36*
X363300Y9827500D02*
G01*
X-1636700Y9827500D01*
X-1636700Y10727500D01*
X363300Y10727500D01*
X363300Y9827500D01*
G37*
G36*
X-2971696Y8277502D02*
G01*
X-3871696Y8277498D01*
X-3871704Y10277498D01*
X-2971704Y10277502D01*
X-2971696Y8277502D01*
G37*
G36*
X-11861696Y8277502D02*
G01*
X-12761696Y8277498D01*
X-12761704Y10277498D01*
X-11861704Y10277502D01*
X-11861696Y8277502D01*
G37*
G36*
X-16636700Y17447500D02*
G01*
X-18636700Y17447500D01*
X-18636700Y18347500D01*
X-16636700Y18347500D01*
X-16636700Y17447500D01*
G37*
G36*
X-12937470Y-3584438D02*
G01*
X-12935143Y-3584552D01*
X-12932821Y-3584743D01*
X-12930507Y-3585009D01*
X-12928202Y-3585351D01*
X-12925910Y-3585768D01*
X-12923632Y-3586260D01*
X-12921372Y-3586826D01*
X-12919132Y-3587466D01*
X-12916914Y-3588179D01*
X-12914720Y-3588963D01*
X-12912553Y-3589820D01*
X-12910415Y-3590746D01*
X-12908309Y-3591743D01*
X-12906237Y-3592807D01*
X-12904200Y-3593939D01*
X-12902202Y-3595137D01*
X-12900243Y-3596399D01*
X-12898328Y-3597725D01*
X-12896456Y-3599113D01*
X-12894631Y-3600562D01*
X-12892855Y-3602069D01*
X-12891128Y-3603634D01*
X-12889454Y-3605254D01*
X-12887834Y-3606928D01*
X-12886269Y-3608655D01*
X-12884762Y-3610431D01*
X-12883313Y-3612256D01*
X-12881925Y-3614128D01*
X-12880599Y-3616043D01*
X-12879337Y-3618002D01*
X-12878139Y-3620000D01*
X-12877007Y-3622037D01*
X-12875943Y-3624109D01*
X-12874946Y-3626215D01*
X-12874020Y-3628353D01*
X-12873163Y-3630520D01*
X-12872379Y-3632714D01*
X-12871666Y-3634932D01*
X-12871026Y-3637172D01*
X-12870460Y-3639432D01*
X-12869968Y-3641710D01*
X-12869551Y-3644002D01*
X-12869209Y-3646307D01*
X-12868943Y-3648621D01*
X-12868752Y-3650943D01*
X-12868638Y-3653270D01*
X-12868600Y-3655600D01*
X-12868600Y-4463200D01*
X-12868638Y-4465530D01*
X-12868752Y-4467857D01*
X-12868943Y-4470179D01*
X-12869209Y-4472493D01*
X-12869551Y-4474798D01*
X-12869968Y-4477090D01*
X-12870460Y-4479368D01*
X-12871026Y-4481628D01*
X-12871666Y-4483868D01*
X-12872379Y-4486086D01*
X-12873163Y-4488280D01*
X-12874020Y-4490447D01*
X-12874946Y-4492585D01*
X-12875943Y-4494691D01*
X-12877007Y-4496763D01*
X-12878139Y-4498800D01*
X-12879337Y-4500798D01*
X-12880599Y-4502757D01*
X-12881925Y-4504672D01*
X-12883313Y-4506544D01*
X-12884762Y-4508369D01*
X-12886269Y-4510145D01*
X-12887834Y-4511872D01*
X-12889454Y-4513546D01*
X-12891128Y-4515166D01*
X-12892855Y-4516731D01*
X-12894631Y-4518238D01*
X-12896456Y-4519687D01*
X-12898328Y-4521075D01*
X-12900243Y-4522401D01*
X-12902202Y-4523663D01*
X-12904200Y-4524861D01*
X-12906237Y-4525993D01*
X-12908309Y-4527057D01*
X-12910415Y-4528054D01*
X-12912553Y-4528980D01*
X-12914720Y-4529837D01*
X-12916914Y-4530621D01*
X-12919132Y-4531334D01*
X-12921372Y-4531974D01*
X-12923632Y-4532540D01*
X-12925910Y-4533032D01*
X-12928202Y-4533449D01*
X-12930507Y-4533791D01*
X-12932821Y-4534057D01*
X-12935143Y-4534248D01*
X-12937470Y-4534362D01*
X-12939800Y-4534400D01*
X-13697400Y-4534400D01*
X-13699730Y-4534362D01*
X-13702057Y-4534248D01*
X-13704379Y-4534057D01*
X-13706693Y-4533791D01*
X-13708998Y-4533449D01*
X-13711290Y-4533032D01*
X-13713568Y-4532540D01*
X-13715828Y-4531974D01*
X-13718068Y-4531334D01*
X-13720286Y-4530621D01*
X-13722480Y-4529837D01*
X-13724647Y-4528980D01*
X-13726785Y-4528054D01*
X-13728891Y-4527057D01*
X-13730963Y-4525993D01*
X-13733000Y-4524861D01*
X-13734998Y-4523663D01*
X-13736957Y-4522401D01*
X-13738872Y-4521075D01*
X-13740744Y-4519687D01*
X-13742569Y-4518238D01*
X-13744345Y-4516731D01*
X-13746072Y-4515166D01*
X-13747746Y-4513546D01*
X-13749366Y-4511872D01*
X-13750931Y-4510145D01*
X-13752438Y-4508369D01*
X-13753887Y-4506544D01*
X-13755275Y-4504672D01*
X-13756601Y-4502757D01*
X-13757863Y-4500798D01*
X-13759061Y-4498800D01*
X-13760193Y-4496763D01*
X-13761257Y-4494691D01*
X-13762254Y-4492585D01*
X-13763180Y-4490447D01*
X-13764037Y-4488280D01*
X-13764821Y-4486086D01*
X-13765534Y-4483868D01*
X-13766174Y-4481628D01*
X-13766740Y-4479368D01*
X-13767232Y-4477090D01*
X-13767649Y-4474798D01*
X-13767991Y-4472493D01*
X-13768257Y-4470179D01*
X-13768448Y-4467857D01*
X-13768562Y-4465530D01*
X-13768600Y-4463200D01*
X-13768600Y-3655600D01*
X-13768562Y-3653270D01*
X-13768448Y-3650943D01*
X-13768257Y-3648621D01*
X-13767991Y-3646307D01*
X-13767649Y-3644002D01*
X-13767232Y-3641710D01*
X-13766740Y-3639432D01*
X-13766174Y-3637172D01*
X-13765534Y-3634932D01*
X-13764821Y-3632714D01*
X-13764037Y-3630520D01*
X-13763180Y-3628353D01*
X-13762254Y-3626215D01*
X-13761257Y-3624109D01*
X-13760193Y-3622037D01*
X-13759061Y-3620000D01*
X-13757863Y-3618002D01*
X-13756601Y-3616043D01*
X-13755275Y-3614128D01*
X-13753887Y-3612256D01*
X-13752438Y-3610431D01*
X-13750931Y-3608655D01*
X-13749366Y-3606928D01*
X-13747746Y-3605254D01*
X-13746072Y-3603634D01*
X-13744345Y-3602069D01*
X-13742569Y-3600562D01*
X-13740744Y-3599113D01*
X-13738872Y-3597725D01*
X-13736957Y-3596399D01*
X-13734998Y-3595137D01*
X-13733000Y-3593939D01*
X-13730963Y-3592807D01*
X-13728891Y-3591743D01*
X-13726785Y-3590746D01*
X-13724647Y-3589820D01*
X-13722480Y-3588963D01*
X-13720286Y-3588179D01*
X-13718068Y-3587466D01*
X-13715828Y-3586826D01*
X-13713568Y-3586260D01*
X-13711290Y-3585768D01*
X-13708998Y-3585351D01*
X-13706693Y-3585009D01*
X-13704379Y-3584743D01*
X-13702057Y-3584552D01*
X-13699730Y-3584438D01*
X-13697400Y-3584400D01*
X-12939800Y-3584400D01*
X-12937470Y-3584438D01*
G37*
G36*
X-11387470Y-3584438D02*
G01*
X-11385143Y-3584552D01*
X-11382821Y-3584743D01*
X-11380507Y-3585009D01*
X-11378202Y-3585351D01*
X-11375910Y-3585768D01*
X-11373632Y-3586260D01*
X-11371372Y-3586826D01*
X-11369132Y-3587466D01*
X-11366914Y-3588179D01*
X-11364720Y-3588963D01*
X-11362553Y-3589820D01*
X-11360415Y-3590746D01*
X-11358309Y-3591743D01*
X-11356237Y-3592807D01*
X-11354200Y-3593939D01*
X-11352202Y-3595137D01*
X-11350243Y-3596399D01*
X-11348328Y-3597725D01*
X-11346456Y-3599113D01*
X-11344631Y-3600562D01*
X-11342855Y-3602069D01*
X-11341128Y-3603634D01*
X-11339454Y-3605254D01*
X-11337834Y-3606928D01*
X-11336269Y-3608655D01*
X-11334762Y-3610431D01*
X-11333313Y-3612256D01*
X-11331925Y-3614128D01*
X-11330599Y-3616043D01*
X-11329337Y-3618002D01*
X-11328139Y-3620000D01*
X-11327007Y-3622037D01*
X-11325943Y-3624109D01*
X-11324946Y-3626215D01*
X-11324020Y-3628353D01*
X-11323163Y-3630520D01*
X-11322379Y-3632714D01*
X-11321666Y-3634932D01*
X-11321026Y-3637172D01*
X-11320460Y-3639432D01*
X-11319968Y-3641710D01*
X-11319551Y-3644002D01*
X-11319209Y-3646307D01*
X-11318943Y-3648621D01*
X-11318752Y-3650943D01*
X-11318638Y-3653270D01*
X-11318600Y-3655600D01*
X-11318600Y-4463200D01*
X-11318638Y-4465530D01*
X-11318752Y-4467857D01*
X-11318943Y-4470179D01*
X-11319209Y-4472493D01*
X-11319551Y-4474798D01*
X-11319968Y-4477090D01*
X-11320460Y-4479368D01*
X-11321026Y-4481628D01*
X-11321666Y-4483868D01*
X-11322379Y-4486086D01*
X-11323163Y-4488280D01*
X-11324020Y-4490447D01*
X-11324946Y-4492585D01*
X-11325943Y-4494691D01*
X-11327007Y-4496763D01*
X-11328139Y-4498800D01*
X-11329337Y-4500798D01*
X-11330599Y-4502757D01*
X-11331925Y-4504672D01*
X-11333313Y-4506544D01*
X-11334762Y-4508369D01*
X-11336269Y-4510145D01*
X-11337834Y-4511872D01*
X-11339454Y-4513546D01*
X-11341128Y-4515166D01*
X-11342855Y-4516731D01*
X-11344631Y-4518238D01*
X-11346456Y-4519687D01*
X-11348328Y-4521075D01*
X-11350243Y-4522401D01*
X-11352202Y-4523663D01*
X-11354200Y-4524861D01*
X-11356237Y-4525993D01*
X-11358309Y-4527057D01*
X-11360415Y-4528054D01*
X-11362553Y-4528980D01*
X-11364720Y-4529837D01*
X-11366914Y-4530621D01*
X-11369132Y-4531334D01*
X-11371372Y-4531974D01*
X-11373632Y-4532540D01*
X-11375910Y-4533032D01*
X-11378202Y-4533449D01*
X-11380507Y-4533791D01*
X-11382821Y-4534057D01*
X-11385143Y-4534248D01*
X-11387470Y-4534362D01*
X-11389800Y-4534400D01*
X-12147400Y-4534400D01*
X-12149730Y-4534362D01*
X-12152057Y-4534248D01*
X-12154379Y-4534057D01*
X-12156693Y-4533791D01*
X-12158998Y-4533449D01*
X-12161290Y-4533032D01*
X-12163568Y-4532540D01*
X-12165828Y-4531974D01*
X-12168068Y-4531334D01*
X-12170286Y-4530621D01*
X-12172480Y-4529837D01*
X-12174647Y-4528980D01*
X-12176785Y-4528054D01*
X-12178891Y-4527057D01*
X-12180963Y-4525993D01*
X-12183000Y-4524861D01*
X-12184998Y-4523663D01*
X-12186957Y-4522401D01*
X-12188872Y-4521075D01*
X-12190744Y-4519687D01*
X-12192569Y-4518238D01*
X-12194345Y-4516731D01*
X-12196072Y-4515166D01*
X-12197746Y-4513546D01*
X-12199366Y-4511872D01*
X-12200931Y-4510145D01*
X-12202438Y-4508369D01*
X-12203887Y-4506544D01*
X-12205275Y-4504672D01*
X-12206601Y-4502757D01*
X-12207863Y-4500798D01*
X-12209061Y-4498800D01*
X-12210193Y-4496763D01*
X-12211257Y-4494691D01*
X-12212254Y-4492585D01*
X-12213180Y-4490447D01*
X-12214037Y-4488280D01*
X-12214821Y-4486086D01*
X-12215534Y-4483868D01*
X-12216174Y-4481628D01*
X-12216740Y-4479368D01*
X-12217232Y-4477090D01*
X-12217649Y-4474798D01*
X-12217991Y-4472493D01*
X-12218257Y-4470179D01*
X-12218448Y-4467857D01*
X-12218562Y-4465530D01*
X-12218600Y-4463200D01*
X-12218600Y-3655600D01*
X-12218562Y-3653270D01*
X-12218448Y-3650943D01*
X-12218257Y-3648621D01*
X-12217991Y-3646307D01*
X-12217649Y-3644002D01*
X-12217232Y-3641710D01*
X-12216740Y-3639432D01*
X-12216174Y-3637172D01*
X-12215534Y-3634932D01*
X-12214821Y-3632714D01*
X-12214037Y-3630520D01*
X-12213180Y-3628353D01*
X-12212254Y-3626215D01*
X-12211257Y-3624109D01*
X-12210193Y-3622037D01*
X-12209061Y-3620000D01*
X-12207863Y-3618002D01*
X-12206601Y-3616043D01*
X-12205275Y-3614128D01*
X-12203887Y-3612256D01*
X-12202438Y-3610431D01*
X-12200931Y-3608655D01*
X-12199366Y-3606928D01*
X-12197746Y-3605254D01*
X-12196072Y-3603634D01*
X-12194345Y-3602069D01*
X-12192569Y-3600562D01*
X-12190744Y-3599113D01*
X-12188872Y-3597725D01*
X-12186957Y-3596399D01*
X-12184998Y-3595137D01*
X-12183000Y-3593939D01*
X-12180963Y-3592807D01*
X-12178891Y-3591743D01*
X-12176785Y-3590746D01*
X-12174647Y-3589820D01*
X-12172480Y-3588963D01*
X-12170286Y-3588179D01*
X-12168068Y-3587466D01*
X-12165828Y-3586826D01*
X-12163568Y-3586260D01*
X-12161290Y-3585768D01*
X-12158998Y-3585351D01*
X-12156693Y-3585009D01*
X-12154379Y-3584743D01*
X-12152057Y-3584552D01*
X-12149730Y-3584438D01*
X-12147400Y-3584400D01*
X-11389800Y-3584400D01*
X-11387470Y-3584438D01*
G37*
G36*
X10281800Y-583900D02*
G01*
X8231800Y-583900D01*
X8231800Y1606100D01*
X10281800Y1606100D01*
X10281800Y-583900D01*
G37*
G36*
X15001800Y-583900D02*
G01*
X12951800Y-583900D01*
X12951800Y1606100D01*
X15001800Y1606100D01*
X15001800Y-583900D01*
G37*
G36*
X-507299Y-26596498D02*
G01*
X-1407299Y-26596502D01*
X-1407301Y-26296502D01*
X-507301Y-26296498D01*
X-507299Y-26596498D01*
G37*
G36*
X2392701Y-24596498D02*
G01*
X1492701Y-24596502D01*
X1492699Y-24296502D01*
X2392699Y-24296498D01*
X2392701Y-24596498D01*
G37*
G36*
X2392701Y-26096498D02*
G01*
X1492701Y-26096502D01*
X1492699Y-25796502D01*
X2392699Y-25796498D01*
X2392701Y-26096498D01*
G37*
G36*
X2392701Y-24096498D02*
G01*
X1492701Y-24096502D01*
X1492699Y-23796502D01*
X2392699Y-23796498D01*
X2392701Y-24096498D01*
G37*
G36*
X2392701Y-25096498D02*
G01*
X1492701Y-25096502D01*
X1492699Y-24796502D01*
X2392699Y-24796498D01*
X2392701Y-25096498D01*
G37*
G36*
X1192700Y-26496500D02*
G01*
X-207300Y-26496500D01*
X-207300Y-23896500D01*
X1192700Y-23896500D01*
X1192700Y-26496500D01*
G37*
G36*
X2392701Y-26596498D02*
G01*
X1492701Y-26596502D01*
X1492699Y-26296502D01*
X2392699Y-26296498D01*
X2392701Y-26596498D01*
G37*
G36*
X2392701Y-25596498D02*
G01*
X1492701Y-25596502D01*
X1492699Y-25296502D01*
X2392699Y-25296498D01*
X2392701Y-25596498D01*
G37*
G36*
X-507299Y-26096498D02*
G01*
X-1407299Y-26096502D01*
X-1407301Y-25796502D01*
X-507301Y-25796498D01*
X-507299Y-26096498D01*
G37*
G36*
X-507299Y-25096498D02*
G01*
X-1407299Y-25096502D01*
X-1407301Y-24796502D01*
X-507301Y-24796498D01*
X-507299Y-25096498D01*
G37*
G36*
X-507299Y-24596498D02*
G01*
X-1407299Y-24596502D01*
X-1407301Y-24296502D01*
X-507301Y-24296498D01*
X-507299Y-24596498D01*
G37*
G36*
X-507299Y-24096498D02*
G01*
X-1407299Y-24096502D01*
X-1407301Y-23796502D01*
X-507301Y-23796498D01*
X-507299Y-24096498D01*
G37*
G36*
X-507299Y-25596498D02*
G01*
X-1407299Y-25596502D01*
X-1407301Y-25296502D01*
X-507301Y-25296498D01*
X-507299Y-25596498D01*
G37*
G36*
X-16370470Y4180862D02*
G01*
X-16368143Y4180748D01*
X-16365821Y4180557D01*
X-16363507Y4180291D01*
X-16361202Y4179949D01*
X-16358910Y4179532D01*
X-16356632Y4179040D01*
X-16354372Y4178474D01*
X-16352132Y4177834D01*
X-16349914Y4177121D01*
X-16347720Y4176337D01*
X-16345553Y4175480D01*
X-16343415Y4174554D01*
X-16341309Y4173557D01*
X-16339237Y4172493D01*
X-16337200Y4171361D01*
X-16335202Y4170163D01*
X-16333243Y4168901D01*
X-16331328Y4167575D01*
X-16329456Y4166187D01*
X-16327631Y4164738D01*
X-16325855Y4163231D01*
X-16324128Y4161666D01*
X-16322454Y4160046D01*
X-16320834Y4158372D01*
X-16319269Y4156645D01*
X-16317762Y4154869D01*
X-16316313Y4153044D01*
X-16314925Y4151172D01*
X-16313599Y4149257D01*
X-16312337Y4147298D01*
X-16311139Y4145300D01*
X-16310007Y4143263D01*
X-16308943Y4141191D01*
X-16307946Y4139085D01*
X-16307020Y4136947D01*
X-16306163Y4134780D01*
X-16305379Y4132586D01*
X-16304666Y4130368D01*
X-16304026Y4128128D01*
X-16303460Y4125868D01*
X-16302968Y4123590D01*
X-16302551Y4121298D01*
X-16302209Y4118993D01*
X-16301943Y4116679D01*
X-16301752Y4114357D01*
X-16301638Y4112030D01*
X-16301600Y4109700D01*
X-16301600Y3302100D01*
X-16301638Y3299770D01*
X-16301752Y3297443D01*
X-16301943Y3295121D01*
X-16302209Y3292807D01*
X-16302551Y3290502D01*
X-16302968Y3288210D01*
X-16303460Y3285932D01*
X-16304026Y3283672D01*
X-16304666Y3281432D01*
X-16305379Y3279214D01*
X-16306163Y3277020D01*
X-16307020Y3274853D01*
X-16307946Y3272715D01*
X-16308943Y3270609D01*
X-16310007Y3268537D01*
X-16311139Y3266500D01*
X-16312337Y3264502D01*
X-16313599Y3262543D01*
X-16314925Y3260628D01*
X-16316313Y3258756D01*
X-16317762Y3256931D01*
X-16319269Y3255155D01*
X-16320834Y3253428D01*
X-16322454Y3251754D01*
X-16324128Y3250134D01*
X-16325855Y3248569D01*
X-16327631Y3247062D01*
X-16329456Y3245613D01*
X-16331328Y3244225D01*
X-16333243Y3242899D01*
X-16335202Y3241637D01*
X-16337200Y3240439D01*
X-16339237Y3239307D01*
X-16341309Y3238243D01*
X-16343415Y3237246D01*
X-16345553Y3236320D01*
X-16347720Y3235463D01*
X-16349914Y3234679D01*
X-16352132Y3233966D01*
X-16354372Y3233326D01*
X-16356632Y3232760D01*
X-16358910Y3232268D01*
X-16361202Y3231851D01*
X-16363507Y3231509D01*
X-16365821Y3231243D01*
X-16368143Y3231052D01*
X-16370470Y3230938D01*
X-16372800Y3230900D01*
X-17130400Y3230900D01*
X-17132730Y3230938D01*
X-17135057Y3231052D01*
X-17137379Y3231243D01*
X-17139693Y3231509D01*
X-17141998Y3231851D01*
X-17144290Y3232268D01*
X-17146568Y3232760D01*
X-17148828Y3233326D01*
X-17151068Y3233966D01*
X-17153286Y3234679D01*
X-17155480Y3235463D01*
X-17157647Y3236320D01*
X-17159785Y3237246D01*
X-17161891Y3238243D01*
X-17163963Y3239307D01*
X-17166000Y3240439D01*
X-17167998Y3241637D01*
X-17169957Y3242899D01*
X-17171872Y3244225D01*
X-17173744Y3245613D01*
X-17175569Y3247062D01*
X-17177345Y3248569D01*
X-17179072Y3250134D01*
X-17180746Y3251754D01*
X-17182366Y3253428D01*
X-17183931Y3255155D01*
X-17185438Y3256931D01*
X-17186887Y3258756D01*
X-17188275Y3260628D01*
X-17189601Y3262543D01*
X-17190863Y3264502D01*
X-17192061Y3266500D01*
X-17193193Y3268537D01*
X-17194257Y3270609D01*
X-17195254Y3272715D01*
X-17196180Y3274853D01*
X-17197037Y3277020D01*
X-17197821Y3279214D01*
X-17198534Y3281432D01*
X-17199174Y3283672D01*
X-17199740Y3285932D01*
X-17200232Y3288210D01*
X-17200649Y3290502D01*
X-17200991Y3292807D01*
X-17201257Y3295121D01*
X-17201448Y3297443D01*
X-17201562Y3299770D01*
X-17201600Y3302100D01*
X-17201600Y4109700D01*
X-17201562Y4112030D01*
X-17201448Y4114357D01*
X-17201257Y4116679D01*
X-17200991Y4118993D01*
X-17200649Y4121298D01*
X-17200232Y4123590D01*
X-17199740Y4125868D01*
X-17199174Y4128128D01*
X-17198534Y4130368D01*
X-17197821Y4132586D01*
X-17197037Y4134780D01*
X-17196180Y4136947D01*
X-17195254Y4139085D01*
X-17194257Y4141191D01*
X-17193193Y4143263D01*
X-17192061Y4145300D01*
X-17190863Y4147298D01*
X-17189601Y4149257D01*
X-17188275Y4151172D01*
X-17186887Y4153044D01*
X-17185438Y4154869D01*
X-17183931Y4156645D01*
X-17182366Y4158372D01*
X-17180746Y4160046D01*
X-17179072Y4161666D01*
X-17177345Y4163231D01*
X-17175569Y4164738D01*
X-17173744Y4166187D01*
X-17171872Y4167575D01*
X-17169957Y4168901D01*
X-17167998Y4170163D01*
X-17166000Y4171361D01*
X-17163963Y4172493D01*
X-17161891Y4173557D01*
X-17159785Y4174554D01*
X-17157647Y4175480D01*
X-17155480Y4176337D01*
X-17153286Y4177121D01*
X-17151068Y4177834D01*
X-17148828Y4178474D01*
X-17146568Y4179040D01*
X-17144290Y4179532D01*
X-17141998Y4179949D01*
X-17139693Y4180291D01*
X-17137379Y4180557D01*
X-17135057Y4180748D01*
X-17132730Y4180862D01*
X-17130400Y4180900D01*
X-16372800Y4180900D01*
X-16370470Y4180862D01*
G37*
G36*
X-14820470Y4180862D02*
G01*
X-14818143Y4180748D01*
X-14815821Y4180557D01*
X-14813507Y4180291D01*
X-14811202Y4179949D01*
X-14808910Y4179532D01*
X-14806632Y4179040D01*
X-14804372Y4178474D01*
X-14802132Y4177834D01*
X-14799914Y4177121D01*
X-14797720Y4176337D01*
X-14795553Y4175480D01*
X-14793415Y4174554D01*
X-14791309Y4173557D01*
X-14789237Y4172493D01*
X-14787200Y4171361D01*
X-14785202Y4170163D01*
X-14783243Y4168901D01*
X-14781328Y4167575D01*
X-14779456Y4166187D01*
X-14777631Y4164738D01*
X-14775855Y4163231D01*
X-14774128Y4161666D01*
X-14772454Y4160046D01*
X-14770834Y4158372D01*
X-14769269Y4156645D01*
X-14767762Y4154869D01*
X-14766313Y4153044D01*
X-14764925Y4151172D01*
X-14763599Y4149257D01*
X-14762337Y4147298D01*
X-14761139Y4145300D01*
X-14760007Y4143263D01*
X-14758943Y4141191D01*
X-14757946Y4139085D01*
X-14757020Y4136947D01*
X-14756163Y4134780D01*
X-14755379Y4132586D01*
X-14754666Y4130368D01*
X-14754026Y4128128D01*
X-14753460Y4125868D01*
X-14752968Y4123590D01*
X-14752551Y4121298D01*
X-14752209Y4118993D01*
X-14751943Y4116679D01*
X-14751752Y4114357D01*
X-14751638Y4112030D01*
X-14751600Y4109700D01*
X-14751600Y3302100D01*
X-14751638Y3299770D01*
X-14751752Y3297443D01*
X-14751943Y3295121D01*
X-14752209Y3292807D01*
X-14752551Y3290502D01*
X-14752968Y3288210D01*
X-14753460Y3285932D01*
X-14754026Y3283672D01*
X-14754666Y3281432D01*
X-14755379Y3279214D01*
X-14756163Y3277020D01*
X-14757020Y3274853D01*
X-14757946Y3272715D01*
X-14758943Y3270609D01*
X-14760007Y3268537D01*
X-14761139Y3266500D01*
X-14762337Y3264502D01*
X-14763599Y3262543D01*
X-14764925Y3260628D01*
X-14766313Y3258756D01*
X-14767762Y3256931D01*
X-14769269Y3255155D01*
X-14770834Y3253428D01*
X-14772454Y3251754D01*
X-14774128Y3250134D01*
X-14775855Y3248569D01*
X-14777631Y3247062D01*
X-14779456Y3245613D01*
X-14781328Y3244225D01*
X-14783243Y3242899D01*
X-14785202Y3241637D01*
X-14787200Y3240439D01*
X-14789237Y3239307D01*
X-14791309Y3238243D01*
X-14793415Y3237246D01*
X-14795553Y3236320D01*
X-14797720Y3235463D01*
X-14799914Y3234679D01*
X-14802132Y3233966D01*
X-14804372Y3233326D01*
X-14806632Y3232760D01*
X-14808910Y3232268D01*
X-14811202Y3231851D01*
X-14813507Y3231509D01*
X-14815821Y3231243D01*
X-14818143Y3231052D01*
X-14820470Y3230938D01*
X-14822800Y3230900D01*
X-15580400Y3230900D01*
X-15582730Y3230938D01*
X-15585057Y3231052D01*
X-15587379Y3231243D01*
X-15589693Y3231509D01*
X-15591998Y3231851D01*
X-15594290Y3232268D01*
X-15596568Y3232760D01*
X-15598828Y3233326D01*
X-15601068Y3233966D01*
X-15603286Y3234679D01*
X-15605480Y3235463D01*
X-15607647Y3236320D01*
X-15609785Y3237246D01*
X-15611891Y3238243D01*
X-15613963Y3239307D01*
X-15616000Y3240439D01*
X-15617998Y3241637D01*
X-15619957Y3242899D01*
X-15621872Y3244225D01*
X-15623744Y3245613D01*
X-15625569Y3247062D01*
X-15627345Y3248569D01*
X-15629072Y3250134D01*
X-15630746Y3251754D01*
X-15632366Y3253428D01*
X-15633931Y3255155D01*
X-15635438Y3256931D01*
X-15636887Y3258756D01*
X-15638275Y3260628D01*
X-15639601Y3262543D01*
X-15640863Y3264502D01*
X-15642061Y3266500D01*
X-15643193Y3268537D01*
X-15644257Y3270609D01*
X-15645254Y3272715D01*
X-15646180Y3274853D01*
X-15647037Y3277020D01*
X-15647821Y3279214D01*
X-15648534Y3281432D01*
X-15649174Y3283672D01*
X-15649740Y3285932D01*
X-15650232Y3288210D01*
X-15650649Y3290502D01*
X-15650991Y3292807D01*
X-15651257Y3295121D01*
X-15651448Y3297443D01*
X-15651562Y3299770D01*
X-15651600Y3302100D01*
X-15651600Y4109700D01*
X-15651562Y4112030D01*
X-15651448Y4114357D01*
X-15651257Y4116679D01*
X-15650991Y4118993D01*
X-15650649Y4121298D01*
X-15650232Y4123590D01*
X-15649740Y4125868D01*
X-15649174Y4128128D01*
X-15648534Y4130368D01*
X-15647821Y4132586D01*
X-15647037Y4134780D01*
X-15646180Y4136947D01*
X-15645254Y4139085D01*
X-15644257Y4141191D01*
X-15643193Y4143263D01*
X-15642061Y4145300D01*
X-15640863Y4147298D01*
X-15639601Y4149257D01*
X-15638275Y4151172D01*
X-15636887Y4153044D01*
X-15635438Y4154869D01*
X-15633931Y4156645D01*
X-15632366Y4158372D01*
X-15630746Y4160046D01*
X-15629072Y4161666D01*
X-15627345Y4163231D01*
X-15625569Y4164738D01*
X-15623744Y4166187D01*
X-15621872Y4167575D01*
X-15619957Y4168901D01*
X-15617998Y4170163D01*
X-15616000Y4171361D01*
X-15613963Y4172493D01*
X-15611891Y4173557D01*
X-15609785Y4174554D01*
X-15607647Y4175480D01*
X-15605480Y4176337D01*
X-15603286Y4177121D01*
X-15601068Y4177834D01*
X-15598828Y4178474D01*
X-15596568Y4179040D01*
X-15594290Y4179532D01*
X-15591998Y4179949D01*
X-15589693Y4180291D01*
X-15587379Y4180557D01*
X-15585057Y4180748D01*
X-15582730Y4180862D01*
X-15580400Y4180900D01*
X-14822800Y4180900D01*
X-14820470Y4180862D01*
G37*
G36*
X-17806470Y970662D02*
G01*
X-17804143Y970548D01*
X-17801821Y970357D01*
X-17799507Y970091D01*
X-17797202Y969749D01*
X-17794910Y969332D01*
X-17792632Y968840D01*
X-17790372Y968274D01*
X-17788132Y967634D01*
X-17785914Y966921D01*
X-17783720Y966137D01*
X-17781553Y965280D01*
X-17779415Y964354D01*
X-17777309Y963357D01*
X-17775237Y962293D01*
X-17773200Y961161D01*
X-17771202Y959963D01*
X-17769243Y958701D01*
X-17767328Y957375D01*
X-17765456Y955987D01*
X-17763631Y954538D01*
X-17761855Y953031D01*
X-17760128Y951466D01*
X-17758454Y949846D01*
X-17756834Y948172D01*
X-17755269Y946445D01*
X-17753762Y944669D01*
X-17752313Y942844D01*
X-17750925Y940972D01*
X-17749599Y939057D01*
X-17748337Y937098D01*
X-17747139Y935100D01*
X-17746007Y933063D01*
X-17744943Y930991D01*
X-17743946Y928885D01*
X-17743020Y926747D01*
X-17742163Y924580D01*
X-17741379Y922386D01*
X-17740666Y920168D01*
X-17740026Y917928D01*
X-17739460Y915668D01*
X-17738968Y913390D01*
X-17738551Y911098D01*
X-17738209Y908793D01*
X-17737943Y906479D01*
X-17737752Y904157D01*
X-17737638Y901830D01*
X-17737600Y899500D01*
X-17737600Y91900D01*
X-17737638Y89570D01*
X-17737752Y87243D01*
X-17737943Y84921D01*
X-17738209Y82607D01*
X-17738551Y80302D01*
X-17738968Y78010D01*
X-17739460Y75732D01*
X-17740026Y73472D01*
X-17740666Y71232D01*
X-17741379Y69014D01*
X-17742163Y66820D01*
X-17743020Y64653D01*
X-17743946Y62515D01*
X-17744943Y60409D01*
X-17746007Y58337D01*
X-17747139Y56300D01*
X-17748337Y54302D01*
X-17749599Y52343D01*
X-17750925Y50428D01*
X-17752313Y48556D01*
X-17753762Y46731D01*
X-17755269Y44955D01*
X-17756834Y43228D01*
X-17758454Y41554D01*
X-17760128Y39934D01*
X-17761855Y38369D01*
X-17763631Y36862D01*
X-17765456Y35413D01*
X-17767328Y34025D01*
X-17769243Y32699D01*
X-17771202Y31437D01*
X-17773200Y30239D01*
X-17775237Y29107D01*
X-17777309Y28043D01*
X-17779415Y27046D01*
X-17781553Y26120D01*
X-17783720Y25263D01*
X-17785914Y24479D01*
X-17788132Y23766D01*
X-17790372Y23126D01*
X-17792632Y22560D01*
X-17794910Y22068D01*
X-17797202Y21651D01*
X-17799507Y21309D01*
X-17801821Y21043D01*
X-17804143Y20852D01*
X-17806470Y20738D01*
X-17808800Y20700D01*
X-18566400Y20700D01*
X-18568730Y20738D01*
X-18571057Y20852D01*
X-18573379Y21043D01*
X-18575693Y21309D01*
X-18577998Y21651D01*
X-18580290Y22068D01*
X-18582568Y22560D01*
X-18584828Y23126D01*
X-18587068Y23766D01*
X-18589286Y24479D01*
X-18591480Y25263D01*
X-18593647Y26120D01*
X-18595785Y27046D01*
X-18597891Y28043D01*
X-18599963Y29107D01*
X-18602000Y30239D01*
X-18603998Y31437D01*
X-18605957Y32699D01*
X-18607872Y34025D01*
X-18609744Y35413D01*
X-18611569Y36862D01*
X-18613345Y38369D01*
X-18615072Y39934D01*
X-18616746Y41554D01*
X-18618366Y43228D01*
X-18619931Y44955D01*
X-18621438Y46731D01*
X-18622887Y48556D01*
X-18624275Y50428D01*
X-18625601Y52343D01*
X-18626863Y54302D01*
X-18628061Y56300D01*
X-18629193Y58337D01*
X-18630257Y60409D01*
X-18631254Y62515D01*
X-18632180Y64653D01*
X-18633037Y66820D01*
X-18633821Y69014D01*
X-18634534Y71232D01*
X-18635174Y73472D01*
X-18635740Y75732D01*
X-18636232Y78010D01*
X-18636649Y80302D01*
X-18636991Y82607D01*
X-18637257Y84921D01*
X-18637448Y87243D01*
X-18637562Y89570D01*
X-18637600Y91900D01*
X-18637600Y899500D01*
X-18637562Y901830D01*
X-18637448Y904157D01*
X-18637257Y906479D01*
X-18636991Y908793D01*
X-18636649Y911098D01*
X-18636232Y913390D01*
X-18635740Y915668D01*
X-18635174Y917928D01*
X-18634534Y920168D01*
X-18633821Y922386D01*
X-18633037Y924580D01*
X-18632180Y926747D01*
X-18631254Y928885D01*
X-18630257Y930991D01*
X-18629193Y933063D01*
X-18628061Y935100D01*
X-18626863Y937098D01*
X-18625601Y939057D01*
X-18624275Y940972D01*
X-18622887Y942844D01*
X-18621438Y944669D01*
X-18619931Y946445D01*
X-18618366Y948172D01*
X-18616746Y949846D01*
X-18615072Y951466D01*
X-18613345Y953031D01*
X-18611569Y954538D01*
X-18609744Y955987D01*
X-18607872Y957375D01*
X-18605957Y958701D01*
X-18603998Y959963D01*
X-18602000Y961161D01*
X-18599963Y962293D01*
X-18597891Y963357D01*
X-18595785Y964354D01*
X-18593647Y965280D01*
X-18591480Y966137D01*
X-18589286Y966921D01*
X-18587068Y967634D01*
X-18584828Y968274D01*
X-18582568Y968840D01*
X-18580290Y969332D01*
X-18577998Y969749D01*
X-18575693Y970091D01*
X-18573379Y970357D01*
X-18571057Y970548D01*
X-18568730Y970662D01*
X-18566400Y970700D01*
X-17808800Y970700D01*
X-17806470Y970662D01*
G37*
G36*
X-16256470Y970662D02*
G01*
X-16254143Y970548D01*
X-16251821Y970357D01*
X-16249507Y970091D01*
X-16247202Y969749D01*
X-16244910Y969332D01*
X-16242632Y968840D01*
X-16240372Y968274D01*
X-16238132Y967634D01*
X-16235914Y966921D01*
X-16233720Y966137D01*
X-16231553Y965280D01*
X-16229415Y964354D01*
X-16227309Y963357D01*
X-16225237Y962293D01*
X-16223200Y961161D01*
X-16221202Y959963D01*
X-16219243Y958701D01*
X-16217328Y957375D01*
X-16215456Y955987D01*
X-16213631Y954538D01*
X-16211855Y953031D01*
X-16210128Y951466D01*
X-16208454Y949846D01*
X-16206834Y948172D01*
X-16205269Y946445D01*
X-16203762Y944669D01*
X-16202313Y942844D01*
X-16200925Y940972D01*
X-16199599Y939057D01*
X-16198337Y937098D01*
X-16197139Y935100D01*
X-16196007Y933063D01*
X-16194943Y930991D01*
X-16193946Y928885D01*
X-16193020Y926747D01*
X-16192163Y924580D01*
X-16191379Y922386D01*
X-16190666Y920168D01*
X-16190026Y917928D01*
X-16189460Y915668D01*
X-16188968Y913390D01*
X-16188551Y911098D01*
X-16188209Y908793D01*
X-16187943Y906479D01*
X-16187752Y904157D01*
X-16187638Y901830D01*
X-16187600Y899500D01*
X-16187600Y91900D01*
X-16187638Y89570D01*
X-16187752Y87243D01*
X-16187943Y84921D01*
X-16188209Y82607D01*
X-16188551Y80302D01*
X-16188968Y78010D01*
X-16189460Y75732D01*
X-16190026Y73472D01*
X-16190666Y71232D01*
X-16191379Y69014D01*
X-16192163Y66820D01*
X-16193020Y64653D01*
X-16193946Y62515D01*
X-16194943Y60409D01*
X-16196007Y58337D01*
X-16197139Y56300D01*
X-16198337Y54302D01*
X-16199599Y52343D01*
X-16200925Y50428D01*
X-16202313Y48556D01*
X-16203762Y46731D01*
X-16205269Y44955D01*
X-16206834Y43228D01*
X-16208454Y41554D01*
X-16210128Y39934D01*
X-16211855Y38369D01*
X-16213631Y36862D01*
X-16215456Y35413D01*
X-16217328Y34025D01*
X-16219243Y32699D01*
X-16221202Y31437D01*
X-16223200Y30239D01*
X-16225237Y29107D01*
X-16227309Y28043D01*
X-16229415Y27046D01*
X-16231553Y26120D01*
X-16233720Y25263D01*
X-16235914Y24479D01*
X-16238132Y23766D01*
X-16240372Y23126D01*
X-16242632Y22560D01*
X-16244910Y22068D01*
X-16247202Y21651D01*
X-16249507Y21309D01*
X-16251821Y21043D01*
X-16254143Y20852D01*
X-16256470Y20738D01*
X-16258800Y20700D01*
X-17016400Y20700D01*
X-17018730Y20738D01*
X-17021057Y20852D01*
X-17023379Y21043D01*
X-17025693Y21309D01*
X-17027998Y21651D01*
X-17030290Y22068D01*
X-17032568Y22560D01*
X-17034828Y23126D01*
X-17037068Y23766D01*
X-17039286Y24479D01*
X-17041480Y25263D01*
X-17043647Y26120D01*
X-17045785Y27046D01*
X-17047891Y28043D01*
X-17049963Y29107D01*
X-17052000Y30239D01*
X-17053998Y31437D01*
X-17055957Y32699D01*
X-17057872Y34025D01*
X-17059744Y35413D01*
X-17061569Y36862D01*
X-17063345Y38369D01*
X-17065072Y39934D01*
X-17066746Y41554D01*
X-17068366Y43228D01*
X-17069931Y44955D01*
X-17071438Y46731D01*
X-17072887Y48556D01*
X-17074275Y50428D01*
X-17075601Y52343D01*
X-17076863Y54302D01*
X-17078061Y56300D01*
X-17079193Y58337D01*
X-17080257Y60409D01*
X-17081254Y62515D01*
X-17082180Y64653D01*
X-17083037Y66820D01*
X-17083821Y69014D01*
X-17084534Y71232D01*
X-17085174Y73472D01*
X-17085740Y75732D01*
X-17086232Y78010D01*
X-17086649Y80302D01*
X-17086991Y82607D01*
X-17087257Y84921D01*
X-17087448Y87243D01*
X-17087562Y89570D01*
X-17087600Y91900D01*
X-17087600Y899500D01*
X-17087562Y901830D01*
X-17087448Y904157D01*
X-17087257Y906479D01*
X-17086991Y908793D01*
X-17086649Y911098D01*
X-17086232Y913390D01*
X-17085740Y915668D01*
X-17085174Y917928D01*
X-17084534Y920168D01*
X-17083821Y922386D01*
X-17083037Y924580D01*
X-17082180Y926747D01*
X-17081254Y928885D01*
X-17080257Y930991D01*
X-17079193Y933063D01*
X-17078061Y935100D01*
X-17076863Y937098D01*
X-17075601Y939057D01*
X-17074275Y940972D01*
X-17072887Y942844D01*
X-17071438Y944669D01*
X-17069931Y946445D01*
X-17068366Y948172D01*
X-17066746Y949846D01*
X-17065072Y951466D01*
X-17063345Y953031D01*
X-17061569Y954538D01*
X-17059744Y955987D01*
X-17057872Y957375D01*
X-17055957Y958701D01*
X-17053998Y959963D01*
X-17052000Y961161D01*
X-17049963Y962293D01*
X-17047891Y963357D01*
X-17045785Y964354D01*
X-17043647Y965280D01*
X-17041480Y966137D01*
X-17039286Y966921D01*
X-17037068Y967634D01*
X-17034828Y968274D01*
X-17032568Y968840D01*
X-17030290Y969332D01*
X-17027998Y969749D01*
X-17025693Y970091D01*
X-17023379Y970357D01*
X-17021057Y970548D01*
X-17018730Y970662D01*
X-17016400Y970700D01*
X-16258800Y970700D01*
X-16256470Y970662D01*
G37*
G36*
X28373606Y-16933018D02*
G01*
X28374711Y-16933072D01*
X28375813Y-16933163D01*
X28376912Y-16933289D01*
X28378006Y-16933451D01*
X28379094Y-16933649D01*
X28380175Y-16933883D01*
X28381248Y-16934152D01*
X28382312Y-16934455D01*
X28383365Y-16934794D01*
X28384406Y-16935166D01*
X28385435Y-16935573D01*
X28386449Y-16936013D01*
X28387449Y-16936486D01*
X28388433Y-16936991D01*
X28389400Y-16937528D01*
X28390349Y-16938097D01*
X28391278Y-16938696D01*
X28392188Y-16939326D01*
X28393076Y-16939985D01*
X28393942Y-16940672D01*
X28394786Y-16941388D01*
X28395605Y-16942131D01*
X28396400Y-16942900D01*
X28397169Y-16943695D01*
X28397912Y-16944514D01*
X28398628Y-16945358D01*
X28399315Y-16946224D01*
X28399974Y-16947112D01*
X28400604Y-16948022D01*
X28401203Y-16948951D01*
X28401772Y-16949900D01*
X28402309Y-16950867D01*
X28402814Y-16951851D01*
X28403287Y-16952851D01*
X28403727Y-16953865D01*
X28404134Y-16954894D01*
X28404506Y-16955935D01*
X28404845Y-16956988D01*
X28405148Y-16958052D01*
X28405417Y-16959125D01*
X28405651Y-16960206D01*
X28405849Y-16961294D01*
X28406011Y-16962388D01*
X28406137Y-16963487D01*
X28406228Y-16964589D01*
X28406282Y-16965694D01*
X28406300Y-16966800D01*
X28406300Y-17199200D01*
X28406282Y-17200306D01*
X28406228Y-17201411D01*
X28406137Y-17202513D01*
X28406011Y-17203612D01*
X28405849Y-17204706D01*
X28405651Y-17205794D01*
X28405417Y-17206875D01*
X28405148Y-17207948D01*
X28404845Y-17209012D01*
X28404506Y-17210065D01*
X28404134Y-17211106D01*
X28403727Y-17212135D01*
X28403287Y-17213149D01*
X28402814Y-17214149D01*
X28402309Y-17215133D01*
X28401772Y-17216100D01*
X28401203Y-17217049D01*
X28400604Y-17217978D01*
X28399974Y-17218888D01*
X28399315Y-17219776D01*
X28398628Y-17220642D01*
X28397912Y-17221486D01*
X28397169Y-17222305D01*
X28396400Y-17223100D01*
X28395605Y-17223869D01*
X28394786Y-17224612D01*
X28393942Y-17225328D01*
X28393076Y-17226015D01*
X28392188Y-17226674D01*
X28391278Y-17227304D01*
X28390349Y-17227903D01*
X28389400Y-17228472D01*
X28388433Y-17229009D01*
X28387449Y-17229514D01*
X28386449Y-17229987D01*
X28385435Y-17230427D01*
X28384406Y-17230834D01*
X28383365Y-17231206D01*
X28382312Y-17231545D01*
X28381248Y-17231848D01*
X28380175Y-17232117D01*
X28379094Y-17232351D01*
X28378006Y-17232549D01*
X28376912Y-17232711D01*
X28375813Y-17232837D01*
X28374711Y-17232928D01*
X28373606Y-17232982D01*
X28372500Y-17233000D01*
X27990100Y-17233000D01*
X27988994Y-17232982D01*
X27987889Y-17232928D01*
X27986787Y-17232837D01*
X27985688Y-17232711D01*
X27984594Y-17232549D01*
X27983506Y-17232351D01*
X27982425Y-17232117D01*
X27981352Y-17231848D01*
X27980288Y-17231545D01*
X27979235Y-17231206D01*
X27978194Y-17230834D01*
X27977165Y-17230427D01*
X27976151Y-17229987D01*
X27975151Y-17229514D01*
X27974167Y-17229009D01*
X27973200Y-17228472D01*
X27972251Y-17227903D01*
X27971322Y-17227304D01*
X27970412Y-17226674D01*
X27969524Y-17226015D01*
X27968658Y-17225328D01*
X27967814Y-17224612D01*
X27966995Y-17223869D01*
X27966200Y-17223100D01*
X27965431Y-17222305D01*
X27964688Y-17221486D01*
X27963972Y-17220642D01*
X27963285Y-17219776D01*
X27962626Y-17218888D01*
X27961996Y-17217978D01*
X27961397Y-17217049D01*
X27960828Y-17216100D01*
X27960291Y-17215133D01*
X27959786Y-17214149D01*
X27959313Y-17213149D01*
X27958873Y-17212135D01*
X27958466Y-17211106D01*
X27958094Y-17210065D01*
X27957755Y-17209012D01*
X27957452Y-17207948D01*
X27957183Y-17206875D01*
X27956949Y-17205794D01*
X27956751Y-17204706D01*
X27956589Y-17203612D01*
X27956463Y-17202513D01*
X27956372Y-17201411D01*
X27956318Y-17200306D01*
X27956300Y-17199200D01*
X27956300Y-16966800D01*
X27956318Y-16965694D01*
X27956372Y-16964589D01*
X27956463Y-16963487D01*
X27956589Y-16962388D01*
X27956751Y-16961294D01*
X27956949Y-16960206D01*
X27957183Y-16959125D01*
X27957452Y-16958052D01*
X27957755Y-16956988D01*
X27958094Y-16955935D01*
X27958466Y-16954894D01*
X27958873Y-16953865D01*
X27959313Y-16952851D01*
X27959786Y-16951851D01*
X27960291Y-16950867D01*
X27960828Y-16949900D01*
X27961397Y-16948951D01*
X27961996Y-16948022D01*
X27962626Y-16947112D01*
X27963285Y-16946224D01*
X27963972Y-16945358D01*
X27964688Y-16944514D01*
X27965431Y-16943695D01*
X27966200Y-16942900D01*
X27966995Y-16942131D01*
X27967814Y-16941388D01*
X27968658Y-16940672D01*
X27969524Y-16939985D01*
X27970412Y-16939326D01*
X27971322Y-16938696D01*
X27972251Y-16938097D01*
X27973200Y-16937528D01*
X27974167Y-16936991D01*
X27975151Y-16936486D01*
X27976151Y-16936013D01*
X27977165Y-16935573D01*
X27978194Y-16935166D01*
X27979235Y-16934794D01*
X27980288Y-16934455D01*
X27981352Y-16934152D01*
X27982425Y-16933883D01*
X27983506Y-16933649D01*
X27984594Y-16933451D01*
X27985688Y-16933289D01*
X27986787Y-16933163D01*
X27987889Y-16933072D01*
X27988994Y-16933018D01*
X27990100Y-16933000D01*
X28372500Y-16933000D01*
X28373606Y-16933018D01*
G37*
G36*
X29773606Y-16933018D02*
G01*
X29774711Y-16933072D01*
X29775813Y-16933163D01*
X29776912Y-16933289D01*
X29778006Y-16933451D01*
X29779094Y-16933649D01*
X29780175Y-16933883D01*
X29781248Y-16934152D01*
X29782312Y-16934455D01*
X29783365Y-16934794D01*
X29784406Y-16935166D01*
X29785435Y-16935573D01*
X29786449Y-16936013D01*
X29787449Y-16936486D01*
X29788433Y-16936991D01*
X29789400Y-16937528D01*
X29790349Y-16938097D01*
X29791278Y-16938696D01*
X29792188Y-16939326D01*
X29793076Y-16939985D01*
X29793942Y-16940672D01*
X29794786Y-16941388D01*
X29795605Y-16942131D01*
X29796400Y-16942900D01*
X29797169Y-16943695D01*
X29797912Y-16944514D01*
X29798628Y-16945358D01*
X29799315Y-16946224D01*
X29799974Y-16947112D01*
X29800604Y-16948022D01*
X29801203Y-16948951D01*
X29801772Y-16949900D01*
X29802309Y-16950867D01*
X29802814Y-16951851D01*
X29803287Y-16952851D01*
X29803727Y-16953865D01*
X29804134Y-16954894D01*
X29804506Y-16955935D01*
X29804845Y-16956988D01*
X29805148Y-16958052D01*
X29805417Y-16959125D01*
X29805651Y-16960206D01*
X29805849Y-16961294D01*
X29806011Y-16962388D01*
X29806137Y-16963487D01*
X29806228Y-16964589D01*
X29806282Y-16965694D01*
X29806300Y-16966800D01*
X29806300Y-17199200D01*
X29806282Y-17200306D01*
X29806228Y-17201411D01*
X29806137Y-17202513D01*
X29806011Y-17203612D01*
X29805849Y-17204706D01*
X29805651Y-17205794D01*
X29805417Y-17206875D01*
X29805148Y-17207948D01*
X29804845Y-17209012D01*
X29804506Y-17210065D01*
X29804134Y-17211106D01*
X29803727Y-17212135D01*
X29803287Y-17213149D01*
X29802814Y-17214149D01*
X29802309Y-17215133D01*
X29801772Y-17216100D01*
X29801203Y-17217049D01*
X29800604Y-17217978D01*
X29799974Y-17218888D01*
X29799315Y-17219776D01*
X29798628Y-17220642D01*
X29797912Y-17221486D01*
X29797169Y-17222305D01*
X29796400Y-17223100D01*
X29795605Y-17223869D01*
X29794786Y-17224612D01*
X29793942Y-17225328D01*
X29793076Y-17226015D01*
X29792188Y-17226674D01*
X29791278Y-17227304D01*
X29790349Y-17227903D01*
X29789400Y-17228472D01*
X29788433Y-17229009D01*
X29787449Y-17229514D01*
X29786449Y-17229987D01*
X29785435Y-17230427D01*
X29784406Y-17230834D01*
X29783365Y-17231206D01*
X29782312Y-17231545D01*
X29781248Y-17231848D01*
X29780175Y-17232117D01*
X29779094Y-17232351D01*
X29778006Y-17232549D01*
X29776912Y-17232711D01*
X29775813Y-17232837D01*
X29774711Y-17232928D01*
X29773606Y-17232982D01*
X29772500Y-17233000D01*
X29390100Y-17233000D01*
X29388994Y-17232982D01*
X29387889Y-17232928D01*
X29386787Y-17232837D01*
X29385688Y-17232711D01*
X29384594Y-17232549D01*
X29383506Y-17232351D01*
X29382425Y-17232117D01*
X29381352Y-17231848D01*
X29380288Y-17231545D01*
X29379235Y-17231206D01*
X29378194Y-17230834D01*
X29377165Y-17230427D01*
X29376151Y-17229987D01*
X29375151Y-17229514D01*
X29374167Y-17229009D01*
X29373200Y-17228472D01*
X29372251Y-17227903D01*
X29371322Y-17227304D01*
X29370412Y-17226674D01*
X29369524Y-17226015D01*
X29368658Y-17225328D01*
X29367814Y-17224612D01*
X29366995Y-17223869D01*
X29366200Y-17223100D01*
X29365431Y-17222305D01*
X29364688Y-17221486D01*
X29363972Y-17220642D01*
X29363285Y-17219776D01*
X29362626Y-17218888D01*
X29361996Y-17217978D01*
X29361397Y-17217049D01*
X29360828Y-17216100D01*
X29360291Y-17215133D01*
X29359786Y-17214149D01*
X29359313Y-17213149D01*
X29358873Y-17212135D01*
X29358466Y-17211106D01*
X29358094Y-17210065D01*
X29357755Y-17209012D01*
X29357452Y-17207948D01*
X29357183Y-17206875D01*
X29356949Y-17205794D01*
X29356751Y-17204706D01*
X29356589Y-17203612D01*
X29356463Y-17202513D01*
X29356372Y-17201411D01*
X29356318Y-17200306D01*
X29356300Y-17199200D01*
X29356300Y-16966800D01*
X29356318Y-16965694D01*
X29356372Y-16964589D01*
X29356463Y-16963487D01*
X29356589Y-16962388D01*
X29356751Y-16961294D01*
X29356949Y-16960206D01*
X29357183Y-16959125D01*
X29357452Y-16958052D01*
X29357755Y-16956988D01*
X29358094Y-16955935D01*
X29358466Y-16954894D01*
X29358873Y-16953865D01*
X29359313Y-16952851D01*
X29359786Y-16951851D01*
X29360291Y-16950867D01*
X29360828Y-16949900D01*
X29361397Y-16948951D01*
X29361996Y-16948022D01*
X29362626Y-16947112D01*
X29363285Y-16946224D01*
X29363972Y-16945358D01*
X29364688Y-16944514D01*
X29365431Y-16943695D01*
X29366200Y-16942900D01*
X29366995Y-16942131D01*
X29367814Y-16941388D01*
X29368658Y-16940672D01*
X29369524Y-16939985D01*
X29370412Y-16939326D01*
X29371322Y-16938696D01*
X29372251Y-16938097D01*
X29373200Y-16937528D01*
X29374167Y-16936991D01*
X29375151Y-16936486D01*
X29376151Y-16936013D01*
X29377165Y-16935573D01*
X29378194Y-16935166D01*
X29379235Y-16934794D01*
X29380288Y-16934455D01*
X29381352Y-16934152D01*
X29382425Y-16933883D01*
X29383506Y-16933649D01*
X29384594Y-16933451D01*
X29385688Y-16933289D01*
X29386787Y-16933163D01*
X29387889Y-16933072D01*
X29388994Y-16933018D01*
X29390100Y-16933000D01*
X29772500Y-16933000D01*
X29773606Y-16933018D01*
G37*
G36*
X28373606Y-15933018D02*
G01*
X28374711Y-15933072D01*
X28375813Y-15933163D01*
X28376912Y-15933289D01*
X28378006Y-15933451D01*
X28379094Y-15933649D01*
X28380175Y-15933883D01*
X28381248Y-15934152D01*
X28382312Y-15934455D01*
X28383365Y-15934794D01*
X28384406Y-15935166D01*
X28385435Y-15935573D01*
X28386449Y-15936013D01*
X28387449Y-15936486D01*
X28388433Y-15936991D01*
X28389400Y-15937528D01*
X28390349Y-15938097D01*
X28391278Y-15938696D01*
X28392188Y-15939326D01*
X28393076Y-15939985D01*
X28393942Y-15940672D01*
X28394786Y-15941388D01*
X28395605Y-15942131D01*
X28396400Y-15942900D01*
X28397169Y-15943695D01*
X28397912Y-15944514D01*
X28398628Y-15945358D01*
X28399315Y-15946224D01*
X28399974Y-15947112D01*
X28400604Y-15948022D01*
X28401203Y-15948951D01*
X28401772Y-15949900D01*
X28402309Y-15950867D01*
X28402814Y-15951851D01*
X28403287Y-15952851D01*
X28403727Y-15953865D01*
X28404134Y-15954894D01*
X28404506Y-15955935D01*
X28404845Y-15956988D01*
X28405148Y-15958052D01*
X28405417Y-15959125D01*
X28405651Y-15960206D01*
X28405849Y-15961294D01*
X28406011Y-15962388D01*
X28406137Y-15963487D01*
X28406228Y-15964589D01*
X28406282Y-15965694D01*
X28406300Y-15966800D01*
X28406300Y-16199200D01*
X28406282Y-16200306D01*
X28406228Y-16201411D01*
X28406137Y-16202513D01*
X28406011Y-16203612D01*
X28405849Y-16204706D01*
X28405651Y-16205794D01*
X28405417Y-16206875D01*
X28405148Y-16207948D01*
X28404845Y-16209012D01*
X28404506Y-16210065D01*
X28404134Y-16211106D01*
X28403727Y-16212135D01*
X28403287Y-16213149D01*
X28402814Y-16214149D01*
X28402309Y-16215133D01*
X28401772Y-16216100D01*
X28401203Y-16217049D01*
X28400604Y-16217978D01*
X28399974Y-16218888D01*
X28399315Y-16219776D01*
X28398628Y-16220642D01*
X28397912Y-16221486D01*
X28397169Y-16222305D01*
X28396400Y-16223100D01*
X28395605Y-16223869D01*
X28394786Y-16224612D01*
X28393942Y-16225328D01*
X28393076Y-16226015D01*
X28392188Y-16226674D01*
X28391278Y-16227304D01*
X28390349Y-16227903D01*
X28389400Y-16228472D01*
X28388433Y-16229009D01*
X28387449Y-16229514D01*
X28386449Y-16229987D01*
X28385435Y-16230427D01*
X28384406Y-16230834D01*
X28383365Y-16231206D01*
X28382312Y-16231545D01*
X28381248Y-16231848D01*
X28380175Y-16232117D01*
X28379094Y-16232351D01*
X28378006Y-16232549D01*
X28376912Y-16232711D01*
X28375813Y-16232837D01*
X28374711Y-16232928D01*
X28373606Y-16232982D01*
X28372500Y-16233000D01*
X27990100Y-16233000D01*
X27988994Y-16232982D01*
X27987889Y-16232928D01*
X27986787Y-16232837D01*
X27985688Y-16232711D01*
X27984594Y-16232549D01*
X27983506Y-16232351D01*
X27982425Y-16232117D01*
X27981352Y-16231848D01*
X27980288Y-16231545D01*
X27979235Y-16231206D01*
X27978194Y-16230834D01*
X27977165Y-16230427D01*
X27976151Y-16229987D01*
X27975151Y-16229514D01*
X27974167Y-16229009D01*
X27973200Y-16228472D01*
X27972251Y-16227903D01*
X27971322Y-16227304D01*
X27970412Y-16226674D01*
X27969524Y-16226015D01*
X27968658Y-16225328D01*
X27967814Y-16224612D01*
X27966995Y-16223869D01*
X27966200Y-16223100D01*
X27965431Y-16222305D01*
X27964688Y-16221486D01*
X27963972Y-16220642D01*
X27963285Y-16219776D01*
X27962626Y-16218888D01*
X27961996Y-16217978D01*
X27961397Y-16217049D01*
X27960828Y-16216100D01*
X27960291Y-16215133D01*
X27959786Y-16214149D01*
X27959313Y-16213149D01*
X27958873Y-16212135D01*
X27958466Y-16211106D01*
X27958094Y-16210065D01*
X27957755Y-16209012D01*
X27957452Y-16207948D01*
X27957183Y-16206875D01*
X27956949Y-16205794D01*
X27956751Y-16204706D01*
X27956589Y-16203612D01*
X27956463Y-16202513D01*
X27956372Y-16201411D01*
X27956318Y-16200306D01*
X27956300Y-16199200D01*
X27956300Y-15966800D01*
X27956318Y-15965694D01*
X27956372Y-15964589D01*
X27956463Y-15963487D01*
X27956589Y-15962388D01*
X27956751Y-15961294D01*
X27956949Y-15960206D01*
X27957183Y-15959125D01*
X27957452Y-15958052D01*
X27957755Y-15956988D01*
X27958094Y-15955935D01*
X27958466Y-15954894D01*
X27958873Y-15953865D01*
X27959313Y-15952851D01*
X27959786Y-15951851D01*
X27960291Y-15950867D01*
X27960828Y-15949900D01*
X27961397Y-15948951D01*
X27961996Y-15948022D01*
X27962626Y-15947112D01*
X27963285Y-15946224D01*
X27963972Y-15945358D01*
X27964688Y-15944514D01*
X27965431Y-15943695D01*
X27966200Y-15942900D01*
X27966995Y-15942131D01*
X27967814Y-15941388D01*
X27968658Y-15940672D01*
X27969524Y-15939985D01*
X27970412Y-15939326D01*
X27971322Y-15938696D01*
X27972251Y-15938097D01*
X27973200Y-15937528D01*
X27974167Y-15936991D01*
X27975151Y-15936486D01*
X27976151Y-15936013D01*
X27977165Y-15935573D01*
X27978194Y-15935166D01*
X27979235Y-15934794D01*
X27980288Y-15934455D01*
X27981352Y-15934152D01*
X27982425Y-15933883D01*
X27983506Y-15933649D01*
X27984594Y-15933451D01*
X27985688Y-15933289D01*
X27986787Y-15933163D01*
X27987889Y-15933072D01*
X27988994Y-15933018D01*
X27990100Y-15933000D01*
X28372500Y-15933000D01*
X28373606Y-15933018D01*
G37*
G36*
X28373606Y-16433018D02*
G01*
X28374711Y-16433072D01*
X28375813Y-16433163D01*
X28376912Y-16433289D01*
X28378006Y-16433451D01*
X28379094Y-16433649D01*
X28380175Y-16433883D01*
X28381248Y-16434152D01*
X28382312Y-16434455D01*
X28383365Y-16434794D01*
X28384406Y-16435166D01*
X28385435Y-16435573D01*
X28386449Y-16436013D01*
X28387449Y-16436486D01*
X28388433Y-16436991D01*
X28389400Y-16437528D01*
X28390349Y-16438097D01*
X28391278Y-16438696D01*
X28392188Y-16439326D01*
X28393076Y-16439985D01*
X28393942Y-16440672D01*
X28394786Y-16441388D01*
X28395605Y-16442131D01*
X28396400Y-16442900D01*
X28397169Y-16443695D01*
X28397912Y-16444514D01*
X28398628Y-16445358D01*
X28399315Y-16446224D01*
X28399974Y-16447112D01*
X28400604Y-16448022D01*
X28401203Y-16448951D01*
X28401772Y-16449900D01*
X28402309Y-16450867D01*
X28402814Y-16451851D01*
X28403287Y-16452851D01*
X28403727Y-16453865D01*
X28404134Y-16454894D01*
X28404506Y-16455935D01*
X28404845Y-16456988D01*
X28405148Y-16458052D01*
X28405417Y-16459125D01*
X28405651Y-16460206D01*
X28405849Y-16461294D01*
X28406011Y-16462388D01*
X28406137Y-16463487D01*
X28406228Y-16464589D01*
X28406282Y-16465694D01*
X28406300Y-16466800D01*
X28406300Y-16699200D01*
X28406282Y-16700306D01*
X28406228Y-16701411D01*
X28406137Y-16702513D01*
X28406011Y-16703612D01*
X28405849Y-16704706D01*
X28405651Y-16705794D01*
X28405417Y-16706875D01*
X28405148Y-16707948D01*
X28404845Y-16709012D01*
X28404506Y-16710065D01*
X28404134Y-16711106D01*
X28403727Y-16712135D01*
X28403287Y-16713149D01*
X28402814Y-16714149D01*
X28402309Y-16715133D01*
X28401772Y-16716100D01*
X28401203Y-16717049D01*
X28400604Y-16717978D01*
X28399974Y-16718888D01*
X28399315Y-16719776D01*
X28398628Y-16720642D01*
X28397912Y-16721486D01*
X28397169Y-16722305D01*
X28396400Y-16723100D01*
X28395605Y-16723869D01*
X28394786Y-16724612D01*
X28393942Y-16725328D01*
X28393076Y-16726015D01*
X28392188Y-16726674D01*
X28391278Y-16727304D01*
X28390349Y-16727903D01*
X28389400Y-16728472D01*
X28388433Y-16729009D01*
X28387449Y-16729514D01*
X28386449Y-16729987D01*
X28385435Y-16730427D01*
X28384406Y-16730834D01*
X28383365Y-16731206D01*
X28382312Y-16731545D01*
X28381248Y-16731848D01*
X28380175Y-16732117D01*
X28379094Y-16732351D01*
X28378006Y-16732549D01*
X28376912Y-16732711D01*
X28375813Y-16732837D01*
X28374711Y-16732928D01*
X28373606Y-16732982D01*
X28372500Y-16733000D01*
X27990100Y-16733000D01*
X27988994Y-16732982D01*
X27987889Y-16732928D01*
X27986787Y-16732837D01*
X27985688Y-16732711D01*
X27984594Y-16732549D01*
X27983506Y-16732351D01*
X27982425Y-16732117D01*
X27981352Y-16731848D01*
X27980288Y-16731545D01*
X27979235Y-16731206D01*
X27978194Y-16730834D01*
X27977165Y-16730427D01*
X27976151Y-16729987D01*
X27975151Y-16729514D01*
X27974167Y-16729009D01*
X27973200Y-16728472D01*
X27972251Y-16727903D01*
X27971322Y-16727304D01*
X27970412Y-16726674D01*
X27969524Y-16726015D01*
X27968658Y-16725328D01*
X27967814Y-16724612D01*
X27966995Y-16723869D01*
X27966200Y-16723100D01*
X27965431Y-16722305D01*
X27964688Y-16721486D01*
X27963972Y-16720642D01*
X27963285Y-16719776D01*
X27962626Y-16718888D01*
X27961996Y-16717978D01*
X27961397Y-16717049D01*
X27960828Y-16716100D01*
X27960291Y-16715133D01*
X27959786Y-16714149D01*
X27959313Y-16713149D01*
X27958873Y-16712135D01*
X27958466Y-16711106D01*
X27958094Y-16710065D01*
X27957755Y-16709012D01*
X27957452Y-16707948D01*
X27957183Y-16706875D01*
X27956949Y-16705794D01*
X27956751Y-16704706D01*
X27956589Y-16703612D01*
X27956463Y-16702513D01*
X27956372Y-16701411D01*
X27956318Y-16700306D01*
X27956300Y-16699200D01*
X27956300Y-16466800D01*
X27956318Y-16465694D01*
X27956372Y-16464589D01*
X27956463Y-16463487D01*
X27956589Y-16462388D01*
X27956751Y-16461294D01*
X27956949Y-16460206D01*
X27957183Y-16459125D01*
X27957452Y-16458052D01*
X27957755Y-16456988D01*
X27958094Y-16455935D01*
X27958466Y-16454894D01*
X27958873Y-16453865D01*
X27959313Y-16452851D01*
X27959786Y-16451851D01*
X27960291Y-16450867D01*
X27960828Y-16449900D01*
X27961397Y-16448951D01*
X27961996Y-16448022D01*
X27962626Y-16447112D01*
X27963285Y-16446224D01*
X27963972Y-16445358D01*
X27964688Y-16444514D01*
X27965431Y-16443695D01*
X27966200Y-16442900D01*
X27966995Y-16442131D01*
X27967814Y-16441388D01*
X27968658Y-16440672D01*
X27969524Y-16439985D01*
X27970412Y-16439326D01*
X27971322Y-16438696D01*
X27972251Y-16438097D01*
X27973200Y-16437528D01*
X27974167Y-16436991D01*
X27975151Y-16436486D01*
X27976151Y-16436013D01*
X27977165Y-16435573D01*
X27978194Y-16435166D01*
X27979235Y-16434794D01*
X27980288Y-16434455D01*
X27981352Y-16434152D01*
X27982425Y-16433883D01*
X27983506Y-16433649D01*
X27984594Y-16433451D01*
X27985688Y-16433289D01*
X27986787Y-16433163D01*
X27987889Y-16433072D01*
X27988994Y-16433018D01*
X27990100Y-16433000D01*
X28372500Y-16433000D01*
X28373606Y-16433018D01*
G37*
G36*
X29773606Y-15933018D02*
G01*
X29774711Y-15933072D01*
X29775813Y-15933163D01*
X29776912Y-15933289D01*
X29778006Y-15933451D01*
X29779094Y-15933649D01*
X29780175Y-15933883D01*
X29781248Y-15934152D01*
X29782312Y-15934455D01*
X29783365Y-15934794D01*
X29784406Y-15935166D01*
X29785435Y-15935573D01*
X29786449Y-15936013D01*
X29787449Y-15936486D01*
X29788433Y-15936991D01*
X29789400Y-15937528D01*
X29790349Y-15938097D01*
X29791278Y-15938696D01*
X29792188Y-15939326D01*
X29793076Y-15939985D01*
X29793942Y-15940672D01*
X29794786Y-15941388D01*
X29795605Y-15942131D01*
X29796400Y-15942900D01*
X29797169Y-15943695D01*
X29797912Y-15944514D01*
X29798628Y-15945358D01*
X29799315Y-15946224D01*
X29799974Y-15947112D01*
X29800604Y-15948022D01*
X29801203Y-15948951D01*
X29801772Y-15949900D01*
X29802309Y-15950867D01*
X29802814Y-15951851D01*
X29803287Y-15952851D01*
X29803727Y-15953865D01*
X29804134Y-15954894D01*
X29804506Y-15955935D01*
X29804845Y-15956988D01*
X29805148Y-15958052D01*
X29805417Y-15959125D01*
X29805651Y-15960206D01*
X29805849Y-15961294D01*
X29806011Y-15962388D01*
X29806137Y-15963487D01*
X29806228Y-15964589D01*
X29806282Y-15965694D01*
X29806300Y-15966800D01*
X29806300Y-16199200D01*
X29806282Y-16200306D01*
X29806228Y-16201411D01*
X29806137Y-16202513D01*
X29806011Y-16203612D01*
X29805849Y-16204706D01*
X29805651Y-16205794D01*
X29805417Y-16206875D01*
X29805148Y-16207948D01*
X29804845Y-16209012D01*
X29804506Y-16210065D01*
X29804134Y-16211106D01*
X29803727Y-16212135D01*
X29803287Y-16213149D01*
X29802814Y-16214149D01*
X29802309Y-16215133D01*
X29801772Y-16216100D01*
X29801203Y-16217049D01*
X29800604Y-16217978D01*
X29799974Y-16218888D01*
X29799315Y-16219776D01*
X29798628Y-16220642D01*
X29797912Y-16221486D01*
X29797169Y-16222305D01*
X29796400Y-16223100D01*
X29795605Y-16223869D01*
X29794786Y-16224612D01*
X29793942Y-16225328D01*
X29793076Y-16226015D01*
X29792188Y-16226674D01*
X29791278Y-16227304D01*
X29790349Y-16227903D01*
X29789400Y-16228472D01*
X29788433Y-16229009D01*
X29787449Y-16229514D01*
X29786449Y-16229987D01*
X29785435Y-16230427D01*
X29784406Y-16230834D01*
X29783365Y-16231206D01*
X29782312Y-16231545D01*
X29781248Y-16231848D01*
X29780175Y-16232117D01*
X29779094Y-16232351D01*
X29778006Y-16232549D01*
X29776912Y-16232711D01*
X29775813Y-16232837D01*
X29774711Y-16232928D01*
X29773606Y-16232982D01*
X29772500Y-16233000D01*
X29390100Y-16233000D01*
X29388994Y-16232982D01*
X29387889Y-16232928D01*
X29386787Y-16232837D01*
X29385688Y-16232711D01*
X29384594Y-16232549D01*
X29383506Y-16232351D01*
X29382425Y-16232117D01*
X29381352Y-16231848D01*
X29380288Y-16231545D01*
X29379235Y-16231206D01*
X29378194Y-16230834D01*
X29377165Y-16230427D01*
X29376151Y-16229987D01*
X29375151Y-16229514D01*
X29374167Y-16229009D01*
X29373200Y-16228472D01*
X29372251Y-16227903D01*
X29371322Y-16227304D01*
X29370412Y-16226674D01*
X29369524Y-16226015D01*
X29368658Y-16225328D01*
X29367814Y-16224612D01*
X29366995Y-16223869D01*
X29366200Y-16223100D01*
X29365431Y-16222305D01*
X29364688Y-16221486D01*
X29363972Y-16220642D01*
X29363285Y-16219776D01*
X29362626Y-16218888D01*
X29361996Y-16217978D01*
X29361397Y-16217049D01*
X29360828Y-16216100D01*
X29360291Y-16215133D01*
X29359786Y-16214149D01*
X29359313Y-16213149D01*
X29358873Y-16212135D01*
X29358466Y-16211106D01*
X29358094Y-16210065D01*
X29357755Y-16209012D01*
X29357452Y-16207948D01*
X29357183Y-16206875D01*
X29356949Y-16205794D01*
X29356751Y-16204706D01*
X29356589Y-16203612D01*
X29356463Y-16202513D01*
X29356372Y-16201411D01*
X29356318Y-16200306D01*
X29356300Y-16199200D01*
X29356300Y-15966800D01*
X29356318Y-15965694D01*
X29356372Y-15964589D01*
X29356463Y-15963487D01*
X29356589Y-15962388D01*
X29356751Y-15961294D01*
X29356949Y-15960206D01*
X29357183Y-15959125D01*
X29357452Y-15958052D01*
X29357755Y-15956988D01*
X29358094Y-15955935D01*
X29358466Y-15954894D01*
X29358873Y-15953865D01*
X29359313Y-15952851D01*
X29359786Y-15951851D01*
X29360291Y-15950867D01*
X29360828Y-15949900D01*
X29361397Y-15948951D01*
X29361996Y-15948022D01*
X29362626Y-15947112D01*
X29363285Y-15946224D01*
X29363972Y-15945358D01*
X29364688Y-15944514D01*
X29365431Y-15943695D01*
X29366200Y-15942900D01*
X29366995Y-15942131D01*
X29367814Y-15941388D01*
X29368658Y-15940672D01*
X29369524Y-15939985D01*
X29370412Y-15939326D01*
X29371322Y-15938696D01*
X29372251Y-15938097D01*
X29373200Y-15937528D01*
X29374167Y-15936991D01*
X29375151Y-15936486D01*
X29376151Y-15936013D01*
X29377165Y-15935573D01*
X29378194Y-15935166D01*
X29379235Y-15934794D01*
X29380288Y-15934455D01*
X29381352Y-15934152D01*
X29382425Y-15933883D01*
X29383506Y-15933649D01*
X29384594Y-15933451D01*
X29385688Y-15933289D01*
X29386787Y-15933163D01*
X29387889Y-15933072D01*
X29388994Y-15933018D01*
X29390100Y-15933000D01*
X29772500Y-15933000D01*
X29773606Y-15933018D01*
G37*
G36*
X6290130Y23567462D02*
G01*
X6292457Y23567348D01*
X6294779Y23567157D01*
X6297093Y23566891D01*
X6299398Y23566549D01*
X6301690Y23566132D01*
X6303968Y23565640D01*
X6306228Y23565074D01*
X6308468Y23564434D01*
X6310686Y23563721D01*
X6312880Y23562937D01*
X6315047Y23562080D01*
X6317185Y23561154D01*
X6319291Y23560157D01*
X6321363Y23559093D01*
X6323400Y23557961D01*
X6325398Y23556763D01*
X6327357Y23555501D01*
X6329272Y23554175D01*
X6331144Y23552787D01*
X6332969Y23551338D01*
X6334745Y23549831D01*
X6336472Y23548266D01*
X6338146Y23546646D01*
X6339766Y23544972D01*
X6341331Y23543245D01*
X6342838Y23541469D01*
X6344287Y23539644D01*
X6345675Y23537772D01*
X6347001Y23535857D01*
X6348263Y23533898D01*
X6349461Y23531900D01*
X6350593Y23529863D01*
X6351657Y23527791D01*
X6352654Y23525685D01*
X6353580Y23523547D01*
X6354437Y23521380D01*
X6355221Y23519186D01*
X6355934Y23516968D01*
X6356574Y23514728D01*
X6357140Y23512468D01*
X6357632Y23510190D01*
X6358049Y23507898D01*
X6358391Y23505593D01*
X6358657Y23503279D01*
X6358848Y23500957D01*
X6358962Y23498630D01*
X6359000Y23496300D01*
X6359000Y22688700D01*
X6358962Y22686370D01*
X6358848Y22684043D01*
X6358657Y22681721D01*
X6358391Y22679407D01*
X6358049Y22677102D01*
X6357632Y22674810D01*
X6357140Y22672532D01*
X6356574Y22670272D01*
X6355934Y22668032D01*
X6355221Y22665814D01*
X6354437Y22663620D01*
X6353580Y22661453D01*
X6352654Y22659315D01*
X6351657Y22657209D01*
X6350593Y22655137D01*
X6349461Y22653100D01*
X6348263Y22651102D01*
X6347001Y22649143D01*
X6345675Y22647228D01*
X6344287Y22645356D01*
X6342838Y22643531D01*
X6341331Y22641755D01*
X6339766Y22640028D01*
X6338146Y22638354D01*
X6336472Y22636734D01*
X6334745Y22635169D01*
X6332969Y22633662D01*
X6331144Y22632213D01*
X6329272Y22630825D01*
X6327357Y22629499D01*
X6325398Y22628237D01*
X6323400Y22627039D01*
X6321363Y22625907D01*
X6319291Y22624843D01*
X6317185Y22623846D01*
X6315047Y22622920D01*
X6312880Y22622063D01*
X6310686Y22621279D01*
X6308468Y22620566D01*
X6306228Y22619926D01*
X6303968Y22619360D01*
X6301690Y22618868D01*
X6299398Y22618451D01*
X6297093Y22618109D01*
X6294779Y22617843D01*
X6292457Y22617652D01*
X6290130Y22617538D01*
X6287800Y22617500D01*
X5530200Y22617500D01*
X5527870Y22617538D01*
X5525543Y22617652D01*
X5523221Y22617843D01*
X5520907Y22618109D01*
X5518602Y22618451D01*
X5516310Y22618868D01*
X5514032Y22619360D01*
X5511772Y22619926D01*
X5509532Y22620566D01*
X5507314Y22621279D01*
X5505120Y22622063D01*
X5502953Y22622920D01*
X5500815Y22623846D01*
X5498709Y22624843D01*
X5496637Y22625907D01*
X5494600Y22627039D01*
X5492602Y22628237D01*
X5490643Y22629499D01*
X5488728Y22630825D01*
X5486856Y22632213D01*
X5485031Y22633662D01*
X5483255Y22635169D01*
X5481528Y22636734D01*
X5479854Y22638354D01*
X5478234Y22640028D01*
X5476669Y22641755D01*
X5475162Y22643531D01*
X5473713Y22645356D01*
X5472325Y22647228D01*
X5470999Y22649143D01*
X5469737Y22651102D01*
X5468539Y22653100D01*
X5467407Y22655137D01*
X5466343Y22657209D01*
X5465346Y22659315D01*
X5464420Y22661453D01*
X5463563Y22663620D01*
X5462779Y22665814D01*
X5462066Y22668032D01*
X5461426Y22670272D01*
X5460860Y22672532D01*
X5460368Y22674810D01*
X5459951Y22677102D01*
X5459609Y22679407D01*
X5459343Y22681721D01*
X5459152Y22684043D01*
X5459038Y22686370D01*
X5459000Y22688700D01*
X5459000Y23496300D01*
X5459038Y23498630D01*
X5459152Y23500957D01*
X5459343Y23503279D01*
X5459609Y23505593D01*
X5459951Y23507898D01*
X5460368Y23510190D01*
X5460860Y23512468D01*
X5461426Y23514728D01*
X5462066Y23516968D01*
X5462779Y23519186D01*
X5463563Y23521380D01*
X5464420Y23523547D01*
X5465346Y23525685D01*
X5466343Y23527791D01*
X5467407Y23529863D01*
X5468539Y23531900D01*
X5469737Y23533898D01*
X5470999Y23535857D01*
X5472325Y23537772D01*
X5473713Y23539644D01*
X5475162Y23541469D01*
X5476669Y23543245D01*
X5478234Y23544972D01*
X5479854Y23546646D01*
X5481528Y23548266D01*
X5483255Y23549831D01*
X5485031Y23551338D01*
X5486856Y23552787D01*
X5488728Y23554175D01*
X5490643Y23555501D01*
X5492602Y23556763D01*
X5494600Y23557961D01*
X5496637Y23559093D01*
X5498709Y23560157D01*
X5500815Y23561154D01*
X5502953Y23562080D01*
X5505120Y23562937D01*
X5507314Y23563721D01*
X5509532Y23564434D01*
X5511772Y23565074D01*
X5514032Y23565640D01*
X5516310Y23566132D01*
X5518602Y23566549D01*
X5520907Y23566891D01*
X5523221Y23567157D01*
X5525543Y23567348D01*
X5527870Y23567462D01*
X5530200Y23567500D01*
X6287800Y23567500D01*
X6290130Y23567462D01*
G37*
G36*
X7840130Y23567462D02*
G01*
X7842457Y23567348D01*
X7844779Y23567157D01*
X7847093Y23566891D01*
X7849398Y23566549D01*
X7851690Y23566132D01*
X7853968Y23565640D01*
X7856228Y23565074D01*
X7858468Y23564434D01*
X7860686Y23563721D01*
X7862880Y23562937D01*
X7865047Y23562080D01*
X7867185Y23561154D01*
X7869291Y23560157D01*
X7871363Y23559093D01*
X7873400Y23557961D01*
X7875398Y23556763D01*
X7877357Y23555501D01*
X7879272Y23554175D01*
X7881144Y23552787D01*
X7882969Y23551338D01*
X7884745Y23549831D01*
X7886472Y23548266D01*
X7888146Y23546646D01*
X7889766Y23544972D01*
X7891331Y23543245D01*
X7892838Y23541469D01*
X7894287Y23539644D01*
X7895675Y23537772D01*
X7897001Y23535857D01*
X7898263Y23533898D01*
X7899461Y23531900D01*
X7900593Y23529863D01*
X7901657Y23527791D01*
X7902654Y23525685D01*
X7903580Y23523547D01*
X7904437Y23521380D01*
X7905221Y23519186D01*
X7905934Y23516968D01*
X7906574Y23514728D01*
X7907140Y23512468D01*
X7907632Y23510190D01*
X7908049Y23507898D01*
X7908391Y23505593D01*
X7908657Y23503279D01*
X7908848Y23500957D01*
X7908962Y23498630D01*
X7909000Y23496300D01*
X7909000Y22688700D01*
X7908962Y22686370D01*
X7908848Y22684043D01*
X7908657Y22681721D01*
X7908391Y22679407D01*
X7908049Y22677102D01*
X7907632Y22674810D01*
X7907140Y22672532D01*
X7906574Y22670272D01*
X7905934Y22668032D01*
X7905221Y22665814D01*
X7904437Y22663620D01*
X7903580Y22661453D01*
X7902654Y22659315D01*
X7901657Y22657209D01*
X7900593Y22655137D01*
X7899461Y22653100D01*
X7898263Y22651102D01*
X7897001Y22649143D01*
X7895675Y22647228D01*
X7894287Y22645356D01*
X7892838Y22643531D01*
X7891331Y22641755D01*
X7889766Y22640028D01*
X7888146Y22638354D01*
X7886472Y22636734D01*
X7884745Y22635169D01*
X7882969Y22633662D01*
X7881144Y22632213D01*
X7879272Y22630825D01*
X7877357Y22629499D01*
X7875398Y22628237D01*
X7873400Y22627039D01*
X7871363Y22625907D01*
X7869291Y22624843D01*
X7867185Y22623846D01*
X7865047Y22622920D01*
X7862880Y22622063D01*
X7860686Y22621279D01*
X7858468Y22620566D01*
X7856228Y22619926D01*
X7853968Y22619360D01*
X7851690Y22618868D01*
X7849398Y22618451D01*
X7847093Y22618109D01*
X7844779Y22617843D01*
X7842457Y22617652D01*
X7840130Y22617538D01*
X7837800Y22617500D01*
X7080200Y22617500D01*
X7077870Y22617538D01*
X7075543Y22617652D01*
X7073221Y22617843D01*
X7070907Y22618109D01*
X7068602Y22618451D01*
X7066310Y22618868D01*
X7064032Y22619360D01*
X7061772Y22619926D01*
X7059532Y22620566D01*
X7057314Y22621279D01*
X7055120Y22622063D01*
X7052953Y22622920D01*
X7050815Y22623846D01*
X7048709Y22624843D01*
X7046637Y22625907D01*
X7044600Y22627039D01*
X7042602Y22628237D01*
X7040643Y22629499D01*
X7038728Y22630825D01*
X7036856Y22632213D01*
X7035031Y22633662D01*
X7033255Y22635169D01*
X7031528Y22636734D01*
X7029854Y22638354D01*
X7028234Y22640028D01*
X7026669Y22641755D01*
X7025162Y22643531D01*
X7023713Y22645356D01*
X7022325Y22647228D01*
X7020999Y22649143D01*
X7019737Y22651102D01*
X7018539Y22653100D01*
X7017407Y22655137D01*
X7016343Y22657209D01*
X7015346Y22659315D01*
X7014420Y22661453D01*
X7013563Y22663620D01*
X7012779Y22665814D01*
X7012066Y22668032D01*
X7011426Y22670272D01*
X7010860Y22672532D01*
X7010368Y22674810D01*
X7009951Y22677102D01*
X7009609Y22679407D01*
X7009343Y22681721D01*
X7009152Y22684043D01*
X7009038Y22686370D01*
X7009000Y22688700D01*
X7009000Y23496300D01*
X7009038Y23498630D01*
X7009152Y23500957D01*
X7009343Y23503279D01*
X7009609Y23505593D01*
X7009951Y23507898D01*
X7010368Y23510190D01*
X7010860Y23512468D01*
X7011426Y23514728D01*
X7012066Y23516968D01*
X7012779Y23519186D01*
X7013563Y23521380D01*
X7014420Y23523547D01*
X7015346Y23525685D01*
X7016343Y23527791D01*
X7017407Y23529863D01*
X7018539Y23531900D01*
X7019737Y23533898D01*
X7020999Y23535857D01*
X7022325Y23537772D01*
X7023713Y23539644D01*
X7025162Y23541469D01*
X7026669Y23543245D01*
X7028234Y23544972D01*
X7029854Y23546646D01*
X7031528Y23548266D01*
X7033255Y23549831D01*
X7035031Y23551338D01*
X7036856Y23552787D01*
X7038728Y23554175D01*
X7040643Y23555501D01*
X7042602Y23556763D01*
X7044600Y23557961D01*
X7046637Y23559093D01*
X7048709Y23560157D01*
X7050815Y23561154D01*
X7052953Y23562080D01*
X7055120Y23562937D01*
X7057314Y23563721D01*
X7059532Y23564434D01*
X7061772Y23565074D01*
X7064032Y23565640D01*
X7066310Y23566132D01*
X7068602Y23566549D01*
X7070907Y23566891D01*
X7073221Y23567157D01*
X7075543Y23567348D01*
X7077870Y23567462D01*
X7080200Y23567500D01*
X7837800Y23567500D01*
X7840130Y23567462D01*
G37*
G36*
X-14035370Y6005962D02*
G01*
X-14033043Y6005848D01*
X-14030721Y6005657D01*
X-14028407Y6005391D01*
X-14026102Y6005049D01*
X-14023810Y6004632D01*
X-14021532Y6004140D01*
X-14019272Y6003574D01*
X-14017032Y6002934D01*
X-14014814Y6002221D01*
X-14012620Y6001437D01*
X-14010453Y6000580D01*
X-14008315Y5999654D01*
X-14006209Y5998657D01*
X-14004137Y5997593D01*
X-14002100Y5996461D01*
X-14000102Y5995263D01*
X-13998143Y5994001D01*
X-13996228Y5992675D01*
X-13994356Y5991287D01*
X-13992531Y5989838D01*
X-13990755Y5988331D01*
X-13989028Y5986766D01*
X-13987354Y5985146D01*
X-13985734Y5983472D01*
X-13984169Y5981745D01*
X-13982662Y5979969D01*
X-13981213Y5978144D01*
X-13979825Y5976272D01*
X-13978499Y5974357D01*
X-13977237Y5972398D01*
X-13976039Y5970400D01*
X-13974907Y5968363D01*
X-13973843Y5966291D01*
X-13972846Y5964185D01*
X-13971920Y5962047D01*
X-13971063Y5959880D01*
X-13970279Y5957686D01*
X-13969566Y5955468D01*
X-13968926Y5953228D01*
X-13968360Y5950968D01*
X-13967868Y5948690D01*
X-13967451Y5946398D01*
X-13967109Y5944093D01*
X-13966843Y5941779D01*
X-13966652Y5939457D01*
X-13966538Y5937130D01*
X-13966500Y5934800D01*
X-13966500Y5127200D01*
X-13966538Y5124870D01*
X-13966652Y5122543D01*
X-13966843Y5120221D01*
X-13967109Y5117907D01*
X-13967451Y5115602D01*
X-13967868Y5113310D01*
X-13968360Y5111032D01*
X-13968926Y5108772D01*
X-13969566Y5106532D01*
X-13970279Y5104314D01*
X-13971063Y5102120D01*
X-13971920Y5099953D01*
X-13972846Y5097815D01*
X-13973843Y5095709D01*
X-13974907Y5093637D01*
X-13976039Y5091600D01*
X-13977237Y5089602D01*
X-13978499Y5087643D01*
X-13979825Y5085728D01*
X-13981213Y5083856D01*
X-13982662Y5082031D01*
X-13984169Y5080255D01*
X-13985734Y5078528D01*
X-13987354Y5076854D01*
X-13989028Y5075234D01*
X-13990755Y5073669D01*
X-13992531Y5072162D01*
X-13994356Y5070713D01*
X-13996228Y5069325D01*
X-13998143Y5067999D01*
X-14000102Y5066737D01*
X-14002100Y5065539D01*
X-14004137Y5064407D01*
X-14006209Y5063343D01*
X-14008315Y5062346D01*
X-14010453Y5061420D01*
X-14012620Y5060563D01*
X-14014814Y5059779D01*
X-14017032Y5059066D01*
X-14019272Y5058426D01*
X-14021532Y5057860D01*
X-14023810Y5057368D01*
X-14026102Y5056951D01*
X-14028407Y5056609D01*
X-14030721Y5056343D01*
X-14033043Y5056152D01*
X-14035370Y5056038D01*
X-14037700Y5056000D01*
X-14795300Y5056000D01*
X-14797630Y5056038D01*
X-14799957Y5056152D01*
X-14802279Y5056343D01*
X-14804593Y5056609D01*
X-14806898Y5056951D01*
X-14809190Y5057368D01*
X-14811468Y5057860D01*
X-14813728Y5058426D01*
X-14815968Y5059066D01*
X-14818186Y5059779D01*
X-14820380Y5060563D01*
X-14822547Y5061420D01*
X-14824685Y5062346D01*
X-14826791Y5063343D01*
X-14828863Y5064407D01*
X-14830900Y5065539D01*
X-14832898Y5066737D01*
X-14834857Y5067999D01*
X-14836772Y5069325D01*
X-14838644Y5070713D01*
X-14840469Y5072162D01*
X-14842245Y5073669D01*
X-14843972Y5075234D01*
X-14845646Y5076854D01*
X-14847266Y5078528D01*
X-14848831Y5080255D01*
X-14850338Y5082031D01*
X-14851787Y5083856D01*
X-14853175Y5085728D01*
X-14854501Y5087643D01*
X-14855763Y5089602D01*
X-14856961Y5091600D01*
X-14858093Y5093637D01*
X-14859157Y5095709D01*
X-14860154Y5097815D01*
X-14861080Y5099953D01*
X-14861937Y5102120D01*
X-14862721Y5104314D01*
X-14863434Y5106532D01*
X-14864074Y5108772D01*
X-14864640Y5111032D01*
X-14865132Y5113310D01*
X-14865549Y5115602D01*
X-14865891Y5117907D01*
X-14866157Y5120221D01*
X-14866348Y5122543D01*
X-14866462Y5124870D01*
X-14866500Y5127200D01*
X-14866500Y5934800D01*
X-14866462Y5937130D01*
X-14866348Y5939457D01*
X-14866157Y5941779D01*
X-14865891Y5944093D01*
X-14865549Y5946398D01*
X-14865132Y5948690D01*
X-14864640Y5950968D01*
X-14864074Y5953228D01*
X-14863434Y5955468D01*
X-14862721Y5957686D01*
X-14861937Y5959880D01*
X-14861080Y5962047D01*
X-14860154Y5964185D01*
X-14859157Y5966291D01*
X-14858093Y5968363D01*
X-14856961Y5970400D01*
X-14855763Y5972398D01*
X-14854501Y5974357D01*
X-14853175Y5976272D01*
X-14851787Y5978144D01*
X-14850338Y5979969D01*
X-14848831Y5981745D01*
X-14847266Y5983472D01*
X-14845646Y5985146D01*
X-14843972Y5986766D01*
X-14842245Y5988331D01*
X-14840469Y5989838D01*
X-14838644Y5991287D01*
X-14836772Y5992675D01*
X-14834857Y5994001D01*
X-14832898Y5995263D01*
X-14830900Y5996461D01*
X-14828863Y5997593D01*
X-14826791Y5998657D01*
X-14824685Y5999654D01*
X-14822547Y6000580D01*
X-14820380Y6001437D01*
X-14818186Y6002221D01*
X-14815968Y6002934D01*
X-14813728Y6003574D01*
X-14811468Y6004140D01*
X-14809190Y6004632D01*
X-14806898Y6005049D01*
X-14804593Y6005391D01*
X-14802279Y6005657D01*
X-14799957Y6005848D01*
X-14797630Y6005962D01*
X-14795300Y6006000D01*
X-14037700Y6006000D01*
X-14035370Y6005962D01*
G37*
G36*
X-12485370Y6005962D02*
G01*
X-12483043Y6005848D01*
X-12480721Y6005657D01*
X-12478407Y6005391D01*
X-12476102Y6005049D01*
X-12473810Y6004632D01*
X-12471532Y6004140D01*
X-12469272Y6003574D01*
X-12467032Y6002934D01*
X-12464814Y6002221D01*
X-12462620Y6001437D01*
X-12460453Y6000580D01*
X-12458315Y5999654D01*
X-12456209Y5998657D01*
X-12454137Y5997593D01*
X-12452100Y5996461D01*
X-12450102Y5995263D01*
X-12448143Y5994001D01*
X-12446228Y5992675D01*
X-12444356Y5991287D01*
X-12442531Y5989838D01*
X-12440755Y5988331D01*
X-12439028Y5986766D01*
X-12437354Y5985146D01*
X-12435734Y5983472D01*
X-12434169Y5981745D01*
X-12432662Y5979969D01*
X-12431213Y5978144D01*
X-12429825Y5976272D01*
X-12428499Y5974357D01*
X-12427237Y5972398D01*
X-12426039Y5970400D01*
X-12424907Y5968363D01*
X-12423843Y5966291D01*
X-12422846Y5964185D01*
X-12421920Y5962047D01*
X-12421063Y5959880D01*
X-12420279Y5957686D01*
X-12419566Y5955468D01*
X-12418926Y5953228D01*
X-12418360Y5950968D01*
X-12417868Y5948690D01*
X-12417451Y5946398D01*
X-12417109Y5944093D01*
X-12416843Y5941779D01*
X-12416652Y5939457D01*
X-12416538Y5937130D01*
X-12416500Y5934800D01*
X-12416500Y5127200D01*
X-12416538Y5124870D01*
X-12416652Y5122543D01*
X-12416843Y5120221D01*
X-12417109Y5117907D01*
X-12417451Y5115602D01*
X-12417868Y5113310D01*
X-12418360Y5111032D01*
X-12418926Y5108772D01*
X-12419566Y5106532D01*
X-12420279Y5104314D01*
X-12421063Y5102120D01*
X-12421920Y5099953D01*
X-12422846Y5097815D01*
X-12423843Y5095709D01*
X-12424907Y5093637D01*
X-12426039Y5091600D01*
X-12427237Y5089602D01*
X-12428499Y5087643D01*
X-12429825Y5085728D01*
X-12431213Y5083856D01*
X-12432662Y5082031D01*
X-12434169Y5080255D01*
X-12435734Y5078528D01*
X-12437354Y5076854D01*
X-12439028Y5075234D01*
X-12440755Y5073669D01*
X-12442531Y5072162D01*
X-12444356Y5070713D01*
X-12446228Y5069325D01*
X-12448143Y5067999D01*
X-12450102Y5066737D01*
X-12452100Y5065539D01*
X-12454137Y5064407D01*
X-12456209Y5063343D01*
X-12458315Y5062346D01*
X-12460453Y5061420D01*
X-12462620Y5060563D01*
X-12464814Y5059779D01*
X-12467032Y5059066D01*
X-12469272Y5058426D01*
X-12471532Y5057860D01*
X-12473810Y5057368D01*
X-12476102Y5056951D01*
X-12478407Y5056609D01*
X-12480721Y5056343D01*
X-12483043Y5056152D01*
X-12485370Y5056038D01*
X-12487700Y5056000D01*
X-13245300Y5056000D01*
X-13247630Y5056038D01*
X-13249957Y5056152D01*
X-13252279Y5056343D01*
X-13254593Y5056609D01*
X-13256898Y5056951D01*
X-13259190Y5057368D01*
X-13261468Y5057860D01*
X-13263728Y5058426D01*
X-13265968Y5059066D01*
X-13268186Y5059779D01*
X-13270380Y5060563D01*
X-13272547Y5061420D01*
X-13274685Y5062346D01*
X-13276791Y5063343D01*
X-13278863Y5064407D01*
X-13280900Y5065539D01*
X-13282898Y5066737D01*
X-13284857Y5067999D01*
X-13286772Y5069325D01*
X-13288644Y5070713D01*
X-13290469Y5072162D01*
X-13292245Y5073669D01*
X-13293972Y5075234D01*
X-13295646Y5076854D01*
X-13297266Y5078528D01*
X-13298831Y5080255D01*
X-13300338Y5082031D01*
X-13301787Y5083856D01*
X-13303175Y5085728D01*
X-13304501Y5087643D01*
X-13305763Y5089602D01*
X-13306961Y5091600D01*
X-13308093Y5093637D01*
X-13309157Y5095709D01*
X-13310154Y5097815D01*
X-13311080Y5099953D01*
X-13311937Y5102120D01*
X-13312721Y5104314D01*
X-13313434Y5106532D01*
X-13314074Y5108772D01*
X-13314640Y5111032D01*
X-13315132Y5113310D01*
X-13315549Y5115602D01*
X-13315891Y5117907D01*
X-13316157Y5120221D01*
X-13316348Y5122543D01*
X-13316462Y5124870D01*
X-13316500Y5127200D01*
X-13316500Y5934800D01*
X-13316462Y5937130D01*
X-13316348Y5939457D01*
X-13316157Y5941779D01*
X-13315891Y5944093D01*
X-13315549Y5946398D01*
X-13315132Y5948690D01*
X-13314640Y5950968D01*
X-13314074Y5953228D01*
X-13313434Y5955468D01*
X-13312721Y5957686D01*
X-13311937Y5959880D01*
X-13311080Y5962047D01*
X-13310154Y5964185D01*
X-13309157Y5966291D01*
X-13308093Y5968363D01*
X-13306961Y5970400D01*
X-13305763Y5972398D01*
X-13304501Y5974357D01*
X-13303175Y5976272D01*
X-13301787Y5978144D01*
X-13300338Y5979969D01*
X-13298831Y5981745D01*
X-13297266Y5983472D01*
X-13295646Y5985146D01*
X-13293972Y5986766D01*
X-13292245Y5988331D01*
X-13290469Y5989838D01*
X-13288644Y5991287D01*
X-13286772Y5992675D01*
X-13284857Y5994001D01*
X-13282898Y5995263D01*
X-13280900Y5996461D01*
X-13278863Y5997593D01*
X-13276791Y5998657D01*
X-13274685Y5999654D01*
X-13272547Y6000580D01*
X-13270380Y6001437D01*
X-13268186Y6002221D01*
X-13265968Y6002934D01*
X-13263728Y6003574D01*
X-13261468Y6004140D01*
X-13259190Y6004632D01*
X-13256898Y6005049D01*
X-13254593Y6005391D01*
X-13252279Y6005657D01*
X-13249957Y6005848D01*
X-13247630Y6005962D01*
X-13245300Y6006000D01*
X-12487700Y6006000D01*
X-12485370Y6005962D01*
G37*
G36*
X3664630Y25212262D02*
G01*
X3666957Y25212148D01*
X3669279Y25211957D01*
X3671593Y25211691D01*
X3673898Y25211349D01*
X3676190Y25210932D01*
X3678468Y25210440D01*
X3680728Y25209874D01*
X3682968Y25209234D01*
X3685186Y25208521D01*
X3687380Y25207737D01*
X3689547Y25206880D01*
X3691685Y25205954D01*
X3693791Y25204957D01*
X3695863Y25203893D01*
X3697900Y25202761D01*
X3699898Y25201563D01*
X3701857Y25200301D01*
X3703772Y25198975D01*
X3705644Y25197587D01*
X3707469Y25196138D01*
X3709245Y25194631D01*
X3710972Y25193066D01*
X3712646Y25191446D01*
X3714266Y25189772D01*
X3715831Y25188045D01*
X3717338Y25186269D01*
X3718787Y25184444D01*
X3720175Y25182572D01*
X3721501Y25180657D01*
X3722763Y25178698D01*
X3723961Y25176700D01*
X3725093Y25174663D01*
X3726157Y25172591D01*
X3727154Y25170485D01*
X3728080Y25168347D01*
X3728937Y25166180D01*
X3729721Y25163986D01*
X3730434Y25161768D01*
X3731074Y25159528D01*
X3731640Y25157268D01*
X3732132Y25154990D01*
X3732549Y25152698D01*
X3732891Y25150393D01*
X3733157Y25148079D01*
X3733348Y25145757D01*
X3733462Y25143430D01*
X3733500Y25141100D01*
X3733500Y24333500D01*
X3733462Y24331170D01*
X3733348Y24328843D01*
X3733157Y24326521D01*
X3732891Y24324207D01*
X3732549Y24321902D01*
X3732132Y24319610D01*
X3731640Y24317332D01*
X3731074Y24315072D01*
X3730434Y24312832D01*
X3729721Y24310614D01*
X3728937Y24308420D01*
X3728080Y24306253D01*
X3727154Y24304115D01*
X3726157Y24302009D01*
X3725093Y24299937D01*
X3723961Y24297900D01*
X3722763Y24295902D01*
X3721501Y24293943D01*
X3720175Y24292028D01*
X3718787Y24290156D01*
X3717338Y24288331D01*
X3715831Y24286555D01*
X3714266Y24284828D01*
X3712646Y24283154D01*
X3710972Y24281534D01*
X3709245Y24279969D01*
X3707469Y24278462D01*
X3705644Y24277013D01*
X3703772Y24275625D01*
X3701857Y24274299D01*
X3699898Y24273037D01*
X3697900Y24271839D01*
X3695863Y24270707D01*
X3693791Y24269643D01*
X3691685Y24268646D01*
X3689547Y24267720D01*
X3687380Y24266863D01*
X3685186Y24266079D01*
X3682968Y24265366D01*
X3680728Y24264726D01*
X3678468Y24264160D01*
X3676190Y24263668D01*
X3673898Y24263251D01*
X3671593Y24262909D01*
X3669279Y24262643D01*
X3666957Y24262452D01*
X3664630Y24262338D01*
X3662300Y24262300D01*
X2904700Y24262300D01*
X2902370Y24262338D01*
X2900043Y24262452D01*
X2897721Y24262643D01*
X2895407Y24262909D01*
X2893102Y24263251D01*
X2890810Y24263668D01*
X2888532Y24264160D01*
X2886272Y24264726D01*
X2884032Y24265366D01*
X2881814Y24266079D01*
X2879620Y24266863D01*
X2877453Y24267720D01*
X2875315Y24268646D01*
X2873209Y24269643D01*
X2871137Y24270707D01*
X2869100Y24271839D01*
X2867102Y24273037D01*
X2865143Y24274299D01*
X2863228Y24275625D01*
X2861356Y24277013D01*
X2859531Y24278462D01*
X2857755Y24279969D01*
X2856028Y24281534D01*
X2854354Y24283154D01*
X2852734Y24284828D01*
X2851169Y24286555D01*
X2849662Y24288331D01*
X2848213Y24290156D01*
X2846825Y24292028D01*
X2845499Y24293943D01*
X2844237Y24295902D01*
X2843039Y24297900D01*
X2841907Y24299937D01*
X2840843Y24302009D01*
X2839846Y24304115D01*
X2838920Y24306253D01*
X2838063Y24308420D01*
X2837279Y24310614D01*
X2836566Y24312832D01*
X2835926Y24315072D01*
X2835360Y24317332D01*
X2834868Y24319610D01*
X2834451Y24321902D01*
X2834109Y24324207D01*
X2833843Y24326521D01*
X2833652Y24328843D01*
X2833538Y24331170D01*
X2833500Y24333500D01*
X2833500Y25141100D01*
X2833538Y25143430D01*
X2833652Y25145757D01*
X2833843Y25148079D01*
X2834109Y25150393D01*
X2834451Y25152698D01*
X2834868Y25154990D01*
X2835360Y25157268D01*
X2835926Y25159528D01*
X2836566Y25161768D01*
X2837279Y25163986D01*
X2838063Y25166180D01*
X2838920Y25168347D01*
X2839846Y25170485D01*
X2840843Y25172591D01*
X2841907Y25174663D01*
X2843039Y25176700D01*
X2844237Y25178698D01*
X2845499Y25180657D01*
X2846825Y25182572D01*
X2848213Y25184444D01*
X2849662Y25186269D01*
X2851169Y25188045D01*
X2852734Y25189772D01*
X2854354Y25191446D01*
X2856028Y25193066D01*
X2857755Y25194631D01*
X2859531Y25196138D01*
X2861356Y25197587D01*
X2863228Y25198975D01*
X2865143Y25200301D01*
X2867102Y25201563D01*
X2869100Y25202761D01*
X2871137Y25203893D01*
X2873209Y25204957D01*
X2875315Y25205954D01*
X2877453Y25206880D01*
X2879620Y25207737D01*
X2881814Y25208521D01*
X2884032Y25209234D01*
X2886272Y25209874D01*
X2888532Y25210440D01*
X2890810Y25210932D01*
X2893102Y25211349D01*
X2895407Y25211691D01*
X2897721Y25211957D01*
X2900043Y25212148D01*
X2902370Y25212262D01*
X2904700Y25212300D01*
X3662300Y25212300D01*
X3664630Y25212262D01*
G37*
G36*
X5214630Y25212262D02*
G01*
X5216957Y25212148D01*
X5219279Y25211957D01*
X5221593Y25211691D01*
X5223898Y25211349D01*
X5226190Y25210932D01*
X5228468Y25210440D01*
X5230728Y25209874D01*
X5232968Y25209234D01*
X5235186Y25208521D01*
X5237380Y25207737D01*
X5239547Y25206880D01*
X5241685Y25205954D01*
X5243791Y25204957D01*
X5245863Y25203893D01*
X5247900Y25202761D01*
X5249898Y25201563D01*
X5251857Y25200301D01*
X5253772Y25198975D01*
X5255644Y25197587D01*
X5257469Y25196138D01*
X5259245Y25194631D01*
X5260972Y25193066D01*
X5262646Y25191446D01*
X5264266Y25189772D01*
X5265831Y25188045D01*
X5267338Y25186269D01*
X5268787Y25184444D01*
X5270175Y25182572D01*
X5271501Y25180657D01*
X5272763Y25178698D01*
X5273961Y25176700D01*
X5275093Y25174663D01*
X5276157Y25172591D01*
X5277154Y25170485D01*
X5278080Y25168347D01*
X5278937Y25166180D01*
X5279721Y25163986D01*
X5280434Y25161768D01*
X5281074Y25159528D01*
X5281640Y25157268D01*
X5282132Y25154990D01*
X5282549Y25152698D01*
X5282891Y25150393D01*
X5283157Y25148079D01*
X5283348Y25145757D01*
X5283462Y25143430D01*
X5283500Y25141100D01*
X5283500Y24333500D01*
X5283462Y24331170D01*
X5283348Y24328843D01*
X5283157Y24326521D01*
X5282891Y24324207D01*
X5282549Y24321902D01*
X5282132Y24319610D01*
X5281640Y24317332D01*
X5281074Y24315072D01*
X5280434Y24312832D01*
X5279721Y24310614D01*
X5278937Y24308420D01*
X5278080Y24306253D01*
X5277154Y24304115D01*
X5276157Y24302009D01*
X5275093Y24299937D01*
X5273961Y24297900D01*
X5272763Y24295902D01*
X5271501Y24293943D01*
X5270175Y24292028D01*
X5268787Y24290156D01*
X5267338Y24288331D01*
X5265831Y24286555D01*
X5264266Y24284828D01*
X5262646Y24283154D01*
X5260972Y24281534D01*
X5259245Y24279969D01*
X5257469Y24278462D01*
X5255644Y24277013D01*
X5253772Y24275625D01*
X5251857Y24274299D01*
X5249898Y24273037D01*
X5247900Y24271839D01*
X5245863Y24270707D01*
X5243791Y24269643D01*
X5241685Y24268646D01*
X5239547Y24267720D01*
X5237380Y24266863D01*
X5235186Y24266079D01*
X5232968Y24265366D01*
X5230728Y24264726D01*
X5228468Y24264160D01*
X5226190Y24263668D01*
X5223898Y24263251D01*
X5221593Y24262909D01*
X5219279Y24262643D01*
X5216957Y24262452D01*
X5214630Y24262338D01*
X5212300Y24262300D01*
X4454700Y24262300D01*
X4452370Y24262338D01*
X4450043Y24262452D01*
X4447721Y24262643D01*
X4445407Y24262909D01*
X4443102Y24263251D01*
X4440810Y24263668D01*
X4438532Y24264160D01*
X4436272Y24264726D01*
X4434032Y24265366D01*
X4431814Y24266079D01*
X4429620Y24266863D01*
X4427453Y24267720D01*
X4425315Y24268646D01*
X4423209Y24269643D01*
X4421137Y24270707D01*
X4419100Y24271839D01*
X4417102Y24273037D01*
X4415143Y24274299D01*
X4413228Y24275625D01*
X4411356Y24277013D01*
X4409531Y24278462D01*
X4407755Y24279969D01*
X4406028Y24281534D01*
X4404354Y24283154D01*
X4402734Y24284828D01*
X4401169Y24286555D01*
X4399662Y24288331D01*
X4398213Y24290156D01*
X4396825Y24292028D01*
X4395499Y24293943D01*
X4394237Y24295902D01*
X4393039Y24297900D01*
X4391907Y24299937D01*
X4390843Y24302009D01*
X4389846Y24304115D01*
X4388920Y24306253D01*
X4388063Y24308420D01*
X4387279Y24310614D01*
X4386566Y24312832D01*
X4385926Y24315072D01*
X4385360Y24317332D01*
X4384868Y24319610D01*
X4384451Y24321902D01*
X4384109Y24324207D01*
X4383843Y24326521D01*
X4383652Y24328843D01*
X4383538Y24331170D01*
X4383500Y24333500D01*
X4383500Y25141100D01*
X4383538Y25143430D01*
X4383652Y25145757D01*
X4383843Y25148079D01*
X4384109Y25150393D01*
X4384451Y25152698D01*
X4384868Y25154990D01*
X4385360Y25157268D01*
X4385926Y25159528D01*
X4386566Y25161768D01*
X4387279Y25163986D01*
X4388063Y25166180D01*
X4388920Y25168347D01*
X4389846Y25170485D01*
X4390843Y25172591D01*
X4391907Y25174663D01*
X4393039Y25176700D01*
X4394237Y25178698D01*
X4395499Y25180657D01*
X4396825Y25182572D01*
X4398213Y25184444D01*
X4399662Y25186269D01*
X4401169Y25188045D01*
X4402734Y25189772D01*
X4404354Y25191446D01*
X4406028Y25193066D01*
X4407755Y25194631D01*
X4409531Y25196138D01*
X4411356Y25197587D01*
X4413228Y25198975D01*
X4415143Y25200301D01*
X4417102Y25201563D01*
X4419100Y25202761D01*
X4421137Y25203893D01*
X4423209Y25204957D01*
X4425315Y25205954D01*
X4427453Y25206880D01*
X4429620Y25207737D01*
X4431814Y25208521D01*
X4434032Y25209234D01*
X4436272Y25209874D01*
X4438532Y25210440D01*
X4440810Y25210932D01*
X4443102Y25211349D01*
X4445407Y25211691D01*
X4447721Y25211957D01*
X4450043Y25212148D01*
X4452370Y25212262D01*
X4454700Y25212300D01*
X5212300Y25212300D01*
X5214630Y25212262D01*
G37*
G36*
X-11079700Y-17797300D02*
G01*
X-12859700Y-17797300D01*
X-12859700Y-14647300D01*
X-11079700Y-14647300D01*
X-11079700Y-17797300D01*
G37*
G36*
X-16309700Y-17797300D02*
G01*
X-18089700Y-17797300D01*
X-18089700Y-14647300D01*
X-16309700Y-14647300D01*
X-16309700Y-17797300D01*
G37*
G36*
X31172900Y-13441400D02*
G01*
X30172900Y-13441400D01*
X30172900Y-12741400D01*
X31172900Y-12741400D01*
X31172900Y-13441400D01*
G37*
G36*
X31172900Y-15541400D02*
G01*
X30172900Y-15541400D01*
X30172900Y-14841400D01*
X31172900Y-14841400D01*
X31172900Y-15541400D01*
G37*
G36*
X32772900Y-15541400D02*
G01*
X31772900Y-15541400D01*
X31772900Y-14841400D01*
X32772900Y-14841400D01*
X32772900Y-15541400D01*
G37*
G36*
X32772900Y-13441400D02*
G01*
X31772900Y-13441400D01*
X31772900Y-12741400D01*
X32772900Y-12741400D01*
X32772900Y-13441400D01*
G37*
%TD*%
M02*
