%TF.GenerationSoftware,Flux,Pcbnew,9.0.4-9.0.4-0~ubuntu22.04.1*%
%TF.CreationDate,2025-10-20T13:02:16+00:00*%
%TF.ProjectId,input,696e7075-742e-46b6-9963-61645f706362,rev?*%
%TF.SameCoordinates,Original*%
%TF.FileFunction,Legend,Top*%
%TF.FilePolarity,Positive*%
%FSLAX46Y46*%
G04 Gerber Fmt 4.6, Leading zero omitted, Abs format (unit mm)*
G04 Filename: sarlls-iot*
G04 Build it with Flux! Visit our site at: https://www.flux.ai (PCBNEW 9.0.4-9.0.4-0~ubuntu22.04.1) date 2025-10-20 13:02:16*
%MOMM*%
%LPD*%
G01*
G04 APERTURE LIST*
%ADD10C,0.095000*%
%ADD11C,0.120650*%
%ADD12C,0.038000*%
%ADD13C,0.100000*%
%ADD14C,0.050000*%
%ADD15C,0.120000*%
%ADD16C,0.060000*%
%ADD17C,0.150000*%
%ADD18C,0.250000*%
%ADD19C,0.200000*%
G04 APERTURE END LIST*
D10*
X-9930523Y15907744D02*
X-9930523Y15260125D01*
X-9930523Y15260125D02*
X-9892428Y15183935D01*
X-9892428Y15183935D02*
X-9854333Y15145840D01*
X-9854333Y15145840D02*
X-9778142Y15107744D01*
X-9778142Y15107744D02*
X-9625761Y15107744D01*
X-9625761Y15107744D02*
X-9549571Y15145840D01*
X-9549571Y15145840D02*
X-9511476Y15183935D01*
X-9511476Y15183935D02*
X-9473380Y15260125D01*
X-9473380Y15260125D02*
X-9473380Y15907744D01*
X-8673381Y15107744D02*
X-9130524Y15107744D01*
X-8901952Y15107744D02*
X-8901952Y15907744D01*
X-8901952Y15907744D02*
X-8978143Y15793459D01*
X-8978143Y15793459D02*
X-9054333Y15717268D01*
X-9054333Y15717268D02*
X-9130524Y15679173D01*
X-20959923Y10473944D02*
X-20959923Y9826325D01*
X-20959923Y9826325D02*
X-20921828Y9750135D01*
X-20921828Y9750135D02*
X-20883733Y9712040D01*
X-20883733Y9712040D02*
X-20807542Y9673944D01*
X-20807542Y9673944D02*
X-20655161Y9673944D01*
X-20655161Y9673944D02*
X-20578971Y9712040D01*
X-20578971Y9712040D02*
X-20540876Y9750135D01*
X-20540876Y9750135D02*
X-20502780Y9826325D01*
X-20502780Y9826325D02*
X-20502780Y10473944D01*
X-19702781Y9673944D02*
X-20159924Y9673944D01*
X-19931352Y9673944D02*
X-19931352Y10473944D01*
X-19931352Y10473944D02*
X-20007543Y10359659D01*
X-20007543Y10359659D02*
X-20083733Y10283468D01*
X-20083733Y10283468D02*
X-20159924Y10245373D01*
X-12676932Y-2918364D02*
X-12715028Y-2956460D01*
X-12715028Y-2956460D02*
X-12829313Y-2994555D01*
X-12829313Y-2994555D02*
X-12905504Y-2994555D01*
X-12905504Y-2994555D02*
X-13019790Y-2956460D01*
X-13019790Y-2956460D02*
X-13095980Y-2880269D01*
X-13095980Y-2880269D02*
X-13134075Y-2804079D01*
X-13134075Y-2804079D02*
X-13172171Y-2651698D01*
X-13172171Y-2651698D02*
X-13172171Y-2537412D01*
X-13172171Y-2537412D02*
X-13134075Y-2385031D01*
X-13134075Y-2385031D02*
X-13095980Y-2308840D01*
X-13095980Y-2308840D02*
X-13019790Y-2232650D01*
X-13019790Y-2232650D02*
X-12905504Y-2194555D01*
X-12905504Y-2194555D02*
X-12829313Y-2194555D01*
X-12829313Y-2194555D02*
X-12715028Y-2232650D01*
X-12715028Y-2232650D02*
X-12676932Y-2270745D01*
X-11991218Y-2194555D02*
X-12143599Y-2194555D01*
X-12143599Y-2194555D02*
X-12219790Y-2232650D01*
X-12219790Y-2232650D02*
X-12257885Y-2270745D01*
X-12257885Y-2270745D02*
X-12334075Y-2385031D01*
X-12334075Y-2385031D02*
X-12372171Y-2537412D01*
X-12372171Y-2537412D02*
X-12372171Y-2842174D01*
X-12372171Y-2842174D02*
X-12334075Y-2918364D01*
X-12334075Y-2918364D02*
X-12295980Y-2956460D01*
X-12295980Y-2956460D02*
X-12219790Y-2994555D01*
X-12219790Y-2994555D02*
X-12067409Y-2994555D01*
X-12067409Y-2994555D02*
X-11991218Y-2956460D01*
X-11991218Y-2956460D02*
X-11953123Y-2918364D01*
X-11953123Y-2918364D02*
X-11915028Y-2842174D01*
X-11915028Y-2842174D02*
X-11915028Y-2651698D01*
X-11915028Y-2651698D02*
X-11953123Y-2575507D01*
X-11953123Y-2575507D02*
X-11991218Y-2537412D01*
X-11991218Y-2537412D02*
X-12067409Y-2499317D01*
X-12067409Y-2499317D02*
X-12219790Y-2499317D01*
X-12219790Y-2499317D02*
X-12295980Y-2537412D01*
X-12295980Y-2537412D02*
X-12334075Y-2575507D01*
X-12334075Y-2575507D02*
X-12372171Y-2651698D01*
X11026324Y145944D02*
X11026324Y945944D01*
X11026324Y945944D02*
X11216800Y945944D01*
X11216800Y945944D02*
X11331086Y907849D01*
X11331086Y907849D02*
X11407276Y831659D01*
X11407276Y831659D02*
X11445371Y755468D01*
X11445371Y755468D02*
X11483467Y603087D01*
X11483467Y603087D02*
X11483467Y488801D01*
X11483467Y488801D02*
X11445371Y336420D01*
X11445371Y336420D02*
X11407276Y260230D01*
X11407276Y260230D02*
X11331086Y184040D01*
X11331086Y184040D02*
X11216800Y145944D01*
X11216800Y145944D02*
X11026324Y145944D01*
X12245371Y145944D02*
X11788228Y145944D01*
X12016800Y145944D02*
X12016800Y945944D01*
X12016800Y945944D02*
X11940609Y831659D01*
X11940609Y831659D02*
X11864419Y755468D01*
X11864419Y755468D02*
X11788228Y717373D01*
X11026324Y4145944D02*
X11026324Y4945944D01*
X11026324Y4945944D02*
X11216800Y4945944D01*
X11216800Y4945944D02*
X11331086Y4907849D01*
X11331086Y4907849D02*
X11407276Y4831659D01*
X11407276Y4831659D02*
X11445371Y4755468D01*
X11445371Y4755468D02*
X11483467Y4603087D01*
X11483467Y4603087D02*
X11483467Y4488801D01*
X11483467Y4488801D02*
X11445371Y4336420D01*
X11445371Y4336420D02*
X11407276Y4260230D01*
X11407276Y4260230D02*
X11331086Y4184040D01*
X11331086Y4184040D02*
X11216800Y4145944D01*
X11216800Y4145944D02*
X11026324Y4145944D01*
X12245371Y4145944D02*
X11788228Y4145944D01*
X12016800Y4145944D02*
X12016800Y4945944D01*
X12016800Y4945944D02*
X11940609Y4831659D01*
X11940609Y4831659D02*
X11864419Y4755468D01*
X11864419Y4755468D02*
X11788228Y4717373D01*
D11*
X-281395Y-21706346D02*
X-281395Y-22528823D01*
X-281395Y-22528823D02*
X-233014Y-22625585D01*
X-233014Y-22625585D02*
X-184633Y-22673966D01*
X-184633Y-22673966D02*
X-87871Y-22722346D01*
X-87871Y-22722346D02*
X105652Y-22722346D01*
X105652Y-22722346D02*
X202414Y-22673966D01*
X202414Y-22673966D02*
X250795Y-22625585D01*
X250795Y-22625585D02*
X299176Y-22528823D01*
X299176Y-22528823D02*
X299176Y-21706346D01*
X686223Y-21706346D02*
X1315176Y-21706346D01*
X1315176Y-21706346D02*
X976509Y-22093394D01*
X976509Y-22093394D02*
X1121652Y-22093394D01*
X1121652Y-22093394D02*
X1218414Y-22141775D01*
X1218414Y-22141775D02*
X1266795Y-22190156D01*
X1266795Y-22190156D02*
X1315176Y-22286918D01*
X1315176Y-22286918D02*
X1315176Y-22528823D01*
X1315176Y-22528823D02*
X1266795Y-22625585D01*
X1266795Y-22625585D02*
X1218414Y-22673966D01*
X1218414Y-22673966D02*
X1121652Y-22722346D01*
X1121652Y-22722346D02*
X831366Y-22722346D01*
X831366Y-22722346D02*
X734604Y-22673966D01*
X734604Y-22673966D02*
X686223Y-22625585D01*
X-3592895Y-26735546D02*
X-3592895Y-25719546D01*
X-2528513Y-26638785D02*
X-2576894Y-26687166D01*
X-2576894Y-26687166D02*
X-2722037Y-26735546D01*
X-2722037Y-26735546D02*
X-2818799Y-26735546D01*
X-2818799Y-26735546D02*
X-2963942Y-26687166D01*
X-2963942Y-26687166D02*
X-3060704Y-26590404D01*
X-3060704Y-26590404D02*
X-3109085Y-26493642D01*
X-3109085Y-26493642D02*
X-3157466Y-26300118D01*
X-3157466Y-26300118D02*
X-3157466Y-26154975D01*
X-3157466Y-26154975D02*
X-3109085Y-25961451D01*
X-3109085Y-25961451D02*
X-3060704Y-25864689D01*
X-3060704Y-25864689D02*
X-2963942Y-25767927D01*
X-2963942Y-25767927D02*
X-2818799Y-25719546D01*
X-2818799Y-25719546D02*
X-2722037Y-25719546D01*
X-2722037Y-25719546D02*
X-2576894Y-25767927D01*
X-2576894Y-25767927D02*
X-2528513Y-25816308D01*
X-1947942Y-25719546D02*
X-1947942Y-25961451D01*
X-2189847Y-25864689D02*
X-1947942Y-25961451D01*
X-1947942Y-25961451D02*
X-1706037Y-25864689D01*
X-2093085Y-26154975D02*
X-1947942Y-25961451D01*
X-1947942Y-25961451D02*
X-1802799Y-26154975D01*
X-1173847Y-25719546D02*
X-1173847Y-25961451D01*
X-1415752Y-25864689D02*
X-1173847Y-25961451D01*
X-1173847Y-25961451D02*
X-931942Y-25864689D01*
X-1318990Y-26154975D02*
X-1173847Y-25961451D01*
X-1173847Y-25961451D02*
X-1028704Y-26154975D01*
D10*
X-16109932Y4846935D02*
X-16148028Y4808840D01*
X-16148028Y4808840D02*
X-16262313Y4770744D01*
X-16262313Y4770744D02*
X-16338504Y4770744D01*
X-16338504Y4770744D02*
X-16452790Y4808840D01*
X-16452790Y4808840D02*
X-16528980Y4885030D01*
X-16528980Y4885030D02*
X-16567075Y4961220D01*
X-16567075Y4961220D02*
X-16605171Y5113601D01*
X-16605171Y5113601D02*
X-16605171Y5227887D01*
X-16605171Y5227887D02*
X-16567075Y5380268D01*
X-16567075Y5380268D02*
X-16528980Y5456459D01*
X-16528980Y5456459D02*
X-16452790Y5532649D01*
X-16452790Y5532649D02*
X-16338504Y5570744D01*
X-16338504Y5570744D02*
X-16262313Y5570744D01*
X-16262313Y5570744D02*
X-16148028Y5532649D01*
X-16148028Y5532649D02*
X-16109932Y5494554D01*
X-15424218Y5304078D02*
X-15424218Y4770744D01*
X-15614694Y5608840D02*
X-15805171Y5037411D01*
X-15805171Y5037411D02*
X-15309932Y5037411D01*
X-17545932Y1636735D02*
X-17584028Y1598640D01*
X-17584028Y1598640D02*
X-17698313Y1560544D01*
X-17698313Y1560544D02*
X-17774504Y1560544D01*
X-17774504Y1560544D02*
X-17888790Y1598640D01*
X-17888790Y1598640D02*
X-17964980Y1674830D01*
X-17964980Y1674830D02*
X-18003075Y1751020D01*
X-18003075Y1751020D02*
X-18041171Y1903401D01*
X-18041171Y1903401D02*
X-18041171Y2017687D01*
X-18041171Y2017687D02*
X-18003075Y2170068D01*
X-18003075Y2170068D02*
X-17964980Y2246259D01*
X-17964980Y2246259D02*
X-17888790Y2322449D01*
X-17888790Y2322449D02*
X-17774504Y2360544D01*
X-17774504Y2360544D02*
X-17698313Y2360544D01*
X-17698313Y2360544D02*
X-17584028Y2322449D01*
X-17584028Y2322449D02*
X-17545932Y2284354D01*
X-16822123Y2360544D02*
X-17203075Y2360544D01*
X-17203075Y2360544D02*
X-17241171Y1979592D01*
X-17241171Y1979592D02*
X-17203075Y2017687D01*
X-17203075Y2017687D02*
X-17126885Y2055782D01*
X-17126885Y2055782D02*
X-16936409Y2055782D01*
X-16936409Y2055782D02*
X-16860218Y2017687D01*
X-16860218Y2017687D02*
X-16822123Y1979592D01*
X-16822123Y1979592D02*
X-16784028Y1903401D01*
X-16784028Y1903401D02*
X-16784028Y1712925D01*
X-16784028Y1712925D02*
X-16822123Y1636735D01*
X-16822123Y1636735D02*
X-16860218Y1598640D01*
X-16860218Y1598640D02*
X-16936409Y1560544D01*
X-16936409Y1560544D02*
X-17126885Y1560544D01*
X-17126885Y1560544D02*
X-17203075Y1598640D01*
X-17203075Y1598640D02*
X-17241171Y1636735D01*
D12*
X28637490Y-16409062D02*
X28637490Y-16668109D01*
X28637490Y-16668109D02*
X28652728Y-16698585D01*
X28652728Y-16698585D02*
X28667966Y-16713824D01*
X28667966Y-16713824D02*
X28698442Y-16729062D01*
X28698442Y-16729062D02*
X28759395Y-16729062D01*
X28759395Y-16729062D02*
X28789871Y-16713824D01*
X28789871Y-16713824D02*
X28805109Y-16698585D01*
X28805109Y-16698585D02*
X28820347Y-16668109D01*
X28820347Y-16668109D02*
X28820347Y-16409062D01*
X28957490Y-16439538D02*
X28972728Y-16424300D01*
X28972728Y-16424300D02*
X29003204Y-16409062D01*
X29003204Y-16409062D02*
X29079395Y-16409062D01*
X29079395Y-16409062D02*
X29109871Y-16424300D01*
X29109871Y-16424300D02*
X29125109Y-16439538D01*
X29125109Y-16439538D02*
X29140347Y-16470014D01*
X29140347Y-16470014D02*
X29140347Y-16500490D01*
X29140347Y-16500490D02*
X29125109Y-16546204D01*
X29125109Y-16546204D02*
X28942252Y-16729062D01*
X28942252Y-16729062D02*
X29140347Y-16729062D01*
D10*
X6550667Y24233535D02*
X6512571Y24195440D01*
X6512571Y24195440D02*
X6398286Y24157344D01*
X6398286Y24157344D02*
X6322095Y24157344D01*
X6322095Y24157344D02*
X6207809Y24195440D01*
X6207809Y24195440D02*
X6131619Y24271630D01*
X6131619Y24271630D02*
X6093524Y24347820D01*
X6093524Y24347820D02*
X6055428Y24500201D01*
X6055428Y24500201D02*
X6055428Y24614487D01*
X6055428Y24614487D02*
X6093524Y24766868D01*
X6093524Y24766868D02*
X6131619Y24843059D01*
X6131619Y24843059D02*
X6207809Y24919249D01*
X6207809Y24919249D02*
X6322095Y24957344D01*
X6322095Y24957344D02*
X6398286Y24957344D01*
X6398286Y24957344D02*
X6512571Y24919249D01*
X6512571Y24919249D02*
X6550667Y24881154D01*
X7312571Y24157344D02*
X6855428Y24157344D01*
X7084000Y24157344D02*
X7084000Y24957344D01*
X7084000Y24957344D02*
X7007809Y24843059D01*
X7007809Y24843059D02*
X6931619Y24766868D01*
X6931619Y24766868D02*
X6855428Y24728773D01*
X-13774832Y6672035D02*
X-13812928Y6633940D01*
X-13812928Y6633940D02*
X-13927213Y6595844D01*
X-13927213Y6595844D02*
X-14003404Y6595844D01*
X-14003404Y6595844D02*
X-14117690Y6633940D01*
X-14117690Y6633940D02*
X-14193880Y6710130D01*
X-14193880Y6710130D02*
X-14231975Y6786320D01*
X-14231975Y6786320D02*
X-14270071Y6938701D01*
X-14270071Y6938701D02*
X-14270071Y7052987D01*
X-14270071Y7052987D02*
X-14231975Y7205368D01*
X-14231975Y7205368D02*
X-14193880Y7281559D01*
X-14193880Y7281559D02*
X-14117690Y7357749D01*
X-14117690Y7357749D02*
X-14003404Y7395844D01*
X-14003404Y7395844D02*
X-13927213Y7395844D01*
X-13927213Y7395844D02*
X-13812928Y7357749D01*
X-13812928Y7357749D02*
X-13774832Y7319654D01*
X-13508166Y7395844D02*
X-13012928Y7395844D01*
X-13012928Y7395844D02*
X-13279594Y7091082D01*
X-13279594Y7091082D02*
X-13165309Y7091082D01*
X-13165309Y7091082D02*
X-13089118Y7052987D01*
X-13089118Y7052987D02*
X-13051023Y7014892D01*
X-13051023Y7014892D02*
X-13012928Y6938701D01*
X-13012928Y6938701D02*
X-13012928Y6748225D01*
X-13012928Y6748225D02*
X-13051023Y6672035D01*
X-13051023Y6672035D02*
X-13089118Y6633940D01*
X-13089118Y6633940D02*
X-13165309Y6595844D01*
X-13165309Y6595844D02*
X-13393880Y6595844D01*
X-13393880Y6595844D02*
X-13470071Y6633940D01*
X-13470071Y6633940D02*
X-13508166Y6672035D01*
X2820404Y22942144D02*
X2363261Y22942144D01*
X2591833Y22942144D02*
X2591833Y23742144D01*
X2591833Y23742144D02*
X2515642Y23627859D01*
X2515642Y23627859D02*
X2439452Y23551668D01*
X2439452Y23551668D02*
X2363261Y23513573D01*
X3315643Y23742144D02*
X3391833Y23742144D01*
X3391833Y23742144D02*
X3468024Y23704049D01*
X3468024Y23704049D02*
X3506119Y23665954D01*
X3506119Y23665954D02*
X3544214Y23589763D01*
X3544214Y23589763D02*
X3582309Y23437382D01*
X3582309Y23437382D02*
X3582309Y23246906D01*
X3582309Y23246906D02*
X3544214Y23094525D01*
X3544214Y23094525D02*
X3506119Y23018335D01*
X3506119Y23018335D02*
X3468024Y22980240D01*
X3468024Y22980240D02*
X3391833Y22942144D01*
X3391833Y22942144D02*
X3315643Y22942144D01*
X3315643Y22942144D02*
X3239452Y22980240D01*
X3239452Y22980240D02*
X3201357Y23018335D01*
X3201357Y23018335D02*
X3163262Y23094525D01*
X3163262Y23094525D02*
X3125166Y23246906D01*
X3125166Y23246906D02*
X3125166Y23437382D01*
X3125166Y23437382D02*
X3163262Y23589763D01*
X3163262Y23589763D02*
X3201357Y23665954D01*
X3201357Y23665954D02*
X3239452Y23704049D01*
X3239452Y23704049D02*
X3315643Y23742144D01*
X4077548Y23742144D02*
X4153738Y23742144D01*
X4153738Y23742144D02*
X4229929Y23704049D01*
X4229929Y23704049D02*
X4268024Y23665954D01*
X4268024Y23665954D02*
X4306119Y23589763D01*
X4306119Y23589763D02*
X4344214Y23437382D01*
X4344214Y23437382D02*
X4344214Y23246906D01*
X4344214Y23246906D02*
X4306119Y23094525D01*
X4306119Y23094525D02*
X4268024Y23018335D01*
X4268024Y23018335D02*
X4229929Y22980240D01*
X4229929Y22980240D02*
X4153738Y22942144D01*
X4153738Y22942144D02*
X4077548Y22942144D01*
X4077548Y22942144D02*
X4001357Y22980240D01*
X4001357Y22980240D02*
X3963262Y23018335D01*
X3963262Y23018335D02*
X3925167Y23094525D01*
X3925167Y23094525D02*
X3887071Y23246906D01*
X3887071Y23246906D02*
X3887071Y23437382D01*
X3887071Y23437382D02*
X3925167Y23589763D01*
X3925167Y23589763D02*
X3963262Y23665954D01*
X3963262Y23665954D02*
X4001357Y23704049D01*
X4001357Y23704049D02*
X4077548Y23742144D01*
X4687072Y23475478D02*
X4687072Y22942144D01*
X4687072Y23399287D02*
X4725167Y23437382D01*
X4725167Y23437382D02*
X4801357Y23475478D01*
X4801357Y23475478D02*
X4915643Y23475478D01*
X4915643Y23475478D02*
X4991834Y23437382D01*
X4991834Y23437382D02*
X5029929Y23361192D01*
X5029929Y23361192D02*
X5029929Y22942144D01*
X5677548Y23361192D02*
X5410882Y23361192D01*
X5410882Y22942144D02*
X5410882Y23742144D01*
X5410882Y23742144D02*
X5791834Y23742144D01*
X3925167Y25878335D02*
X3887071Y25840240D01*
X3887071Y25840240D02*
X3772786Y25802144D01*
X3772786Y25802144D02*
X3696595Y25802144D01*
X3696595Y25802144D02*
X3582309Y25840240D01*
X3582309Y25840240D02*
X3506119Y25916430D01*
X3506119Y25916430D02*
X3468024Y25992620D01*
X3468024Y25992620D02*
X3429928Y26145001D01*
X3429928Y26145001D02*
X3429928Y26259287D01*
X3429928Y26259287D02*
X3468024Y26411668D01*
X3468024Y26411668D02*
X3506119Y26487859D01*
X3506119Y26487859D02*
X3582309Y26564049D01*
X3582309Y26564049D02*
X3696595Y26602144D01*
X3696595Y26602144D02*
X3772786Y26602144D01*
X3772786Y26602144D02*
X3887071Y26564049D01*
X3887071Y26564049D02*
X3925167Y26525954D01*
X4229928Y26525954D02*
X4268024Y26564049D01*
X4268024Y26564049D02*
X4344214Y26602144D01*
X4344214Y26602144D02*
X4534690Y26602144D01*
X4534690Y26602144D02*
X4610881Y26564049D01*
X4610881Y26564049D02*
X4648976Y26525954D01*
X4648976Y26525954D02*
X4687071Y26449763D01*
X4687071Y26449763D02*
X4687071Y26373573D01*
X4687071Y26373573D02*
X4648976Y26259287D01*
X4648976Y26259287D02*
X4191833Y25802144D01*
X4191833Y25802144D02*
X4687071Y25802144D01*
D11*
X-14894666Y-12330856D02*
X-15233333Y-12330856D01*
X-15233333Y-12863046D02*
X-15233333Y-11847046D01*
X-15233333Y-11847046D02*
X-14749523Y-11847046D01*
X-13830285Y-12863046D02*
X-14410857Y-12863046D01*
X-14120571Y-12863046D02*
X-14120571Y-11847046D01*
X-14120571Y-11847046D02*
X-14217333Y-11992189D01*
X-14217333Y-11992189D02*
X-14314095Y-12088951D01*
X-14314095Y-12088951D02*
X-14410857Y-12137332D01*
X-24957851Y-21787656D02*
X-25296518Y-21787656D01*
X-25296518Y-22319846D02*
X-25296518Y-21303846D01*
X-25296518Y-21303846D02*
X-24812708Y-21303846D01*
X-24280518Y-21303846D02*
X-24280518Y-21545751D01*
X-24522423Y-21448989D02*
X-24280518Y-21545751D01*
X-24280518Y-21545751D02*
X-24038613Y-21448989D01*
X-24425661Y-21739275D02*
X-24280518Y-21545751D01*
X-24280518Y-21545751D02*
X-24135375Y-21739275D01*
X-23506423Y-21303846D02*
X-23506423Y-21545751D01*
X-23748328Y-21448989D02*
X-23506423Y-21545751D01*
X-23506423Y-21545751D02*
X-23264518Y-21448989D01*
X-23651566Y-21739275D02*
X-23506423Y-21545751D01*
X-23506423Y-21545751D02*
X-23361280Y-21739275D01*
D10*
X31339566Y-14506555D02*
X30958614Y-14506555D01*
X30958614Y-14506555D02*
X30958614Y-13706555D01*
X32025280Y-14506555D02*
X31568137Y-14506555D01*
X31796709Y-14506555D02*
X31796709Y-13706555D01*
X31796709Y-13706555D02*
X31720518Y-13820840D01*
X31720518Y-13820840D02*
X31644328Y-13897031D01*
X31644328Y-13897031D02*
X31568137Y-13935126D01*
X31339566Y-9456555D02*
X30958614Y-9456555D01*
X30958614Y-9456555D02*
X30958614Y-8656555D01*
X32025280Y-9456555D02*
X31568137Y-9456555D01*
X31796709Y-9456555D02*
X31796709Y-8656555D01*
X31796709Y-8656555D02*
X31720518Y-8770840D01*
X31720518Y-8770840D02*
X31644328Y-8847031D01*
X31644328Y-8847031D02*
X31568137Y-8885126D01*
D13*
%TO.C,*%
X-136700Y8772500D02*
X-136700Y34277500D01*
X-18136700Y8772500D02*
X-136700Y8772500D01*
X-18136700Y34277500D02*
X-18136700Y28552500D01*
X-18136700Y34277500D02*
X-136700Y34277500D01*
X-18136700Y27552500D02*
X-18136700Y8772500D01*
X-17636700Y28052500D02*
X-18136700Y28552500D01*
X-18136700Y27552500D02*
X-17636700Y28052500D01*
X-23136700Y28502500D02*
X-23136700Y39282500D01*
D14*
X-18886700Y8032500D02*
X-18886700Y28252500D01*
X-18886700Y8032500D02*
X613300Y8032500D01*
X613300Y28252500D02*
X613300Y8032500D01*
X-23386700Y39532500D02*
X5113300Y39532500D01*
D13*
X4863300Y28502500D02*
X-23136700Y28502500D01*
X4863300Y28502500D02*
X4863300Y39282500D01*
X4863300Y39282500D02*
X-23136700Y39282500D01*
D14*
X-23386700Y39532500D02*
X-23386700Y28252500D01*
X5113300Y39532500D02*
X5113300Y28252500D01*
X-23386700Y28252500D02*
X-18886700Y28252500D01*
X613300Y28252500D02*
X5113300Y28252500D01*
D13*
X-21661700Y39282500D02*
X-23136700Y38192500D01*
X-19661700Y39282500D02*
X-23136700Y36577500D01*
X-17661700Y39282500D02*
X-23136700Y34962500D01*
X-15661700Y39282500D02*
X-23136700Y33347500D01*
X-13661700Y39282500D02*
X-23136700Y31732500D01*
X-11661700Y39282500D02*
X-23136700Y30117500D01*
X-9661700Y39282500D02*
X-23136700Y28502500D01*
X-7661700Y39282500D02*
X-21136700Y28502500D01*
X-5661700Y39282500D02*
X-19136700Y28502500D01*
X-17136700Y28502500D02*
X-3661700Y39282500D01*
X-1661700Y39282500D02*
X-15136700Y28502500D01*
X338300Y39282500D02*
X-13136700Y28502500D01*
X2338300Y39282500D02*
X-11136700Y28502500D01*
X4338300Y39282500D02*
X-9136700Y28502500D01*
X4863300Y38192500D02*
X-7136700Y28502500D01*
X4863300Y36577500D02*
X-5136700Y28502500D01*
X4863300Y34962500D02*
X-3136700Y28502500D01*
X4863300Y33347500D02*
X-1136700Y28502500D01*
X4863300Y31732500D02*
X863300Y28502500D01*
X4863300Y30117500D02*
X2863300Y28502500D01*
X63300Y32407500D02*
X4663300Y32407500D01*
X4663300Y32407500D02*
X4463300Y32607500D01*
X4663300Y32407500D02*
X4463300Y32207500D01*
X63300Y32407500D02*
X263300Y32607500D01*
X63300Y32407500D02*
X263300Y32207500D01*
X-22936700Y32407500D02*
X-22736700Y32607500D01*
X-22936700Y32407500D02*
X-22736700Y32207500D01*
X-18336700Y32407500D02*
X-18536700Y32207500D01*
X-22936700Y32407500D02*
X-18336700Y32407500D01*
X-18336700Y32407500D02*
X-18536700Y32607500D01*
X-736700Y34532500D02*
X-936700Y34732500D01*
X-736700Y34532500D02*
X-536700Y34732500D01*
X-736700Y39132500D02*
X-536700Y38932500D01*
X-736700Y34532500D02*
X-736700Y39132500D01*
X-736700Y39132500D02*
X-936700Y38932500D01*
D15*
X-18256700Y9432500D02*
X-18256700Y8652500D01*
X-18256700Y8652500D02*
X-17256700Y8652500D01*
X-16700Y9432500D02*
X-16700Y8652500D01*
X-16700Y8652500D02*
X-1016700Y8652500D01*
X-18256700Y34397500D02*
X-16700Y34397500D01*
X-16700Y34397500D02*
X-16700Y27977500D01*
X-18256700Y34397500D02*
X-18256700Y27977500D01*
X-18256700Y27977500D02*
X-18636700Y27977500D01*
X-12684200Y-3549400D02*
X-12403000Y-3549400D01*
X-12684200Y-4569400D02*
X-12403000Y-4569400D01*
D16*
X8996800Y-1288900D02*
X8995778Y-1296665D01*
X8995778Y-1296665D02*
X8992781Y-1303900D01*
X8992781Y-1303900D02*
X8988013Y-1310113D01*
X8988013Y-1310113D02*
X8981800Y-1314881D01*
X8981800Y-1314881D02*
X8974565Y-1317878D01*
X8974565Y-1317878D02*
X8966800Y-1318900D01*
X8966800Y-1318900D02*
X8959035Y-1317878D01*
X8959035Y-1317878D02*
X8951800Y-1314881D01*
X8951800Y-1314881D02*
X8945587Y-1310113D01*
X8945587Y-1310113D02*
X8940819Y-1303900D01*
X8940819Y-1303900D02*
X8937822Y-1296665D01*
X8937822Y-1296665D02*
X8936800Y-1288900D01*
X8936800Y-1288900D02*
X8937822Y-1281135D01*
X8937822Y-1281135D02*
X8940819Y-1273900D01*
X8940819Y-1273900D02*
X8945587Y-1267687D01*
X8945587Y-1267687D02*
X8951800Y-1262919D01*
X8951800Y-1262919D02*
X8959035Y-1259922D01*
X8959035Y-1259922D02*
X8966800Y-1258900D01*
X8966800Y-1258900D02*
X8974565Y-1259922D01*
X8974565Y-1259922D02*
X8981800Y-1262919D01*
X8981800Y-1262919D02*
X8988013Y-1267687D01*
X8988013Y-1267687D02*
X8992781Y-1273900D01*
X8992781Y-1273900D02*
X8995778Y-1281135D01*
X8995778Y-1281135D02*
X8996800Y-1288900D01*
D17*
X10596800Y2401100D02*
X10596800Y-1378900D01*
X8876800Y2401100D02*
X14356800Y2401100D01*
X8876800Y-1378900D02*
X14356800Y-1378900D01*
X14356800Y2401100D02*
X14356800Y1811100D01*
X14356800Y-1378900D02*
X14356800Y-788900D01*
D18*
X-1277300Y-23296500D02*
X-1281730Y-23330146D01*
X-1281730Y-23330146D02*
X-1294717Y-23361500D01*
X-1294717Y-23361500D02*
X-1315376Y-23388424D01*
X-1315376Y-23388424D02*
X-1342300Y-23409083D01*
X-1342300Y-23409083D02*
X-1373654Y-23422070D01*
X-1373654Y-23422070D02*
X-1407300Y-23426500D01*
X-1407300Y-23426500D02*
X-1440946Y-23422070D01*
X-1440946Y-23422070D02*
X-1472300Y-23409083D01*
X-1472300Y-23409083D02*
X-1499224Y-23388424D01*
X-1499224Y-23388424D02*
X-1519883Y-23361500D01*
X-1519883Y-23361500D02*
X-1532870Y-23330146D01*
X-1532870Y-23330146D02*
X-1537300Y-23296500D01*
X-1537300Y-23296500D02*
X-1532870Y-23262854D01*
X-1532870Y-23262854D02*
X-1519883Y-23231500D01*
X-1519883Y-23231500D02*
X-1499224Y-23204576D01*
X-1499224Y-23204576D02*
X-1472300Y-23183917D01*
X-1472300Y-23183917D02*
X-1440946Y-23170930D01*
X-1440946Y-23170930D02*
X-1407300Y-23166500D01*
X-1407300Y-23166500D02*
X-1373654Y-23170930D01*
X-1373654Y-23170930D02*
X-1342300Y-23183917D01*
X-1342300Y-23183917D02*
X-1315376Y-23204576D01*
X-1315376Y-23204576D02*
X-1294717Y-23231500D01*
X-1294717Y-23231500D02*
X-1281730Y-23262854D01*
X-1281730Y-23262854D02*
X-1277300Y-23296500D01*
D14*
X-1657300Y-23396500D02*
X2642700Y-23396500D01*
X2642700Y-23396500D02*
X2642700Y-26996500D01*
X2642700Y-26996500D02*
X-1657300Y-26996500D01*
X-1657300Y-26996500D02*
X-1657300Y-23396500D01*
D15*
X-16117200Y4215900D02*
X-15836000Y4215900D01*
X-16117200Y3195900D02*
X-15836000Y3195900D01*
X-17553200Y1005700D02*
X-17272000Y1005700D01*
X-17553200Y-14300D02*
X-17272000Y-14300D01*
D13*
X28231300Y-16083000D02*
X28231300Y-17433000D01*
X28231300Y-16083000D02*
X28581300Y-15733000D01*
X28231300Y-17433000D02*
X29531300Y-17433000D01*
X29531300Y-15733000D02*
X28581300Y-15733000D01*
X29531300Y-17433000D02*
X29531300Y-15733000D01*
D15*
X29531300Y-15683000D02*
X28431300Y-15683000D01*
X29531300Y-17483000D02*
X28231300Y-17483000D01*
D14*
X27701300Y-15483000D02*
X27701300Y-17683000D01*
X27701300Y-15483000D02*
X30061300Y-15483000D01*
X30061300Y-17683000D02*
X27701300Y-17683000D01*
X30061300Y-17683000D02*
X30061300Y-15483000D01*
D15*
X6543400Y23602500D02*
X6824600Y23602500D01*
X6543400Y22582500D02*
X6824600Y22582500D01*
X-13782100Y6041000D02*
X-13500900Y6041000D01*
X-13782100Y5021000D02*
X-13500900Y5021000D01*
X3917900Y25247300D02*
X4199100Y25247300D01*
X3917900Y24227300D02*
X4199100Y24227300D01*
D19*
X-18584700Y-16322300D02*
X-18597753Y-16321444D01*
X-18597753Y-16321444D02*
X-18610582Y-16318893D01*
X-18610582Y-16318893D02*
X-18622968Y-16314688D01*
X-18622968Y-16314688D02*
X-18634700Y-16308903D01*
X-18634700Y-16308903D02*
X-18645576Y-16301635D01*
X-18645576Y-16301635D02*
X-18655411Y-16293011D01*
X-18655411Y-16293011D02*
X-18664035Y-16283176D01*
X-18664035Y-16283176D02*
X-18671303Y-16272300D01*
X-18671303Y-16272300D02*
X-18677088Y-16260568D01*
X-18677088Y-16260568D02*
X-18681293Y-16248182D01*
X-18681293Y-16248182D02*
X-18683844Y-16235353D01*
X-18683844Y-16235353D02*
X-18684700Y-16222300D01*
X-18684700Y-16222300D02*
X-18683844Y-16209247D01*
X-18683844Y-16209247D02*
X-18681293Y-16196418D01*
X-18681293Y-16196418D02*
X-18677088Y-16184032D01*
X-18677088Y-16184032D02*
X-18671303Y-16172300D01*
X-18671303Y-16172300D02*
X-18664035Y-16161424D01*
X-18664035Y-16161424D02*
X-18655411Y-16151589D01*
X-18655411Y-16151589D02*
X-18645576Y-16142965D01*
X-18645576Y-16142965D02*
X-18634700Y-16135697D01*
X-18634700Y-16135697D02*
X-18622968Y-16129912D01*
X-18622968Y-16129912D02*
X-18610582Y-16125707D01*
X-18610582Y-16125707D02*
X-18597753Y-16123156D01*
X-18597753Y-16123156D02*
X-18584700Y-16122300D01*
X-18584700Y-16122300D02*
X-18571647Y-16123156D01*
X-18571647Y-16123156D02*
X-18558818Y-16125707D01*
X-18558818Y-16125707D02*
X-18546432Y-16129912D01*
X-18546432Y-16129912D02*
X-18534700Y-16135697D01*
X-18534700Y-16135697D02*
X-18523824Y-16142965D01*
X-18523824Y-16142965D02*
X-18513989Y-16151589D01*
X-18513989Y-16151589D02*
X-18505365Y-16161424D01*
X-18505365Y-16161424D02*
X-18498097Y-16172300D01*
X-18498097Y-16172300D02*
X-18492312Y-16184032D01*
X-18492312Y-16184032D02*
X-18488107Y-16196418D01*
X-18488107Y-16196418D02*
X-18485556Y-16209247D01*
X-18485556Y-16209247D02*
X-18484700Y-16222300D01*
X-18484700Y-16222300D02*
X-18485556Y-16235353D01*
X-18485556Y-16235353D02*
X-18488107Y-16248182D01*
X-18488107Y-16248182D02*
X-18492312Y-16260568D01*
X-18492312Y-16260568D02*
X-18498097Y-16272300D01*
X-18498097Y-16272300D02*
X-18505365Y-16283176D01*
X-18505365Y-16283176D02*
X-18513989Y-16293011D01*
X-18513989Y-16293011D02*
X-18523824Y-16301635D01*
X-18523824Y-16301635D02*
X-18534700Y-16308903D01*
X-18534700Y-16308903D02*
X-18546432Y-16314688D01*
X-18546432Y-16314688D02*
X-18558818Y-16318893D01*
X-18558818Y-16318893D02*
X-18571647Y-16321444D01*
X-18571647Y-16321444D02*
X-18584700Y-16322300D01*
D13*
X-19089700Y-13602300D02*
X-10079700Y-13602300D01*
X-10079700Y-13602300D02*
X-10079700Y-18842300D01*
X-10079700Y-18842300D02*
X-19089700Y-18842300D01*
X-19089700Y-18842300D02*
X-19089700Y-13602300D01*
D19*
X-16084700Y-14602300D02*
X-13084700Y-14602300D01*
X-16084700Y-17842300D02*
X-13084700Y-17842300D01*
D16*
X30702900Y-12541400D02*
X30701878Y-12549165D01*
X30701878Y-12549165D02*
X30698881Y-12556400D01*
X30698881Y-12556400D02*
X30694113Y-12562613D01*
X30694113Y-12562613D02*
X30687900Y-12567381D01*
X30687900Y-12567381D02*
X30680665Y-12570378D01*
X30680665Y-12570378D02*
X30672900Y-12571400D01*
X30672900Y-12571400D02*
X30665135Y-12570378D01*
X30665135Y-12570378D02*
X30657900Y-12567381D01*
X30657900Y-12567381D02*
X30651687Y-12562613D01*
X30651687Y-12562613D02*
X30646919Y-12556400D01*
X30646919Y-12556400D02*
X30643922Y-12549165D01*
X30643922Y-12549165D02*
X30642900Y-12541400D01*
X30642900Y-12541400D02*
X30643922Y-12533635D01*
X30643922Y-12533635D02*
X30646919Y-12526400D01*
X30646919Y-12526400D02*
X30651687Y-12520187D01*
X30651687Y-12520187D02*
X30657900Y-12515419D01*
X30657900Y-12515419D02*
X30665135Y-12512422D01*
X30665135Y-12512422D02*
X30672900Y-12511400D01*
X30672900Y-12511400D02*
X30680665Y-12512422D01*
X30680665Y-12512422D02*
X30687900Y-12515419D01*
X30687900Y-12515419D02*
X30694113Y-12520187D01*
X30694113Y-12520187D02*
X30698881Y-12526400D01*
X30698881Y-12526400D02*
X30701878Y-12533635D01*
X30701878Y-12533635D02*
X30702900Y-12541400D01*
D18*
X30132900Y-12491400D02*
X30128470Y-12525046D01*
X30128470Y-12525046D02*
X30115483Y-12556400D01*
X30115483Y-12556400D02*
X30094824Y-12583324D01*
X30094824Y-12583324D02*
X30067900Y-12603983D01*
X30067900Y-12603983D02*
X30036546Y-12616970D01*
X30036546Y-12616970D02*
X30002900Y-12621400D01*
X30002900Y-12621400D02*
X29969254Y-12616970D01*
X29969254Y-12616970D02*
X29937900Y-12603983D01*
X29937900Y-12603983D02*
X29910976Y-12583324D01*
X29910976Y-12583324D02*
X29890317Y-12556400D01*
X29890317Y-12556400D02*
X29877330Y-12525046D01*
X29877330Y-12525046D02*
X29872900Y-12491400D01*
X29872900Y-12491400D02*
X29877330Y-12457754D01*
X29877330Y-12457754D02*
X29890317Y-12426400D01*
X29890317Y-12426400D02*
X29910976Y-12399476D01*
X29910976Y-12399476D02*
X29937900Y-12378817D01*
X29937900Y-12378817D02*
X29969254Y-12365830D01*
X29969254Y-12365830D02*
X30002900Y-12361400D01*
X30002900Y-12361400D02*
X30036546Y-12365830D01*
X30036546Y-12365830D02*
X30067900Y-12378817D01*
X30067900Y-12378817D02*
X30094824Y-12399476D01*
X30094824Y-12399476D02*
X30115483Y-12426400D01*
X30115483Y-12426400D02*
X30128470Y-12457754D01*
X30128470Y-12457754D02*
X30132900Y-12491400D01*
D17*
X32272900Y-12561400D02*
X32272900Y-12541400D01*
X32272900Y-12541400D02*
X30672900Y-12541400D01*
X32272900Y-14661400D02*
X32272900Y-13621400D01*
X30672900Y-15721400D02*
X30672900Y-15741400D01*
X30672900Y-15741400D02*
X32272900Y-15741400D01*
X32272900Y-15741400D02*
X32272900Y-15721400D01*
X30672900Y-13621400D02*
X30672900Y-14661400D01*
X30672900Y-12541400D02*
X30672900Y-12561400D01*
%TD*%
M02*
