%TF.GenerationSoftware,KiCad,Pcbnew,9.0.7*%
%TF.CreationDate,2026-06-09T13:39:04-05:00*%
%TF.ProjectId,ESP32_Simple_IoT,45535033-325f-4536-996d-706c655f496f,rev?*%
%TF.SameCoordinates,Original*%
%TF.FileFunction,Copper,L2,Bot*%
%TF.FilePolarity,Positive*%
%FSLAX46Y46*%
G04 Gerber Fmt 4.6, Leading zero omitted, Abs format (unit mm)*
G04 Created by KiCad (PCBNEW 9.0.7) date 2026-06-09 13:39:04*
%MOMM*%
%LPD*%
G01*
G04 APERTURE LIST*
G04 Aperture macros list*
%AMRoundRect*
0 Rectangle with rounded corners*
0 $1 Rounding radius*
0 $2 $3 $4 $5 $6 $7 $8 $9 X,Y pos of 4 corners*
0 Add a 4 corners polygon primitive as box body*
4,1,4,$2,$3,$4,$5,$6,$7,$8,$9,$2,$3,0*
0 Add four circle primitives for the rounded corners*
1,1,$1+$1,$2,$3*
1,1,$1+$1,$4,$5*
1,1,$1+$1,$6,$7*
1,1,$1+$1,$8,$9*
0 Add four rect primitives between the rounded corners*
20,1,$1+$1,$2,$3,$4,$5,0*
20,1,$1+$1,$4,$5,$6,$7,0*
20,1,$1+$1,$6,$7,$8,$9,0*
20,1,$1+$1,$8,$9,$2,$3,0*%
G04 Aperture macros list end*
%TA.AperFunction,HeatsinkPad*%
%ADD10C,0.600000*%
%TD*%
%TA.AperFunction,ComponentPad*%
%ADD11RoundRect,0.249999X-0.850001X-0.850001X0.850001X-0.850001X0.850001X0.850001X-0.850001X0.850001X0*%
%TD*%
%TA.AperFunction,ComponentPad*%
%ADD12C,2.200000*%
%TD*%
%TA.AperFunction,HeatsinkPad*%
%ADD13O,2.100000X1.000000*%
%TD*%
%TA.AperFunction,HeatsinkPad*%
%ADD14O,1.800000X1.000000*%
%TD*%
%TA.AperFunction,ComponentPad*%
%ADD15RoundRect,0.250000X-0.650000X-1.550000X0.650000X-1.550000X0.650000X1.550000X-0.650000X1.550000X0*%
%TD*%
%TA.AperFunction,ComponentPad*%
%ADD16O,1.800000X3.600000*%
%TD*%
%TA.AperFunction,ComponentPad*%
%ADD17C,3.000000*%
%TD*%
%TA.AperFunction,ComponentPad*%
%ADD18C,2.500000*%
%TD*%
%TA.AperFunction,ViaPad*%
%ADD19C,0.600000*%
%TD*%
%TA.AperFunction,ViaPad*%
%ADD20C,0.800000*%
%TD*%
%TA.AperFunction,ViaPad*%
%ADD21C,0.400000*%
%TD*%
%TA.AperFunction,Conductor*%
%ADD22C,0.500000*%
%TD*%
%TA.AperFunction,Conductor*%
%ADD23C,0.200000*%
%TD*%
G04 APERTURE END LIST*
D10*
%TO.P,U1,39*%
%TO.N,GND*%
X57795000Y-10327500D03*
X57795000Y-11852500D03*
X58557500Y-9565000D03*
X58557500Y-11090000D03*
X58557500Y-12615000D03*
X59320000Y-10327500D03*
X59320000Y-11852500D03*
X60082500Y-9565000D03*
X60082500Y-11090000D03*
X60082500Y-12615000D03*
X60845000Y-10327500D03*
X60845000Y-11852500D03*
%TD*%
D11*
%TO.P,D1,1*%
%TO.N,+5V*%
X30000000Y-40000000D03*
D12*
%TO.P,D1,2*%
%TO.N,RELAY_COIL*%
X40160000Y-40000000D03*
%TD*%
D13*
%TO.P,J1,S1*%
%TO.N,GND*%
X6105000Y-25680000D03*
D14*
X1925000Y-25680000D03*
D13*
X6105000Y-34320000D03*
D14*
X1925000Y-34320000D03*
%TD*%
D15*
%TO.P,J2,1*%
%TO.N,RELAY_COM*%
X72000000Y-52000000D03*
D16*
%TO.P,J2,2*%
%TO.N,RELAY_NO*%
X75810000Y-52000000D03*
%TD*%
D17*
%TO.P,K1,1*%
%TO.N,RELAY_COIL*%
X22000000Y-50000000D03*
D18*
%TO.P,K1,2*%
%TO.N,+5V*%
X23950000Y-56050000D03*
D17*
%TO.P,K1,3*%
%TO.N,N/C*%
X36150000Y-56050000D03*
%TO.P,K1,4*%
%TO.N,RELAY_NO*%
X36200000Y-44000000D03*
D18*
%TO.P,K1,5*%
%TO.N,RELAY_COM*%
X23950000Y-44050000D03*
%TD*%
D19*
%TO.N,GND*%
X15000000Y-25000000D03*
X51150000Y-56100000D03*
X60000000Y-35000000D03*
X45000000Y-10000000D03*
X35000000Y-20000000D03*
X35000000Y-5000000D03*
X18950000Y-4000000D03*
X20000000Y-20000000D03*
X5000000Y-50000000D03*
X33950000Y-10000000D03*
X20850000Y-5700000D03*
X3800000Y-46000000D03*
X75000000Y-25000000D03*
X5062500Y-14000000D03*
X33950000Y-6000000D03*
X12000000Y-55000000D03*
X18480000Y-48800000D03*
X70000000Y-5000000D03*
X33950000Y-1800000D03*
X8062500Y-6000000D03*
X9000000Y-5000000D03*
X75000000Y-40000000D03*
X75000000Y-15000000D03*
X5062500Y-51050000D03*
X14250000Y-43500000D03*
X47950000Y-8000000D03*
X55000000Y-30000000D03*
X63150000Y-56100000D03*
X67750000Y-3750000D03*
X75000000Y-55000000D03*
X60000000Y-55000000D03*
X40000000Y-55000000D03*
X5000000Y-10000000D03*
X55000000Y-5000000D03*
X16000000Y-44000000D03*
X35000000Y-35000000D03*
X20000000Y-35000000D03*
X50250000Y-3750000D03*
X44950000Y-18000000D03*
X6200000Y-46000000D03*
D20*
%TO.N,+5V*%
X8000000Y-46000000D03*
X8000000Y-15000000D03*
X23950000Y-53050000D03*
X8000000Y-18500000D03*
X8000000Y-43000000D03*
X13000000Y-36000000D03*
X10000000Y-49000000D03*
X13000000Y-17000000D03*
X24850000Y-12300000D03*
X13000000Y-15000000D03*
X20850000Y-14300000D03*
%TO.N,+3V3*%
X30049999Y-16000000D03*
X5000000Y-42000000D03*
X5000000Y-44500000D03*
X10000000Y-45000000D03*
D21*
%TO.N,USB_D+*%
X12000000Y-44000000D03*
X2500000Y-29750000D03*
D19*
X2500000Y-41000000D03*
X9500000Y-41000000D03*
%TO.N,USB_D-*%
X3500000Y-30250000D03*
X3500000Y-40000000D03*
%TO.N,ESP_TX*%
X24000000Y-34000000D03*
X16500000Y-40500000D03*
X17000000Y-38000000D03*
X67000000Y-7560000D03*
%TO.N,ESP_RX*%
X65000000Y-8830000D03*
X16000000Y-32000000D03*
%TO.N,ESP_EN*%
X43000000Y-13000000D03*
X40000000Y-36000000D03*
X56850000Y-55900000D03*
X47912500Y-13000000D03*
%TO.N,ESP_IO0*%
X44850000Y-55900000D03*
X42000000Y-38000000D03*
%TO.N,ESP_IO4*%
X64000000Y-18990000D03*
X15000000Y-48000000D03*
%TO.N,ESP_IO5*%
X9087500Y-7000000D03*
X9087500Y-9000000D03*
X66000000Y-15180000D03*
X7000000Y-7000000D03*
%TO.N,RELAY_COIL*%
X8937500Y-50000000D03*
X38000000Y-40000000D03*
X20000000Y-50000000D03*
D21*
%TO.N,VBUS*%
X8800000Y-28000000D03*
X12000000Y-28000000D03*
X2000000Y-32000000D03*
X700000Y-27600000D03*
X5700000Y-28000000D03*
X700000Y-32400000D03*
D19*
%TO.N,CC1*%
X11000000Y-28750000D03*
X11000000Y-37000000D03*
%TD*%
D22*
%TO.N,+5V*%
X13500000Y-12300000D02*
X13000000Y-12800000D01*
X13000000Y-12800000D02*
X13000000Y-15000000D01*
X13000000Y-17000000D02*
X13000000Y-48500000D01*
X8000000Y-14300000D02*
X8000000Y-15000000D01*
X20850000Y-14300000D02*
X8000000Y-14300000D01*
X8000000Y-46000000D02*
X8000000Y-52550000D01*
X8500000Y-53050000D02*
X23950000Y-53050000D01*
X8000000Y-52550000D02*
X8500000Y-53050000D01*
X8000000Y-18500000D02*
X8000000Y-43000000D01*
X12500000Y-49000000D02*
X10000000Y-49000000D01*
X13000000Y-48500000D02*
X12500000Y-49000000D01*
X24850000Y-12300000D02*
X13500000Y-12300000D01*
%TO.N,+3V3*%
X5500000Y-22000000D02*
X6000000Y-22000000D01*
X5000000Y-44800000D02*
X5200000Y-45000000D01*
X6000000Y-22000000D02*
X6500000Y-22500000D01*
X5000000Y-44500000D02*
X5000000Y-44800000D01*
X5000000Y-16500000D02*
X5000000Y-21500000D01*
X6500000Y-22500000D02*
X6500000Y-37500000D01*
X6500000Y-37500000D02*
X6000000Y-38000000D01*
X30049999Y-16000000D02*
X5500000Y-16000000D01*
X6000000Y-38000000D02*
X5500000Y-38000000D01*
X5000000Y-38500000D02*
X5000000Y-42000000D01*
X5500000Y-38000000D02*
X5000000Y-38500000D01*
X5500000Y-16000000D02*
X5000000Y-16500000D01*
X5200000Y-45000000D02*
X10000000Y-45000000D01*
X5000000Y-21500000D02*
X5500000Y-22000000D01*
D23*
%TO.N,USB_D+*%
X9500000Y-43500000D02*
X10000000Y-44000000D01*
X2500000Y-29750000D02*
X2500000Y-41000000D01*
X10000000Y-44000000D02*
X12000000Y-44000000D01*
X9500000Y-41000000D02*
X9500000Y-43500000D01*
%TO.N,USB_D-*%
X3500000Y-30250000D02*
X3500000Y-40000000D01*
%TO.N,ESP_TX*%
X17000000Y-38000000D02*
X17000000Y-40300000D01*
X67000000Y-33500000D02*
X66500000Y-34000000D01*
X66500000Y-34000000D02*
X24000000Y-34000000D01*
X67000000Y-7560000D02*
X67000000Y-33500000D01*
X16800000Y-40500000D02*
X16500000Y-40500000D01*
X17000000Y-40300000D02*
X16800000Y-40500000D01*
%TO.N,ESP_RX*%
X65000000Y-31500000D02*
X64500000Y-32000000D01*
X65000000Y-8830000D02*
X65000000Y-31500000D01*
X64500000Y-32000000D02*
X16000000Y-32000000D01*
%TO.N,ESP_EN*%
X47912500Y-13000000D02*
X43000000Y-13000000D01*
X56350000Y-36000000D02*
X56850000Y-36500000D01*
X40000000Y-36000000D02*
X56350000Y-36000000D01*
X56850000Y-36500000D02*
X56850000Y-55900000D01*
%TO.N,ESP_IO0*%
X42000000Y-38000000D02*
X44350000Y-38000000D01*
X44850000Y-38500000D02*
X44850000Y-55900000D01*
X44350000Y-38000000D02*
X44850000Y-38500000D01*
%TO.N,ESP_IO4*%
X64000000Y-26500000D02*
X63500000Y-27000000D01*
X63500000Y-27000000D02*
X15500000Y-27000000D01*
X15000000Y-27500000D02*
X15000000Y-48000000D01*
X15500000Y-27000000D02*
X15000000Y-27500000D01*
X64000000Y-18990000D02*
X64000000Y-26500000D01*
%TO.N,ESP_IO5*%
X9087500Y-7000000D02*
X9087500Y-9000000D01*
X65500000Y-7000000D02*
X7000000Y-7000000D01*
X66000000Y-7500000D02*
X65500000Y-7000000D01*
X66000000Y-15180000D02*
X66000000Y-7500000D01*
%TO.N,RELAY_COIL*%
X38000000Y-49500000D02*
X37500000Y-50000000D01*
X37500000Y-50000000D02*
X20000000Y-50000000D01*
X38000000Y-40000000D02*
X38000000Y-49500000D01*
X8937500Y-50000000D02*
X20000000Y-50000000D01*
%TO.N,VBUS*%
X1200000Y-32000000D02*
X2000000Y-32000000D01*
X700000Y-27600000D02*
X700000Y-31500000D01*
X700000Y-31500000D02*
X1200000Y-32000000D01*
X700000Y-32400000D02*
X700000Y-28500000D01*
X700000Y-28500000D02*
X1200000Y-28000000D01*
D22*
X8800000Y-28000000D02*
X12000000Y-28000000D01*
X2500000Y-28000000D02*
X5700000Y-28000000D01*
D23*
X1200000Y-28000000D02*
X2500000Y-28000000D01*
%TO.N,CC1*%
X11000000Y-28750000D02*
X11000000Y-37000000D01*
%TD*%
%TA.AperFunction,Conductor*%
%TO.N,GND*%
G36*
X64577826Y-19366062D02*
G01*
X64599500Y-19418388D01*
X64599500Y-31303455D01*
X64577826Y-31355781D01*
X64355781Y-31577826D01*
X64303455Y-31599500D01*
X16479388Y-31599500D01*
X16427062Y-31577826D01*
X16368716Y-31519480D01*
X16231784Y-31440423D01*
X16231781Y-31440422D01*
X16231779Y-31440421D01*
X16079059Y-31399500D01*
X16079057Y-31399500D01*
X15920943Y-31399500D01*
X15920941Y-31399500D01*
X15768220Y-31440421D01*
X15768214Y-31440424D01*
X15631283Y-31519480D01*
X15526826Y-31623938D01*
X15474500Y-31645612D01*
X15422174Y-31623938D01*
X15400500Y-31571612D01*
X15400500Y-27696544D01*
X15422174Y-27644218D01*
X15644218Y-27422174D01*
X15696544Y-27400500D01*
X63552726Y-27400500D01*
X63552727Y-27400500D01*
X63654588Y-27373207D01*
X63745913Y-27320480D01*
X64245910Y-26820481D01*
X64245913Y-26820480D01*
X64320480Y-26745913D01*
X64358812Y-26679520D01*
X64373207Y-26654588D01*
X64400500Y-26552727D01*
X64400500Y-26447273D01*
X64400500Y-19469388D01*
X64422174Y-19417062D01*
X64473174Y-19366062D01*
X64525500Y-19344388D01*
X64577826Y-19366062D01*
G37*
%TD.AperFunction*%
%TA.AperFunction,Conductor*%
G36*
X35978326Y-521674D02*
G01*
X36000000Y-574000D01*
X36000000Y-2200000D01*
X79426000Y-2200000D01*
X79478326Y-2221674D01*
X79500000Y-2274000D01*
X79500000Y-59426000D01*
X79478326Y-59478326D01*
X79426000Y-59500000D01*
X6574000Y-59500000D01*
X6521674Y-59478326D01*
X6500000Y-59426000D01*
X6500000Y-55927971D01*
X22399500Y-55927971D01*
X22399500Y-56172028D01*
X22437678Y-56413073D01*
X22437681Y-56413086D01*
X22513093Y-56645179D01*
X22623893Y-56862639D01*
X22767341Y-57060078D01*
X22767345Y-57060083D01*
X22939917Y-57232655D01*
X22939920Y-57232657D01*
X22939921Y-57232658D01*
X23137360Y-57376106D01*
X23197191Y-57406591D01*
X23354815Y-57486904D01*
X23354817Y-57486904D01*
X23354820Y-57486906D01*
X23586913Y-57562318D01*
X23586919Y-57562319D01*
X23586924Y-57562321D01*
X23707448Y-57581410D01*
X23827971Y-57600500D01*
X23827973Y-57600500D01*
X24072029Y-57600500D01*
X24168446Y-57585228D01*
X24313076Y-57562321D01*
X24313083Y-57562318D01*
X24313086Y-57562318D01*
X24545179Y-57486906D01*
X24545179Y-57486905D01*
X24545185Y-57486904D01*
X24762639Y-57376106D01*
X24960083Y-57232655D01*
X25132655Y-57060083D01*
X25276106Y-56862639D01*
X25386904Y-56645185D01*
X25433915Y-56500500D01*
X25462318Y-56413086D01*
X25462318Y-56413083D01*
X25462321Y-56413076D01*
X25500500Y-56172027D01*
X25500500Y-55931990D01*
X34349500Y-55931990D01*
X34349500Y-56168009D01*
X34380305Y-56402007D01*
X34441393Y-56629991D01*
X34531714Y-56848045D01*
X34531715Y-56848048D01*
X34649724Y-57052446D01*
X34649728Y-57052452D01*
X34793408Y-57239699D01*
X34960300Y-57406591D01*
X35147547Y-57550271D01*
X35147553Y-57550275D01*
X35351951Y-57668284D01*
X35570007Y-57758606D01*
X35797986Y-57819693D01*
X35797992Y-57819693D01*
X35797993Y-57819694D01*
X35797992Y-57819694D01*
X35901838Y-57833365D01*
X36031989Y-57850500D01*
X36031991Y-57850500D01*
X36268009Y-57850500D01*
X36268011Y-57850500D01*
X36448300Y-57826764D01*
X36502007Y-57819694D01*
X36502007Y-57819693D01*
X36502014Y-57819693D01*
X36729993Y-57758606D01*
X36948049Y-57668284D01*
X37152450Y-57550273D01*
X37339699Y-57406592D01*
X37506592Y-57239699D01*
X37650273Y-57052450D01*
X37768284Y-56848049D01*
X37858606Y-56629993D01*
X37919693Y-56402014D01*
X37950500Y-56168011D01*
X37950500Y-55931989D01*
X37919693Y-55697986D01*
X37858606Y-55470007D01*
X37768284Y-55251951D01*
X37650273Y-55047550D01*
X37506592Y-54860301D01*
X37339699Y-54693408D01*
X37152452Y-54549728D01*
X37152446Y-54549724D01*
X36948048Y-54431715D01*
X36948045Y-54431714D01*
X36729991Y-54341393D01*
X36555879Y-54294740D01*
X36502014Y-54280307D01*
X36502012Y-54280306D01*
X36502006Y-54280305D01*
X36502007Y-54280305D01*
X36313929Y-54255545D01*
X36268011Y-54249500D01*
X36031989Y-54249500D01*
X35990173Y-54255005D01*
X35797992Y-54280305D01*
X35570008Y-54341393D01*
X35351954Y-54431714D01*
X35351951Y-54431715D01*
X35147553Y-54549724D01*
X35147547Y-54549728D01*
X34960300Y-54693408D01*
X34793408Y-54860300D01*
X34649728Y-55047547D01*
X34649724Y-55047553D01*
X34531715Y-55251951D01*
X34531714Y-55251954D01*
X34441393Y-55470008D01*
X34380305Y-55697992D01*
X34349500Y-55931990D01*
X25500500Y-55931990D01*
X25500500Y-55927973D01*
X25462321Y-55686924D01*
X25462319Y-55686919D01*
X25462318Y-55686913D01*
X25386906Y-55454820D01*
X25386904Y-55454817D01*
X25386904Y-55454815D01*
X25329509Y-55342171D01*
X25276106Y-55237360D01*
X25132658Y-55039921D01*
X25132657Y-55039920D01*
X25132655Y-55039917D01*
X24960083Y-54867345D01*
X24960080Y-54867342D01*
X24960078Y-54867341D01*
X24762639Y-54723893D01*
X24545179Y-54613093D01*
X24313086Y-54537681D01*
X24313073Y-54537678D01*
X24072029Y-54499500D01*
X24072027Y-54499500D01*
X23827973Y-54499500D01*
X23827971Y-54499500D01*
X23586926Y-54537678D01*
X23586913Y-54537681D01*
X23354820Y-54613093D01*
X23137360Y-54723893D01*
X22939921Y-54867341D01*
X22767341Y-55039921D01*
X22623893Y-55237360D01*
X22513093Y-55454820D01*
X22437681Y-55686913D01*
X22437678Y-55686926D01*
X22399500Y-55927971D01*
X6500000Y-55927971D01*
X6500000Y-53500000D01*
X574000Y-53500000D01*
X521674Y-53478326D01*
X500000Y-53426000D01*
X500000Y-32961004D01*
X521674Y-32908678D01*
X574000Y-32887004D01*
X593150Y-32889525D01*
X620058Y-32896735D01*
X634107Y-32900500D01*
X634108Y-32900500D01*
X765894Y-32900500D01*
X765894Y-32900499D01*
X893186Y-32866392D01*
X1007314Y-32800500D01*
X1100500Y-32707314D01*
X1166392Y-32593186D01*
X1193640Y-32491494D01*
X1200498Y-32465900D01*
X1200498Y-32465898D01*
X1200500Y-32465892D01*
X1200500Y-32465884D01*
X1200637Y-32464847D01*
X1200905Y-32464382D01*
X1201756Y-32461207D01*
X1202606Y-32461434D01*
X1228952Y-32415796D01*
X1274005Y-32400500D01*
X1672857Y-32400500D01*
X1709857Y-32410414D01*
X1719179Y-32415796D01*
X1806814Y-32466392D01*
X1934105Y-32500499D01*
X1934106Y-32500500D01*
X2025500Y-32500500D01*
X2077826Y-32522174D01*
X2099500Y-32574500D01*
X2099500Y-40520612D01*
X2077826Y-40572938D01*
X2019480Y-40631283D01*
X1940424Y-40768214D01*
X1940421Y-40768220D01*
X1899500Y-40920940D01*
X1899500Y-41079059D01*
X1940421Y-41231779D01*
X1940422Y-41231781D01*
X1940423Y-41231784D01*
X2019480Y-41368716D01*
X2131284Y-41480520D01*
X2268216Y-41559577D01*
X2420940Y-41600499D01*
X2420941Y-41600500D01*
X2420943Y-41600500D01*
X2579059Y-41600500D01*
X2579059Y-41600499D01*
X2731784Y-41559577D01*
X2868716Y-41480520D01*
X2980520Y-41368716D01*
X3059577Y-41231784D01*
X3100499Y-41079059D01*
X3100500Y-41079059D01*
X3100500Y-40920941D01*
X3100499Y-40920940D01*
X3098201Y-40912365D01*
X3059577Y-40768216D01*
X2980520Y-40631284D01*
X2922174Y-40572938D01*
X2900500Y-40520612D01*
X2900500Y-40428388D01*
X2922174Y-40376062D01*
X2974500Y-40354388D01*
X3026826Y-40376062D01*
X3131284Y-40480520D01*
X3268216Y-40559577D01*
X3420940Y-40600499D01*
X3420941Y-40600500D01*
X3420943Y-40600500D01*
X3579059Y-40600500D01*
X3579059Y-40600499D01*
X3731784Y-40559577D01*
X3868716Y-40480520D01*
X3980520Y-40368716D01*
X4059577Y-40231784D01*
X4100499Y-40079059D01*
X4100500Y-40079059D01*
X4100500Y-39920941D01*
X4100499Y-39920940D01*
X4059578Y-39768220D01*
X4059577Y-39768216D01*
X3980520Y-39631284D01*
X3922174Y-39572938D01*
X3900500Y-39520612D01*
X3900500Y-30729388D01*
X3922174Y-30677062D01*
X3980520Y-30618716D01*
X4059577Y-30481784D01*
X4100499Y-30329059D01*
X4100500Y-30329059D01*
X4100500Y-30170941D01*
X4100499Y-30170940D01*
X4059578Y-30018220D01*
X4059577Y-30018216D01*
X3980520Y-29881284D01*
X3868716Y-29769480D01*
X3731784Y-29690423D01*
X3731781Y-29690422D01*
X3731779Y-29690421D01*
X3579059Y-29649500D01*
X3579057Y-29649500D01*
X3420943Y-29649500D01*
X3420941Y-29649500D01*
X3268220Y-29690421D01*
X3268214Y-29690424D01*
X3131283Y-29769480D01*
X3126826Y-29773938D01*
X3074500Y-29795612D01*
X3022174Y-29773938D01*
X3000500Y-29721612D01*
X3000500Y-29684106D01*
X3000499Y-29684105D01*
X2966393Y-29556818D01*
X2966392Y-29556814D01*
X2900500Y-29442686D01*
X2807314Y-29349500D01*
X2693190Y-29283610D01*
X2693181Y-29283606D01*
X2565894Y-29249500D01*
X2565892Y-29249500D01*
X2434108Y-29249500D01*
X2434106Y-29249500D01*
X2306818Y-29283606D01*
X2306809Y-29283610D01*
X2192685Y-29349500D01*
X2099500Y-29442685D01*
X2033610Y-29556809D01*
X2033606Y-29556818D01*
X1999500Y-29684105D01*
X1999500Y-29815894D01*
X2033606Y-29943181D01*
X2033610Y-29943190D01*
X2089586Y-30040142D01*
X2099500Y-30077142D01*
X2099500Y-31425500D01*
X2077826Y-31477826D01*
X2025500Y-31499500D01*
X1934106Y-31499500D01*
X1806818Y-31533606D01*
X1806809Y-31533610D01*
X1709857Y-31589586D01*
X1672857Y-31599500D01*
X1396544Y-31599500D01*
X1344218Y-31577826D01*
X1122174Y-31355781D01*
X1100500Y-31303455D01*
X1100500Y-28696544D01*
X1122174Y-28644218D01*
X1344218Y-28422174D01*
X1396544Y-28400500D01*
X2091324Y-28400500D01*
X2143650Y-28422174D01*
X2161985Y-28440509D01*
X2287515Y-28512984D01*
X2287516Y-28512984D01*
X2287518Y-28512985D01*
X2343652Y-28528026D01*
X2427522Y-28550499D01*
X2427523Y-28550500D01*
X2427525Y-28550500D01*
X5772476Y-28550500D01*
X5799181Y-28543343D01*
X5856347Y-28528026D01*
X5912499Y-28535418D01*
X5946978Y-28580350D01*
X5949500Y-28599504D01*
X5949500Y-32016000D01*
X5927826Y-32068326D01*
X5875500Y-32090000D01*
X4805000Y-32090000D01*
X4805000Y-33690000D01*
X5875500Y-33690000D01*
X5927826Y-33711674D01*
X5949500Y-33764000D01*
X5949500Y-37241323D01*
X5927826Y-37293649D01*
X5793649Y-37427826D01*
X5741323Y-37449500D01*
X5427523Y-37449500D01*
X5311762Y-37480519D01*
X5311758Y-37480520D01*
X5294010Y-37485275D01*
X5287514Y-37487016D01*
X5161984Y-37559490D01*
X4559490Y-38161984D01*
X4506315Y-38254088D01*
X4487016Y-38287513D01*
X4487014Y-38287518D01*
X4449500Y-38427522D01*
X4449500Y-41540567D01*
X4437029Y-41581679D01*
X4379222Y-41668193D01*
X4326421Y-41795667D01*
X4326418Y-41795677D01*
X4299500Y-41931008D01*
X4299500Y-42068991D01*
X4326418Y-42204322D01*
X4326421Y-42204332D01*
X4379223Y-42331808D01*
X4412570Y-42381716D01*
X4455886Y-42446542D01*
X4553458Y-42544114D01*
X4668189Y-42620775D01*
X4668190Y-42620775D01*
X4668191Y-42620776D01*
X4795667Y-42673578D01*
X4795672Y-42673580D01*
X4931007Y-42700500D01*
X4931009Y-42700500D01*
X5068991Y-42700500D01*
X5068993Y-42700500D01*
X5204328Y-42673580D01*
X5331811Y-42620775D01*
X5446542Y-42544114D01*
X5544114Y-42446542D01*
X5620775Y-42331811D01*
X5673580Y-42204328D01*
X5700500Y-42068993D01*
X5700500Y-41931007D01*
X5673580Y-41795672D01*
X5620775Y-41668189D01*
X5562971Y-41581679D01*
X5550500Y-41540567D01*
X5550500Y-38758677D01*
X5572174Y-38706351D01*
X5706351Y-38572174D01*
X5758677Y-38550500D01*
X6072477Y-38550500D01*
X6072477Y-38550499D01*
X6170889Y-38524129D01*
X6212482Y-38512985D01*
X6212482Y-38512984D01*
X6212485Y-38512984D01*
X6338015Y-38440510D01*
X6940510Y-37838015D01*
X7012984Y-37712485D01*
X7021817Y-37679520D01*
X7050499Y-37572477D01*
X7050500Y-37572477D01*
X7050500Y-22427523D01*
X7050499Y-22427522D01*
X7012985Y-22287517D01*
X6940509Y-22161984D01*
X6338015Y-21559490D01*
X6212482Y-21487014D01*
X6072477Y-21449500D01*
X6072475Y-21449500D01*
X5758677Y-21449500D01*
X5706351Y-21427826D01*
X5572174Y-21293649D01*
X5550500Y-21241323D01*
X5550500Y-16758677D01*
X5572174Y-16706351D01*
X5706351Y-16572174D01*
X5758677Y-16550500D01*
X12319418Y-16550500D01*
X12371744Y-16572174D01*
X12393418Y-16624500D01*
X12380947Y-16665611D01*
X12379226Y-16668186D01*
X12379224Y-16668190D01*
X12326421Y-16795667D01*
X12326418Y-16795677D01*
X12299500Y-16931008D01*
X12299500Y-17068991D01*
X12326418Y-17204322D01*
X12326421Y-17204332D01*
X12379224Y-17331809D01*
X12437028Y-17418318D01*
X12449500Y-17459431D01*
X12449500Y-27495685D01*
X12427826Y-27548011D01*
X12375500Y-27569685D01*
X12338500Y-27559771D01*
X12212486Y-27487016D01*
X12212481Y-27487014D01*
X12072477Y-27449500D01*
X12072475Y-27449500D01*
X8727525Y-27449500D01*
X8727523Y-27449500D01*
X8643653Y-27471973D01*
X8587500Y-27464581D01*
X8553022Y-27419648D01*
X8550500Y-27400495D01*
X8550500Y-18959431D01*
X8562972Y-18918318D01*
X8567902Y-18910940D01*
X8620775Y-18831811D01*
X8673580Y-18704328D01*
X8700500Y-18568993D01*
X8700500Y-18431007D01*
X8673580Y-18295672D01*
X8620775Y-18168189D01*
X8544114Y-18053458D01*
X8446542Y-17955886D01*
X8331811Y-17879225D01*
X8331810Y-17879224D01*
X8331808Y-17879223D01*
X8204332Y-17826421D01*
X8204322Y-17826418D01*
X8113694Y-17808391D01*
X8068993Y-17799500D01*
X7931007Y-17799500D01*
X7892642Y-17807131D01*
X7795677Y-17826418D01*
X7795667Y-17826421D01*
X7668191Y-17879223D01*
X7553461Y-17955883D01*
X7455883Y-18053461D01*
X7379223Y-18168191D01*
X7326421Y-18295667D01*
X7326418Y-18295677D01*
X7299500Y-18431008D01*
X7299500Y-18568991D01*
X7326418Y-18704322D01*
X7326421Y-18704332D01*
X7379224Y-18831809D01*
X7379225Y-18831811D01*
X7429605Y-18907210D01*
X7437028Y-18918318D01*
X7449500Y-18959431D01*
X7449500Y-42540567D01*
X7437029Y-42581679D01*
X7379222Y-42668193D01*
X7326421Y-42795667D01*
X7326418Y-42795677D01*
X7299500Y-42931008D01*
X7299500Y-43068991D01*
X7326418Y-43204322D01*
X7326421Y-43204332D01*
X7379223Y-43331808D01*
X7438156Y-43420008D01*
X7455886Y-43446542D01*
X7553458Y-43544114D01*
X7668189Y-43620775D01*
X7668190Y-43620775D01*
X7668191Y-43620776D01*
X7795667Y-43673578D01*
X7795672Y-43673580D01*
X7931007Y-43700500D01*
X7931009Y-43700500D01*
X8068991Y-43700500D01*
X8068993Y-43700500D01*
X8204328Y-43673580D01*
X8331811Y-43620775D01*
X8446542Y-43544114D01*
X8544114Y-43446542D01*
X8620775Y-43331811D01*
X8673580Y-43204328D01*
X8700500Y-43068993D01*
X8700500Y-42931007D01*
X8673580Y-42795672D01*
X8673578Y-42795667D01*
X8620777Y-42668193D01*
X8620776Y-42668191D01*
X8620775Y-42668189D01*
X8562971Y-42581679D01*
X8550500Y-42540567D01*
X8550500Y-28599504D01*
X8572174Y-28547178D01*
X8624500Y-28525504D01*
X8643649Y-28528025D01*
X8700818Y-28543343D01*
X8727524Y-28550500D01*
X8727525Y-28550500D01*
X10335334Y-28550500D01*
X10387660Y-28572174D01*
X10409334Y-28624500D01*
X10406812Y-28643653D01*
X10399500Y-28670940D01*
X10399500Y-28829059D01*
X10440421Y-28981779D01*
X10440422Y-28981781D01*
X10440423Y-28981784D01*
X10440424Y-28981785D01*
X10519480Y-29118716D01*
X10577826Y-29177062D01*
X10599500Y-29229388D01*
X10599500Y-36520612D01*
X10577826Y-36572938D01*
X10519480Y-36631283D01*
X10440424Y-36768214D01*
X10440421Y-36768220D01*
X10399500Y-36920940D01*
X10399500Y-37079059D01*
X10440421Y-37231779D01*
X10440422Y-37231781D01*
X10440423Y-37231784D01*
X10519480Y-37368716D01*
X10631284Y-37480520D01*
X10768216Y-37559577D01*
X10920940Y-37600499D01*
X10920941Y-37600500D01*
X10920943Y-37600500D01*
X11079059Y-37600500D01*
X11079059Y-37600499D01*
X11231784Y-37559577D01*
X11368716Y-37480520D01*
X11480520Y-37368716D01*
X11559577Y-37231784D01*
X11600499Y-37079059D01*
X11600500Y-37079059D01*
X11600500Y-36920941D01*
X11600499Y-36920940D01*
X11559578Y-36768220D01*
X11559577Y-36768216D01*
X11480520Y-36631284D01*
X11422174Y-36572938D01*
X11400500Y-36520612D01*
X11400500Y-29229388D01*
X11422174Y-29177062D01*
X11480520Y-29118716D01*
X11559577Y-28981784D01*
X11600499Y-28829059D01*
X11600500Y-28829059D01*
X11600500Y-28670941D01*
X11600499Y-28670940D01*
X11599146Y-28665892D01*
X11593188Y-28643653D01*
X11600580Y-28587501D01*
X11645513Y-28553022D01*
X11664666Y-28550500D01*
X12072477Y-28550500D01*
X12072477Y-28550499D01*
X12212485Y-28512984D01*
X12338015Y-28440509D01*
X12338017Y-28440506D01*
X12338500Y-28440228D01*
X12394652Y-28432835D01*
X12439586Y-28467314D01*
X12449500Y-28504314D01*
X12449500Y-35540567D01*
X12437029Y-35581679D01*
X12379222Y-35668193D01*
X12326421Y-35795667D01*
X12326418Y-35795677D01*
X12303945Y-35908656D01*
X12299500Y-35931007D01*
X12299500Y-36068993D01*
X12308391Y-36113694D01*
X12326418Y-36204322D01*
X12326421Y-36204332D01*
X12356360Y-36276611D01*
X12379225Y-36331811D01*
X12403884Y-36368716D01*
X12437028Y-36418318D01*
X12449500Y-36459431D01*
X12449500Y-43563034D01*
X12427826Y-43615360D01*
X12375500Y-43637034D01*
X12323174Y-43615360D01*
X12307314Y-43599500D01*
X12193190Y-43533610D01*
X12193181Y-43533606D01*
X12065894Y-43499500D01*
X12065892Y-43499500D01*
X11934108Y-43499500D01*
X11934106Y-43499500D01*
X11806818Y-43533606D01*
X11806809Y-43533610D01*
X11709857Y-43589586D01*
X11672857Y-43599500D01*
X10196544Y-43599500D01*
X10144218Y-43577826D01*
X9922174Y-43355781D01*
X9900500Y-43303455D01*
X9900500Y-41479388D01*
X9922174Y-41427062D01*
X9948738Y-41400498D01*
X9980520Y-41368716D01*
X10059577Y-41231784D01*
X10100499Y-41079059D01*
X10100500Y-41079059D01*
X10100500Y-40920941D01*
X10100499Y-40920940D01*
X10098201Y-40912365D01*
X10059577Y-40768216D01*
X9980520Y-40631284D01*
X9868716Y-40519480D01*
X9731784Y-40440423D01*
X9731781Y-40440422D01*
X9731779Y-40440421D01*
X9579059Y-40399500D01*
X9579057Y-40399500D01*
X9420943Y-40399500D01*
X9420941Y-40399500D01*
X9268220Y-40440421D01*
X9268214Y-40440424D01*
X9131283Y-40519480D01*
X9019480Y-40631283D01*
X8940424Y-40768214D01*
X8940421Y-40768220D01*
X8899500Y-40920940D01*
X8899500Y-41079059D01*
X8940421Y-41231779D01*
X8940422Y-41231781D01*
X8940423Y-41231784D01*
X8999645Y-41334361D01*
X9019480Y-41368716D01*
X9077826Y-41427062D01*
X9099500Y-41479388D01*
X9099500Y-43447273D01*
X9099500Y-43552727D01*
X9109376Y-43589586D01*
X9126793Y-43654588D01*
X9126795Y-43654592D01*
X9179517Y-43745909D01*
X9179518Y-43745910D01*
X9179520Y-43745913D01*
X9679518Y-44245910D01*
X9679520Y-44245913D01*
X9692157Y-44258550D01*
X9700076Y-44277670D01*
X9713829Y-44310874D01*
X9713828Y-44310874D01*
X9713829Y-44310876D01*
X9711840Y-44315677D01*
X9692155Y-44363200D01*
X9692153Y-44363201D01*
X9692153Y-44363202D01*
X9692150Y-44363203D01*
X9671228Y-44377185D01*
X9671401Y-44377508D01*
X9668193Y-44379222D01*
X9581679Y-44437029D01*
X9540567Y-44449500D01*
X5764908Y-44449500D01*
X5712582Y-44427826D01*
X5692330Y-44389936D01*
X5690199Y-44379225D01*
X5673580Y-44295672D01*
X5620775Y-44168189D01*
X5544114Y-44053458D01*
X5446542Y-43955886D01*
X5404767Y-43927973D01*
X5331808Y-43879223D01*
X5204332Y-43826421D01*
X5204322Y-43826418D01*
X5113694Y-43808391D01*
X5068993Y-43799500D01*
X4931007Y-43799500D01*
X4892642Y-43807131D01*
X4795677Y-43826418D01*
X4795667Y-43826421D01*
X4668191Y-43879223D01*
X4553461Y-43955883D01*
X4455883Y-44053461D01*
X4379223Y-44168191D01*
X4326421Y-44295667D01*
X4326418Y-44295677D01*
X4299500Y-44431008D01*
X4299500Y-44568991D01*
X4326418Y-44704322D01*
X4326421Y-44704332D01*
X4379223Y-44831808D01*
X4379224Y-44831810D01*
X4379225Y-44831811D01*
X4455886Y-44946542D01*
X4460256Y-44950912D01*
X4479404Y-44984080D01*
X4487015Y-45012483D01*
X4487016Y-45012485D01*
X4559490Y-45138015D01*
X4861985Y-45440510D01*
X4942343Y-45486904D01*
X4987515Y-45512984D01*
X4987516Y-45512984D01*
X4987518Y-45512985D01*
X5057520Y-45531742D01*
X5127522Y-45550499D01*
X5127523Y-45550500D01*
X5127525Y-45550500D01*
X5127526Y-45550500D01*
X5272474Y-45550500D01*
X7319418Y-45550500D01*
X7371744Y-45572174D01*
X7393418Y-45624500D01*
X7380947Y-45665611D01*
X7379226Y-45668186D01*
X7379224Y-45668190D01*
X7326421Y-45795667D01*
X7326418Y-45795677D01*
X7299500Y-45931008D01*
X7299500Y-46068991D01*
X7326418Y-46204322D01*
X7326421Y-46204332D01*
X7379224Y-46331809D01*
X7437028Y-46418318D01*
X7449500Y-46459431D01*
X7449500Y-52622477D01*
X7475146Y-52718187D01*
X7475146Y-52718188D01*
X7487014Y-52762480D01*
X7487015Y-52762482D01*
X7487016Y-52762485D01*
X7559490Y-52888015D01*
X8161985Y-53490510D01*
X8265892Y-53550500D01*
X8287515Y-53562984D01*
X8287516Y-53562984D01*
X8287518Y-53562985D01*
X8357520Y-53581742D01*
X8427522Y-53600499D01*
X8427523Y-53600500D01*
X8427525Y-53600500D01*
X8427526Y-53600500D01*
X8572474Y-53600500D01*
X23490567Y-53600500D01*
X23531679Y-53612971D01*
X23618189Y-53670775D01*
X23618191Y-53670776D01*
X23618193Y-53670777D01*
X23745667Y-53723578D01*
X23745672Y-53723580D01*
X23881007Y-53750500D01*
X23881009Y-53750500D01*
X24018991Y-53750500D01*
X24018993Y-53750500D01*
X24154328Y-53723580D01*
X24281811Y-53670775D01*
X24396542Y-53594114D01*
X24494114Y-53496542D01*
X24570775Y-53381811D01*
X24623580Y-53254328D01*
X24650500Y-53118993D01*
X24650500Y-52981007D01*
X24623580Y-52845672D01*
X24570775Y-52718189D01*
X24494114Y-52603458D01*
X24396542Y-52505886D01*
X24354547Y-52477826D01*
X24281808Y-52429223D01*
X24154332Y-52376421D01*
X24154322Y-52376418D01*
X24063694Y-52358391D01*
X24018993Y-52349500D01*
X23881007Y-52349500D01*
X23842642Y-52357131D01*
X23745677Y-52376418D01*
X23745667Y-52376421D01*
X23618193Y-52429222D01*
X23531679Y-52487029D01*
X23490567Y-52499500D01*
X8758677Y-52499500D01*
X8706351Y-52477826D01*
X8572174Y-52343649D01*
X8550500Y-52291323D01*
X8550500Y-50598134D01*
X8572174Y-50545808D01*
X8624500Y-50524134D01*
X8661496Y-50534047D01*
X8705716Y-50559577D01*
X8858440Y-50600499D01*
X8858441Y-50600500D01*
X8858443Y-50600500D01*
X9016559Y-50600500D01*
X9016559Y-50600499D01*
X9169284Y-50559577D01*
X9306216Y-50480520D01*
X9364562Y-50422174D01*
X9416888Y-50400500D01*
X19520612Y-50400500D01*
X19572938Y-50422174D01*
X19631284Y-50480520D01*
X19768216Y-50559577D01*
X19920940Y-50600499D01*
X19920941Y-50600500D01*
X19920943Y-50600500D01*
X20079059Y-50600500D01*
X20079059Y-50600499D01*
X20215142Y-50564036D01*
X20271294Y-50571428D01*
X20302661Y-50607195D01*
X20381714Y-50798045D01*
X20381715Y-50798048D01*
X20499724Y-51002446D01*
X20499728Y-51002452D01*
X20643408Y-51189699D01*
X20810301Y-51356592D01*
X20997550Y-51500273D01*
X21201951Y-51618284D01*
X21420007Y-51708606D01*
X21647986Y-51769693D01*
X21647992Y-51769693D01*
X21647993Y-51769694D01*
X21647992Y-51769694D01*
X21751838Y-51783365D01*
X21881989Y-51800500D01*
X21881991Y-51800500D01*
X22118009Y-51800500D01*
X22118011Y-51800500D01*
X22298300Y-51776764D01*
X22352007Y-51769694D01*
X22352007Y-51769693D01*
X22352014Y-51769693D01*
X22579993Y-51708606D01*
X22798049Y-51618284D01*
X23002450Y-51500273D01*
X23189699Y-51356592D01*
X23356592Y-51189699D01*
X23500273Y-51002450D01*
X23618284Y-50798049D01*
X23708606Y-50579993D01*
X23714076Y-50559578D01*
X23742006Y-50455347D01*
X23776484Y-50410414D01*
X23813484Y-50400500D01*
X37552726Y-50400500D01*
X37552727Y-50400500D01*
X37654588Y-50373207D01*
X37745913Y-50320480D01*
X38245910Y-49820481D01*
X38245913Y-49820480D01*
X38320480Y-49745913D01*
X38358812Y-49679520D01*
X38373207Y-49654588D01*
X38400500Y-49552727D01*
X38400500Y-49447273D01*
X38400500Y-40479388D01*
X38422174Y-40427062D01*
X38449736Y-40399500D01*
X38480520Y-40368716D01*
X38559577Y-40231784D01*
X38600499Y-40079059D01*
X38600500Y-40079059D01*
X38600500Y-39920941D01*
X38600499Y-39920940D01*
X38596503Y-39906024D01*
X38592149Y-39889776D01*
X38759500Y-39889776D01*
X38759500Y-40110223D01*
X38793984Y-40327948D01*
X38793987Y-40327961D01*
X38862103Y-40537602D01*
X38862104Y-40537605D01*
X38862105Y-40537606D01*
X38962185Y-40734022D01*
X39091758Y-40912365D01*
X39247635Y-41068242D01*
X39425978Y-41197815D01*
X39622394Y-41297895D01*
X39622397Y-41297896D01*
X39622396Y-41297896D01*
X39832038Y-41366012D01*
X39832044Y-41366013D01*
X39832049Y-41366015D01*
X39940913Y-41383257D01*
X40049776Y-41400500D01*
X40049778Y-41400500D01*
X40270224Y-41400500D01*
X40357313Y-41386706D01*
X40487951Y-41366015D01*
X40487958Y-41366012D01*
X40487961Y-41366012D01*
X40585373Y-41334361D01*
X40697606Y-41297895D01*
X40894022Y-41197815D01*
X41072365Y-41068242D01*
X41228242Y-40912365D01*
X41357815Y-40734022D01*
X41457895Y-40537606D01*
X41526015Y-40327951D01*
X41560500Y-40110222D01*
X41560500Y-39889778D01*
X41526015Y-39672049D01*
X41526013Y-39672044D01*
X41526012Y-39672038D01*
X41457896Y-39462397D01*
X41457895Y-39462396D01*
X41457895Y-39462394D01*
X41357815Y-39265978D01*
X41228242Y-39087635D01*
X41072365Y-38931758D01*
X40968441Y-38856253D01*
X40894024Y-38802186D01*
X40697602Y-38702103D01*
X40697603Y-38702103D01*
X40487961Y-38633987D01*
X40487948Y-38633984D01*
X40270224Y-38599500D01*
X40270222Y-38599500D01*
X40049778Y-38599500D01*
X40049776Y-38599500D01*
X39832051Y-38633984D01*
X39832038Y-38633987D01*
X39622397Y-38702103D01*
X39425976Y-38802186D01*
X39425975Y-38802186D01*
X39247639Y-38931755D01*
X39247635Y-38931758D01*
X39091758Y-39087635D01*
X39091755Y-39087638D01*
X39091755Y-39087639D01*
X38962186Y-39265975D01*
X38962186Y-39265976D01*
X38862103Y-39462397D01*
X38793987Y-39672038D01*
X38793984Y-39672051D01*
X38759500Y-39889776D01*
X38592149Y-39889776D01*
X38559578Y-39768220D01*
X38559577Y-39768216D01*
X38480520Y-39631284D01*
X38368716Y-39519480D01*
X38231784Y-39440423D01*
X38231781Y-39440422D01*
X38231779Y-39440421D01*
X38079059Y-39399500D01*
X38079057Y-39399500D01*
X37920943Y-39399500D01*
X37920941Y-39399500D01*
X37768220Y-39440421D01*
X37768214Y-39440424D01*
X37631283Y-39519480D01*
X37519480Y-39631283D01*
X37440424Y-39768214D01*
X37440421Y-39768220D01*
X37399500Y-39920940D01*
X37399500Y-40079059D01*
X37440421Y-40231779D01*
X37440422Y-40231781D01*
X37440423Y-40231784D01*
X37461456Y-40268214D01*
X37519480Y-40368716D01*
X37577826Y-40427062D01*
X37599500Y-40479388D01*
X37599500Y-42674557D01*
X37577826Y-42726883D01*
X37525500Y-42748557D01*
X37473174Y-42726883D01*
X37389699Y-42643408D01*
X37202452Y-42499728D01*
X37202446Y-42499724D01*
X36998048Y-42381715D01*
X36998045Y-42381714D01*
X36779991Y-42291393D01*
X36605879Y-42244740D01*
X36552014Y-42230307D01*
X36552012Y-42230306D01*
X36552006Y-42230305D01*
X36552007Y-42230305D01*
X36363929Y-42205545D01*
X36318011Y-42199500D01*
X36081989Y-42199500D01*
X36045362Y-42204322D01*
X35847992Y-42230305D01*
X35620008Y-42291393D01*
X35401954Y-42381714D01*
X35401951Y-42381715D01*
X35197553Y-42499724D01*
X35197547Y-42499728D01*
X35010300Y-42643408D01*
X34843408Y-42810300D01*
X34699728Y-42997547D01*
X34699724Y-42997553D01*
X34581715Y-43201951D01*
X34581714Y-43201954D01*
X34491393Y-43420008D01*
X34430305Y-43647992D01*
X34399500Y-43881990D01*
X34399500Y-44118009D01*
X34430305Y-44352007D01*
X34491393Y-44579991D01*
X34581714Y-44798045D01*
X34581715Y-44798048D01*
X34699724Y-45002446D01*
X34699728Y-45002452D01*
X34843408Y-45189699D01*
X35010300Y-45356591D01*
X35197547Y-45500271D01*
X35197553Y-45500275D01*
X35289669Y-45553458D01*
X35401951Y-45618284D01*
X35620007Y-45708606D01*
X35847986Y-45769693D01*
X35847992Y-45769693D01*
X35847993Y-45769694D01*
X35847992Y-45769694D01*
X35951838Y-45783365D01*
X36081989Y-45800500D01*
X36081991Y-45800500D01*
X36318009Y-45800500D01*
X36318011Y-45800500D01*
X36498300Y-45776764D01*
X36552007Y-45769694D01*
X36552007Y-45769693D01*
X36552014Y-45769693D01*
X36779993Y-45708606D01*
X36998049Y-45618284D01*
X37202450Y-45500273D01*
X37389699Y-45356592D01*
X37473174Y-45273117D01*
X37525500Y-45251443D01*
X37577826Y-45273117D01*
X37599500Y-45325443D01*
X37599500Y-49303455D01*
X37577826Y-49355781D01*
X37355781Y-49577826D01*
X37303455Y-49599500D01*
X23813484Y-49599500D01*
X23761158Y-49577826D01*
X23742006Y-49544653D01*
X23708609Y-49420017D01*
X23708607Y-49420010D01*
X23700112Y-49399500D01*
X23618284Y-49201951D01*
X23541521Y-49068993D01*
X23500275Y-48997553D01*
X23500271Y-48997547D01*
X23356591Y-48810300D01*
X23189699Y-48643408D01*
X23002452Y-48499728D01*
X23002446Y-48499724D01*
X22798048Y-48381715D01*
X22798045Y-48381714D01*
X22579991Y-48291393D01*
X22393126Y-48241323D01*
X22352014Y-48230307D01*
X22352012Y-48230306D01*
X22352006Y-48230305D01*
X22352007Y-48230305D01*
X22163929Y-48205545D01*
X22118011Y-48199500D01*
X21881989Y-48199500D01*
X21840173Y-48205005D01*
X21647992Y-48230305D01*
X21420008Y-48291393D01*
X21201954Y-48381714D01*
X21201951Y-48381715D01*
X20997553Y-48499724D01*
X20997547Y-48499728D01*
X20810300Y-48643408D01*
X20643408Y-48810300D01*
X20499728Y-48997547D01*
X20499724Y-48997553D01*
X20381715Y-49201951D01*
X20381714Y-49201954D01*
X20302661Y-49392804D01*
X20262612Y-49432852D01*
X20215142Y-49435963D01*
X20079057Y-49399500D01*
X19920943Y-49399500D01*
X19920941Y-49399500D01*
X19768220Y-49440421D01*
X19768214Y-49440424D01*
X19631283Y-49519480D01*
X19572938Y-49577826D01*
X19520612Y-49599500D01*
X12838808Y-49599500D01*
X12786482Y-49577826D01*
X12764808Y-49525500D01*
X12786482Y-49473174D01*
X12801808Y-49461414D01*
X12806106Y-49458932D01*
X12838015Y-49440510D01*
X13440510Y-48838015D01*
X13512984Y-48712485D01*
X13524853Y-48668189D01*
X13550500Y-48572475D01*
X13550500Y-36459431D01*
X13562972Y-36418318D01*
X13574878Y-36400500D01*
X13620775Y-36331811D01*
X13673580Y-36204328D01*
X13700500Y-36068993D01*
X13700500Y-35931007D01*
X13673580Y-35795672D01*
X13662209Y-35768220D01*
X13620777Y-35668193D01*
X13620776Y-35668191D01*
X13620775Y-35668189D01*
X13562971Y-35581679D01*
X13550500Y-35540567D01*
X13550500Y-17459431D01*
X13562972Y-17418318D01*
X13620775Y-17331811D01*
X13673580Y-17204328D01*
X13700500Y-17068993D01*
X13700500Y-16931007D01*
X13673580Y-16795672D01*
X13620775Y-16668189D01*
X13620773Y-16668186D01*
X13619053Y-16665611D01*
X13608004Y-16610062D01*
X13639471Y-16562971D01*
X13680582Y-16550500D01*
X29590566Y-16550500D01*
X29631678Y-16562971D01*
X29718188Y-16620775D01*
X29718190Y-16620776D01*
X29718192Y-16620777D01*
X29832656Y-16668189D01*
X29845671Y-16673580D01*
X29981006Y-16700500D01*
X29981008Y-16700500D01*
X30118990Y-16700500D01*
X30118992Y-16700500D01*
X30254327Y-16673580D01*
X30381810Y-16620775D01*
X30496541Y-16544114D01*
X30594113Y-16446542D01*
X30670774Y-16331811D01*
X30723579Y-16204328D01*
X30750499Y-16068993D01*
X30750499Y-15931007D01*
X30723579Y-15795672D01*
X30670774Y-15668189D01*
X30594113Y-15553458D01*
X30496541Y-15455886D01*
X30454546Y-15427826D01*
X30381807Y-15379223D01*
X30254331Y-15326421D01*
X30254321Y-15326418D01*
X30163693Y-15308391D01*
X30118992Y-15299500D01*
X29981006Y-15299500D01*
X29942641Y-15307131D01*
X29845676Y-15326418D01*
X29845666Y-15326421D01*
X29718192Y-15379222D01*
X29631678Y-15437029D01*
X29590566Y-15449500D01*
X13680582Y-15449500D01*
X13628256Y-15427826D01*
X13606582Y-15375500D01*
X13619053Y-15334389D01*
X13619846Y-15333199D01*
X13620775Y-15331811D01*
X13673580Y-15204328D01*
X13700500Y-15068993D01*
X13700500Y-14931007D01*
X13700500Y-14927372D01*
X13701904Y-14927372D01*
X13717012Y-14877558D01*
X13766960Y-14850857D01*
X13774217Y-14850500D01*
X20390567Y-14850500D01*
X20431679Y-14862971D01*
X20518189Y-14920775D01*
X20518191Y-14920776D01*
X20518193Y-14920777D01*
X20645667Y-14973578D01*
X20645672Y-14973580D01*
X20781007Y-15000500D01*
X20781009Y-15000500D01*
X20918991Y-15000500D01*
X20918993Y-15000500D01*
X21054328Y-14973580D01*
X21181811Y-14920775D01*
X21296542Y-14844114D01*
X21394114Y-14746542D01*
X21470775Y-14631811D01*
X21523580Y-14504328D01*
X21550500Y-14368993D01*
X21550500Y-14231007D01*
X21523580Y-14095672D01*
X21520201Y-14087515D01*
X21470776Y-13968191D01*
X21466629Y-13961985D01*
X21394114Y-13853458D01*
X21296542Y-13755886D01*
X21254547Y-13727826D01*
X21181808Y-13679223D01*
X21054332Y-13626421D01*
X21054322Y-13626418D01*
X20963694Y-13608391D01*
X20918993Y-13599500D01*
X20781007Y-13599500D01*
X20742642Y-13607131D01*
X20645677Y-13626418D01*
X20645667Y-13626421D01*
X20518193Y-13679222D01*
X20431679Y-13737029D01*
X20390567Y-13749500D01*
X13624500Y-13749500D01*
X13572174Y-13727826D01*
X13550500Y-13675500D01*
X13550500Y-13058677D01*
X13572174Y-13006351D01*
X13706351Y-12872174D01*
X13758677Y-12850500D01*
X24390567Y-12850500D01*
X24431679Y-12862971D01*
X24518189Y-12920775D01*
X24518191Y-12920776D01*
X24518193Y-12920777D01*
X24645667Y-12973578D01*
X24645672Y-12973580D01*
X24781007Y-13000500D01*
X24781009Y-13000500D01*
X24918991Y-13000500D01*
X24918993Y-13000500D01*
X25054328Y-12973580D01*
X25181413Y-12920940D01*
X42399500Y-12920940D01*
X42399500Y-13079059D01*
X42440421Y-13231779D01*
X42440422Y-13231781D01*
X42440423Y-13231784D01*
X42519480Y-13368716D01*
X42631284Y-13480520D01*
X42768216Y-13559577D01*
X42920940Y-13600499D01*
X42920941Y-13600500D01*
X42920943Y-13600500D01*
X43079059Y-13600500D01*
X43079059Y-13600499D01*
X43231784Y-13559577D01*
X43368716Y-13480520D01*
X43427062Y-13422174D01*
X43479388Y-13400500D01*
X47433112Y-13400500D01*
X47485438Y-13422174D01*
X47543784Y-13480520D01*
X47680716Y-13559577D01*
X47833440Y-13600499D01*
X47833441Y-13600500D01*
X47833443Y-13600500D01*
X47991559Y-13600500D01*
X47991559Y-13600499D01*
X48144284Y-13559577D01*
X48281216Y-13480520D01*
X48393020Y-13368716D01*
X48472077Y-13231784D01*
X48512999Y-13079059D01*
X48513000Y-13079059D01*
X48513000Y-12920941D01*
X48512999Y-12920940D01*
X48512955Y-12920777D01*
X48472077Y-12768216D01*
X48393020Y-12631284D01*
X48281216Y-12519480D01*
X48144284Y-12440423D01*
X48144281Y-12440422D01*
X48144279Y-12440421D01*
X47991559Y-12399500D01*
X47991557Y-12399500D01*
X47833443Y-12399500D01*
X47833441Y-12399500D01*
X47680720Y-12440421D01*
X47680714Y-12440424D01*
X47543783Y-12519480D01*
X47485438Y-12577826D01*
X47433112Y-12599500D01*
X43479388Y-12599500D01*
X43427062Y-12577826D01*
X43368716Y-12519480D01*
X43342461Y-12504322D01*
X43231784Y-12440423D01*
X43231781Y-12440422D01*
X43231779Y-12440421D01*
X43079059Y-12399500D01*
X43079057Y-12399500D01*
X42920943Y-12399500D01*
X42920941Y-12399500D01*
X42768220Y-12440421D01*
X42768214Y-12440424D01*
X42631283Y-12519480D01*
X42519480Y-12631283D01*
X42440424Y-12768214D01*
X42440421Y-12768220D01*
X42399500Y-12920940D01*
X25181413Y-12920940D01*
X25181811Y-12920775D01*
X25296542Y-12844114D01*
X25394114Y-12746542D01*
X25470775Y-12631811D01*
X25523580Y-12504328D01*
X25550500Y-12368993D01*
X25550500Y-12231007D01*
X25523580Y-12095672D01*
X25470775Y-11968189D01*
X25394114Y-11853458D01*
X25296542Y-11755886D01*
X25181811Y-11679225D01*
X25181810Y-11679224D01*
X25181808Y-11679223D01*
X25054332Y-11626421D01*
X25054322Y-11626418D01*
X24963694Y-11608391D01*
X24918993Y-11599500D01*
X24781007Y-11599500D01*
X24742642Y-11607131D01*
X24645677Y-11626418D01*
X24645667Y-11626421D01*
X24518193Y-11679222D01*
X24431679Y-11737029D01*
X24390567Y-11749500D01*
X13427523Y-11749500D01*
X13287517Y-11787014D01*
X13161984Y-11859490D01*
X12559490Y-12461984D01*
X12526296Y-12519480D01*
X12487016Y-12587513D01*
X12487014Y-12587518D01*
X12449500Y-12727522D01*
X12449500Y-13675500D01*
X12427826Y-13727826D01*
X12375500Y-13749500D01*
X7927523Y-13749500D01*
X7787518Y-13787014D01*
X7787513Y-13787016D01*
X7661984Y-13859491D01*
X7559491Y-13961984D01*
X7487016Y-14087513D01*
X7487014Y-14087518D01*
X7449500Y-14227522D01*
X7449500Y-14540567D01*
X7437029Y-14581679D01*
X7379222Y-14668193D01*
X7326421Y-14795667D01*
X7326418Y-14795677D01*
X7299500Y-14931008D01*
X7299500Y-15068991D01*
X7326418Y-15204322D01*
X7326421Y-15204332D01*
X7379224Y-15331809D01*
X7379226Y-15331813D01*
X7380947Y-15334389D01*
X7391996Y-15389938D01*
X7360529Y-15437029D01*
X7319418Y-15449500D01*
X5427523Y-15449500D01*
X5364484Y-15466392D01*
X5303779Y-15482657D01*
X5287514Y-15487016D01*
X5161984Y-15559490D01*
X4559490Y-16161984D01*
X4487014Y-16287517D01*
X4449500Y-16427522D01*
X4449500Y-21572477D01*
X4487014Y-21712482D01*
X4487016Y-21712485D01*
X4559490Y-21838015D01*
X5161985Y-22440510D01*
X5287515Y-22512984D01*
X5287517Y-22512985D01*
X5385929Y-22539354D01*
X5427522Y-22550499D01*
X5427523Y-22550500D01*
X5427525Y-22550500D01*
X5427526Y-22550500D01*
X5572474Y-22550500D01*
X5741323Y-22550500D01*
X5793649Y-22572174D01*
X5927826Y-22706351D01*
X5949500Y-22758677D01*
X5949500Y-26236000D01*
X5927826Y-26288326D01*
X5875500Y-26310000D01*
X4805000Y-26310000D01*
X4805000Y-27375500D01*
X4783326Y-27427826D01*
X4731000Y-27449500D01*
X2427523Y-27449500D01*
X2287518Y-27487014D01*
X2287513Y-27487016D01*
X2161984Y-27559491D01*
X2143650Y-27577826D01*
X2091324Y-27599500D01*
X1274005Y-27599500D01*
X1221679Y-27577826D01*
X1202352Y-27538633D01*
X1201756Y-27538793D01*
X1200951Y-27535791D01*
X1200637Y-27535153D01*
X1200500Y-27534114D01*
X1200500Y-27534108D01*
X1187881Y-27487014D01*
X1166393Y-27406818D01*
X1166392Y-27406814D01*
X1100500Y-27292686D01*
X1007314Y-27199500D01*
X893190Y-27133610D01*
X893181Y-27133606D01*
X765894Y-27099500D01*
X765892Y-27099500D01*
X634108Y-27099500D01*
X593152Y-27110474D01*
X537000Y-27103081D01*
X502521Y-27058147D01*
X500000Y-27038995D01*
X500000Y-6920940D01*
X6399500Y-6920940D01*
X6399500Y-7079059D01*
X6440421Y-7231779D01*
X6440422Y-7231781D01*
X6440423Y-7231784D01*
X6519480Y-7368716D01*
X6631284Y-7480520D01*
X6768216Y-7559577D01*
X6920940Y-7600499D01*
X6920941Y-7600500D01*
X6920943Y-7600500D01*
X7079059Y-7600500D01*
X7079059Y-7600499D01*
X7231784Y-7559577D01*
X7368716Y-7480520D01*
X7427062Y-7422174D01*
X7479388Y-7400500D01*
X8608112Y-7400500D01*
X8660438Y-7422174D01*
X8665326Y-7427062D01*
X8687000Y-7479388D01*
X8687000Y-8520612D01*
X8665326Y-8572938D01*
X8606980Y-8631283D01*
X8527924Y-8768214D01*
X8527921Y-8768220D01*
X8487000Y-8920940D01*
X8487000Y-9079059D01*
X8527921Y-9231779D01*
X8527922Y-9231781D01*
X8527923Y-9231784D01*
X8606980Y-9368716D01*
X8718784Y-9480520D01*
X8855716Y-9559577D01*
X9008440Y-9600499D01*
X9008441Y-9600500D01*
X9008443Y-9600500D01*
X9166559Y-9600500D01*
X9166559Y-9600499D01*
X9319284Y-9559577D01*
X9456216Y-9480520D01*
X9568020Y-9368716D01*
X9647077Y-9231784D01*
X9687999Y-9079059D01*
X9688000Y-9079059D01*
X9688000Y-8920941D01*
X9687999Y-8920940D01*
X9647078Y-8768220D01*
X9647077Y-8768216D01*
X9568020Y-8631284D01*
X9509674Y-8572938D01*
X9488000Y-8520612D01*
X9488000Y-7479388D01*
X9509674Y-7427062D01*
X9514562Y-7422174D01*
X9566888Y-7400500D01*
X65303455Y-7400500D01*
X65355781Y-7422174D01*
X65577826Y-7644218D01*
X65599500Y-7696544D01*
X65599500Y-8401612D01*
X65577826Y-8453938D01*
X65525500Y-8475612D01*
X65473174Y-8453938D01*
X65368716Y-8349480D01*
X65231784Y-8270423D01*
X65231781Y-8270422D01*
X65231779Y-8270421D01*
X65079059Y-8229500D01*
X65079057Y-8229500D01*
X64920943Y-8229500D01*
X64920941Y-8229500D01*
X64768220Y-8270421D01*
X64768214Y-8270424D01*
X64631283Y-8349480D01*
X64519480Y-8461283D01*
X64440424Y-8598214D01*
X64440421Y-8598220D01*
X64399500Y-8750940D01*
X64399500Y-8909059D01*
X64440421Y-9061779D01*
X64440422Y-9061781D01*
X64440423Y-9061784D01*
X64450397Y-9079059D01*
X64519480Y-9198716D01*
X64577826Y-9257062D01*
X64599500Y-9309388D01*
X64599500Y-18561612D01*
X64577826Y-18613938D01*
X64525500Y-18635612D01*
X64473174Y-18613938D01*
X64368716Y-18509480D01*
X64232797Y-18431008D01*
X64231784Y-18430423D01*
X64231781Y-18430422D01*
X64231779Y-18430421D01*
X64079059Y-18389500D01*
X64079057Y-18389500D01*
X63920943Y-18389500D01*
X63920941Y-18389500D01*
X63768220Y-18430421D01*
X63768214Y-18430424D01*
X63631283Y-18509480D01*
X63519480Y-18621283D01*
X63440424Y-18758214D01*
X63440421Y-18758220D01*
X63399500Y-18910940D01*
X63399500Y-19069059D01*
X63440421Y-19221779D01*
X63440422Y-19221781D01*
X63440423Y-19221784D01*
X63440424Y-19221785D01*
X63519480Y-19358716D01*
X63577826Y-19417062D01*
X63599500Y-19469388D01*
X63599500Y-26303455D01*
X63577826Y-26355781D01*
X63355781Y-26577826D01*
X63303455Y-26599500D01*
X15552727Y-26599500D01*
X15447273Y-26599500D01*
X15396342Y-26613146D01*
X15345411Y-26626793D01*
X15345407Y-26626795D01*
X15299750Y-26653156D01*
X15254090Y-26679517D01*
X14679517Y-27254090D01*
X14626792Y-27345412D01*
X14626793Y-27345413D01*
X14599500Y-27447273D01*
X14599500Y-47520612D01*
X14577826Y-47572938D01*
X14519480Y-47631283D01*
X14440424Y-47768214D01*
X14440421Y-47768220D01*
X14399500Y-47920940D01*
X14399500Y-48079059D01*
X14440421Y-48231779D01*
X14440422Y-48231781D01*
X14440423Y-48231784D01*
X14519480Y-48368716D01*
X14631284Y-48480520D01*
X14768216Y-48559577D01*
X14920940Y-48600499D01*
X14920941Y-48600500D01*
X14920943Y-48600500D01*
X15079059Y-48600500D01*
X15079059Y-48600499D01*
X15231784Y-48559577D01*
X15368716Y-48480520D01*
X15480520Y-48368716D01*
X15559577Y-48231784D01*
X15600499Y-48079059D01*
X15600500Y-48079059D01*
X15600500Y-47920941D01*
X15600499Y-47920940D01*
X15559578Y-47768220D01*
X15559577Y-47768216D01*
X15480520Y-47631284D01*
X15422174Y-47572938D01*
X15400500Y-47520612D01*
X15400500Y-43927971D01*
X22399500Y-43927971D01*
X22399500Y-44172028D01*
X22437678Y-44413073D01*
X22437681Y-44413086D01*
X22513093Y-44645179D01*
X22623893Y-44862639D01*
X22732763Y-45012485D01*
X22767345Y-45060083D01*
X22939917Y-45232655D01*
X22939920Y-45232657D01*
X22939921Y-45232658D01*
X23137360Y-45376106D01*
X23242171Y-45429509D01*
X23354815Y-45486904D01*
X23354817Y-45486904D01*
X23354820Y-45486906D01*
X23586913Y-45562318D01*
X23586919Y-45562319D01*
X23586924Y-45562321D01*
X23707448Y-45581410D01*
X23827971Y-45600500D01*
X23827973Y-45600500D01*
X24072029Y-45600500D01*
X24168446Y-45585228D01*
X24313076Y-45562321D01*
X24313083Y-45562318D01*
X24313086Y-45562318D01*
X24545179Y-45486906D01*
X24545179Y-45486905D01*
X24545185Y-45486904D01*
X24762639Y-45376106D01*
X24960083Y-45232655D01*
X25132655Y-45060083D01*
X25276106Y-44862639D01*
X25386904Y-44645185D01*
X25433915Y-44500500D01*
X25462318Y-44413086D01*
X25462318Y-44413083D01*
X25462321Y-44413076D01*
X25500500Y-44172027D01*
X25500500Y-43927973D01*
X25484415Y-43826421D01*
X25464471Y-43700500D01*
X25462321Y-43686924D01*
X25462319Y-43686919D01*
X25462318Y-43686913D01*
X25386906Y-43454820D01*
X25386904Y-43454817D01*
X25386904Y-43454815D01*
X25324229Y-43331808D01*
X25276106Y-43237360D01*
X25132658Y-43039921D01*
X25132657Y-43039920D01*
X25132655Y-43039917D01*
X24960083Y-42867345D01*
X24960080Y-42867342D01*
X24960078Y-42867341D01*
X24762639Y-42723893D01*
X24545179Y-42613093D01*
X24313086Y-42537681D01*
X24313073Y-42537678D01*
X24072029Y-42499500D01*
X24072027Y-42499500D01*
X23827973Y-42499500D01*
X23827971Y-42499500D01*
X23586926Y-42537678D01*
X23586913Y-42537681D01*
X23354820Y-42613093D01*
X23137360Y-42723893D01*
X22939921Y-42867341D01*
X22767341Y-43039921D01*
X22623893Y-43237360D01*
X22513093Y-43454820D01*
X22437681Y-43686913D01*
X22437678Y-43686926D01*
X22399500Y-43927971D01*
X15400500Y-43927971D01*
X15400500Y-40420940D01*
X15899500Y-40420940D01*
X15899500Y-40579059D01*
X15940421Y-40731779D01*
X15940422Y-40731781D01*
X15940423Y-40731784D01*
X16019480Y-40868716D01*
X16131284Y-40980520D01*
X16268216Y-41059577D01*
X16420940Y-41100499D01*
X16420941Y-41100500D01*
X16420943Y-41100500D01*
X16579059Y-41100500D01*
X16579059Y-41100499D01*
X16731784Y-41059577D01*
X16868716Y-40980520D01*
X16980520Y-40868716D01*
X16980521Y-40868713D01*
X16983471Y-40864870D01*
X16984325Y-40865525D01*
X17006768Y-40843079D01*
X17045913Y-40820480D01*
X17235504Y-40630886D01*
X17235507Y-40630885D01*
X17245912Y-40620480D01*
X17245913Y-40620480D01*
X17320480Y-40545913D01*
X17373207Y-40454587D01*
X17375167Y-40447273D01*
X17377003Y-40440423D01*
X17394248Y-40376062D01*
X17400500Y-40352729D01*
X17400501Y-40352729D01*
X17400501Y-40242744D01*
X17400500Y-40242726D01*
X17400500Y-39106894D01*
X28599500Y-39106894D01*
X28599500Y-40893103D01*
X28599501Y-40893105D01*
X28610121Y-40981558D01*
X28610122Y-40981562D01*
X28665638Y-41122342D01*
X28665639Y-41122343D01*
X28757077Y-41242923D01*
X28877657Y-41334361D01*
X29018435Y-41389877D01*
X29106897Y-41400500D01*
X30893102Y-41400499D01*
X30893103Y-41400499D01*
X30893103Y-41400498D01*
X30963907Y-41391997D01*
X30981558Y-41389878D01*
X30981559Y-41389877D01*
X30981565Y-41389877D01*
X31122343Y-41334361D01*
X31242923Y-41242923D01*
X31334361Y-41122343D01*
X31389877Y-40981565D01*
X31400500Y-40893103D01*
X31400499Y-39106898D01*
X31389877Y-39018435D01*
X31334361Y-38877657D01*
X31242923Y-38757077D01*
X31176031Y-38706351D01*
X31122342Y-38665638D01*
X31037080Y-38632015D01*
X30981565Y-38610123D01*
X30952077Y-38606582D01*
X30893105Y-38599500D01*
X29106896Y-38599500D01*
X29106894Y-38599501D01*
X29018441Y-38610121D01*
X29018437Y-38610122D01*
X28877657Y-38665638D01*
X28757077Y-38757076D01*
X28757076Y-38757077D01*
X28665638Y-38877657D01*
X28610123Y-39018435D01*
X28599500Y-39106894D01*
X17400500Y-39106894D01*
X17400500Y-38479388D01*
X17422174Y-38427062D01*
X17448736Y-38400500D01*
X17480520Y-38368716D01*
X17559577Y-38231784D01*
X17600499Y-38079059D01*
X17600500Y-38079059D01*
X17600500Y-37920941D01*
X17600499Y-37920940D01*
X41399500Y-37920940D01*
X41399500Y-38079059D01*
X41440421Y-38231779D01*
X41440422Y-38231781D01*
X41440423Y-38231784D01*
X41519480Y-38368716D01*
X41631284Y-38480520D01*
X41768216Y-38559577D01*
X41920940Y-38600499D01*
X41920941Y-38600500D01*
X41920943Y-38600500D01*
X42079059Y-38600500D01*
X42079059Y-38600499D01*
X42231784Y-38559577D01*
X42368716Y-38480520D01*
X42427062Y-38422174D01*
X42479388Y-38400500D01*
X44153455Y-38400500D01*
X44205781Y-38422174D01*
X44427826Y-38644218D01*
X44449500Y-38696544D01*
X44449500Y-55420612D01*
X44427826Y-55472938D01*
X44369480Y-55531283D01*
X44290424Y-55668214D01*
X44290421Y-55668220D01*
X44249500Y-55820940D01*
X44249500Y-55979059D01*
X44290421Y-56131779D01*
X44290422Y-56131781D01*
X44290423Y-56131784D01*
X44369480Y-56268716D01*
X44481284Y-56380520D01*
X44618216Y-56459577D01*
X44770940Y-56500499D01*
X44770941Y-56500500D01*
X44770943Y-56500500D01*
X44929059Y-56500500D01*
X44929059Y-56500499D01*
X45081784Y-56459577D01*
X45218716Y-56380520D01*
X45330520Y-56268716D01*
X45409577Y-56131784D01*
X45450499Y-55979059D01*
X45450500Y-55979059D01*
X45450500Y-55820941D01*
X45450499Y-55820940D01*
X45409578Y-55668220D01*
X45409577Y-55668216D01*
X45330520Y-55531284D01*
X45272174Y-55472938D01*
X45250500Y-55420612D01*
X45250500Y-38447274D01*
X45250499Y-38447271D01*
X45245209Y-38427523D01*
X45245209Y-38427522D01*
X45223208Y-38345415D01*
X45223207Y-38345414D01*
X45223207Y-38345412D01*
X45196843Y-38299750D01*
X45170480Y-38254087D01*
X45095913Y-38179520D01*
X45093334Y-38176941D01*
X45093323Y-38176931D01*
X44916392Y-38000000D01*
X44595913Y-37679520D01*
X44595910Y-37679518D01*
X44595909Y-37679517D01*
X44504592Y-37626795D01*
X44504588Y-37626793D01*
X44402727Y-37599500D01*
X44402726Y-37599500D01*
X42479388Y-37599500D01*
X42427062Y-37577826D01*
X42368716Y-37519480D01*
X42301236Y-37480521D01*
X42231784Y-37440423D01*
X42231781Y-37440422D01*
X42231779Y-37440421D01*
X42079059Y-37399500D01*
X42079057Y-37399500D01*
X41920943Y-37399500D01*
X41920941Y-37399500D01*
X41768220Y-37440421D01*
X41768214Y-37440424D01*
X41631283Y-37519480D01*
X41519480Y-37631283D01*
X41440424Y-37768214D01*
X41440421Y-37768220D01*
X41399500Y-37920940D01*
X17600499Y-37920940D01*
X17578279Y-37838015D01*
X17559577Y-37768216D01*
X17480520Y-37631284D01*
X17368716Y-37519480D01*
X17231784Y-37440423D01*
X17231781Y-37440422D01*
X17231779Y-37440421D01*
X17079059Y-37399500D01*
X17079057Y-37399500D01*
X16920943Y-37399500D01*
X16920941Y-37399500D01*
X16768220Y-37440421D01*
X16768214Y-37440424D01*
X16631283Y-37519480D01*
X16519480Y-37631283D01*
X16440424Y-37768214D01*
X16440421Y-37768220D01*
X16399500Y-37920940D01*
X16399500Y-38079059D01*
X16440421Y-38231779D01*
X16440422Y-38231781D01*
X16440423Y-38231784D01*
X16506025Y-38345411D01*
X16519480Y-38368716D01*
X16577826Y-38427062D01*
X16599500Y-38479388D01*
X16599500Y-39825500D01*
X16577826Y-39877826D01*
X16525500Y-39899500D01*
X16420941Y-39899500D01*
X16268220Y-39940421D01*
X16268214Y-39940424D01*
X16131283Y-40019480D01*
X16019480Y-40131283D01*
X15940424Y-40268214D01*
X15940421Y-40268220D01*
X15899500Y-40420940D01*
X15400500Y-40420940D01*
X15400500Y-35920940D01*
X39399500Y-35920940D01*
X39399500Y-36079059D01*
X39440421Y-36231779D01*
X39440422Y-36231781D01*
X39440423Y-36231784D01*
X39519480Y-36368716D01*
X39631284Y-36480520D01*
X39768216Y-36559577D01*
X39920940Y-36600499D01*
X39920941Y-36600500D01*
X39920943Y-36600500D01*
X40079059Y-36600500D01*
X40079059Y-36600499D01*
X40231784Y-36559577D01*
X40368716Y-36480520D01*
X40427062Y-36422174D01*
X40479388Y-36400500D01*
X56153455Y-36400500D01*
X56205781Y-36422174D01*
X56427826Y-36644218D01*
X56449500Y-36696544D01*
X56449500Y-55420612D01*
X56427826Y-55472938D01*
X56369480Y-55531283D01*
X56290424Y-55668214D01*
X56290421Y-55668220D01*
X56249500Y-55820940D01*
X56249500Y-55979059D01*
X56290421Y-56131779D01*
X56290422Y-56131781D01*
X56290423Y-56131784D01*
X56369480Y-56268716D01*
X56481284Y-56380520D01*
X56618216Y-56459577D01*
X56770940Y-56500499D01*
X56770941Y-56500500D01*
X56770943Y-56500500D01*
X56929059Y-56500500D01*
X56929059Y-56500499D01*
X57081784Y-56459577D01*
X57218716Y-56380520D01*
X57330520Y-56268716D01*
X57409577Y-56131784D01*
X57450499Y-55979059D01*
X57450500Y-55979059D01*
X57450500Y-55820941D01*
X57450499Y-55820940D01*
X57409578Y-55668220D01*
X57409577Y-55668216D01*
X57330520Y-55531284D01*
X57272174Y-55472938D01*
X57250500Y-55420612D01*
X57250500Y-53593104D01*
X70799499Y-53593104D01*
X70808828Y-53670777D01*
X70810123Y-53681564D01*
X70832015Y-53737079D01*
X70865638Y-53822341D01*
X70865639Y-53822342D01*
X70957078Y-53942922D01*
X71077658Y-54034361D01*
X71218436Y-54089877D01*
X71289764Y-54098442D01*
X71306896Y-54100500D01*
X71306898Y-54100500D01*
X72693104Y-54100500D01*
X72708722Y-54098624D01*
X72781564Y-54089877D01*
X72922342Y-54034361D01*
X73042922Y-53942922D01*
X73134361Y-53822342D01*
X73189877Y-53681564D01*
X73200378Y-53594116D01*
X73200500Y-53593104D01*
X73200500Y-51005518D01*
X74609500Y-51005518D01*
X74609500Y-52994481D01*
X74639059Y-53181115D01*
X74639062Y-53181128D01*
X74697449Y-53360824D01*
X74783239Y-53529198D01*
X74835042Y-53600499D01*
X74894310Y-53682073D01*
X75027927Y-53815690D01*
X75180801Y-53926760D01*
X75349168Y-54012547D01*
X75349171Y-54012547D01*
X75349175Y-54012550D01*
X75528871Y-54070937D01*
X75528877Y-54070938D01*
X75528882Y-54070940D01*
X75648441Y-54089876D01*
X75715518Y-54100500D01*
X75715519Y-54100500D01*
X75904482Y-54100500D01*
X75951140Y-54093110D01*
X76091118Y-54070940D01*
X76091125Y-54070937D01*
X76091128Y-54070937D01*
X76270824Y-54012550D01*
X76270826Y-54012548D01*
X76270832Y-54012547D01*
X76439199Y-53926760D01*
X76592073Y-53815690D01*
X76725690Y-53682073D01*
X76836760Y-53529199D01*
X76922547Y-53360832D01*
X76957153Y-53254328D01*
X76980937Y-53181128D01*
X76980937Y-53181125D01*
X76980940Y-53181118D01*
X77010500Y-52994481D01*
X77010500Y-51005519D01*
X76980940Y-50818882D01*
X76980938Y-50818877D01*
X76980937Y-50818871D01*
X76922550Y-50639175D01*
X76922547Y-50639171D01*
X76922547Y-50639168D01*
X76836760Y-50470801D01*
X76785683Y-50400500D01*
X76725693Y-50317931D01*
X76725692Y-50317930D01*
X76725690Y-50317927D01*
X76592073Y-50184310D01*
X76592070Y-50184307D01*
X76592068Y-50184306D01*
X76439198Y-50073239D01*
X76270824Y-49987449D01*
X76091128Y-49929062D01*
X76091115Y-49929059D01*
X75904482Y-49899500D01*
X75904481Y-49899500D01*
X75715519Y-49899500D01*
X75715518Y-49899500D01*
X75528884Y-49929059D01*
X75528871Y-49929062D01*
X75349175Y-49987449D01*
X75180801Y-50073239D01*
X75027931Y-50184306D01*
X74894306Y-50317931D01*
X74783239Y-50470801D01*
X74697449Y-50639175D01*
X74639062Y-50818871D01*
X74639059Y-50818884D01*
X74609500Y-51005518D01*
X73200500Y-51005518D01*
X73200500Y-50406895D01*
X73196454Y-50373204D01*
X73189877Y-50318436D01*
X73134361Y-50177658D01*
X73042922Y-50057078D01*
X72922342Y-49965639D01*
X72922341Y-49965638D01*
X72829590Y-49929062D01*
X72781564Y-49910123D01*
X72752076Y-49906582D01*
X72693104Y-49899500D01*
X72693102Y-49899500D01*
X71306898Y-49899500D01*
X71306896Y-49899500D01*
X71218436Y-49910123D01*
X71077658Y-49965638D01*
X70957078Y-50057077D01*
X70957077Y-50057078D01*
X70865638Y-50177658D01*
X70810326Y-50317922D01*
X70810123Y-50318436D01*
X70799500Y-50406898D01*
X70799500Y-53593102D01*
X70799500Y-53593104D01*
X70799499Y-53593104D01*
X57250500Y-53593104D01*
X57250500Y-42000000D01*
X75000000Y-42000000D01*
X79000000Y-42000000D01*
X79000000Y-38000000D01*
X75000000Y-38000000D01*
X75000000Y-42000000D01*
X57250500Y-42000000D01*
X57250500Y-36447276D01*
X57250499Y-36447270D01*
X57248665Y-36440423D01*
X57223207Y-36345412D01*
X57183485Y-36276613D01*
X57170480Y-36254087D01*
X57095913Y-36179520D01*
X57093334Y-36176941D01*
X57093323Y-36176931D01*
X56847399Y-35931007D01*
X56595913Y-35679520D01*
X56595910Y-35679518D01*
X56595909Y-35679517D01*
X56504592Y-35626795D01*
X56504588Y-35626793D01*
X56402727Y-35599500D01*
X56402726Y-35599500D01*
X40479388Y-35599500D01*
X40427062Y-35577826D01*
X40368716Y-35519480D01*
X40231784Y-35440423D01*
X40231781Y-35440422D01*
X40231779Y-35440421D01*
X40079059Y-35399500D01*
X40079057Y-35399500D01*
X39920943Y-35399500D01*
X39920941Y-35399500D01*
X39768220Y-35440421D01*
X39768214Y-35440424D01*
X39631283Y-35519480D01*
X39519480Y-35631283D01*
X39440424Y-35768214D01*
X39440421Y-35768220D01*
X39399500Y-35920940D01*
X15400500Y-35920940D01*
X15400500Y-32428388D01*
X15422174Y-32376062D01*
X15474500Y-32354388D01*
X15526826Y-32376062D01*
X15631284Y-32480520D01*
X15768216Y-32559577D01*
X15920940Y-32600499D01*
X15920941Y-32600500D01*
X15920943Y-32600500D01*
X16079059Y-32600500D01*
X16079059Y-32600499D01*
X16231784Y-32559577D01*
X16368716Y-32480520D01*
X16427062Y-32422174D01*
X16479388Y-32400500D01*
X64552726Y-32400500D01*
X64552727Y-32400500D01*
X64654588Y-32373207D01*
X64745913Y-32320480D01*
X65245910Y-31820481D01*
X65245913Y-31820480D01*
X65320480Y-31745913D01*
X65358812Y-31679520D01*
X65373207Y-31654588D01*
X65400500Y-31552727D01*
X65400500Y-31447273D01*
X65400500Y-15608388D01*
X65422174Y-15556062D01*
X65474500Y-15534388D01*
X65526826Y-15556062D01*
X65631284Y-15660520D01*
X65768216Y-15739577D01*
X65920940Y-15780499D01*
X65920941Y-15780500D01*
X65920943Y-15780500D01*
X66079059Y-15780500D01*
X66079059Y-15780499D01*
X66231784Y-15739577D01*
X66368716Y-15660520D01*
X66473174Y-15556062D01*
X66525500Y-15534388D01*
X66577826Y-15556062D01*
X66599500Y-15608388D01*
X66599500Y-33303455D01*
X66577826Y-33355781D01*
X66355781Y-33577826D01*
X66303455Y-33599500D01*
X24479388Y-33599500D01*
X24427062Y-33577826D01*
X24368716Y-33519480D01*
X24231784Y-33440423D01*
X24231781Y-33440422D01*
X24231779Y-33440421D01*
X24079059Y-33399500D01*
X24079057Y-33399500D01*
X23920943Y-33399500D01*
X23920941Y-33399500D01*
X23768220Y-33440421D01*
X23768214Y-33440424D01*
X23631283Y-33519480D01*
X23519480Y-33631283D01*
X23440424Y-33768214D01*
X23440421Y-33768220D01*
X23399500Y-33920940D01*
X23399500Y-34079059D01*
X23440421Y-34231779D01*
X23440422Y-34231781D01*
X23440423Y-34231784D01*
X23519480Y-34368716D01*
X23631284Y-34480520D01*
X23768216Y-34559577D01*
X23920940Y-34600499D01*
X23920941Y-34600500D01*
X23920943Y-34600500D01*
X24079059Y-34600500D01*
X24079059Y-34600499D01*
X24231784Y-34559577D01*
X24368716Y-34480520D01*
X24427062Y-34422174D01*
X24479388Y-34400500D01*
X66552726Y-34400500D01*
X66552727Y-34400500D01*
X66654588Y-34373207D01*
X66745913Y-34320480D01*
X67245910Y-33820481D01*
X67245913Y-33820480D01*
X67320480Y-33745913D01*
X67358812Y-33679520D01*
X67373207Y-33654588D01*
X67400500Y-33552727D01*
X67400500Y-33447273D01*
X67400500Y-14000000D01*
X75000000Y-14000000D01*
X79000000Y-14000000D01*
X79000000Y-10000000D01*
X75000000Y-10000000D01*
X75000000Y-14000000D01*
X67400500Y-14000000D01*
X67400500Y-8039388D01*
X67422174Y-7987062D01*
X67480520Y-7928716D01*
X67559577Y-7791784D01*
X67600499Y-7639059D01*
X67600500Y-7639059D01*
X67600500Y-7480941D01*
X67600499Y-7480940D01*
X67600386Y-7480520D01*
X67559577Y-7328216D01*
X67480520Y-7191284D01*
X67368716Y-7079480D01*
X67231784Y-7000423D01*
X67231781Y-7000422D01*
X67231779Y-7000421D01*
X67079059Y-6959500D01*
X67079057Y-6959500D01*
X66920943Y-6959500D01*
X66920941Y-6959500D01*
X66768220Y-7000421D01*
X66768214Y-7000424D01*
X66631283Y-7079480D01*
X66519480Y-7191283D01*
X66465936Y-7284024D01*
X66450611Y-7295783D01*
X66438854Y-7311107D01*
X66428938Y-7312413D01*
X66421002Y-7318503D01*
X66401850Y-7315981D01*
X66382702Y-7318504D01*
X66374767Y-7312415D01*
X66364850Y-7311110D01*
X66345983Y-7292244D01*
X66345244Y-7291938D01*
X66343815Y-7290075D01*
X66337767Y-7284028D01*
X66337763Y-7284022D01*
X66333487Y-7276616D01*
X66333485Y-7276613D01*
X66320480Y-7254087D01*
X66245913Y-7179520D01*
X66243334Y-7176941D01*
X66243323Y-7176931D01*
X66025892Y-6959500D01*
X65745913Y-6679520D01*
X65745910Y-6679518D01*
X65745909Y-6679517D01*
X65654592Y-6626795D01*
X65654588Y-6626793D01*
X65652845Y-6626326D01*
X65552727Y-6599500D01*
X65552726Y-6599500D01*
X9566888Y-6599500D01*
X9514562Y-6577826D01*
X9456216Y-6519480D01*
X9422475Y-6500000D01*
X9319284Y-6440423D01*
X9319281Y-6440422D01*
X9319279Y-6440421D01*
X9166559Y-6399500D01*
X9166557Y-6399500D01*
X9008443Y-6399500D01*
X9008441Y-6399500D01*
X8855720Y-6440421D01*
X8855714Y-6440424D01*
X8718783Y-6519480D01*
X8660438Y-6577826D01*
X8608112Y-6599500D01*
X7479388Y-6599500D01*
X7427062Y-6577826D01*
X7368716Y-6519480D01*
X7334975Y-6500000D01*
X7231784Y-6440423D01*
X7231781Y-6440422D01*
X7231779Y-6440421D01*
X7079059Y-6399500D01*
X7079057Y-6399500D01*
X6920943Y-6399500D01*
X6920941Y-6399500D01*
X6768220Y-6440421D01*
X6768214Y-6440424D01*
X6631283Y-6519480D01*
X6626326Y-6524438D01*
X6524438Y-6626326D01*
X6519480Y-6631283D01*
X6440424Y-6768214D01*
X6440421Y-6768220D01*
X6399500Y-6920940D01*
X500000Y-6920940D01*
X500000Y-6574000D01*
X521674Y-6521674D01*
X574000Y-6500000D01*
X6441460Y-6500000D01*
X6500000Y-6500000D01*
X6500000Y-574000D01*
X6521674Y-521674D01*
X6574000Y-500000D01*
X35926000Y-500000D01*
X35978326Y-521674D01*
G37*
%TD.AperFunction*%
%TD*%
M02*
