%TF.GenerationSoftware,KiCad,Pcbnew,9.0.7*%
%TF.CreationDate,2026-02-12T17:34:39-06:00*%
%TF.ProjectId,ESP32_Simple_IoT,45535033-325f-4536-996d-706c655f496f,rev?*%
%TF.SameCoordinates,Original*%
%TF.FileFunction,Paste,Top*%
%TF.FilePolarity,Positive*%
%FSLAX46Y46*%
G04 Gerber Fmt 4.6, Leading zero omitted, Abs format (unit mm)*
G04 Created by KiCad (PCBNEW 9.0.7) date 2026-02-12 17:34:39*
%MOMM*%
%LPD*%
G01*
G04 APERTURE LIST*
G04 Aperture macros list*
%AMRoundRect*
0 Rectangle with rounded corners*
0 $1 Rounding radius*
0 $2 $3 $4 $5 $6 $7 $8 $9 X,Y pos of 4 corners*
0 Add a 4 corners polygon primitive as box body*
4,1,4,$2,$3,$4,$5,$6,$7,$8,$9,$2,$3,0*
0 Add four circle primitives for the rounded corners*
1,1,$1+$1,$2,$3*
1,1,$1+$1,$4,$5*
1,1,$1+$1,$6,$7*
1,1,$1+$1,$8,$9*
0 Add four rect primitives between the rounded corners*
20,1,$1+$1,$2,$3,$4,$5,0*
20,1,$1+$1,$4,$5,$6,$7,0*
20,1,$1+$1,$6,$7,$8,$9,0*
20,1,$1+$1,$8,$9,$2,$3,0*%
G04 Aperture macros list end*
%ADD10RoundRect,0.150000X-0.587500X-0.150000X0.587500X-0.150000X0.587500X0.150000X-0.587500X0.150000X0*%
%ADD11RoundRect,0.225000X-0.225000X-0.225000X0.225000X-0.225000X0.225000X0.225000X-0.225000X0.225000X0*%
%ADD12RoundRect,0.062500X-0.337500X-0.062500X0.337500X-0.062500X0.337500X0.062500X-0.337500X0.062500X0*%
%ADD13RoundRect,0.062500X-0.062500X-0.337500X0.062500X-0.337500X0.062500X0.337500X-0.062500X0.337500X0*%
%ADD14RoundRect,0.218750X-0.218750X-0.381250X0.218750X-0.381250X0.218750X0.381250X-0.218750X0.381250X0*%
%ADD15RoundRect,0.250000X-0.250000X-0.475000X0.250000X-0.475000X0.250000X0.475000X-0.250000X0.475000X0*%
%ADD16RoundRect,0.250000X-0.262500X-0.450000X0.262500X-0.450000X0.262500X0.450000X-0.262500X0.450000X0*%
%ADD17R,1.500000X0.900000*%
%ADD18R,0.900000X1.500000*%
%ADD19R,1.050000X1.050000*%
%ADD20RoundRect,0.243750X-0.243750X-0.456250X0.243750X-0.456250X0.243750X0.456250X-0.243750X0.456250X0*%
%ADD21R,1.700000X1.000000*%
%ADD22RoundRect,0.150000X-0.150000X-0.425000X0.150000X-0.425000X0.150000X0.425000X-0.150000X0.425000X0*%
%ADD23RoundRect,0.075000X-0.075000X-0.500000X0.075000X-0.500000X0.075000X0.500000X-0.075000X0.500000X0*%
%ADD24O,1.000000X2.100000*%
%ADD25O,1.000000X1.800000*%
%ADD26RoundRect,0.375000X-0.625000X-0.375000X0.625000X-0.375000X0.625000X0.375000X-0.625000X0.375000X0*%
%ADD27RoundRect,0.500000X-0.500000X-1.400000X0.500000X-1.400000X0.500000X1.400000X-0.500000X1.400000X0*%
G04 APERTURE END LIST*
D10*
%TO.C,Q1*%
X7062500Y-51050000D03*
X7062500Y-52950000D03*
X8937500Y-52000000D03*
%TD*%
D11*
%TO.C,U3*%
X14880000Y-42880000D03*
X14880000Y-44000000D03*
X14880000Y-45120000D03*
X16000000Y-42880000D03*
X16000000Y-44000000D03*
X16000000Y-45120000D03*
X17120000Y-42880000D03*
X17120000Y-44000000D03*
X17120000Y-45120000D03*
D12*
X13550000Y-42500000D03*
X13550000Y-43000000D03*
X13550000Y-43500000D03*
X13550000Y-44000000D03*
X13550000Y-44500000D03*
X13550000Y-45000000D03*
X13550000Y-45500000D03*
D13*
X14500000Y-46450000D03*
X15000000Y-46450000D03*
X15500000Y-46450000D03*
X16000000Y-46450000D03*
X16500000Y-46450000D03*
X17000000Y-46450000D03*
X17500000Y-46450000D03*
D12*
X18450000Y-45500000D03*
X18450000Y-45000000D03*
X18450000Y-44500000D03*
X18450000Y-44000000D03*
X18450000Y-43500000D03*
X18450000Y-43000000D03*
X18450000Y-42500000D03*
D13*
X17500000Y-41550000D03*
X17000000Y-41550000D03*
X16500000Y-41550000D03*
X16000000Y-41550000D03*
X15500000Y-41550000D03*
X15000000Y-41550000D03*
X14500000Y-41550000D03*
%TD*%
D14*
%TO.C,FB1*%
X16937500Y-8000000D03*
X19062500Y-8000000D03*
%TD*%
D15*
%TO.C,C3*%
X32050000Y-12000000D03*
X33950000Y-12000000D03*
%TD*%
D16*
%TO.C,R1*%
X46087500Y-10000000D03*
X47912500Y-10000000D03*
%TD*%
D15*
%TO.C,C5*%
X46050000Y-6000000D03*
X47950000Y-6000000D03*
%TD*%
%TO.C,C4*%
X43050000Y-15000000D03*
X44950000Y-15000000D03*
%TD*%
D17*
%TO.C,U1*%
X51250000Y-3750000D03*
X51250000Y-5020000D03*
X51250000Y-6290000D03*
X51250000Y-7560000D03*
X51250000Y-8830000D03*
X51250000Y-10100000D03*
X51250000Y-11370000D03*
X51250000Y-12640000D03*
X51250000Y-13910000D03*
X51250000Y-15180000D03*
X51250000Y-16450000D03*
X51250000Y-17720000D03*
X51250000Y-18990000D03*
X51250000Y-20260000D03*
D18*
X54290000Y-21510000D03*
X55560000Y-21510000D03*
X56830000Y-21510000D03*
X58100000Y-21510000D03*
X59370000Y-21510000D03*
X60640000Y-21510000D03*
X61910000Y-21510000D03*
X63180000Y-21510000D03*
X64450000Y-21510000D03*
X65720000Y-21510000D03*
D17*
X68750000Y-20260000D03*
X68750000Y-18990000D03*
X68750000Y-17720000D03*
X68750000Y-16450000D03*
X68750000Y-15180000D03*
X68750000Y-13910000D03*
X68750000Y-12640000D03*
X68750000Y-11370000D03*
X68750000Y-10100000D03*
X68750000Y-8830000D03*
X68750000Y-7560000D03*
X68750000Y-6290000D03*
X68750000Y-5020000D03*
X68750000Y-3750000D03*
D19*
X57795000Y-9565000D03*
X57795000Y-11090000D03*
X57795000Y-12615000D03*
X59320000Y-9565000D03*
X59320000Y-11090000D03*
X59320000Y-12615000D03*
X60845000Y-9565000D03*
X60845000Y-11090000D03*
X60845000Y-12615000D03*
%TD*%
D16*
%TO.C,R3*%
X13087500Y-52000000D03*
X14912500Y-52000000D03*
%TD*%
D20*
%TO.C,D2*%
X8062500Y-4000000D03*
X9937500Y-4000000D03*
%TD*%
%TO.C,D3*%
X5062500Y-16000000D03*
X6937500Y-16000000D03*
%TD*%
D15*
%TO.C,C1*%
X17050000Y-4000000D03*
X18950000Y-4000000D03*
%TD*%
D21*
%TO.C,SW1*%
X44850000Y-54100000D03*
X51150000Y-54100000D03*
X44850000Y-57900000D03*
X51150000Y-57900000D03*
%TD*%
D16*
%TO.C,R5*%
X9087500Y-16000000D03*
X10912500Y-16000000D03*
%TD*%
%TO.C,R2*%
X46087500Y-20000000D03*
X47912500Y-20000000D03*
%TD*%
D22*
%TO.C,J1*%
X2800000Y-26320000D03*
X3600000Y-26320000D03*
D23*
X4750000Y-26320000D03*
X5750000Y-26320000D03*
X6250000Y-26320000D03*
X7250000Y-26320000D03*
D22*
X8400000Y-26320000D03*
X9200000Y-26320000D03*
X9200000Y-26320000D03*
X8400000Y-26320000D03*
D23*
X7750000Y-26320000D03*
X6750000Y-26320000D03*
X5250000Y-26320000D03*
X4250000Y-26320000D03*
D22*
X3600000Y-26320000D03*
X2800000Y-26320000D03*
D24*
X1680000Y-26895000D03*
D25*
X1680000Y-31075000D03*
D24*
X10320000Y-26895000D03*
D25*
X10320000Y-31075000D03*
%TD*%
D26*
%TO.C,U2*%
X22850000Y-5700000D03*
X22850000Y-8000000D03*
D27*
X29150000Y-8000000D03*
D26*
X22850000Y-10300000D03*
%TD*%
D21*
%TO.C,SW2*%
X56850000Y-54100000D03*
X63150000Y-54100000D03*
X56850000Y-57900000D03*
X63150000Y-57900000D03*
%TD*%
D16*
%TO.C,R4*%
X12087500Y-4000000D03*
X13912500Y-4000000D03*
%TD*%
D15*
%TO.C,C2*%
X32050000Y-4000000D03*
X33950000Y-4000000D03*
%TD*%
M02*
