%TF.GenerationSoftware,KiCad,Pcbnew,9.0.7*%
%TF.CreationDate,2026-02-12T17:34:39-06:00*%
%TF.ProjectId,ESP32_Simple_IoT,45535033-325f-4536-996d-706c655f496f,rev?*%
%TF.SameCoordinates,Original*%
%TF.FileFunction,Legend,Top*%
%TF.FilePolarity,Positive*%
%FSLAX46Y46*%
G04 Gerber Fmt 4.6, Leading zero omitted, Abs format (unit mm)*
G04 Created by KiCad (PCBNEW 9.0.7) date 2026-02-12 17:34:39*
%MOMM*%
%LPD*%
G01*
G04 APERTURE LIST*
%ADD10C,0.150000*%
%ADD11C,0.120000*%
G04 APERTURE END LIST*
D10*
X7904761Y-50150057D02*
X7809523Y-50102438D01*
X7809523Y-50102438D02*
X7714285Y-50007200D01*
X7714285Y-50007200D02*
X7571428Y-49864342D01*
X7571428Y-49864342D02*
X7476190Y-49816723D01*
X7476190Y-49816723D02*
X7380952Y-49816723D01*
X7428571Y-50054819D02*
X7333333Y-50007200D01*
X7333333Y-50007200D02*
X7238095Y-49911961D01*
X7238095Y-49911961D02*
X7190476Y-49721485D01*
X7190476Y-49721485D02*
X7190476Y-49388152D01*
X7190476Y-49388152D02*
X7238095Y-49197676D01*
X7238095Y-49197676D02*
X7333333Y-49102438D01*
X7333333Y-49102438D02*
X7428571Y-49054819D01*
X7428571Y-49054819D02*
X7619047Y-49054819D01*
X7619047Y-49054819D02*
X7714285Y-49102438D01*
X7714285Y-49102438D02*
X7809523Y-49197676D01*
X7809523Y-49197676D02*
X7857142Y-49388152D01*
X7857142Y-49388152D02*
X7857142Y-49721485D01*
X7857142Y-49721485D02*
X7809523Y-49911961D01*
X7809523Y-49911961D02*
X7714285Y-50007200D01*
X7714285Y-50007200D02*
X7619047Y-50054819D01*
X7619047Y-50054819D02*
X7428571Y-50054819D01*
X8809523Y-50054819D02*
X8238095Y-50054819D01*
X8523809Y-50054819D02*
X8523809Y-49054819D01*
X8523809Y-49054819D02*
X8428571Y-49197676D01*
X8428571Y-49197676D02*
X8333333Y-49292914D01*
X8333333Y-49292914D02*
X8238095Y-49340533D01*
X15238095Y-39654819D02*
X15238095Y-40464342D01*
X15238095Y-40464342D02*
X15285714Y-40559580D01*
X15285714Y-40559580D02*
X15333333Y-40607200D01*
X15333333Y-40607200D02*
X15428571Y-40654819D01*
X15428571Y-40654819D02*
X15619047Y-40654819D01*
X15619047Y-40654819D02*
X15714285Y-40607200D01*
X15714285Y-40607200D02*
X15761904Y-40559580D01*
X15761904Y-40559580D02*
X15809523Y-40464342D01*
X15809523Y-40464342D02*
X15809523Y-39654819D01*
X16190476Y-39654819D02*
X16809523Y-39654819D01*
X16809523Y-39654819D02*
X16476190Y-40035771D01*
X16476190Y-40035771D02*
X16619047Y-40035771D01*
X16619047Y-40035771D02*
X16714285Y-40083390D01*
X16714285Y-40083390D02*
X16761904Y-40131009D01*
X16761904Y-40131009D02*
X16809523Y-40226247D01*
X16809523Y-40226247D02*
X16809523Y-40464342D01*
X16809523Y-40464342D02*
X16761904Y-40559580D01*
X16761904Y-40559580D02*
X16714285Y-40607200D01*
X16714285Y-40607200D02*
X16619047Y-40654819D01*
X16619047Y-40654819D02*
X16333333Y-40654819D01*
X16333333Y-40654819D02*
X16238095Y-40607200D01*
X16238095Y-40607200D02*
X16190476Y-40559580D01*
X17166666Y-6381009D02*
X16833333Y-6381009D01*
X16833333Y-6904819D02*
X16833333Y-5904819D01*
X16833333Y-5904819D02*
X17309523Y-5904819D01*
X18023809Y-6381009D02*
X18166666Y-6428628D01*
X18166666Y-6428628D02*
X18214285Y-6476247D01*
X18214285Y-6476247D02*
X18261904Y-6571485D01*
X18261904Y-6571485D02*
X18261904Y-6714342D01*
X18261904Y-6714342D02*
X18214285Y-6809580D01*
X18214285Y-6809580D02*
X18166666Y-6857200D01*
X18166666Y-6857200D02*
X18071428Y-6904819D01*
X18071428Y-6904819D02*
X17690476Y-6904819D01*
X17690476Y-6904819D02*
X17690476Y-5904819D01*
X17690476Y-5904819D02*
X18023809Y-5904819D01*
X18023809Y-5904819D02*
X18119047Y-5952438D01*
X18119047Y-5952438D02*
X18166666Y-6000057D01*
X18166666Y-6000057D02*
X18214285Y-6095295D01*
X18214285Y-6095295D02*
X18214285Y-6190533D01*
X18214285Y-6190533D02*
X18166666Y-6285771D01*
X18166666Y-6285771D02*
X18119047Y-6333390D01*
X18119047Y-6333390D02*
X18023809Y-6381009D01*
X18023809Y-6381009D02*
X17690476Y-6381009D01*
X19214285Y-6904819D02*
X18642857Y-6904819D01*
X18928571Y-6904819D02*
X18928571Y-5904819D01*
X18928571Y-5904819D02*
X18833333Y-6047676D01*
X18833333Y-6047676D02*
X18738095Y-6142914D01*
X18738095Y-6142914D02*
X18642857Y-6190533D01*
X32833333Y-10679580D02*
X32785714Y-10727200D01*
X32785714Y-10727200D02*
X32642857Y-10774819D01*
X32642857Y-10774819D02*
X32547619Y-10774819D01*
X32547619Y-10774819D02*
X32404762Y-10727200D01*
X32404762Y-10727200D02*
X32309524Y-10631961D01*
X32309524Y-10631961D02*
X32261905Y-10536723D01*
X32261905Y-10536723D02*
X32214286Y-10346247D01*
X32214286Y-10346247D02*
X32214286Y-10203390D01*
X32214286Y-10203390D02*
X32261905Y-10012914D01*
X32261905Y-10012914D02*
X32309524Y-9917676D01*
X32309524Y-9917676D02*
X32404762Y-9822438D01*
X32404762Y-9822438D02*
X32547619Y-9774819D01*
X32547619Y-9774819D02*
X32642857Y-9774819D01*
X32642857Y-9774819D02*
X32785714Y-9822438D01*
X32785714Y-9822438D02*
X32833333Y-9870057D01*
X33166667Y-9774819D02*
X33785714Y-9774819D01*
X33785714Y-9774819D02*
X33452381Y-10155771D01*
X33452381Y-10155771D02*
X33595238Y-10155771D01*
X33595238Y-10155771D02*
X33690476Y-10203390D01*
X33690476Y-10203390D02*
X33738095Y-10251009D01*
X33738095Y-10251009D02*
X33785714Y-10346247D01*
X33785714Y-10346247D02*
X33785714Y-10584342D01*
X33785714Y-10584342D02*
X33738095Y-10679580D01*
X33738095Y-10679580D02*
X33690476Y-10727200D01*
X33690476Y-10727200D02*
X33595238Y-10774819D01*
X33595238Y-10774819D02*
X33309524Y-10774819D01*
X33309524Y-10774819D02*
X33214286Y-10727200D01*
X33214286Y-10727200D02*
X33166667Y-10679580D01*
X46833333Y-8804819D02*
X46500000Y-8328628D01*
X46261905Y-8804819D02*
X46261905Y-7804819D01*
X46261905Y-7804819D02*
X46642857Y-7804819D01*
X46642857Y-7804819D02*
X46738095Y-7852438D01*
X46738095Y-7852438D02*
X46785714Y-7900057D01*
X46785714Y-7900057D02*
X46833333Y-7995295D01*
X46833333Y-7995295D02*
X46833333Y-8138152D01*
X46833333Y-8138152D02*
X46785714Y-8233390D01*
X46785714Y-8233390D02*
X46738095Y-8281009D01*
X46738095Y-8281009D02*
X46642857Y-8328628D01*
X46642857Y-8328628D02*
X46261905Y-8328628D01*
X47785714Y-8804819D02*
X47214286Y-8804819D01*
X47500000Y-8804819D02*
X47500000Y-7804819D01*
X47500000Y-7804819D02*
X47404762Y-7947676D01*
X47404762Y-7947676D02*
X47309524Y-8042914D01*
X47309524Y-8042914D02*
X47214286Y-8090533D01*
X76238095Y-8804819D02*
X76238095Y-7804819D01*
X76238095Y-8281009D02*
X76809523Y-8281009D01*
X76809523Y-8804819D02*
X76809523Y-7804819D01*
X77238095Y-7900057D02*
X77285714Y-7852438D01*
X77285714Y-7852438D02*
X77380952Y-7804819D01*
X77380952Y-7804819D02*
X77619047Y-7804819D01*
X77619047Y-7804819D02*
X77714285Y-7852438D01*
X77714285Y-7852438D02*
X77761904Y-7900057D01*
X77761904Y-7900057D02*
X77809523Y-7995295D01*
X77809523Y-7995295D02*
X77809523Y-8090533D01*
X77809523Y-8090533D02*
X77761904Y-8233390D01*
X77761904Y-8233390D02*
X77190476Y-8804819D01*
X77190476Y-8804819D02*
X77809523Y-8804819D01*
X46833333Y-4679580D02*
X46785714Y-4727200D01*
X46785714Y-4727200D02*
X46642857Y-4774819D01*
X46642857Y-4774819D02*
X46547619Y-4774819D01*
X46547619Y-4774819D02*
X46404762Y-4727200D01*
X46404762Y-4727200D02*
X46309524Y-4631961D01*
X46309524Y-4631961D02*
X46261905Y-4536723D01*
X46261905Y-4536723D02*
X46214286Y-4346247D01*
X46214286Y-4346247D02*
X46214286Y-4203390D01*
X46214286Y-4203390D02*
X46261905Y-4012914D01*
X46261905Y-4012914D02*
X46309524Y-3917676D01*
X46309524Y-3917676D02*
X46404762Y-3822438D01*
X46404762Y-3822438D02*
X46547619Y-3774819D01*
X46547619Y-3774819D02*
X46642857Y-3774819D01*
X46642857Y-3774819D02*
X46785714Y-3822438D01*
X46785714Y-3822438D02*
X46833333Y-3870057D01*
X47738095Y-3774819D02*
X47261905Y-3774819D01*
X47261905Y-3774819D02*
X47214286Y-4251009D01*
X47214286Y-4251009D02*
X47261905Y-4203390D01*
X47261905Y-4203390D02*
X47357143Y-4155771D01*
X47357143Y-4155771D02*
X47595238Y-4155771D01*
X47595238Y-4155771D02*
X47690476Y-4203390D01*
X47690476Y-4203390D02*
X47738095Y-4251009D01*
X47738095Y-4251009D02*
X47785714Y-4346247D01*
X47785714Y-4346247D02*
X47785714Y-4584342D01*
X47785714Y-4584342D02*
X47738095Y-4679580D01*
X47738095Y-4679580D02*
X47690476Y-4727200D01*
X47690476Y-4727200D02*
X47595238Y-4774819D01*
X47595238Y-4774819D02*
X47357143Y-4774819D01*
X47357143Y-4774819D02*
X47261905Y-4727200D01*
X47261905Y-4727200D02*
X47214286Y-4679580D01*
X43833333Y-13679580D02*
X43785714Y-13727200D01*
X43785714Y-13727200D02*
X43642857Y-13774819D01*
X43642857Y-13774819D02*
X43547619Y-13774819D01*
X43547619Y-13774819D02*
X43404762Y-13727200D01*
X43404762Y-13727200D02*
X43309524Y-13631961D01*
X43309524Y-13631961D02*
X43261905Y-13536723D01*
X43261905Y-13536723D02*
X43214286Y-13346247D01*
X43214286Y-13346247D02*
X43214286Y-13203390D01*
X43214286Y-13203390D02*
X43261905Y-13012914D01*
X43261905Y-13012914D02*
X43309524Y-12917676D01*
X43309524Y-12917676D02*
X43404762Y-12822438D01*
X43404762Y-12822438D02*
X43547619Y-12774819D01*
X43547619Y-12774819D02*
X43642857Y-12774819D01*
X43642857Y-12774819D02*
X43785714Y-12822438D01*
X43785714Y-12822438D02*
X43833333Y-12870057D01*
X44690476Y-13108152D02*
X44690476Y-13774819D01*
X44452381Y-12727200D02*
X44214286Y-13441485D01*
X44214286Y-13441485D02*
X44833333Y-13441485D01*
X76238095Y-36804819D02*
X76238095Y-35804819D01*
X76238095Y-36281009D02*
X76809523Y-36281009D01*
X76809523Y-36804819D02*
X76809523Y-35804819D01*
X77714285Y-36138152D02*
X77714285Y-36804819D01*
X77476190Y-35757200D02*
X77238095Y-36471485D01*
X77238095Y-36471485D02*
X77857142Y-36471485D01*
X48844819Y-21191904D02*
X49654342Y-21191904D01*
X49654342Y-21191904D02*
X49749580Y-21144285D01*
X49749580Y-21144285D02*
X49797200Y-21096666D01*
X49797200Y-21096666D02*
X49844819Y-21001428D01*
X49844819Y-21001428D02*
X49844819Y-20810952D01*
X49844819Y-20810952D02*
X49797200Y-20715714D01*
X49797200Y-20715714D02*
X49749580Y-20668095D01*
X49749580Y-20668095D02*
X49654342Y-20620476D01*
X49654342Y-20620476D02*
X48844819Y-20620476D01*
X49844819Y-19620476D02*
X49844819Y-20191904D01*
X49844819Y-19906190D02*
X48844819Y-19906190D01*
X48844819Y-19906190D02*
X48987676Y-20001428D01*
X48987676Y-20001428D02*
X49082914Y-20096666D01*
X49082914Y-20096666D02*
X49130533Y-20191904D01*
X29361905Y-59654819D02*
X29361905Y-58654819D01*
X29933333Y-59654819D02*
X29504762Y-59083390D01*
X29933333Y-58654819D02*
X29361905Y-59226247D01*
X30885714Y-59654819D02*
X30314286Y-59654819D01*
X30600000Y-59654819D02*
X30600000Y-58654819D01*
X30600000Y-58654819D02*
X30504762Y-58797676D01*
X30504762Y-58797676D02*
X30409524Y-58892914D01*
X30409524Y-58892914D02*
X30314286Y-58940533D01*
X13833333Y-50804819D02*
X13500000Y-50328628D01*
X13261905Y-50804819D02*
X13261905Y-49804819D01*
X13261905Y-49804819D02*
X13642857Y-49804819D01*
X13642857Y-49804819D02*
X13738095Y-49852438D01*
X13738095Y-49852438D02*
X13785714Y-49900057D01*
X13785714Y-49900057D02*
X13833333Y-49995295D01*
X13833333Y-49995295D02*
X13833333Y-50138152D01*
X13833333Y-50138152D02*
X13785714Y-50233390D01*
X13785714Y-50233390D02*
X13738095Y-50281009D01*
X13738095Y-50281009D02*
X13642857Y-50328628D01*
X13642857Y-50328628D02*
X13261905Y-50328628D01*
X14166667Y-49804819D02*
X14785714Y-49804819D01*
X14785714Y-49804819D02*
X14452381Y-50185771D01*
X14452381Y-50185771D02*
X14595238Y-50185771D01*
X14595238Y-50185771D02*
X14690476Y-50233390D01*
X14690476Y-50233390D02*
X14738095Y-50281009D01*
X14738095Y-50281009D02*
X14785714Y-50376247D01*
X14785714Y-50376247D02*
X14785714Y-50614342D01*
X14785714Y-50614342D02*
X14738095Y-50709580D01*
X14738095Y-50709580D02*
X14690476Y-50757200D01*
X14690476Y-50757200D02*
X14595238Y-50804819D01*
X14595238Y-50804819D02*
X14309524Y-50804819D01*
X14309524Y-50804819D02*
X14214286Y-50757200D01*
X14214286Y-50757200D02*
X14166667Y-50709580D01*
X12341905Y-33984819D02*
X12341905Y-32984819D01*
X12341905Y-32984819D02*
X12580000Y-32984819D01*
X12580000Y-32984819D02*
X12722857Y-33032438D01*
X12722857Y-33032438D02*
X12818095Y-33127676D01*
X12818095Y-33127676D02*
X12865714Y-33222914D01*
X12865714Y-33222914D02*
X12913333Y-33413390D01*
X12913333Y-33413390D02*
X12913333Y-33556247D01*
X12913333Y-33556247D02*
X12865714Y-33746723D01*
X12865714Y-33746723D02*
X12818095Y-33841961D01*
X12818095Y-33841961D02*
X12722857Y-33937200D01*
X12722857Y-33937200D02*
X12580000Y-33984819D01*
X12580000Y-33984819D02*
X12341905Y-33984819D01*
X13865714Y-33984819D02*
X13294286Y-33984819D01*
X13580000Y-33984819D02*
X13580000Y-32984819D01*
X13580000Y-32984819D02*
X13484762Y-33127676D01*
X13484762Y-33127676D02*
X13389524Y-33222914D01*
X13389524Y-33222914D02*
X13294286Y-33270533D01*
X7738095Y-34354819D02*
X7738095Y-33354819D01*
X8309523Y-34354819D02*
X7880952Y-33783390D01*
X8309523Y-33354819D02*
X7738095Y-33926247D01*
X8261905Y-2804819D02*
X8261905Y-1804819D01*
X8261905Y-1804819D02*
X8500000Y-1804819D01*
X8500000Y-1804819D02*
X8642857Y-1852438D01*
X8642857Y-1852438D02*
X8738095Y-1947676D01*
X8738095Y-1947676D02*
X8785714Y-2042914D01*
X8785714Y-2042914D02*
X8833333Y-2233390D01*
X8833333Y-2233390D02*
X8833333Y-2376247D01*
X8833333Y-2376247D02*
X8785714Y-2566723D01*
X8785714Y-2566723D02*
X8738095Y-2661961D01*
X8738095Y-2661961D02*
X8642857Y-2757200D01*
X8642857Y-2757200D02*
X8500000Y-2804819D01*
X8500000Y-2804819D02*
X8261905Y-2804819D01*
X9214286Y-1900057D02*
X9261905Y-1852438D01*
X9261905Y-1852438D02*
X9357143Y-1804819D01*
X9357143Y-1804819D02*
X9595238Y-1804819D01*
X9595238Y-1804819D02*
X9690476Y-1852438D01*
X9690476Y-1852438D02*
X9738095Y-1900057D01*
X9738095Y-1900057D02*
X9785714Y-1995295D01*
X9785714Y-1995295D02*
X9785714Y-2090533D01*
X9785714Y-2090533D02*
X9738095Y-2233390D01*
X9738095Y-2233390D02*
X9166667Y-2804819D01*
X9166667Y-2804819D02*
X9785714Y-2804819D01*
X73566666Y-48454819D02*
X73566666Y-49169104D01*
X73566666Y-49169104D02*
X73519047Y-49311961D01*
X73519047Y-49311961D02*
X73423809Y-49407200D01*
X73423809Y-49407200D02*
X73280952Y-49454819D01*
X73280952Y-49454819D02*
X73185714Y-49454819D01*
X73995238Y-48550057D02*
X74042857Y-48502438D01*
X74042857Y-48502438D02*
X74138095Y-48454819D01*
X74138095Y-48454819D02*
X74376190Y-48454819D01*
X74376190Y-48454819D02*
X74471428Y-48502438D01*
X74471428Y-48502438D02*
X74519047Y-48550057D01*
X74519047Y-48550057D02*
X74566666Y-48645295D01*
X74566666Y-48645295D02*
X74566666Y-48740533D01*
X74566666Y-48740533D02*
X74519047Y-48883390D01*
X74519047Y-48883390D02*
X73947619Y-49454819D01*
X73947619Y-49454819D02*
X74566666Y-49454819D01*
X5261905Y-14804819D02*
X5261905Y-13804819D01*
X5261905Y-13804819D02*
X5500000Y-13804819D01*
X5500000Y-13804819D02*
X5642857Y-13852438D01*
X5642857Y-13852438D02*
X5738095Y-13947676D01*
X5738095Y-13947676D02*
X5785714Y-14042914D01*
X5785714Y-14042914D02*
X5833333Y-14233390D01*
X5833333Y-14233390D02*
X5833333Y-14376247D01*
X5833333Y-14376247D02*
X5785714Y-14566723D01*
X5785714Y-14566723D02*
X5738095Y-14661961D01*
X5738095Y-14661961D02*
X5642857Y-14757200D01*
X5642857Y-14757200D02*
X5500000Y-14804819D01*
X5500000Y-14804819D02*
X5261905Y-14804819D01*
X6166667Y-13804819D02*
X6785714Y-13804819D01*
X6785714Y-13804819D02*
X6452381Y-14185771D01*
X6452381Y-14185771D02*
X6595238Y-14185771D01*
X6595238Y-14185771D02*
X6690476Y-14233390D01*
X6690476Y-14233390D02*
X6738095Y-14281009D01*
X6738095Y-14281009D02*
X6785714Y-14376247D01*
X6785714Y-14376247D02*
X6785714Y-14614342D01*
X6785714Y-14614342D02*
X6738095Y-14709580D01*
X6738095Y-14709580D02*
X6690476Y-14757200D01*
X6690476Y-14757200D02*
X6595238Y-14804819D01*
X6595238Y-14804819D02*
X6309524Y-14804819D01*
X6309524Y-14804819D02*
X6214286Y-14757200D01*
X6214286Y-14757200D02*
X6166667Y-14709580D01*
X17833333Y-2679580D02*
X17785714Y-2727200D01*
X17785714Y-2727200D02*
X17642857Y-2774819D01*
X17642857Y-2774819D02*
X17547619Y-2774819D01*
X17547619Y-2774819D02*
X17404762Y-2727200D01*
X17404762Y-2727200D02*
X17309524Y-2631961D01*
X17309524Y-2631961D02*
X17261905Y-2536723D01*
X17261905Y-2536723D02*
X17214286Y-2346247D01*
X17214286Y-2346247D02*
X17214286Y-2203390D01*
X17214286Y-2203390D02*
X17261905Y-2012914D01*
X17261905Y-2012914D02*
X17309524Y-1917676D01*
X17309524Y-1917676D02*
X17404762Y-1822438D01*
X17404762Y-1822438D02*
X17547619Y-1774819D01*
X17547619Y-1774819D02*
X17642857Y-1774819D01*
X17642857Y-1774819D02*
X17785714Y-1822438D01*
X17785714Y-1822438D02*
X17833333Y-1870057D01*
X18785714Y-2774819D02*
X18214286Y-2774819D01*
X18500000Y-2774819D02*
X18500000Y-1774819D01*
X18500000Y-1774819D02*
X18404762Y-1917676D01*
X18404762Y-1917676D02*
X18309524Y-2012914D01*
X18309524Y-2012914D02*
X18214286Y-2060533D01*
X46666667Y-52657200D02*
X46809524Y-52704819D01*
X46809524Y-52704819D02*
X47047619Y-52704819D01*
X47047619Y-52704819D02*
X47142857Y-52657200D01*
X47142857Y-52657200D02*
X47190476Y-52609580D01*
X47190476Y-52609580D02*
X47238095Y-52514342D01*
X47238095Y-52514342D02*
X47238095Y-52419104D01*
X47238095Y-52419104D02*
X47190476Y-52323866D01*
X47190476Y-52323866D02*
X47142857Y-52276247D01*
X47142857Y-52276247D02*
X47047619Y-52228628D01*
X47047619Y-52228628D02*
X46857143Y-52181009D01*
X46857143Y-52181009D02*
X46761905Y-52133390D01*
X46761905Y-52133390D02*
X46714286Y-52085771D01*
X46714286Y-52085771D02*
X46666667Y-51990533D01*
X46666667Y-51990533D02*
X46666667Y-51895295D01*
X46666667Y-51895295D02*
X46714286Y-51800057D01*
X46714286Y-51800057D02*
X46761905Y-51752438D01*
X46761905Y-51752438D02*
X46857143Y-51704819D01*
X46857143Y-51704819D02*
X47095238Y-51704819D01*
X47095238Y-51704819D02*
X47238095Y-51752438D01*
X47571429Y-51704819D02*
X47809524Y-52704819D01*
X47809524Y-52704819D02*
X48000000Y-51990533D01*
X48000000Y-51990533D02*
X48190476Y-52704819D01*
X48190476Y-52704819D02*
X48428572Y-51704819D01*
X49333333Y-52704819D02*
X48761905Y-52704819D01*
X49047619Y-52704819D02*
X49047619Y-51704819D01*
X49047619Y-51704819D02*
X48952381Y-51847676D01*
X48952381Y-51847676D02*
X48857143Y-51942914D01*
X48857143Y-51942914D02*
X48761905Y-51990533D01*
X9833333Y-14804819D02*
X9500000Y-14328628D01*
X9261905Y-14804819D02*
X9261905Y-13804819D01*
X9261905Y-13804819D02*
X9642857Y-13804819D01*
X9642857Y-13804819D02*
X9738095Y-13852438D01*
X9738095Y-13852438D02*
X9785714Y-13900057D01*
X9785714Y-13900057D02*
X9833333Y-13995295D01*
X9833333Y-13995295D02*
X9833333Y-14138152D01*
X9833333Y-14138152D02*
X9785714Y-14233390D01*
X9785714Y-14233390D02*
X9738095Y-14281009D01*
X9738095Y-14281009D02*
X9642857Y-14328628D01*
X9642857Y-14328628D02*
X9261905Y-14328628D01*
X10738095Y-13804819D02*
X10261905Y-13804819D01*
X10261905Y-13804819D02*
X10214286Y-14281009D01*
X10214286Y-14281009D02*
X10261905Y-14233390D01*
X10261905Y-14233390D02*
X10357143Y-14185771D01*
X10357143Y-14185771D02*
X10595238Y-14185771D01*
X10595238Y-14185771D02*
X10690476Y-14233390D01*
X10690476Y-14233390D02*
X10738095Y-14281009D01*
X10738095Y-14281009D02*
X10785714Y-14376247D01*
X10785714Y-14376247D02*
X10785714Y-14614342D01*
X10785714Y-14614342D02*
X10738095Y-14709580D01*
X10738095Y-14709580D02*
X10690476Y-14757200D01*
X10690476Y-14757200D02*
X10595238Y-14804819D01*
X10595238Y-14804819D02*
X10357143Y-14804819D01*
X10357143Y-14804819D02*
X10261905Y-14757200D01*
X10261905Y-14757200D02*
X10214286Y-14709580D01*
X46833333Y-18804819D02*
X46500000Y-18328628D01*
X46261905Y-18804819D02*
X46261905Y-17804819D01*
X46261905Y-17804819D02*
X46642857Y-17804819D01*
X46642857Y-17804819D02*
X46738095Y-17852438D01*
X46738095Y-17852438D02*
X46785714Y-17900057D01*
X46785714Y-17900057D02*
X46833333Y-17995295D01*
X46833333Y-17995295D02*
X46833333Y-18138152D01*
X46833333Y-18138152D02*
X46785714Y-18233390D01*
X46785714Y-18233390D02*
X46738095Y-18281009D01*
X46738095Y-18281009D02*
X46642857Y-18328628D01*
X46642857Y-18328628D02*
X46261905Y-18328628D01*
X47214286Y-17900057D02*
X47261905Y-17852438D01*
X47261905Y-17852438D02*
X47357143Y-17804819D01*
X47357143Y-17804819D02*
X47595238Y-17804819D01*
X47595238Y-17804819D02*
X47690476Y-17852438D01*
X47690476Y-17852438D02*
X47738095Y-17900057D01*
X47738095Y-17900057D02*
X47785714Y-17995295D01*
X47785714Y-17995295D02*
X47785714Y-18090533D01*
X47785714Y-18090533D02*
X47738095Y-18233390D01*
X47738095Y-18233390D02*
X47166667Y-18804819D01*
X47166667Y-18804819D02*
X47785714Y-18804819D01*
X5666666Y-23954819D02*
X5666666Y-24669104D01*
X5666666Y-24669104D02*
X5619047Y-24811961D01*
X5619047Y-24811961D02*
X5523809Y-24907200D01*
X5523809Y-24907200D02*
X5380952Y-24954819D01*
X5380952Y-24954819D02*
X5285714Y-24954819D01*
X6666666Y-24954819D02*
X6095238Y-24954819D01*
X6380952Y-24954819D02*
X6380952Y-23954819D01*
X6380952Y-23954819D02*
X6285714Y-24097676D01*
X6285714Y-24097676D02*
X6190476Y-24192914D01*
X6190476Y-24192914D02*
X6095238Y-24240533D01*
X2238095Y-53804819D02*
X2238095Y-52804819D01*
X2238095Y-53281009D02*
X2809523Y-53281009D01*
X2809523Y-53804819D02*
X2809523Y-52804819D01*
X3190476Y-52804819D02*
X3809523Y-52804819D01*
X3809523Y-52804819D02*
X3476190Y-53185771D01*
X3476190Y-53185771D02*
X3619047Y-53185771D01*
X3619047Y-53185771D02*
X3714285Y-53233390D01*
X3714285Y-53233390D02*
X3761904Y-53281009D01*
X3761904Y-53281009D02*
X3809523Y-53376247D01*
X3809523Y-53376247D02*
X3809523Y-53614342D01*
X3809523Y-53614342D02*
X3761904Y-53709580D01*
X3761904Y-53709580D02*
X3714285Y-53757200D01*
X3714285Y-53757200D02*
X3619047Y-53804819D01*
X3619047Y-53804819D02*
X3333333Y-53804819D01*
X3333333Y-53804819D02*
X3238095Y-53757200D01*
X3238095Y-53757200D02*
X3190476Y-53709580D01*
X2238095Y195180D02*
X2238095Y1195180D01*
X2238095Y718990D02*
X2809523Y718990D01*
X2809523Y195180D02*
X2809523Y1195180D01*
X3809523Y195180D02*
X3238095Y195180D01*
X3523809Y195180D02*
X3523809Y1195180D01*
X3523809Y1195180D02*
X3428571Y1052323D01*
X3428571Y1052323D02*
X3333333Y957085D01*
X3333333Y957085D02*
X3238095Y909466D01*
X25238095Y-2954819D02*
X25238095Y-3764342D01*
X25238095Y-3764342D02*
X25285714Y-3859580D01*
X25285714Y-3859580D02*
X25333333Y-3907200D01*
X25333333Y-3907200D02*
X25428571Y-3954819D01*
X25428571Y-3954819D02*
X25619047Y-3954819D01*
X25619047Y-3954819D02*
X25714285Y-3907200D01*
X25714285Y-3907200D02*
X25761904Y-3859580D01*
X25761904Y-3859580D02*
X25809523Y-3764342D01*
X25809523Y-3764342D02*
X25809523Y-2954819D01*
X26238095Y-3050057D02*
X26285714Y-3002438D01*
X26285714Y-3002438D02*
X26380952Y-2954819D01*
X26380952Y-2954819D02*
X26619047Y-2954819D01*
X26619047Y-2954819D02*
X26714285Y-3002438D01*
X26714285Y-3002438D02*
X26761904Y-3050057D01*
X26761904Y-3050057D02*
X26809523Y-3145295D01*
X26809523Y-3145295D02*
X26809523Y-3240533D01*
X26809523Y-3240533D02*
X26761904Y-3383390D01*
X26761904Y-3383390D02*
X26190476Y-3954819D01*
X26190476Y-3954819D02*
X26809523Y-3954819D01*
X58666667Y-52657200D02*
X58809524Y-52704819D01*
X58809524Y-52704819D02*
X59047619Y-52704819D01*
X59047619Y-52704819D02*
X59142857Y-52657200D01*
X59142857Y-52657200D02*
X59190476Y-52609580D01*
X59190476Y-52609580D02*
X59238095Y-52514342D01*
X59238095Y-52514342D02*
X59238095Y-52419104D01*
X59238095Y-52419104D02*
X59190476Y-52323866D01*
X59190476Y-52323866D02*
X59142857Y-52276247D01*
X59142857Y-52276247D02*
X59047619Y-52228628D01*
X59047619Y-52228628D02*
X58857143Y-52181009D01*
X58857143Y-52181009D02*
X58761905Y-52133390D01*
X58761905Y-52133390D02*
X58714286Y-52085771D01*
X58714286Y-52085771D02*
X58666667Y-51990533D01*
X58666667Y-51990533D02*
X58666667Y-51895295D01*
X58666667Y-51895295D02*
X58714286Y-51800057D01*
X58714286Y-51800057D02*
X58761905Y-51752438D01*
X58761905Y-51752438D02*
X58857143Y-51704819D01*
X58857143Y-51704819D02*
X59095238Y-51704819D01*
X59095238Y-51704819D02*
X59238095Y-51752438D01*
X59571429Y-51704819D02*
X59809524Y-52704819D01*
X59809524Y-52704819D02*
X60000000Y-51990533D01*
X60000000Y-51990533D02*
X60190476Y-52704819D01*
X60190476Y-52704819D02*
X60428572Y-51704819D01*
X60761905Y-51800057D02*
X60809524Y-51752438D01*
X60809524Y-51752438D02*
X60904762Y-51704819D01*
X60904762Y-51704819D02*
X61142857Y-51704819D01*
X61142857Y-51704819D02*
X61238095Y-51752438D01*
X61238095Y-51752438D02*
X61285714Y-51800057D01*
X61285714Y-51800057D02*
X61333333Y-51895295D01*
X61333333Y-51895295D02*
X61333333Y-51990533D01*
X61333333Y-51990533D02*
X61285714Y-52133390D01*
X61285714Y-52133390D02*
X60714286Y-52704819D01*
X60714286Y-52704819D02*
X61333333Y-52704819D01*
X12833333Y-2804819D02*
X12500000Y-2328628D01*
X12261905Y-2804819D02*
X12261905Y-1804819D01*
X12261905Y-1804819D02*
X12642857Y-1804819D01*
X12642857Y-1804819D02*
X12738095Y-1852438D01*
X12738095Y-1852438D02*
X12785714Y-1900057D01*
X12785714Y-1900057D02*
X12833333Y-1995295D01*
X12833333Y-1995295D02*
X12833333Y-2138152D01*
X12833333Y-2138152D02*
X12785714Y-2233390D01*
X12785714Y-2233390D02*
X12738095Y-2281009D01*
X12738095Y-2281009D02*
X12642857Y-2328628D01*
X12642857Y-2328628D02*
X12261905Y-2328628D01*
X13690476Y-2138152D02*
X13690476Y-2804819D01*
X13452381Y-1757200D02*
X13214286Y-2471485D01*
X13214286Y-2471485D02*
X13833333Y-2471485D01*
X32833333Y-2679580D02*
X32785714Y-2727200D01*
X32785714Y-2727200D02*
X32642857Y-2774819D01*
X32642857Y-2774819D02*
X32547619Y-2774819D01*
X32547619Y-2774819D02*
X32404762Y-2727200D01*
X32404762Y-2727200D02*
X32309524Y-2631961D01*
X32309524Y-2631961D02*
X32261905Y-2536723D01*
X32261905Y-2536723D02*
X32214286Y-2346247D01*
X32214286Y-2346247D02*
X32214286Y-2203390D01*
X32214286Y-2203390D02*
X32261905Y-2012914D01*
X32261905Y-2012914D02*
X32309524Y-1917676D01*
X32309524Y-1917676D02*
X32404762Y-1822438D01*
X32404762Y-1822438D02*
X32547619Y-1774819D01*
X32547619Y-1774819D02*
X32642857Y-1774819D01*
X32642857Y-1774819D02*
X32785714Y-1822438D01*
X32785714Y-1822438D02*
X32833333Y-1870057D01*
X33214286Y-1870057D02*
X33261905Y-1822438D01*
X33261905Y-1822438D02*
X33357143Y-1774819D01*
X33357143Y-1774819D02*
X33595238Y-1774819D01*
X33595238Y-1774819D02*
X33690476Y-1822438D01*
X33690476Y-1822438D02*
X33738095Y-1870057D01*
X33738095Y-1870057D02*
X33785714Y-1965295D01*
X33785714Y-1965295D02*
X33785714Y-2060533D01*
X33785714Y-2060533D02*
X33738095Y-2203390D01*
X33738095Y-2203390D02*
X33166667Y-2774819D01*
X33166667Y-2774819D02*
X33785714Y-2774819D01*
D11*
%TO.C,Q1*%
X7240000Y-50440000D02*
X8760000Y-50440000D01*
X7240000Y-50490000D02*
X7240000Y-50440000D01*
X7240000Y-52390000D02*
X7240000Y-51610000D01*
X7240000Y-53560000D02*
X7240000Y-53510000D01*
X8760000Y-50440000D02*
X8760000Y-51440000D01*
X8760000Y-52560000D02*
X8760000Y-53560000D01*
X8760000Y-53560000D02*
X7240000Y-53560000D01*
X6940000Y-51950000D02*
X6460000Y-51950000D01*
X6700000Y-51620000D01*
X6940000Y-51950000D01*
G36*
X6940000Y-51950000D02*
G01*
X6460000Y-51950000D01*
X6700000Y-51620000D01*
X6940000Y-51950000D01*
G37*
%TO.C,U3*%
X13390000Y-41390000D02*
X14115000Y-41390000D01*
X13390000Y-42115000D02*
X13390000Y-41390000D01*
X13390000Y-46610000D02*
X13390000Y-45885000D01*
X14115000Y-46610000D02*
X13390000Y-46610000D01*
X17885000Y-41390000D02*
X18610000Y-41390000D01*
X18610000Y-41390000D02*
X18610000Y-42115000D01*
X18610000Y-45885000D02*
X18610000Y-46610000D01*
X18610000Y-46610000D02*
X17885000Y-46610000D01*
X12890000Y-42500000D02*
X12560000Y-42740000D01*
X12560000Y-42260000D01*
X12890000Y-42500000D01*
G36*
X12890000Y-42500000D02*
G01*
X12560000Y-42740000D01*
X12560000Y-42260000D01*
X12890000Y-42500000D01*
G37*
%TO.C,FB1*%
X17600378Y-7440000D02*
X18399622Y-7440000D01*
X17600378Y-8560000D02*
X18399622Y-8560000D01*
%TO.C,C3*%
X32738748Y-11265000D02*
X33261252Y-11265000D01*
X32738748Y-12735000D02*
X33261252Y-12735000D01*
%TO.C,R1*%
X46772936Y-9265000D02*
X47227064Y-9265000D01*
X46772936Y-10735000D02*
X47227064Y-10735000D01*
%TO.C,C5*%
X46738748Y-5265000D02*
X47261252Y-5265000D01*
X46738748Y-6735000D02*
X47261252Y-6735000D01*
%TO.C,C4*%
X43738748Y-14265000D02*
X44261252Y-14265000D01*
X43738748Y-15735000D02*
X44261252Y-15735000D01*
%TO.C,U1*%
X50880000Y3860000D02*
X50880000Y-2300000D01*
X50880000Y3860000D02*
X69120000Y3860000D01*
X50880000Y-21100000D02*
X50880000Y-21880000D01*
X50880000Y-21880000D02*
X51880000Y-21880000D01*
X69120000Y3860000D02*
X69120000Y-2555000D01*
X69120000Y-21100000D02*
X69120000Y-21880000D01*
X69120000Y-21880000D02*
X68120000Y-21880000D01*
X50875000Y-3025000D02*
X50375000Y-3025000D01*
X50875000Y-2525000D01*
X50875000Y-3025000D01*
G36*
X50875000Y-3025000D02*
G01*
X50375000Y-3025000D01*
X50875000Y-2525000D01*
X50875000Y-3025000D01*
G37*
%TO.C,K1*%
X20600000Y-42200000D02*
X20600000Y-48800000D01*
X20600000Y-42200000D02*
X40400000Y-42200000D01*
X20600000Y-51200000D02*
X20600000Y-57800000D01*
X24650000Y-50050000D02*
X23850000Y-50050000D01*
X24650000Y-50050000D02*
X24650000Y-53650000D01*
X25550000Y-56050000D02*
X28050000Y-56050000D01*
X26050000Y-48250000D02*
X30050000Y-48250000D01*
X26050000Y-51850000D02*
X26050000Y-48250000D01*
X28050000Y-44050000D02*
X25550000Y-44050000D01*
X28050000Y-44050000D02*
X28050000Y-48250000D01*
X28050000Y-51850000D02*
X28050000Y-56050000D01*
X30050000Y-48250000D02*
X30050000Y-51850000D01*
X30050000Y-51850000D02*
X26050000Y-48250000D01*
X30050000Y-51850000D02*
X26050000Y-51850000D01*
X31450000Y-50050000D02*
X31450000Y-53650000D01*
X31450000Y-50050000D02*
X32950000Y-50050000D01*
X31450000Y-53650000D02*
X24650000Y-53650000D01*
X32950000Y-50050000D02*
X37550000Y-47550000D01*
X36150000Y-45800000D02*
X36150000Y-48300000D01*
X36150000Y-54200000D02*
X36150000Y-51750000D01*
X40400000Y-42200000D02*
X40400000Y-57800000D01*
X40400000Y-57800000D02*
X20600000Y-57800000D01*
%TO.C,R3*%
X13772936Y-51265000D02*
X14227064Y-51265000D01*
X13772936Y-52735000D02*
X14227064Y-52735000D01*
%TO.C,D1*%
X9340000Y-36000000D02*
X10360000Y-36000000D01*
X11140000Y-34530000D02*
X11140000Y-37470000D01*
X11260000Y-34530000D02*
X11260000Y-37470000D01*
X11380000Y-34530000D02*
X11380000Y-37470000D01*
X16820000Y-36000000D02*
X15800000Y-36000000D01*
X10360000Y-34530000D02*
X15800000Y-34530000D01*
X15800000Y-37470000D01*
X10360000Y-37470000D01*
X10360000Y-34530000D01*
%TO.C,D2*%
X7315000Y-3040000D02*
X7315000Y-4960000D01*
X7315000Y-4960000D02*
X10000000Y-4960000D01*
X10000000Y-3040000D02*
X7315000Y-3040000D01*
%TO.C,J2*%
X69290000Y-50690000D02*
X69290000Y-60110000D01*
X69290000Y-50690000D02*
X70950000Y-50690000D01*
X69290000Y-56800000D02*
X78520000Y-56800000D01*
X69290000Y-60110000D02*
X78520000Y-60110000D01*
X71700000Y-49400000D02*
X72300000Y-49400000D01*
X72000000Y-50000000D02*
X71700000Y-49400000D01*
X72300000Y-49400000D02*
X72000000Y-50000000D01*
X73050000Y-50690000D02*
X74760000Y-50690000D01*
X78520000Y-50690000D02*
X76860000Y-50690000D01*
X78520000Y-60110000D02*
X78520000Y-50690000D01*
%TO.C,D3*%
X4315000Y-15040000D02*
X4315000Y-16960000D01*
X4315000Y-16960000D02*
X7000000Y-16960000D01*
X7000000Y-15040000D02*
X4315000Y-15040000D01*
%TO.C,C1*%
X17738748Y-3265000D02*
X18261252Y-3265000D01*
X17738748Y-4735000D02*
X18261252Y-4735000D01*
%TO.C,SW1*%
X45250000Y-55000000D02*
X45250000Y-57000000D01*
X46300000Y-53700000D02*
X46750000Y-53250000D01*
X46300000Y-58300000D02*
X46750000Y-58750000D01*
X46750000Y-53250000D02*
X49250000Y-53250000D01*
X46750000Y-58750000D02*
X49250000Y-58750000D01*
X49700000Y-53700000D02*
X49250000Y-53250000D01*
X49700000Y-58300000D02*
X49250000Y-58750000D01*
X50750000Y-55000000D02*
X50750000Y-57000000D01*
%TO.C,R5*%
X9772936Y-15265000D02*
X10227064Y-15265000D01*
X9772936Y-16735000D02*
X10227064Y-16735000D01*
%TO.C,R2*%
X46772936Y-19265000D02*
X47227064Y-19265000D01*
X46772936Y-20735000D02*
X47227064Y-20735000D01*
%TO.C,J1*%
X1330000Y-29900000D02*
X1330000Y-28200000D01*
X10670000Y-29900000D02*
X10670000Y-28200000D01*
%TO.C,U2*%
X24150000Y-4590000D02*
X27910000Y-4590000D01*
X24150000Y-11410000D02*
X27910000Y-11410000D01*
X27910000Y-4590000D02*
X27910000Y-5850000D01*
X27910000Y-11410000D02*
X27910000Y-10150000D01*
X22870000Y-4690000D02*
X22630000Y-4360000D01*
X23110000Y-4360000D01*
X22870000Y-4690000D01*
G36*
X22870000Y-4690000D02*
G01*
X22630000Y-4360000D01*
X23110000Y-4360000D01*
X22870000Y-4690000D01*
G37*
%TO.C,SW2*%
X57250000Y-55000000D02*
X57250000Y-57000000D01*
X58300000Y-53700000D02*
X58750000Y-53250000D01*
X58300000Y-58300000D02*
X58750000Y-58750000D01*
X58750000Y-53250000D02*
X61250000Y-53250000D01*
X58750000Y-58750000D02*
X61250000Y-58750000D01*
X61700000Y-53700000D02*
X61250000Y-53250000D01*
X61700000Y-58300000D02*
X61250000Y-58750000D01*
X62750000Y-55000000D02*
X62750000Y-57000000D01*
%TO.C,R4*%
X12772936Y-3265000D02*
X13227064Y-3265000D01*
X12772936Y-4735000D02*
X13227064Y-4735000D01*
%TO.C,C2*%
X32738748Y-3265000D02*
X33261252Y-3265000D01*
X32738748Y-4735000D02*
X33261252Y-4735000D01*
%TD*%
M02*
