%TF.GenerationSoftware,KiCad,Pcbnew,9.0.7*%
%TF.CreationDate,2026-06-05T20:29:35-05:00*%
%TF.ProjectId,ESP32_Simple_IoT,45535033-325f-4536-996d-706c655f496f,rev?*%
%TF.SameCoordinates,Original*%
%TF.FileFunction,Plated,1,2,PTH,Mixed*%
%TF.FilePolarity,Positive*%
%FSLAX46Y46*%
G04 Gerber Fmt 4.6, Leading zero omitted, Abs format (unit mm)*
G04 Created by KiCad (PCBNEW 9.0.7) date 2026-06-05 20:29:35*
%MOMM*%
%LPD*%
G01*
G04 APERTURE LIST*
%TA.AperFunction,ComponentDrill*%
%ADD10C,0.200000*%
%TD*%
%TA.AperFunction,ViaDrill*%
%ADD11C,0.300000*%
%TD*%
%TA.AperFunction,ViaDrill*%
%ADD12C,0.400000*%
%TD*%
G04 aperture for slot hole*
%TA.AperFunction,ComponentDrill*%
%ADD13C,0.600000*%
%TD*%
%TA.AperFunction,ComponentDrill*%
%ADD14C,1.000000*%
%TD*%
%TA.AperFunction,ComponentDrill*%
%ADD15C,1.100000*%
%TD*%
%TA.AperFunction,ComponentDrill*%
%ADD16C,1.200000*%
%TD*%
%TA.AperFunction,ComponentDrill*%
%ADD17C,1.300000*%
%TD*%
G04 APERTURE END LIST*
D10*
%TO.C,U1*%
X57795000Y-10327500D03*
X57795000Y-11852500D03*
X58557500Y-9565000D03*
X58557500Y-11090000D03*
X58557500Y-12615000D03*
X59320000Y-10327500D03*
X59320000Y-11852500D03*
X60082500Y-9565000D03*
X60082500Y-11090000D03*
X60082500Y-12615000D03*
X60845000Y-10327500D03*
X60845000Y-11852500D03*
%TD*%
D11*
X1000000Y-37490000D03*
X2000000Y-20490000D03*
X2000000Y-30250000D03*
X2800000Y-29750000D03*
X3000000Y-26000000D03*
X3000000Y-28250000D03*
X3500000Y-31250000D03*
X3500000Y-35000000D03*
X3800000Y-46000000D03*
X5000000Y-10000000D03*
X5000000Y-40000000D03*
X5000000Y-50000000D03*
X5062500Y-14000000D03*
X5062500Y-51050000D03*
X6200000Y-46000000D03*
X7000000Y-7000000D03*
X7000000Y-29320000D03*
X8062500Y-6000000D03*
X8937500Y-50000000D03*
X9000000Y-5000000D03*
X9000000Y-26800000D03*
X9000000Y-28750000D03*
X9000000Y-33200000D03*
X9087500Y-7000000D03*
X9087500Y-9000000D03*
X9500000Y-31750000D03*
X9500000Y-33200000D03*
X11550000Y-45000000D03*
X12000000Y-44000000D03*
X12000000Y-55000000D03*
X14000000Y-44500000D03*
X14000000Y-49000000D03*
X14000000Y-51000000D03*
X14250000Y-43500000D03*
X15000000Y-25000000D03*
X15000000Y-48000000D03*
X16000000Y-32000000D03*
X16000000Y-44000000D03*
X16500000Y-40500000D03*
X17000000Y-38000000D03*
X18480000Y-48800000D03*
X18950000Y-4000000D03*
X20000000Y-20000000D03*
X20000000Y-35000000D03*
X20850000Y-5700000D03*
X21000000Y-36000000D03*
X24000000Y-34000000D03*
X25000000Y-30000000D03*
X33950000Y-1800000D03*
X33950000Y-6000000D03*
X33950000Y-10000000D03*
X35000000Y-5000000D03*
X35000000Y-20000000D03*
X35000000Y-35000000D03*
X39160000Y-56500000D03*
X40000000Y-36000000D03*
X42000000Y-38000000D03*
X43000000Y-13000000D03*
X44850000Y-55900000D03*
X44950000Y-18000000D03*
X45000000Y-10000000D03*
X45000000Y-56000000D03*
X47912500Y-13000000D03*
X47950000Y-8000000D03*
X50000000Y-42000000D03*
X50250000Y-3750000D03*
X51150000Y-56100000D03*
X55000000Y-5000000D03*
X55000000Y-30000000D03*
X56850000Y-55900000D03*
X60000000Y-35000000D03*
X60000000Y-55000000D03*
X63150000Y-56100000D03*
X64000000Y-18990000D03*
X65000000Y-8830000D03*
X65000000Y-42000000D03*
X66000000Y-15180000D03*
X67000000Y-7560000D03*
X67750000Y-3750000D03*
X70000000Y-5000000D03*
X75000000Y-15000000D03*
X75000000Y-25000000D03*
X75000000Y-40000000D03*
X75000000Y-55000000D03*
D12*
X5000000Y-42000000D03*
X5000000Y-44500000D03*
X8000000Y-15000000D03*
X8000000Y-18500000D03*
X8000000Y-30500000D03*
X8000000Y-43000000D03*
X8000000Y-46000000D03*
X8000000Y-56050000D03*
X10000000Y-45000000D03*
X10000000Y-49000000D03*
X13000000Y-15000000D03*
X13000000Y-17000000D03*
X20850000Y-14300000D03*
X23950000Y-53050000D03*
X24850000Y-12300000D03*
X30049999Y-16000000D03*
D13*
%TO.C,J1*%
X1445000Y-25680000D02*
X345000Y-25680000D01*
X1445000Y-34320000D02*
X345000Y-34320000D01*
X5475000Y-25680000D02*
X4675000Y-25680000D01*
X5475000Y-34320000D02*
X4675000Y-34320000D01*
D14*
%TO.C,K1*%
X23950000Y-44050000D03*
X23950000Y-56050000D03*
D15*
%TO.C,D1*%
X29000000Y-55000000D03*
X39160000Y-55000000D03*
D16*
%TO.C,J2*%
X72000000Y-52000000D03*
X75810000Y-52000000D03*
D17*
%TO.C,K1*%
X22000000Y-50000000D03*
X36150000Y-56050000D03*
X36200000Y-44000000D03*
M02*
