M48
; DRILL file {KiCad 9.0.7} date 2026-08-03T20:11:31-0500
; FORMAT={-:-/ absolute / metric / decimal}
; #@! TF.CreationDate,2026-08-03T20:11:31-05:00
; #@! TF.GenerationSoftware,Kicad,Pcbnew,9.0.7
; #@! TF.FileFunction,MixedPlating,1,2
FMAT,2
METRIC
; #@! TA.AperFunction,Plated,PTH,ViaDrill
T1C0.200
; #@! TA.AperFunction,Plated,PTH,ComponentDrill
T2C0.200
; #@! TA.AperFunction,Plated,PTH,ViaDrill
T3C0.300
; #@! TA.AperFunction,Plated,PTH,ViaDrill
T4C0.400
; #@! TA.AperFunction,Plated,PTH,ComponentDrill
T5C0.600
; #@! TA.AperFunction,Plated,PTH,ComponentDrill
T6C1.000
; #@! TA.AperFunction,Plated,PTH,ComponentDrill
T7C1.100
; #@! TA.AperFunction,Plated,PTH,ComponentDrill
T8C1.200
; #@! TA.AperFunction,Plated,PTH,ComponentDrill
T9C1.300
; #@! TA.AperFunction,NonPlated,NPTH,ComponentDrill
T10C0.650
; #@! TA.AperFunction,NonPlated,NPTH,ComponentDrill
T11C2.700
%
G90
G05
T1
X0.7Y-27.6
X0.7Y-32.4
X2.0Y-32.0
X2.5Y-29.75
X5.7Y-28.0
X8.8Y-28.0
X12.0Y-28.0
X12.0Y-44.0
T2
X57.795Y-10.327
X57.795Y-11.852
X58.557Y-9.565
X58.557Y-11.09
X58.557Y-12.615
X59.32Y-10.327
X59.32Y-11.852
X60.082Y-9.565
X60.082Y-11.09
X60.082Y-12.615
X60.845Y-10.327
X60.845Y-11.852
T3
X2.5Y-41.0
X3.5Y-30.25
X3.5Y-40.0
X3.8Y-46.0
X5.0Y-10.0
X5.0Y-50.0
X5.062Y-14.0
X5.062Y-51.05
X6.2Y-46.0
X7.0Y-7.0
X8.062Y-6.0
X8.938Y-50.0
X9.0Y-5.0
X9.088Y-7.0
X9.088Y-9.0
X9.5Y-41.0
X11.0Y-28.75
X11.0Y-37.0
X12.0Y-55.0
X14.25Y-43.5
X15.0Y-25.0
X15.0Y-48.0
X16.0Y-32.0
X16.0Y-44.0
X16.5Y-40.5
X17.0Y-38.0
X18.48Y-48.8
X18.95Y-4.0
X20.0Y-20.0
X20.0Y-35.0
X20.0Y-50.0
X20.85Y-5.7
X24.0Y-34.0
X33.95Y-1.8
X33.95Y-6.0
X33.95Y-10.0
X35.0Y-5.0
X35.0Y-20.0
X35.0Y-35.0
X38.0Y-38.0
X40.0Y-36.0
X40.0Y-55.0
X42.0Y-38.0
X43.0Y-13.0
X44.85Y-55.9
X44.95Y-18.0
X45.0Y-10.0
X47.912Y-13.0
X47.95Y-8.0
X50.25Y-3.75
X51.15Y-56.1
X55.0Y-5.0
X55.0Y-30.0
X56.85Y-55.9
X60.0Y-35.0
X60.0Y-55.0
X63.15Y-56.1
X64.0Y-18.99
X65.0Y-8.83
X66.0Y-15.18
X67.0Y-7.56
X67.75Y-3.75
X70.0Y-5.0
X75.0Y-15.0
X75.0Y-25.0
X75.0Y-40.0
X75.0Y-55.0
T4
X5.0Y-42.0
X5.0Y-44.5
X8.0Y-15.0
X8.0Y-18.5
X8.0Y-43.0
X8.0Y-46.0
X10.0Y-45.0
X10.0Y-49.0
X13.0Y-15.0
X13.0Y-17.0
X13.0Y-36.0
X20.85Y-14.3
X23.95Y-53.05
X24.85Y-12.3
X30.05Y-16.0
T6
X23.95Y-44.05
X23.95Y-56.05
T7
X30.0Y-38.0
X40.16Y-38.0
T8
X72.0Y-52.0
X75.81Y-52.0
T9
X22.0Y-50.0
X36.15Y-56.05
X36.2Y-44.0
T10
X5.605Y-27.11
X5.605Y-32.89
T11
X3.0Y-3.0
X3.0Y-57.0
X77.0Y-12.0
X77.0Y-40.0
T5
X2.325Y-25.68G85X1.525Y-25.68
G05
X2.325Y-34.32G85X1.525Y-34.32
G05
X6.655Y-25.68G85X5.555Y-25.68
G05
X6.655Y-34.32G85X5.555Y-34.32
G05
M30
