G04 #@! TF.GenerationSoftware,KiCad,Pcbnew,7.0.9*
G04 #@! TF.CreationDate,2025-08-18T12:00:00-05:00*
G04 #@! TF.ProjectId,ESP32_IoT_Switch,4553503332-5F496F545F5377697463682E,rev?*
G04 #@! TF.SameCoordinates,Original*
G04 #@! TF.FileFunction,Paste,Top*
G04 #@! TF.FilePolarity,Positive*
%FSLAX36Y36*%
G04 Gerber Fmt 3.6, Leading zero omitted, Abs format (unit mm)*
G04 Created by KiCad (PCBNEW 7.0.9) date 2025-08-18 12:00:00*
%MOMM*%
%LPD*%
G01*
G04 APERTURE LIST*
%ADD10R,2.000000X0.900000*%
%ADD11R,0.900000X2.000000*%
%ADD12R,1.020000X1.500000*%
%ADD13R,10.400000X5.840000*%
%ADD14R,2.000000X1.500000*%
%ADD15R,2.000000X3.800000*%
G04 APERTURE END LIST*
G04 SMD PASTE APERTURES*
D10*
X118500000Y96340000D03*
X118500000Y94940000D03*
X118500000Y93540000D03*
X118500000Y92140000D03*
X118500000Y90740000D03*
X118500000Y89340000D03*
X118500000Y87940000D03*
X118500000Y86540000D03*
X118500000Y85140000D03*
D11*
X121285000Y83840000D03*
X122685000Y83840000D03*
X124085000Y83840000D03*
X125485000Y83840000D03*
X126885000Y83840000D03*
X128285000Y83840000D03*
X129685000Y83840000D03*
X131085000Y83840000D03*
X132485000Y83840000D03*
X133885000Y83840000D03*
X135285000Y83840000D03*
D10*
X135500000Y85140000D03*
X135500000Y86540000D03*
X135500000Y87940000D03*
X135500000Y89340000D03*
X135500000Y90740000D03*
X135500000Y92140000D03*
X135500000Y93540000D03*
X135500000Y94940000D03*
X135500000Y96340000D03*
D11*
X133885000Y119360000D03*
X132485000Y119360000D03*
X131085000Y119360000D03*
X129685000Y119360000D03*
X128285000Y119360000D03*
X126885000Y119360000D03*
X125485000Y119360000D03*
X124085000Y119360000D03*
X122685000Y119360000D03*
X121285000Y119360000D03*
D12*
X63960000Y85400000D03*
X65230000Y85400000D03*
X67770000Y85400000D03*
X68230000Y85400000D03*
D13*
X76200000Y92400000D03*
D14*
X67050000Y109460000D03*
X67050000Y111760000D03*
X67050000Y114060000D03*
D15*
X83350000Y111760000D03*
M02*