G04 #@! TF.GenerationSoftware,KiCad,Pcbnew,7.0.9*
G04 #@! TF.CreationDate,2025-08-18T12:00:00-05:00*
G04 #@! TF.ProjectId,ESP32_IoT_Switch,4553503332-5F496F545F5377697463682E,rev?*
G04 #@! TF.SameCoordinates,Original*
G04 #@! TF.FileFunction,Copper,L1,Top*
G04 #@! TF.FilePolarity,Positive*
%FSLAX36Y36*%
G04 Gerber Fmt 3.6, Leading zero omitted, Abs format (unit mm)*
G04 Created by KiCad (PCBNEW 7.0.9) date 2025-08-18 12:00:00*
%MOMM*%
%LPD*%
G01*
G04 APERTURE LIST*
%ADD10R,2.000000X0.900000*%
%ADD11R,0.900000X2.000000*%
%ADD12R,1.020000X1.500000*%
%ADD13R,10.400000X5.840000*%
%ADD14R,2.000000X1.500000*%
%ADD15R,2.000000X3.800000*%
%ADD16R,1.905000X2.000000*%
%ADD17O,1.905000X2.000000*%
%ADD18R,1.600000X1.600000*%
%ADD19C,1.600000*%
%ADD20C,1.000000*%
%ADD21C,0.800000*%
%ADD22C,0.500000*%
G04 APERTURE END LIST*
G04 FOOTPRINT U1 START*
D10*
X118500000Y96340000D03*
X118500000Y94940000D03*
X118500000Y93540000D03*
X118500000Y92140000D03*
X118500000Y90740000D03*
X118500000Y89340000D03*
X118500000Y87940000D03*
X118500000Y86540000D03*
X118500000Y85140000D03*
D11*
X121285000Y83840000D03*
X122685000Y83840000D03*
X124085000Y83840000D03*
X125485000Y83840000D03*
X126885000Y83840000D03*
X128285000Y83840000D03*
X129685000Y83840000D03*
X131085000Y83840000D03*
X132485000Y83840000D03*
X133885000Y83840000D03*
X135285000Y83840000D03*
D10*
X135500000Y85140000D03*
X135500000Y86540000D03*
X135500000Y87940000D03*
X135500000Y89340000D03*
X135500000Y90740000D03*
X135500000Y92140000D03*
X135500000Y93540000D03*
X135500000Y94940000D03*
X135500000Y96340000D03*
D11*
X133885000Y119360000D03*
X132485000Y119360000D03*
X131085000Y119360000D03*
X129685000Y119360000D03*
X128285000Y119360000D03*
X126885000Y119360000D03*
X125485000Y119360000D03*
X124085000Y119360000D03*
X122685000Y119360000D03*
X121285000Y119360000D03*
G04 FOOTPRINT U1 END*
G04 FOOTPRINT U2 START*
D12*
X63960000Y85400000D03*
X65230000Y85400000D03*
X67770000Y85400000D03*
X68230000Y85400000D03*
D13*
X76200000Y92400000D03*
G04 FOOTPRINT U2 END*
G04 FOOTPRINT U3 START*
D14*
X67050000Y109460000D03*
X67050000Y111760000D03*
X67050000Y114060000D03*
D15*
X83350000Y111760000D03*
G04 FOOTPRINT U3 END*
G04 FOOTPRINT Q1 START*
D16*
X190500000Y119380000D03*
D17*
X193040000Y119380000D03*
X195580000Y119380000D03*
G04 FOOTPRINT Q1 END*
G04 FOOTPRINT K1 START*
D18*
X213360000Y101600000D03*
D19*
X213360000Y96520000D03*
X223520000Y101600000D03*
X213360000Y106680000D03*
X223520000Y106680000D03*
G04 FOOTPRINT K1 END*
G04 POWER TRACES*
D20*
X63500000Y91440000D02*
X88900000Y91440000D01*
X88900000Y91440000D02*
X118110000Y91440000D01*
X118110000Y95740000D02*
X127000000Y95740000D01*
X127000000Y120650000D02*
X127000000Y106420000D01*
X76200000Y96520000D02*
X76200000Y95250000D01*
G04 SIGNAL TRACES*
D21*
X142240000Y100540000D02*
X185420000Y119380000D01*
D20*
X195580000Y119380000D02*
X213360000Y101600000D01*
M02*