%TF.GenerationSoftware,KiCad,Pcbnew,7.0.11+dfsg-1build4*%
%TF.CreationDate,2026-05-06T20:20:40+00:00*%
%TF.ProjectId,ESP32_IoT_Switch,45535033-325f-4496-9f54-5f5377697463,rev?*%
%TF.SameCoordinates,Original*%
%TF.FileFunction,Copper,L1,Top*%
%TF.FilePolarity,Positive*%
%FSLAX46Y46*%
G04 Gerber Fmt 4.6, Leading zero omitted, Abs format (unit mm)*
G04 Created by KiCad (PCBNEW 7.0.11+dfsg-1build4) date 2026-05-06 20:20:40*
%MOMM*%
%LPD*%
G01*
G04 APERTURE LIST*
%TA.AperFunction,SMDPad,CuDef*%
%ADD10R,2.000000X0.900000*%
%TD*%
%TA.AperFunction,SMDPad,CuDef*%
%ADD11R,0.900000X2.000000*%
%TD*%
%TA.AperFunction,SMDPad,CuDef*%
%ADD12R,1.020000X1.500000*%
%TD*%
%TA.AperFunction,SMDPad,CuDef*%
%ADD13R,10.400000X5.840000*%
%TD*%
%TA.AperFunction,SMDPad,CuDef*%
%ADD14R,2.000000X1.500000*%
%TD*%
%TA.AperFunction,SMDPad,CuDef*%
%ADD15R,2.000000X3.800000*%
%TD*%
%TA.AperFunction,ComponentPad*%
%ADD16R,1.905000X2.000000*%
%TD*%
%TA.AperFunction,ComponentPad*%
%ADD17O,1.905000X2.000000*%
%TD*%
%TA.AperFunction,ComponentPad*%
%ADD18R,1.600000X1.600000*%
%TD*%
%TA.AperFunction,ComponentPad*%
%ADD19C,1.600000*%
%TD*%
%TA.AperFunction,Conductor*%
%ADD20C,1.000000*%
%TD*%
%TA.AperFunction,Conductor*%
%ADD21C,0.800000*%
%TD*%
%TA.AperFunction,Conductor*%
%ADD22C,0.500000*%
%TD*%
G04 APERTURE END LIST*
D10*
%TO.P,U1,1,GND*%
%TO.N,GND*%
X118500000Y-96340000D03*
%TO.P,U1,2,VDD*%
%TO.N,+3V3*%
X118500000Y-97740000D03*
%TO.P,U1,3,EN*%
%TO.N,VCC*%
X118500000Y-99140000D03*
%TO.P,U1,4,SENSOR_VP*%
%TO.N,N/C*%
X118500000Y-100540000D03*
%TO.P,U1,5,SENSOR_VN*%
X118500000Y-101940000D03*
%TO.P,U1,6,IO34*%
X118500000Y-103340000D03*
%TO.P,U1,7,IO35*%
X118500000Y-104740000D03*
%TO.P,U1,8,IO32*%
X118500000Y-106140000D03*
%TO.P,U1,9,IO33*%
X118500000Y-107540000D03*
D11*
%TO.P,U1,10,IO25*%
X121285000Y-109160000D03*
%TO.P,U1,11,IO26*%
X122685000Y-109160000D03*
%TO.P,U1,12,IO27*%
X124085000Y-109160000D03*
%TO.P,U1,13,IO14*%
X125485000Y-109160000D03*
%TO.P,U1,14,IO12*%
X126885000Y-109160000D03*
%TO.P,U1,15,GND*%
%TO.N,GND*%
X128285000Y-109160000D03*
%TO.P,U1,16,IO13*%
%TO.N,N/C*%
X129685000Y-109160000D03*
%TO.P,U1,17,SHD/SD2*%
X131085000Y-109160000D03*
%TO.P,U1,18,SWP/SD3*%
X132485000Y-109160000D03*
D10*
%TO.P,U1,19,SCS/CMD*%
X135500000Y-107540000D03*
%TO.P,U1,20,SCK/CLK*%
X135500000Y-106140000D03*
%TO.P,U1,21,SDO/SD0*%
X135500000Y-104740000D03*
%TO.P,U1,22,SDI/SD1*%
X135500000Y-103340000D03*
%TO.P,U1,23,IO15*%
X135500000Y-101940000D03*
%TO.P,U1,24,IO2*%
%TO.N,Net-(U1-IO2)*%
X135500000Y-100540000D03*
%TO.P,U1,25,IO0*%
%TO.N,N/C*%
X135500000Y-99140000D03*
%TO.P,U1,26,IO4*%
%TO.N,Net-(U1-IO4)*%
X135500000Y-97740000D03*
%TO.P,U1,27,IO16*%
%TO.N,N/C*%
X135500000Y-96340000D03*
D11*
%TO.P,U1,28,IO17*%
X132485000Y-90040000D03*
%TO.P,U1,29,IO5*%
%TO.N,Net-(Q1-G)*%
X131085000Y-90040000D03*
%TO.P,U1,30,IO18*%
%TO.N,N/C*%
X129685000Y-90040000D03*
%TO.P,U1,31,IO19*%
X128285000Y-90040000D03*
%TO.P,U1,32,IO21*%
X126885000Y-90040000D03*
%TO.P,U1,33,RXD0*%
%TO.N,VCC*%
X125485000Y-90040000D03*
%TO.P,U1,34,TXD0*%
X124085000Y-90040000D03*
%TO.P,U1,35,IO22*%
%TO.N,N/C*%
X122685000Y-90040000D03*
%TO.P,U1,36,IO23*%
X121285000Y-90040000D03*
%TD*%
D12*
%TO.P,U2,1,VIN*%
%TO.N,+12V*%
X73660000Y-85400000D03*
%TO.P,U2,2,OUT*%
%TO.N,+3V3*%
X74930000Y-85400000D03*
D13*
%TO.P,U2,3,GND*%
%TO.N,GND*%
X76200000Y-92400000D03*
D12*
%TO.P,U2,4,FB*%
%TO.N,Net-(D1-K)*%
X77470000Y-85400000D03*
%TO.P,U2,5,~{ON}/OFF*%
%TO.N,+12V*%
X78740000Y-85400000D03*
%TD*%
D14*
%TO.P,U3,1,ADJ/GND*%
%TO.N,GND*%
X73050000Y-109460000D03*
%TO.P,U3,2,VO*%
%TO.N,+5V*%
X73050000Y-111760000D03*
D15*
X79350000Y-111760000D03*
D14*
%TO.P,U3,3,VI*%
%TO.N,+3V3*%
X73050000Y-114060000D03*
%TD*%
D16*
%TO.P,Q1,1,G*%
%TO.N,Net-(Q1-G)*%
X190500000Y-119380000D03*
D17*
%TO.P,Q1,2,S*%
%TO.N,GND*%
X193040000Y-119380000D03*
%TO.P,Q1,3,D*%
%TO.N,Net-(K1-Pad1)*%
X195580000Y-119380000D03*
%TD*%
D18*
%TO.P,K1,1*%
%TO.N,Net-(K1-Pad1)*%
X213360000Y-101600000D03*
D19*
%TO.P,K1,2*%
%TO.N,+5V*%
X213360000Y-96520000D03*
%TO.P,K1,4*%
%TO.N,Net-(K1-Pad4)*%
X223520000Y-101600000D03*
%TO.P,K1,5*%
%TO.N,GND*%
X213360000Y-106680000D03*
%TO.P,K1,8*%
%TO.N,Net-(K1-Pad8)*%
X223520000Y-106680000D03*
%TD*%
D20*
%TO.N,GND*%
X63500000Y-91440000D02*
X88900000Y-91440000D01*
X88900000Y-91440000D02*
X118110000Y-91440000D01*
D21*
X118110000Y-95740000D02*
X127000000Y-95740000D01*
X127000000Y-120650000D02*
X127000000Y-106420000D01*
X76200000Y-96520000D02*
X76200000Y-95250000D01*
D22*
%TO.N,Net-(Q1-G)*%
X142240000Y-100540000D02*
X185420000Y-119380000D01*
D20*
%TO.N,Net-(K1-Pad1)*%
X195580000Y-119380000D02*
X213360000Y-101600000D01*
%TD*%
M02*
