%TF.GenerationSoftware,KiCad,Pcbnew,7.0.11+dfsg-1build4*%
%TF.CreationDate,2026-05-06T20:20:40+00:00*%
%TF.ProjectId,ESP32_IoT_Switch,45535033-325f-4496-9f54-5f5377697463,rev?*%
%TF.SameCoordinates,Original*%
%TF.FileFunction,Soldermask,Top*%
%TF.FilePolarity,Negative*%
%FSLAX46Y46*%
G04 Gerber Fmt 4.6, Leading zero omitted, Abs format (unit mm)*
G04 Created by KiCad (PCBNEW 7.0.11+dfsg-1build4) date 2026-05-06 20:20:40*
%MOMM*%
%LPD*%
G01*
G04 APERTURE LIST*
%ADD10R,2.000000X0.900000*%
%ADD11R,0.900000X2.000000*%
%ADD12R,1.020000X1.500000*%
%ADD13R,10.400000X5.840000*%
%ADD14R,2.000000X1.500000*%
%ADD15R,2.000000X3.800000*%
%ADD16R,1.905000X2.000000*%
%ADD17O,1.905000X2.000000*%
%ADD18R,1.600000X1.600000*%
%ADD19C,1.600000*%
G04 APERTURE END LIST*
D10*
%TO.C,U1*%
X118500000Y-96340000D03*
X118500000Y-97740000D03*
X118500000Y-99140000D03*
X118500000Y-100540000D03*
X118500000Y-101940000D03*
X118500000Y-103340000D03*
X118500000Y-104740000D03*
X118500000Y-106140000D03*
X118500000Y-107540000D03*
D11*
X121285000Y-109160000D03*
X122685000Y-109160000D03*
X124085000Y-109160000D03*
X125485000Y-109160000D03*
X126885000Y-109160000D03*
X128285000Y-109160000D03*
X129685000Y-109160000D03*
X131085000Y-109160000D03*
X132485000Y-109160000D03*
D10*
X135500000Y-107540000D03*
X135500000Y-106140000D03*
X135500000Y-104740000D03*
X135500000Y-103340000D03*
X135500000Y-101940000D03*
X135500000Y-100540000D03*
X135500000Y-99140000D03*
X135500000Y-97740000D03*
X135500000Y-96340000D03*
D11*
X132485000Y-90040000D03*
X131085000Y-90040000D03*
X129685000Y-90040000D03*
X128285000Y-90040000D03*
X126885000Y-90040000D03*
X125485000Y-90040000D03*
X124085000Y-90040000D03*
X122685000Y-90040000D03*
X121285000Y-90040000D03*
%TD*%
D12*
%TO.C,U2*%
X73660000Y-85400000D03*
X74930000Y-85400000D03*
D13*
X76200000Y-92400000D03*
D12*
X77470000Y-85400000D03*
X78740000Y-85400000D03*
%TD*%
D14*
%TO.C,U3*%
X73050000Y-109460000D03*
X73050000Y-111760000D03*
D15*
X79350000Y-111760000D03*
D14*
X73050000Y-114060000D03*
%TD*%
D16*
%TO.C,Q1*%
X190500000Y-119380000D03*
D17*
X193040000Y-119380000D03*
X195580000Y-119380000D03*
%TD*%
D18*
%TO.C,K1*%
X213360000Y-101600000D03*
D19*
X213360000Y-96520000D03*
X223520000Y-101600000D03*
X213360000Y-106680000D03*
X223520000Y-106680000D03*
%TD*%
M02*
